<svg width="270" height="270" viewBox="0 0 270 270" fill="none" xmlns="http://www.w3.org/2000/svg">
<path d="M30 30H95V95H30V30Z" fill="#F7DF1E"/>
<path d="M47.0909 84.3188L52.0651 81.3084C53.0247 83.0099 53.8977 84.4495 55.9916 84.4495C57.9988 84.4495 59.2642 83.6643 59.2642 80.6104V59.8413H65.3726V80.6967C65.3726 87.0234 61.6641 89.9031 56.2535 89.9031C51.367 89.9031 48.5306 87.3723 47.0908 84.3183" fill="black"/>
<path d="M68.6905 83.6641L73.6641 80.7844C74.9734 82.9226 76.6751 84.4932 79.6855 84.4932C82.2165 84.4932 83.8304 83.2278 83.8304 81.4825C83.8304 79.3881 82.1725 78.6463 79.38 77.425L77.8533 76.7701C73.4462 74.8943 70.5228 72.5382 70.5228 67.564C70.5228 62.9826 74.0133 59.4919 79.4675 59.4919C83.3508 59.4919 86.1432 60.8447 88.1501 64.3789L83.3941 67.433C82.3469 65.557 81.2128 64.8153 79.4676 64.8153C77.6787 64.8153 76.5441 65.9497 76.5441 67.433C76.5441 69.2656 77.6787 70.0075 80.2963 71.142L81.8233 71.7964C87.0155 74.0218 89.939 76.2904 89.939 81.3952C89.939 86.8932 85.6195 89.9035 79.8165 89.9035C74.1444 89.9035 70.4792 87.1984 68.6906 83.6641" fill="black"/>
<rect x="0.5" y="0.5" width="269" height="269" stroke="black"/>
<path d="M31.784 156.26C31.384 156.26 31.02 156.308 30.692 156.404C30.364 156.492 30.068 156.596 29.804 156.716L29.36 155.816C29.688 155.656 30.064 155.532 30.488 155.444C30.912 155.356 31.348 155.312 31.796 155.312C32.716 155.312 33.472 155.496 34.064 155.864C34.664 156.232 35.112 156.74 35.408 157.388C35.704 158.028 35.852 158.756 35.852 159.572C35.852 160.508 35.7 161.316 35.396 161.996C35.092 162.676 34.632 163.2 34.016 163.568C33.408 163.936 32.64 164.12 31.712 164.12C31.216 164.12 30.796 164.092 30.452 164.036C30.108 163.98 29.768 163.892 29.432 163.772V162.836C29.768 162.924 30.108 163.004 30.452 163.076C30.796 163.14 31.16 163.172 31.544 163.172C32.576 163.172 33.352 162.9 33.872 162.356C34.4 161.804 34.68 161.016 34.712 159.992H30.548V159.044H34.7C34.62 158.164 34.32 157.48 33.8 156.992C33.288 156.504 32.616 156.26 31.784 156.26ZM42.0538 158.456H39.9538V164H38.9098V158.456H36.8338V157.568H42.0538V158.456ZM48.7956 160.772C48.7956 161.836 48.5236 162.66 47.9796 163.244C47.4436 163.828 46.7156 164.12 45.7956 164.12C45.2276 164.12 44.7196 163.992 44.2716 163.736C43.8316 163.472 43.4836 163.092 43.2276 162.596C42.9716 162.092 42.8436 161.484 42.8436 160.772C42.8436 159.708 43.1116 158.888 43.6476 158.312C44.1836 157.736 44.9116 157.448 45.8316 157.448C46.4156 157.448 46.9276 157.58 47.3676 157.844C47.8156 158.1 48.1636 158.476 48.4116 158.972C48.6676 159.46 48.7956 160.06 48.7956 160.772ZM43.9356 160.772C43.9356 161.532 44.0836 162.136 44.3796 162.584C44.6836 163.024 45.1636 163.244 45.8196 163.244C46.4676 163.244 46.9436 163.024 47.2476 162.584C47.5516 162.136 47.7036 161.532 47.7036 160.772C47.7036 160.012 47.5516 159.416 47.2476 158.984C46.9436 158.552 46.4636 158.336 45.8076 158.336C45.1516 158.336 44.6756 158.552 44.3796 158.984C44.0836 159.416 43.9356 160.012 43.9356 160.772ZM54.792 158.456H52.692V164H51.648V158.456H49.572V157.568H54.792V158.456ZM59.5723 164H58.3483L60.1843 161.3C59.9363 161.236 59.6963 161.136 59.4643 161C59.2323 160.856 59.0443 160.66 58.9003 160.412C58.7563 160.156 58.6843 159.84 58.6843 159.464C58.6843 158.848 58.8923 158.38 59.3083 158.06C59.7243 157.732 60.2763 157.568 60.9643 157.568H63.8443V164H62.7883V161.444H61.2283L59.5723 164ZM59.7043 159.476C59.7043 159.844 59.8403 160.12 60.1123 160.304C60.3923 160.48 60.7803 160.568 61.2763 160.568H62.7883V158.444H61.0723C60.5843 158.444 60.2323 158.54 60.0163 158.732C59.8083 158.924 59.7043 159.172 59.7043 159.476ZM67.5714 157.448C68.3074 157.448 68.8914 157.596 69.3234 157.892C69.7634 158.18 69.9834 158.596 69.9834 159.14C69.9834 159.532 69.8754 159.844 69.6594 160.076C69.4434 160.3 69.1474 160.464 68.7714 160.568V160.616C69.0274 160.688 69.2634 160.788 69.4794 160.916C69.6954 161.044 69.8674 161.212 69.9954 161.42C70.1314 161.628 70.1994 161.896 70.1994 162.224C70.1994 162.76 69.9754 163.212 69.5274 163.58C69.0874 163.94 68.3954 164.12 67.4514 164.12C66.9874 164.12 66.5674 164.08 66.1914 164C65.8154 163.928 65.5034 163.828 65.2554 163.7V162.752C65.5274 162.88 65.8474 162.996 66.2154 163.1C66.5914 163.204 66.9994 163.256 67.4394 163.256C67.9194 163.256 68.3234 163.176 68.6514 163.016C68.9874 162.848 69.1554 162.564 69.1554 162.164C69.1554 161.444 68.5434 161.084 67.3194 161.084H66.4554V160.22H67.1514C67.7034 160.22 68.1434 160.148 68.4714 160.004C68.8074 159.852 68.9754 159.596 68.9754 159.236C68.9754 158.932 68.8474 158.704 68.5914 158.552C68.3434 158.4 67.9834 158.324 67.5114 158.324C67.1594 158.324 66.8474 158.36 66.5754 158.432C66.3114 158.496 66.0194 158.596 65.6994 158.732L65.3274 157.892C65.9994 157.596 66.7474 157.448 67.5714 157.448ZM71.7622 164V157.568H72.8182V160.208H74.4862C75.3182 160.208 75.9342 160.36 76.3342 160.664C76.7342 160.968 76.9342 161.424 76.9342 162.032C76.9342 162.632 76.7382 163.112 76.3462 163.472C75.9542 163.824 75.3182 164 74.4382 164H71.7622ZM78.0022 164V157.568H79.0582V164H78.0022ZM72.8182 163.148H74.3422C74.7982 163.148 75.1702 163.072 75.4582 162.92C75.7462 162.76 75.8902 162.484 75.8902 162.092C75.8902 161.7 75.7582 161.436 75.4942 161.3C75.2302 161.156 74.8502 161.084 74.3542 161.084H72.8182V163.148ZM84.906 157.568H86.058L83.31 160.664L86.286 164H85.062L82.158 160.736V164H81.102V157.568H82.158V160.688L84.906 157.568ZM96.0068 157.568V164H94.9508V158.468H91.6268V164H90.5708V157.568H96.0068ZM101.119 157.448C101.911 157.448 102.547 157.724 103.027 158.276C103.515 158.828 103.759 159.66 103.759 160.772C103.759 161.868 103.515 162.7 103.027 163.268C102.547 163.836 101.907 164.12 101.107 164.12C100.611 164.12 100.199 164.028 99.8711 163.844C99.5511 163.652 99.2991 163.432 99.1151 163.184H99.0431C99.0591 163.32 99.0751 163.492 99.0911 163.7C99.1071 163.908 99.1151 164.088 99.1151 164.24V166.88H98.0591V157.568H98.9231L99.0671 158.444H99.1151C99.3071 158.164 99.5591 157.928 99.8711 157.736C100.183 157.544 100.599 157.448 101.119 157.448ZM100.927 158.336C100.271 158.336 99.8071 158.52 99.5351 158.888C99.2711 159.256 99.1311 159.816 99.1151 160.568V160.772C99.1151 161.564 99.2431 162.176 99.4991 162.608C99.7631 163.032 100.247 163.244 100.951 163.244C101.343 163.244 101.663 163.136 101.911 162.92C102.167 162.704 102.355 162.412 102.475 162.044C102.603 161.668 102.667 161.24 102.667 160.76C102.667 160.024 102.523 159.436 102.235 158.996C101.955 158.556 101.519 158.336 100.927 158.336ZM111.034 160.772C111.034 161.836 110.762 162.66 110.218 163.244C109.682 163.828 108.954 164.12 108.034 164.12C107.466 164.12 106.958 163.992 106.51 163.736C106.07 163.472 105.722 163.092 105.466 162.596C105.21 162.092 105.082 161.484 105.082 160.772C105.082 159.708 105.35 158.888 105.886 158.312C106.422 157.736 107.15 157.448 108.07 157.448C108.654 157.448 109.166 157.58 109.606 157.844C110.054 158.1 110.402 158.476 110.65 158.972C110.906 159.46 111.034 160.06 111.034 160.772ZM106.174 160.772C106.174 161.532 106.322 162.136 106.618 162.584C106.922 163.024 107.402 163.244 108.058 163.244C108.706 163.244 109.182 163.024 109.486 162.584C109.79 162.136 109.942 161.532 109.942 160.772C109.942 160.012 109.79 159.416 109.486 158.984C109.182 158.552 108.702 158.336 108.046 158.336C107.39 158.336 106.914 158.552 106.618 158.984C106.322 159.416 106.174 160.012 106.174 160.772ZM116.632 157.568V158.456H113.764V164H112.708V157.568H116.632ZM120.959 157.448C121.751 157.448 122.387 157.724 122.867 158.276C123.355 158.828 123.599 159.66 123.599 160.772C123.599 161.868 123.355 162.7 122.867 163.268C122.387 163.836 121.747 164.12 120.947 164.12C120.451 164.12 120.039 164.028 119.711 163.844C119.391 163.652 119.139 163.432 118.955 163.184H118.883C118.899 163.32 118.915 163.492 118.931 163.7C118.947 163.908 118.955 164.088 118.955 164.24V166.88H117.899V157.568H118.763L118.907 158.444H118.955C119.147 158.164 119.399 157.928 119.711 157.736C120.023 157.544 120.439 157.448 120.959 157.448ZM120.767 158.336C120.111 158.336 119.647 158.52 119.375 158.888C119.111 159.256 118.971 159.816 118.955 160.568V160.772C118.955 161.564 119.083 162.176 119.339 162.608C119.603 163.032 120.087 163.244 120.791 163.244C121.183 163.244 121.503 163.136 121.751 162.92C122.007 162.704 122.195 162.412 122.315 162.044C122.443 161.668 122.507 161.24 122.507 160.76C122.507 160.024 122.363 159.436 122.075 158.996C121.795 158.556 121.359 158.336 120.767 158.336ZM127.718 157.46C128.502 157.46 129.082 157.632 129.458 157.976C129.834 158.32 130.022 158.868 130.022 159.62V164H129.254L129.05 163.088H129.002C128.722 163.44 128.426 163.7 128.114 163.868C127.81 164.036 127.386 164.12 126.842 164.12C126.258 164.12 125.774 163.968 125.39 163.664C125.006 163.352 124.814 162.868 124.814 162.212C124.814 161.572 125.066 161.08 125.57 160.736C126.074 160.384 126.85 160.192 127.898 160.16L128.99 160.124V159.74C128.99 159.204 128.874 158.832 128.642 158.624C128.41 158.416 128.082 158.312 127.658 158.312C127.322 158.312 127.002 158.364 126.698 158.468C126.394 158.564 126.11 158.676 125.846 158.804L125.522 158.012C125.802 157.86 126.134 157.732 126.518 157.628C126.902 157.516 127.302 157.46 127.718 157.46ZM128.978 160.856L128.03 160.892C127.23 160.924 126.674 161.052 126.362 161.276C126.058 161.5 125.906 161.816 125.906 162.224C125.906 162.584 126.014 162.848 126.23 163.016C126.454 163.184 126.738 163.268 127.082 163.268C127.626 163.268 128.078 163.12 128.438 162.824C128.798 162.52 128.978 162.056 128.978 161.432V160.856ZM138.908 157.568V164H137.96V159.896C137.96 159.728 137.964 159.552 137.972 159.368C137.988 159.184 138.004 159.004 138.02 158.828H137.984L135.884 164H134.996L132.956 158.828H132.92C132.944 159.188 132.956 159.556 132.956 159.932V164H132.008V157.568H133.412L135.44 162.74L137.504 157.568H138.908ZM147.861 157.568V164H146.913V159.896C146.913 159.728 146.917 159.552 146.925 159.368C146.941 159.184 146.957 159.004 146.973 158.828H146.937L144.837 164H143.949L141.909 158.828H141.873C141.897 159.188 141.909 159.556 141.909 159.932V164H140.961V157.568H142.365L144.393 162.74L146.457 157.568H147.861ZM150.911 157.568V161.492C150.911 161.588 150.907 161.732 150.899 161.924C150.891 162.116 150.879 162.308 150.863 162.5C150.855 162.692 150.847 162.844 150.839 162.956L154.283 157.568H155.579V164H154.595V160.208C154.595 160.08 154.595 159.912 154.595 159.704C154.603 159.496 154.611 159.292 154.619 159.092C154.627 158.884 154.635 158.728 154.643 158.624L151.223 164H149.915V157.568H150.911ZM160.685 157.448C161.477 157.448 162.113 157.724 162.593 158.276C163.081 158.828 163.325 159.66 163.325 160.772C163.325 161.868 163.081 162.7 162.593 163.268C162.113 163.836 161.473 164.12 160.673 164.12C160.177 164.12 159.765 164.028 159.437 163.844C159.117 163.652 158.865 163.432 158.681 163.184H158.609C158.625 163.32 158.641 163.492 158.657 163.7C158.673 163.908 158.681 164.088 158.681 164.24V166.88H157.625V157.568H158.489L158.633 158.444H158.681C158.873 158.164 159.125 157.928 159.437 157.736C159.749 157.544 160.165 157.448 160.685 157.448ZM160.493 158.336C159.837 158.336 159.373 158.52 159.101 158.888C158.837 159.256 158.697 159.816 158.681 160.568V160.772C158.681 161.564 158.809 162.176 159.065 162.608C159.329 163.032 159.813 163.244 160.517 163.244C160.909 163.244 161.229 163.136 161.477 162.92C161.733 162.704 161.921 162.412 162.041 162.044C162.169 161.668 162.233 161.24 162.233 160.76C162.233 160.024 162.089 159.436 161.801 158.996C161.521 158.556 161.085 158.336 160.493 158.336ZM170.6 160.772C170.6 161.836 170.328 162.66 169.784 163.244C169.248 163.828 168.52 164.12 167.6 164.12C167.032 164.12 166.524 163.992 166.076 163.736C165.636 163.472 165.288 163.092 165.032 162.596C164.776 162.092 164.648 161.484 164.648 160.772C164.648 159.708 164.916 158.888 165.452 158.312C165.988 157.736 166.716 157.448 167.636 157.448C168.22 157.448 168.732 157.58 169.172 157.844C169.62 158.1 169.968 158.476 170.216 158.972C170.472 159.46 170.6 160.06 170.6 160.772ZM165.74 160.772C165.74 161.532 165.888 162.136 166.184 162.584C166.488 163.024 166.968 163.244 167.624 163.244C168.272 163.244 168.748 163.024 169.052 162.584C169.356 162.136 169.508 161.532 169.508 160.772C169.508 160.012 169.356 159.416 169.052 158.984C168.748 158.552 168.268 158.336 167.612 158.336C166.956 158.336 166.48 158.552 166.184 158.984C165.888 159.416 165.74 160.012 165.74 160.772ZM177.446 159.188C177.446 159.588 177.326 159.9 177.086 160.124C176.846 160.348 176.538 160.5 176.162 160.58V160.628C176.562 160.684 176.91 160.828 177.206 161.06C177.502 161.284 177.65 161.636 177.65 162.116C177.65 162.66 177.446 163.112 177.038 163.472C176.638 163.824 175.974 164 175.046 164H172.274V157.568H175.034C175.49 157.568 175.898 157.62 176.258 157.724C176.626 157.82 176.914 157.988 177.122 158.228C177.338 158.46 177.446 158.78 177.446 159.188ZM176.378 159.32C176.378 159.016 176.266 158.796 176.042 158.66C175.826 158.516 175.47 158.444 174.974 158.444H173.33V160.208H174.782C175.846 160.208 176.378 159.912 176.378 159.32ZM176.558 162.116C176.558 161.748 176.418 161.484 176.138 161.324C175.858 161.164 175.446 161.084 174.902 161.084H173.33V163.148H174.926C175.454 163.148 175.858 163.072 176.138 162.92C176.418 162.76 176.558 162.492 176.558 162.116ZM181.624 157.46C182.408 157.46 182.988 157.632 183.364 157.976C183.74 158.32 183.928 158.868 183.928 159.62V164H183.16L182.956 163.088H182.908C182.628 163.44 182.332 163.7 182.02 163.868C181.716 164.036 181.292 164.12 180.748 164.12C180.164 164.12 179.68 163.968 179.296 163.664C178.912 163.352 178.72 162.868 178.72 162.212C178.72 161.572 178.972 161.08 179.476 160.736C179.98 160.384 180.756 160.192 181.804 160.16L182.896 160.124V159.74C182.896 159.204 182.78 158.832 182.548 158.624C182.316 158.416 181.988 158.312 181.564 158.312C181.228 158.312 180.908 158.364 180.604 158.468C180.3 158.564 180.016 158.676 179.752 158.804L179.428 158.012C179.708 157.86 180.04 157.732 180.424 157.628C180.808 157.516 181.208 157.46 181.624 157.46ZM182.884 160.856L181.936 160.892C181.136 160.924 180.58 161.052 180.268 161.276C179.964 161.5 179.812 161.816 179.812 162.224C179.812 162.584 179.92 162.848 180.136 163.016C180.36 163.184 180.644 163.268 180.988 163.268C181.532 163.268 181.984 163.12 182.344 162.824C182.704 162.52 182.884 162.056 182.884 161.432V160.856ZM186.971 157.568V160.244H190.463V157.568H191.519V164H190.463V161.132H186.971V164H185.915V157.568H186.971ZM194.551 157.568V161.492C194.551 161.588 194.547 161.732 194.539 161.924C194.531 162.116 194.519 162.308 194.503 162.5C194.495 162.692 194.487 162.844 194.479 162.956L197.923 157.568H199.219V164H198.235V160.208C198.235 160.08 198.235 159.912 198.235 159.704C198.243 159.496 198.251 159.292 198.259 159.092C198.267 158.884 198.275 158.728 198.283 158.624L194.863 164H193.555V157.568H194.551ZM201.662 164H200.438L202.274 161.3C202.026 161.236 201.786 161.136 201.554 161C201.322 160.856 201.134 160.66 200.99 160.412C200.846 160.156 200.774 159.84 200.774 159.464C200.774 158.848 200.982 158.38 201.398 158.06C201.814 157.732 202.366 157.568 203.054 157.568H205.934V164H204.878V161.444H203.318L201.662 164ZM201.794 159.476C201.794 159.844 201.93 160.12 202.202 160.304C202.482 160.48 202.87 160.568 203.366 160.568H204.878V158.444H203.162C202.674 158.444 202.322 158.54 202.106 158.732C201.898 158.924 201.794 159.172 201.794 159.476ZM35.456 175.568V182H34.4V176.468H31.076V182H30.02V175.568H35.456ZM43.1003 178.772C43.1003 179.836 42.8283 180.66 42.2843 181.244C41.7483 181.828 41.0203 182.12 40.1003 182.12C39.5323 182.12 39.0243 181.992 38.5763 181.736C38.1363 181.472 37.7883 181.092 37.5323 180.596C37.2763 180.092 37.1483 179.484 37.1483 178.772C37.1483 177.708 37.4163 176.888 37.9523 176.312C38.4883 175.736 39.2163 175.448 40.1363 175.448C40.7203 175.448 41.2323 175.58 41.6723 175.844C42.1203 176.1 42.4683 176.476 42.7163 176.972C42.9723 177.46 43.1003 178.06 43.1003 178.772ZM38.2403 178.772C38.2403 179.532 38.3883 180.136 38.6843 180.584C38.9883 181.024 39.4683 181.244 40.1243 181.244C40.7723 181.244 41.2483 181.024 41.5523 180.584C41.8563 180.136 42.0083 179.532 42.0083 178.772C42.0083 178.012 41.8563 177.416 41.5523 176.984C41.2483 176.552 40.7683 176.336 40.1123 176.336C39.4563 176.336 38.9803 176.552 38.6843 176.984C38.3883 177.416 38.2403 178.012 38.2403 178.772ZM46.4659 175.448C47.2019 175.448 47.7859 175.596 48.2179 175.892C48.6579 176.18 48.8779 176.596 48.8779 177.14C48.8779 177.532 48.7699 177.844 48.5539 178.076C48.3379 178.3 48.0419 178.464 47.6659 178.568V178.616C47.9219 178.688 48.1579 178.788 48.3739 178.916C48.5899 179.044 48.7619 179.212 48.8899 179.42C49.0259 179.628 49.0939 179.896 49.0939 180.224C49.0939 180.76 48.8699 181.212 48.4219 181.58C47.9819 181.94 47.2899 182.12 46.3459 182.12C45.8819 182.12 45.4619 182.08 45.0859 182C44.7099 181.928 44.3979 181.828 44.1499 181.7V180.752C44.4219 180.88 44.7419 180.996 45.1099 181.1C45.4859 181.204 45.8939 181.256 46.3339 181.256C46.8139 181.256 47.2179 181.176 47.5459 181.016C47.8819 180.848 48.0499 180.564 48.0499 180.164C48.0499 179.444 47.4379 179.084 46.2139 179.084H45.3499V178.22H46.0459C46.5979 178.22 47.0379 178.148 47.3659 178.004C47.7019 177.852 47.8699 177.596 47.8699 177.236C47.8699 176.932 47.7419 176.704 47.4859 176.552C47.2379 176.4 46.8779 176.324 46.4059 176.324C46.0539 176.324 45.7419 176.36 45.4699 176.432C45.2059 176.496 44.9139 176.596 44.5939 176.732L44.2219 175.892C44.8939 175.596 45.6419 175.448 46.4659 175.448ZM55.8287 177.188C55.8287 177.588 55.7087 177.9 55.4687 178.124C55.2287 178.348 54.9207 178.5 54.5447 178.58V178.628C54.9447 178.684 55.2927 178.828 55.5887 179.06C55.8847 179.284 56.0327 179.636 56.0327 180.116C56.0327 180.66 55.8287 181.112 55.4207 181.472C55.0207 181.824 54.3567 182 53.4287 182H50.6567V175.568H53.4167C53.8727 175.568 54.2807 175.62 54.6407 175.724C55.0087 175.82 55.2967 175.988 55.5047 176.228C55.7207 176.46 55.8287 176.78 55.8287 177.188ZM54.7607 177.32C54.7607 177.016 54.6487 176.796 54.4247 176.66C54.2087 176.516 53.8527 176.444 53.3567 176.444H51.7127V178.208H53.1647C54.2287 178.208 54.7607 177.912 54.7607 177.32ZM54.9407 180.116C54.9407 179.748 54.8007 179.484 54.5207 179.324C54.2407 179.164 53.8287 179.084 53.2847 179.084H51.7127V181.148H53.3087C53.8367 181.148 54.2407 181.072 54.5207 180.92C54.8007 180.76 54.9407 180.492 54.9407 180.116ZM63.1628 178.772C63.1628 179.836 62.8908 180.66 62.3468 181.244C61.8108 181.828 61.0828 182.12 60.1628 182.12C59.5948 182.12 59.0868 181.992 58.6388 181.736C58.1988 181.472 57.8508 181.092 57.5948 180.596C57.3388 180.092 57.2108 179.484 57.2108 178.772C57.2108 177.708 57.4788 176.888 58.0148 176.312C58.5508 175.736 59.2788 175.448 60.1988 175.448C60.7828 175.448 61.2948 175.58 61.7348 175.844C62.1828 176.1 62.5308 176.476 62.7788 176.972C63.0348 177.46 63.1628 178.06 63.1628 178.772ZM58.3028 178.772C58.3028 179.532 58.4508 180.136 58.7468 180.584C59.0508 181.024 59.5308 181.244 60.1868 181.244C60.8348 181.244 61.3108 181.024 61.6148 180.584C61.9188 180.136 62.0708 179.532 62.0708 178.772C62.0708 178.012 61.9188 177.416 61.6148 176.984C61.3108 176.552 60.8308 176.336 60.1748 176.336C59.5188 176.336 59.0428 176.552 58.7468 176.984C58.4508 177.416 58.3028 178.012 58.3028 178.772ZM69.7324 182H68.6644V176.444H66.7684C66.6644 177.796 66.5204 178.888 66.3364 179.72C66.1524 180.544 65.9084 181.144 65.6044 181.52C65.3004 181.896 64.9164 182.084 64.4524 182.084C64.3484 182.084 64.2444 182.076 64.1404 182.06C64.0444 182.052 63.9644 182.032 63.9004 182V181.208C63.9484 181.224 64.0004 181.236 64.0564 181.244C64.1124 181.252 64.1684 181.256 64.2244 181.256C64.6564 181.256 65.0004 180.796 65.2564 179.876C65.5204 178.956 65.7204 177.52 65.8564 175.568H69.7324V182ZM72.1699 182H70.9459L72.7819 179.3C72.5339 179.236 72.2939 179.136 72.0619 179C71.8299 178.856 71.6419 178.66 71.4979 178.412C71.3539 178.156 71.2819 177.84 71.2819 177.464C71.2819 176.848 71.4899 176.38 71.9059 176.06C72.3219 175.732 72.8739 175.568 73.5619 175.568H76.4419V182H75.3859V179.444H73.8259L72.1699 182ZM72.3019 177.476C72.3019 177.844 72.4379 178.12 72.7099 178.304C72.9899 178.48 73.3779 178.568 73.8739 178.568H75.3859V176.444H73.6699C73.1819 176.444 72.8299 176.54 72.6139 176.732C72.4059 176.924 72.3019 177.172 72.3019 177.476ZM80.961 175.448C81.513 175.448 81.985 175.568 82.377 175.808C82.777 176.048 83.081 176.388 83.289 176.828C83.505 177.26 83.613 177.768 83.613 178.352V178.988H79.209C79.225 179.716 79.409 180.272 79.761 180.656C80.121 181.032 80.621 181.22 81.261 181.22C81.669 181.22 82.029 181.184 82.341 181.112C82.661 181.032 82.989 180.92 83.325 180.776V181.7C82.997 181.844 82.673 181.948 82.353 182.012C82.033 182.084 81.653 182.12 81.213 182.12C80.605 182.12 80.065 181.996 79.593 181.748C79.129 181.5 78.765 181.132 78.501 180.644C78.245 180.148 78.117 179.544 78.117 178.832C78.117 178.128 78.233 177.524 78.465 177.02C78.705 176.516 79.037 176.128 79.461 175.856C79.893 175.584 80.393 175.448 80.961 175.448ZM80.949 176.312C80.445 176.312 80.045 176.476 79.749 176.804C79.461 177.124 79.289 177.572 79.233 178.148H82.509C82.501 177.604 82.373 177.164 82.125 176.828C81.877 176.484 81.485 176.312 80.949 176.312ZM89.6905 176.456H87.5905V182H86.5465V176.456H84.4705V175.568H89.6905V176.456ZM99.6667 178.772C99.6667 179.836 99.3947 180.66 98.8507 181.244C98.3147 181.828 97.5867 182.12 96.6667 182.12C96.0987 182.12 95.5907 181.992 95.1427 181.736C94.7027 181.472 94.3547 181.092 94.0987 180.596C93.8427 180.092 93.7147 179.484 93.7147 178.772C93.7147 177.708 93.9827 176.888 94.5187 176.312C95.0547 175.736 95.7827 175.448 96.7027 175.448C97.2867 175.448 97.7987 175.58 98.2387 175.844C98.6867 176.1 99.0347 176.476 99.2827 176.972C99.5387 177.46 99.6667 178.06 99.6667 178.772ZM94.8067 178.772C94.8067 179.532 94.9547 180.136 95.2507 180.584C95.5547 181.024 96.0347 181.244 96.6907 181.244C97.3387 181.244 97.8147 181.024 98.1187 180.584C98.4227 180.136 98.5747 179.532 98.5747 178.772C98.5747 178.012 98.4227 177.416 98.1187 176.984C97.8147 176.552 97.3347 176.336 96.6787 176.336C96.0227 176.336 95.5467 176.552 95.2507 176.984C94.9547 177.416 94.8067 178.012 94.8067 178.772ZM108.822 175.568L106.17 178.688L109.05 182H107.85L105.066 178.736V182H104.082V178.736L101.298 182H100.098L102.978 178.688L100.326 175.568H101.478L104.082 178.688V175.568H105.066V178.688L107.682 175.568H108.822ZM111.102 175.568V179.492C111.102 179.588 111.098 179.732 111.09 179.924C111.082 180.116 111.07 180.308 111.054 180.5C111.046 180.692 111.038 180.844 111.03 180.956L114.474 175.568H115.77V182H114.786V178.208C114.786 178.08 114.786 177.912 114.786 177.704C114.794 177.496 114.802 177.292 114.81 177.092C114.818 176.884 114.826 176.728 114.834 176.624L111.414 182H110.106V175.568H111.102ZM122.989 177.188C122.989 177.588 122.869 177.9 122.629 178.124C122.389 178.348 122.081 178.5 121.705 178.58V178.628C122.105 178.684 122.453 178.828 122.749 179.06C123.045 179.284 123.193 179.636 123.193 180.116C123.193 180.66 122.989 181.112 122.581 181.472C122.181 181.824 121.517 182 120.589 182H117.817V175.568H120.577C121.033 175.568 121.441 175.62 121.801 175.724C122.169 175.82 122.457 175.988 122.665 176.228C122.881 176.46 122.989 176.78 122.989 177.188ZM121.921 177.32C121.921 177.016 121.809 176.796 121.585 176.66C121.369 176.516 121.013 176.444 120.517 176.444H118.873V178.208H120.325C121.389 178.208 121.921 177.912 121.921 177.32ZM122.101 180.116C122.101 179.748 121.961 179.484 121.681 179.324C121.401 179.164 120.989 179.084 120.445 179.084H118.873V181.148H120.469C120.997 181.148 121.401 181.072 121.681 180.92C121.961 180.76 122.101 180.492 122.101 180.116ZM125.727 175.568V179.492C125.727 179.588 125.723 179.732 125.715 179.924C125.707 180.116 125.695 180.308 125.679 180.5C125.671 180.692 125.663 180.844 125.655 180.956L129.099 175.568H130.395V182H129.411V178.208C129.411 178.08 129.411 177.912 129.411 177.704C129.419 177.496 129.427 177.292 129.435 177.092C129.443 176.884 129.451 176.728 129.459 176.624L126.039 182H124.731V175.568H125.727ZM136.882 176.456H134.782V182H133.738V176.456H131.662V175.568H136.882V176.456ZM139.205 178.208H141.113C142.785 178.208 143.621 178.816 143.621 180.032C143.621 180.632 143.417 181.112 143.009 181.472C142.601 181.824 141.953 182 141.065 182H138.149V175.568H139.205V178.208ZM142.565 180.092C142.565 179.7 142.425 179.436 142.145 179.3C141.873 179.156 141.489 179.084 140.993 179.084H139.205V181.148H141.017C141.465 181.148 141.833 181.068 142.121 180.908C142.417 180.748 142.565 180.476 142.565 180.092ZM153.563 177.188C153.563 177.588 153.443 177.9 153.203 178.124C152.963 178.348 152.655 178.5 152.279 178.58V178.628C152.679 178.684 153.027 178.828 153.323 179.06C153.619 179.284 153.767 179.636 153.767 180.116C153.767 180.66 153.563 181.112 153.155 181.472C152.755 181.824 152.091 182 151.163 182H148.391V175.568H151.151C151.607 175.568 152.015 175.62 152.375 175.724C152.743 175.82 153.031 175.988 153.239 176.228C153.455 176.46 153.563 176.78 153.563 177.188ZM152.495 177.32C152.495 177.016 152.383 176.796 152.159 176.66C151.943 176.516 151.587 176.444 151.091 176.444H149.447V178.208H150.899C151.963 178.208 152.495 177.912 152.495 177.32ZM152.675 180.116C152.675 179.748 152.535 179.484 152.255 179.324C151.975 179.164 151.563 179.084 151.019 179.084H149.447V181.148H151.043C151.571 181.148 151.975 181.072 152.255 180.92C152.535 180.76 152.675 180.492 152.675 180.116ZM157.885 182.12C157.317 182.12 156.809 182.004 156.361 181.772C155.921 181.54 155.573 181.18 155.317 180.692C155.069 180.204 154.945 179.58 154.945 178.82C154.945 178.028 155.077 177.384 155.341 176.888C155.605 176.392 155.961 176.028 156.409 175.796C156.865 175.564 157.381 175.448 157.957 175.448C158.285 175.448 158.601 175.484 158.905 175.556C159.209 175.62 159.457 175.7 159.649 175.796L159.325 176.672C159.133 176.6 158.909 176.532 158.653 176.468C158.397 176.404 158.157 176.372 157.933 176.372C156.669 176.372 156.037 177.184 156.037 178.808C156.037 179.584 156.189 180.18 156.493 180.596C156.805 181.004 157.265 181.208 157.873 181.208C158.225 181.208 158.533 181.172 158.797 181.1C159.069 181.028 159.317 180.94 159.541 180.836V181.772C159.325 181.884 159.085 181.968 158.821 182.024C158.565 182.088 158.253 182.12 157.885 182.12ZM163.555 175.448C164.107 175.448 164.579 175.568 164.971 175.808C165.371 176.048 165.675 176.388 165.883 176.828C166.099 177.26 166.207 177.768 166.207 178.352V178.988H161.803C161.819 179.716 162.003 180.272 162.355 180.656C162.715 181.032 163.215 181.22 163.855 181.22C164.263 181.22 164.623 181.184 164.935 181.112C165.255 181.032 165.583 180.92 165.919 180.776V181.7C165.591 181.844 165.267 181.948 164.947 182.012C164.627 182.084 164.247 182.12 163.807 182.12C163.199 182.12 162.659 181.996 162.187 181.748C161.723 181.5 161.359 181.132 161.095 180.644C160.839 180.148 160.711 179.544 160.711 178.832C160.711 178.128 160.827 177.524 161.059 177.02C161.299 176.516 161.631 176.128 162.055 175.856C162.487 175.584 162.987 175.448 163.555 175.448ZM163.543 176.312C163.039 176.312 162.639 176.476 162.343 176.804C162.055 177.124 161.883 177.572 161.827 178.148H165.103C165.095 177.604 164.967 177.164 164.719 176.828C164.471 176.484 164.079 176.312 163.543 176.312ZM171.885 175.568V177.908C171.885 178.644 172.297 179.012 173.121 179.012C173.521 179.012 173.885 178.952 174.213 178.832C174.541 178.704 174.877 178.536 175.221 178.328V175.568H176.277V182H175.221V179.132C174.861 179.364 174.505 179.548 174.153 179.684C173.809 179.812 173.393 179.876 172.905 179.876C172.249 179.876 171.737 179.704 171.369 179.36C171.009 179.016 170.829 178.556 170.829 177.98V175.568H171.885ZM182.761 176.456H180.661V182H179.617V176.456H177.541V175.568H182.761V176.456ZM189.503 178.772C189.503 179.836 189.231 180.66 188.687 181.244C188.151 181.828 187.423 182.12 186.503 182.12C185.935 182.12 185.427 181.992 184.979 181.736C184.539 181.472 184.191 181.092 183.935 180.596C183.679 180.092 183.551 179.484 183.551 178.772C183.551 177.708 183.819 176.888 184.355 176.312C184.891 175.736 185.619 175.448 186.539 175.448C187.123 175.448 187.635 175.58 188.075 175.844C188.523 176.1 188.871 176.476 189.119 176.972C189.375 177.46 189.503 178.06 189.503 178.772ZM184.643 178.772C184.643 179.532 184.791 180.136 185.087 180.584C185.391 181.024 185.871 181.244 186.527 181.244C187.175 181.244 187.651 181.024 187.955 180.584C188.259 180.136 188.411 179.532 188.411 178.772C188.411 178.012 188.259 177.416 187.955 176.984C187.651 176.552 187.171 176.336 186.515 176.336C185.859 176.336 185.383 176.552 185.087 176.984C184.791 177.416 184.643 178.012 184.643 178.772ZM193.285 175.568H194.413L195.805 179.228C195.925 179.548 196.033 179.856 196.129 180.152C196.225 180.44 196.297 180.716 196.345 180.98H196.393C196.441 180.78 196.517 180.52 196.621 180.2C196.725 179.872 196.833 179.544 196.945 179.216L198.253 175.568H199.393L196.621 182.888C196.397 183.496 196.105 183.98 195.745 184.34C195.393 184.7 194.905 184.88 194.281 184.88C194.089 184.88 193.921 184.868 193.777 184.844C193.633 184.828 193.509 184.808 193.405 184.784V183.944C193.493 183.96 193.597 183.976 193.717 183.992C193.845 184.008 193.977 184.016 194.113 184.016C194.481 184.016 194.777 183.912 195.001 183.704C195.233 183.496 195.413 183.22 195.541 182.876L195.877 182.024L193.285 175.568ZM204.335 175.568V176.456H201.467V182H200.411V175.568H204.335ZM211.077 178.772C211.077 179.836 210.805 180.66 210.261 181.244C209.725 181.828 208.997 182.12 208.077 182.12C207.509 182.12 207.001 181.992 206.553 181.736C206.113 181.472 205.765 181.092 205.509 180.596C205.253 180.092 205.125 179.484 205.125 178.772C205.125 177.708 205.393 176.888 205.929 176.312C206.465 175.736 207.193 175.448 208.113 175.448C208.697 175.448 209.209 175.58 209.649 175.844C210.097 176.1 210.445 176.476 210.693 176.972C210.949 177.46 211.077 178.06 211.077 178.772ZM206.217 178.772C206.217 179.532 206.365 180.136 206.661 180.584C206.965 181.024 207.445 181.244 208.101 181.244C208.749 181.244 209.225 181.024 209.529 180.584C209.833 180.136 209.985 179.532 209.985 178.772C209.985 178.012 209.833 177.416 209.529 176.984C209.225 176.552 208.745 176.336 208.089 176.336C207.433 176.336 206.957 176.552 206.661 176.984C206.365 177.416 206.217 178.012 206.217 178.772ZM217.526 175.568V181.112H218.462V184.232H217.442V182H212.966V184.232H211.958V181.112H212.474C213.026 180.352 213.438 179.488 213.71 178.52C213.99 177.544 214.134 176.56 214.142 175.568H217.526ZM216.506 176.396H215.078C215.046 176.94 214.962 177.504 214.826 178.088C214.69 178.664 214.514 179.216 214.298 179.744C214.09 180.272 213.846 180.728 213.566 181.112H216.506V176.396ZM220.779 175.568V178.244H224.271V175.568H225.327V182H224.271V179.132H220.779V182H219.723V175.568H220.779ZM232.956 178.772C232.956 179.836 232.684 180.66 232.14 181.244C231.604 181.828 230.876 182.12 229.956 182.12C229.388 182.12 228.88 181.992 228.432 181.736C227.992 181.472 227.644 181.092 227.388 180.596C227.132 180.092 227.004 179.484 227.004 178.772C227.004 177.708 227.272 176.888 227.808 176.312C228.344 175.736 229.072 175.448 229.992 175.448C230.576 175.448 231.088 175.58 231.528 175.844C231.976 176.1 232.324 176.476 232.572 176.972C232.828 177.46 232.956 178.06 232.956 178.772ZM228.096 178.772C228.096 179.532 228.244 180.136 228.54 180.584C228.844 181.024 229.324 181.244 229.98 181.244C230.628 181.244 231.104 181.024 231.408 180.584C231.712 180.136 231.864 179.532 231.864 178.772C231.864 178.012 231.712 177.416 231.408 176.984C231.104 176.552 230.624 176.336 229.968 176.336C229.312 176.336 228.836 176.552 228.54 176.984C228.244 177.416 228.096 178.012 228.096 178.772ZM235.061 182.084C234.813 182.084 234.605 182 234.437 181.832C234.269 181.664 234.185 181.456 234.185 181.208C234.185 180.96 234.269 180.752 234.437 180.584C234.605 180.416 234.813 180.332 235.061 180.332C235.301 180.332 235.505 180.416 235.673 180.584C235.841 180.752 235.925 180.96 235.925 181.208C235.925 181.456 235.841 181.664 235.673 181.832C235.505 182 235.301 182.084 235.061 182.084ZM235.061 177.044C234.813 177.044 234.605 176.96 234.437 176.792C234.269 176.624 234.185 176.416 234.185 176.168C234.185 175.92 234.269 175.712 234.437 175.544C234.605 175.376 234.813 175.292 235.061 175.292C235.301 175.292 235.505 175.376 235.673 175.544C235.841 175.712 235.925 175.92 235.925 176.168C235.925 176.416 235.841 176.624 235.673 176.792C235.505 176.96 235.301 177.044 235.061 177.044ZM32.6 200.12C32.032 200.12 31.524 200.004 31.076 199.772C30.636 199.54 30.288 199.18 30.032 198.692C29.784 198.204 29.66 197.58 29.66 196.82C29.66 196.028 29.792 195.384 30.056 194.888C30.32 194.392 30.676 194.028 31.124 193.796C31.58 193.564 32.096 193.448 32.672 193.448C33 193.448 33.316 193.484 33.62 193.556C33.924 193.62 34.172 193.7 34.364 193.796L34.04 194.672C33.848 194.6 33.624 194.532 33.368 194.468C33.112 194.404 32.872 194.372 32.648 194.372C31.384 194.372 30.752 195.184 30.752 196.808C30.752 197.584 30.904 198.18 31.208 198.596C31.52 199.004 31.98 199.208 32.588 199.208C32.94 199.208 33.248 199.172 33.512 199.1C33.784 199.028 34.032 198.94 34.256 198.836V199.772C34.04 199.884 33.8 199.968 33.536 200.024C33.28 200.088 32.968 200.12 32.6 200.12ZM40.6816 200H39.6136V194.444H37.7176C37.6136 195.796 37.4696 196.888 37.2856 197.72C37.1016 198.544 36.8576 199.144 36.5536 199.52C36.2496 199.896 35.8656 200.084 35.4016 200.084C35.2976 200.084 35.1936 200.076 35.0896 200.06C34.9936 200.052 34.9136 200.032 34.8496 200V199.208C34.8976 199.224 34.9496 199.236 35.0056 199.244C35.0616 199.252 35.1176 199.256 35.1736 199.256C35.6056 199.256 35.9496 198.796 36.2056 197.876C36.4696 196.956 36.6696 195.52 36.8056 193.568H40.6816V200ZM45.1591 193.46C45.9431 193.46 46.5231 193.632 46.8991 193.976C47.2751 194.32 47.4631 194.868 47.4631 195.62V200H46.6951L46.4911 199.088H46.4431C46.1631 199.44 45.8671 199.7 45.5551 199.868C45.2511 200.036 44.8271 200.12 44.2831 200.12C43.6991 200.12 43.2151 199.968 42.8311 199.664C42.4471 199.352 42.2551 198.868 42.2551 198.212C42.2551 197.572 42.5071 197.08 43.0111 196.736C43.5151 196.384 44.2911 196.192 45.3391 196.16L46.4311 196.124V195.74C46.4311 195.204 46.3151 194.832 46.0831 194.624C45.8511 194.416 45.5231 194.312 45.0991 194.312C44.7631 194.312 44.4431 194.364 44.1391 194.468C43.8351 194.564 43.5511 194.676 43.2871 194.804L42.9631 194.012C43.2431 193.86 43.5751 193.732 43.9591 193.628C44.3431 193.516 44.7431 193.46 45.1591 193.46ZM46.4191 196.856L45.4711 196.892C44.6711 196.924 44.1151 197.052 43.8031 197.276C43.4991 197.5 43.3471 197.816 43.3471 198.224C43.3471 198.584 43.4551 198.848 43.6711 199.016C43.8951 199.184 44.1791 199.268 44.5231 199.268C45.0671 199.268 45.5191 199.12 45.8791 198.824C46.2391 198.52 46.4191 198.056 46.4191 197.432V196.856ZM50.4457 193.568V197.492C50.4457 197.588 50.4417 197.732 50.4337 197.924C50.4257 198.116 50.4137 198.308 50.3977 198.5C50.3897 198.692 50.3817 198.844 50.3737 198.956L53.8177 193.568H55.1137V200H54.1297V196.208C54.1297 196.08 54.1297 195.912 54.1297 195.704C54.1377 195.496 54.1457 195.292 54.1537 195.092C54.1617 194.884 54.1697 194.728 54.1777 194.624L50.7577 200H49.4497V193.568H50.4457ZM54.6577 190.904C54.6017 191.504 54.3977 191.96 54.0457 192.272C53.7017 192.576 53.1497 192.728 52.3897 192.728C51.6057 192.728 51.0497 192.576 50.7217 192.272C50.4017 191.968 50.2217 191.512 50.1817 190.904H51.1657C51.2057 191.336 51.3177 191.628 51.5017 191.78C51.6937 191.924 51.9977 191.996 52.4137 191.996C52.7817 191.996 53.0697 191.92 53.2777 191.768C53.4937 191.608 53.6217 191.32 53.6617 190.904H54.6577ZM61.9366 193.568V199.112H62.8726V202.232H61.8526V200H57.3766V202.232H56.3686V199.112H56.8846C57.4366 198.352 57.8486 197.488 58.1206 196.52C58.4006 195.544 58.5446 194.56 58.5526 193.568H61.9366ZM60.9166 194.396H59.4886C59.4566 194.94 59.3726 195.504 59.2366 196.088C59.1006 196.664 58.9246 197.216 58.7086 197.744C58.5006 198.272 58.2566 198.728 57.9766 199.112H60.9166V194.396ZM66.6173 193.448C67.1693 193.448 67.6413 193.568 68.0333 193.808C68.4333 194.048 68.7373 194.388 68.9453 194.828C69.1613 195.26 69.2693 195.768 69.2693 196.352V196.988H64.8653C64.8813 197.716 65.0653 198.272 65.4173 198.656C65.7773 199.032 66.2773 199.22 66.9173 199.22C67.3253 199.22 67.6853 199.184 67.9973 199.112C68.3173 199.032 68.6453 198.92 68.9813 198.776V199.7C68.6533 199.844 68.3293 199.948 68.0093 200.012C67.6893 200.084 67.3093 200.12 66.8693 200.12C66.2613 200.12 65.7213 199.996 65.2493 199.748C64.7853 199.5 64.4213 199.132 64.1573 198.644C63.9013 198.148 63.7733 197.544 63.7733 196.832C63.7733 196.128 63.8893 195.524 64.1213 195.02C64.3613 194.516 64.6933 194.128 65.1173 193.856C65.5493 193.584 66.0493 193.448 66.6173 193.448ZM66.6053 194.312C66.1013 194.312 65.7013 194.476 65.4053 194.804C65.1173 195.124 64.9453 195.572 64.8893 196.148H68.1653C68.1573 195.604 68.0293 195.164 67.7813 194.828C67.5333 194.484 67.1413 194.312 66.6053 194.312ZM73.9667 193.448C74.7587 193.448 75.3947 193.724 75.8747 194.276C76.3627 194.828 76.6067 195.66 76.6067 196.772C76.6067 197.868 76.3627 198.7 75.8747 199.268C75.3947 199.836 74.7547 200.12 73.9547 200.12C73.4587 200.12 73.0467 200.028 72.7187 199.844C72.3987 199.652 72.1467 199.432 71.9627 199.184H71.8907C71.9067 199.32 71.9227 199.492 71.9387 199.7C71.9547 199.908 71.9627 200.088 71.9627 200.24V202.88H70.9067V193.568H71.7707L71.9147 194.444H71.9627C72.1547 194.164 72.4067 193.928 72.7187 193.736C73.0307 193.544 73.4467 193.448 73.9667 193.448ZM73.7747 194.336C73.1187 194.336 72.6547 194.52 72.3827 194.888C72.1187 195.256 71.9787 195.816 71.9627 196.568V196.772C71.9627 197.564 72.0907 198.176 72.3467 198.608C72.6107 199.032 73.0947 199.244 73.7987 199.244C74.1907 199.244 74.5107 199.136 74.7587 198.92C75.0147 198.704 75.2027 198.412 75.3227 198.044C75.4507 197.668 75.5147 197.24 75.5147 196.76C75.5147 196.024 75.3707 195.436 75.0827 194.996C74.8027 194.556 74.3667 194.336 73.7747 194.336ZM78.2895 200V193.568H79.3455V196.208H81.0135C81.8455 196.208 82.4615 196.36 82.8615 196.664C83.2615 196.968 83.4615 197.424 83.4615 198.032C83.4615 198.632 83.2655 199.112 82.8735 199.472C82.4815 199.824 81.8455 200 80.9655 200H78.2895ZM84.5295 200V193.568H85.5855V200H84.5295ZM79.3455 199.148H80.8695C81.3255 199.148 81.6975 199.072 81.9855 198.92C82.2735 198.76 82.4175 198.484 82.4175 198.092C82.4175 197.7 82.2855 197.436 82.0215 197.3C81.7575 197.156 81.3775 197.084 80.8815 197.084H79.3455V199.148ZM89.0094 198.356L87.5574 201.668H86.6694L87.5214 198.356H89.0094ZM99.0339 196.772C99.0339 197.836 98.7619 198.66 98.2179 199.244C97.6819 199.828 96.9539 200.12 96.0339 200.12C95.4659 200.12 94.9579 199.992 94.5099 199.736C94.0699 199.472 93.7219 199.092 93.4659 198.596C93.2099 198.092 93.0819 197.484 93.0819 196.772C93.0819 195.708 93.3499 194.888 93.8859 194.312C94.4219 193.736 95.1499 193.448 96.0699 193.448C96.6539 193.448 97.1659 193.58 97.6059 193.844C98.0539 194.1 98.4019 194.476 98.6499 194.972C98.9059 195.46 99.0339 196.06 99.0339 196.772ZM94.1739 196.772C94.1739 197.532 94.3219 198.136 94.6179 198.584C94.9219 199.024 95.4019 199.244 96.0579 199.244C96.7059 199.244 97.1819 199.024 97.4859 198.584C97.7899 198.136 97.9419 197.532 97.9419 196.772C97.9419 196.012 97.7899 195.416 97.4859 194.984C97.1819 194.552 96.7019 194.336 96.0459 194.336C95.3899 194.336 94.9139 194.552 94.6179 194.984C94.3219 195.416 94.1739 196.012 94.1739 196.772ZM104.512 193.568H105.664L102.916 196.664L105.892 200H104.668L101.764 196.736V200H100.708V193.568H101.764V196.688L104.512 193.568ZM108.115 193.568V196.244H111.607V193.568H112.663V200H111.607V197.132H108.115V200H107.059V193.568H108.115ZM117.136 193.46C117.92 193.46 118.5 193.632 118.876 193.976C119.252 194.32 119.44 194.868 119.44 195.62V200H118.672L118.468 199.088H118.42C118.14 199.44 117.844 199.7 117.532 199.868C117.228 200.036 116.804 200.12 116.26 200.12C115.676 200.12 115.192 199.968 114.808 199.664C114.424 199.352 114.232 198.868 114.232 198.212C114.232 197.572 114.484 197.08 114.988 196.736C115.492 196.384 116.268 196.192 117.316 196.16L118.408 196.124V195.74C118.408 195.204 118.292 194.832 118.06 194.624C117.828 194.416 117.5 194.312 117.076 194.312C116.74 194.312 116.42 194.364 116.116 194.468C115.812 194.564 115.528 194.676 115.264 194.804L114.94 194.012C115.22 193.86 115.552 193.732 115.936 193.628C116.32 193.516 116.72 193.46 117.136 193.46ZM118.396 196.856L117.448 196.892C116.648 196.924 116.092 197.052 115.78 197.276C115.476 197.5 115.324 197.816 115.324 198.224C115.324 198.584 115.432 198.848 115.648 199.016C115.872 199.184 116.156 199.268 116.5 199.268C117.044 199.268 117.496 199.12 117.856 198.824C118.216 198.52 118.396 198.056 118.396 197.432V196.856ZM122.806 198.356L121.354 201.668H120.466L121.318 198.356H122.806ZM132.675 193.568V200H131.619V194.468H128.295V200H127.239V193.568H132.675ZM140.319 196.772C140.319 197.836 140.047 198.66 139.503 199.244C138.967 199.828 138.239 200.12 137.319 200.12C136.751 200.12 136.243 199.992 135.795 199.736C135.355 199.472 135.007 199.092 134.751 198.596C134.495 198.092 134.367 197.484 134.367 196.772C134.367 195.708 134.635 194.888 135.171 194.312C135.707 193.736 136.435 193.448 137.355 193.448C137.939 193.448 138.451 193.58 138.891 193.844C139.339 194.1 139.687 194.476 139.935 194.972C140.191 195.46 140.319 196.06 140.319 196.772ZM135.459 196.772C135.459 197.532 135.607 198.136 135.903 198.584C136.207 199.024 136.687 199.244 137.343 199.244C137.991 199.244 138.467 199.024 138.771 198.584C139.075 198.136 139.227 197.532 139.227 196.772C139.227 196.012 139.075 195.416 138.771 194.984C138.467 194.552 137.987 194.336 137.331 194.336C136.675 194.336 136.199 194.552 135.903 194.984C135.607 195.416 135.459 196.012 135.459 196.772ZM146.769 193.568V199.112H147.705V202.232H146.685V200H142.209V202.232H141.201V199.112H141.717C142.269 198.352 142.681 197.488 142.953 196.52C143.233 195.544 143.377 194.56 143.385 193.568H146.769ZM145.749 194.396H144.321C144.289 194.94 144.205 195.504 144.069 196.088C143.933 196.664 143.757 197.216 143.541 197.744C143.333 198.272 143.089 198.728 142.809 199.112H145.749V194.396ZM151.545 200.12C150.977 200.12 150.469 200.004 150.021 199.772C149.581 199.54 149.233 199.18 148.977 198.692C148.729 198.204 148.605 197.58 148.605 196.82C148.605 196.028 148.737 195.384 149.001 194.888C149.265 194.392 149.621 194.028 150.069 193.796C150.525 193.564 151.041 193.448 151.617 193.448C151.945 193.448 152.261 193.484 152.565 193.556C152.869 193.62 153.117 193.7 153.309 193.796L152.985 194.672C152.793 194.6 152.569 194.532 152.313 194.468C152.057 194.404 151.817 194.372 151.593 194.372C150.329 194.372 149.697 195.184 149.697 196.808C149.697 197.584 149.849 198.18 150.153 198.596C150.465 199.004 150.925 199.208 151.533 199.208C151.885 199.208 152.193 199.172 152.457 199.1C152.729 199.028 152.977 198.94 153.201 198.836V199.772C152.985 199.884 152.745 199.968 152.481 200.024C152.225 200.088 151.913 200.12 151.545 200.12ZM158.535 193.568H159.687L156.939 196.664L159.915 200H158.691L155.787 196.736V200H154.731V193.568H155.787V196.688L158.535 193.568ZM163.519 193.46C164.303 193.46 164.883 193.632 165.259 193.976C165.635 194.32 165.823 194.868 165.823 195.62V200H165.055L164.851 199.088H164.803C164.523 199.44 164.227 199.7 163.915 199.868C163.611 200.036 163.187 200.12 162.643 200.12C162.059 200.12 161.575 199.968 161.191 199.664C160.807 199.352 160.615 198.868 160.615 198.212C160.615 197.572 160.867 197.08 161.371 196.736C161.875 196.384 162.651 196.192 163.699 196.16L164.791 196.124V195.74C164.791 195.204 164.675 194.832 164.443 194.624C164.211 194.416 163.883 194.312 163.459 194.312C163.123 194.312 162.803 194.364 162.499 194.468C162.195 194.564 161.911 194.676 161.646 194.804L161.323 194.012C161.603 193.86 161.935 193.732 162.319 193.628C162.703 193.516 163.103 193.46 163.519 193.46ZM164.779 196.856L163.831 196.892C163.031 196.924 162.475 197.052 162.163 197.276C161.859 197.5 161.707 197.816 161.707 198.224C161.707 198.584 161.815 198.848 162.031 199.016C162.255 199.184 162.539 199.268 162.883 199.268C163.427 199.268 163.879 199.12 164.239 198.824C164.599 198.52 164.779 198.056 164.779 197.432V196.856ZM169.501 193.448C170.237 193.448 170.821 193.596 171.253 193.892C171.693 194.18 171.913 194.596 171.913 195.14C171.913 195.532 171.805 195.844 171.589 196.076C171.373 196.3 171.077 196.464 170.701 196.568V196.616C170.957 196.688 171.193 196.788 171.409 196.916C171.625 197.044 171.797 197.212 171.925 197.42C172.061 197.628 172.129 197.896 172.129 198.224C172.129 198.76 171.905 199.212 171.457 199.58C171.017 199.94 170.325 200.12 169.381 200.12C168.917 200.12 168.497 200.08 168.121 200C167.745 199.928 167.433 199.828 167.185 199.7V198.752C167.457 198.88 167.777 198.996 168.145 199.1C168.521 199.204 168.929 199.256 169.369 199.256C169.849 199.256 170.253 199.176 170.581 199.016C170.917 198.848 171.085 198.564 171.085 198.164C171.085 197.444 170.473 197.084 169.249 197.084H168.385V196.22H169.081C169.633 196.22 170.073 196.148 170.401 196.004C170.737 195.852 170.905 195.596 170.905 195.236C170.905 194.932 170.777 194.704 170.521 194.552C170.273 194.4 169.913 194.324 169.441 194.324C169.089 194.324 168.777 194.36 168.505 194.432C168.241 194.496 167.949 194.596 167.629 194.732L167.257 193.892C167.929 193.596 168.677 193.448 169.501 193.448ZM177.496 193.568H178.648L175.9 196.664L178.876 200H177.652L174.748 196.736V200H173.692V193.568H174.748V196.688L177.496 193.568ZM181.039 193.568V197.492C181.039 197.588 181.035 197.732 181.027 197.924C181.019 198.116 181.007 198.308 180.991 198.5C180.983 198.692 180.975 198.844 180.967 198.956L184.411 193.568H185.707V200H184.723V196.208C184.723 196.08 184.723 195.912 184.723 195.704C184.731 195.496 184.739 195.292 184.747 195.092C184.755 194.884 184.763 194.728 184.771 194.624L181.351 200H180.043V193.568H181.039ZM189.134 198.356L187.682 201.668H186.794L187.646 198.356H189.134ZM35.192 213.188C35.192 213.588 35.072 213.9 34.832 214.124C34.592 214.348 34.284 214.5 33.908 214.58V214.628C34.308 214.684 34.656 214.828 34.952 215.06C35.248 215.284 35.396 215.636 35.396 216.116C35.396 216.66 35.192 217.112 34.784 217.472C34.384 217.824 33.72 218 32.792 218H30.02V211.568H32.78C33.236 211.568 33.644 211.62 34.004 211.724C34.372 211.82 34.66 211.988 34.868 212.228C35.084 212.46 35.192 212.78 35.192 213.188ZM34.124 213.32C34.124 213.016 34.012 212.796 33.788 212.66C33.572 212.516 33.216 212.444 32.72 212.444H31.076V214.208H32.528C33.592 214.208 34.124 213.912 34.124 213.32ZM34.304 216.116C34.304 215.748 34.164 215.484 33.884 215.324C33.604 215.164 33.192 215.084 32.648 215.084H31.076V217.148H32.672C33.2 217.148 33.604 217.072 33.884 216.92C34.164 216.76 34.304 216.492 34.304 216.116ZM40.7381 211.568H41.8901L39.1421 214.664L42.1181 218H40.8941L37.9901 214.736V218H36.9341V211.568H37.9901V214.688L40.7381 211.568ZM48.1816 218H47.1136V212.444H45.2176C45.1136 213.796 44.9696 214.888 44.7856 215.72C44.6016 216.544 44.3576 217.144 44.0536 217.52C43.7496 217.896 43.3656 218.084 42.9016 218.084C42.7976 218.084 42.6936 218.076 42.5896 218.06C42.4936 218.052 42.4136 218.032 42.3496 218V217.208C42.3976 217.224 42.4496 217.236 42.5056 217.244C42.5616 217.252 42.6176 217.256 42.6736 217.256C43.1056 217.256 43.4496 216.796 43.7056 215.876C43.9696 214.956 44.1696 213.52 44.3056 211.568H48.1816V218ZM52.6591 211.46C53.4431 211.46 54.0231 211.632 54.3991 211.976C54.7751 212.32 54.9631 212.868 54.9631 213.62V218H54.1951L53.9911 217.088H53.9431C53.6631 217.44 53.3671 217.7 53.0551 217.868C52.7511 218.036 52.3271 218.12 51.7831 218.12C51.1991 218.12 50.7151 217.968 50.3311 217.664C49.9471 217.352 49.7551 216.868 49.7551 216.212C49.7551 215.572 50.0071 215.08 50.5111 214.736C51.0151 214.384 51.7911 214.192 52.8391 214.16L53.9311 214.124V213.74C53.9311 213.204 53.8151 212.832 53.5831 212.624C53.3511 212.416 53.0231 212.312 52.5991 212.312C52.2631 212.312 51.9431 212.364 51.6391 212.468C51.3351 212.564 51.0511 212.676 50.7871 212.804L50.4631 212.012C50.7431 211.86 51.0751 211.732 51.4591 211.628C51.8431 211.516 52.2431 211.46 52.6591 211.46ZM53.9191 214.856L52.9711 214.892C52.1711 214.924 51.6151 215.052 51.3031 215.276C50.9991 215.5 50.8471 215.816 50.8471 216.224C50.8471 216.584 50.9551 216.848 51.1711 217.016C51.3951 217.184 51.6791 217.268 52.0231 217.268C52.5671 217.268 53.0191 217.12 53.3791 216.824C53.7391 216.52 53.9191 216.056 53.9191 215.432V214.856ZM61.7257 211.568V217.112H62.6617V220.232H61.6417V218H57.1657V220.232H56.1577V217.112H56.6737C57.2257 216.352 57.6377 215.488 57.9097 214.52C58.1897 213.544 58.3337 212.56 58.3417 211.568H61.7257ZM60.7057 212.396H59.2777C59.2457 212.94 59.1617 213.504 59.0257 214.088C58.8897 214.664 58.7137 215.216 58.4977 215.744C58.2897 216.272 58.0457 216.728 57.7657 217.112H60.7057V212.396ZM67.7263 211.568H68.8783L66.1303 214.664L69.1063 218H67.8823L64.9783 214.736V218H63.9223V211.568H64.9783V214.688L67.7263 211.568ZM71.2699 211.568V215.492C71.2699 215.588 71.2659 215.732 71.2579 215.924C71.2499 216.116 71.2379 216.308 71.2219 216.5C71.2139 216.692 71.2059 216.844 71.1979 216.956L74.6419 211.568H75.9379V218H74.9539V214.208C74.9539 214.08 74.9539 213.912 74.9539 213.704C74.9619 213.496 74.9699 213.292 74.9779 213.092C74.9859 212.884 74.9939 212.728 75.0019 212.624L71.5819 218H70.2739V211.568H71.2699ZM79.3648 216.356L77.9128 219.668H77.0248L77.8768 216.356H79.3648ZM89.2333 211.568V218H88.1773V212.468H84.8533V218H83.7973V211.568H89.2333ZM96.8776 214.772C96.8776 215.836 96.6056 216.66 96.0616 217.244C95.5256 217.828 94.7976 218.12 93.8776 218.12C93.3096 218.12 92.8016 217.992 92.3536 217.736C91.9136 217.472 91.5656 217.092 91.3096 216.596C91.0536 216.092 90.9256 215.484 90.9256 214.772C90.9256 213.708 91.1936 212.888 91.7296 212.312C92.2656 211.736 92.9936 211.448 93.9136 211.448C94.4976 211.448 95.0096 211.58 95.4496 211.844C95.8976 212.1 96.2456 212.476 96.4936 212.972C96.7496 213.46 96.8776 214.06 96.8776 214.772ZM92.0176 214.772C92.0176 215.532 92.1656 216.136 92.4616 216.584C92.7656 217.024 93.2456 217.244 93.9016 217.244C94.5496 217.244 95.0256 217.024 95.3296 216.584C95.6336 216.136 95.7856 215.532 95.7856 214.772C95.7856 214.012 95.6336 213.416 95.3296 212.984C95.0256 212.552 94.5456 212.336 93.8896 212.336C93.2336 212.336 92.7576 212.552 92.4616 212.984C92.1656 213.416 92.0176 214.012 92.0176 214.772ZM103.447 218H102.379V212.444H100.483C100.379 213.796 100.235 214.888 100.051 215.72C99.8673 216.544 99.6233 217.144 99.3193 217.52C99.0153 217.896 98.6313 218.084 98.1673 218.084C98.0633 218.084 97.9593 218.076 97.8553 218.06C97.7593 218.052 97.6793 218.032 97.6153 218V217.208C97.6633 217.224 97.7153 217.236 97.7713 217.244C97.8273 217.252 97.8833 217.256 97.9393 217.256C98.3713 217.256 98.7153 216.796 98.9713 215.876C99.2353 214.956 99.4353 213.52 99.5713 211.568H103.447V218ZM104.481 211.568H105.609L107.001 215.228C107.121 215.548 107.229 215.856 107.325 216.152C107.421 216.44 107.493 216.716 107.541 216.98H107.589C107.637 216.78 107.713 216.52 107.817 216.2C107.921 215.872 108.029 215.544 108.141 215.216L109.449 211.568H110.589L107.817 218.888C107.593 219.496 107.301 219.98 106.941 220.34C106.589 220.7 106.101 220.88 105.477 220.88C105.285 220.88 105.117 220.868 104.973 220.844C104.829 220.828 104.705 220.808 104.601 220.784V219.944C104.689 219.96 104.793 219.976 104.913 219.992C105.041 220.008 105.173 220.016 105.309 220.016C105.677 220.016 105.973 219.912 106.197 219.704C106.429 219.496 106.609 219.22 106.737 218.876L107.073 218.024L104.481 211.568ZM112.53 211.568V213.908C112.53 214.644 112.942 215.012 113.766 215.012C114.166 215.012 114.53 214.952 114.858 214.832C115.186 214.704 115.522 214.536 115.866 214.328V211.568H116.922V218H115.866V215.132C115.506 215.364 115.15 215.548 114.798 215.684C114.454 215.812 114.038 215.876 113.55 215.876C112.894 215.876 112.382 215.704 112.014 215.36C111.654 215.016 111.474 214.556 111.474 213.98V211.568H112.53ZM121.449 211.448C122.001 211.448 122.473 211.568 122.865 211.808C123.265 212.048 123.569 212.388 123.777 212.828C123.993 213.26 124.101 213.768 124.101 214.352V214.988H119.697C119.713 215.716 119.897 216.272 120.249 216.656C120.609 217.032 121.109 217.22 121.749 217.22C122.157 217.22 122.517 217.184 122.829 217.112C123.149 217.032 123.477 216.92 123.813 216.776V217.7C123.485 217.844 123.161 217.948 122.841 218.012C122.521 218.084 122.141 218.12 121.701 218.12C121.093 218.12 120.553 217.996 120.081 217.748C119.617 217.5 119.253 217.132 118.989 216.644C118.733 216.148 118.605 215.544 118.605 214.832C118.605 214.128 118.721 213.524 118.953 213.02C119.193 212.516 119.525 212.128 119.949 211.856C120.381 211.584 120.881 211.448 121.449 211.448ZM121.437 212.312C120.933 212.312 120.533 212.476 120.237 212.804C119.949 213.124 119.777 213.572 119.721 214.148H122.997C122.989 213.604 122.861 213.164 122.613 212.828C122.365 212.484 121.973 212.312 121.437 212.312ZM126.795 211.568V214.244H130.287V211.568H131.343V218H130.287V215.132H126.795V218H125.739V211.568H126.795ZM134.375 211.568V215.492C134.375 215.588 134.371 215.732 134.363 215.924C134.355 216.116 134.343 216.308 134.327 216.5C134.319 216.692 134.311 216.844 134.303 216.956L137.747 211.568H139.043V218H138.059V214.208C138.059 214.08 138.059 213.912 138.059 213.704C138.067 213.496 138.075 213.292 138.083 213.092C138.091 212.884 138.099 212.728 138.107 212.624L134.687 218H133.379V211.568H134.375ZM143.574 211.448C144.126 211.448 144.598 211.568 144.99 211.808C145.39 212.048 145.694 212.388 145.902 212.828C146.118 213.26 146.226 213.768 146.226 214.352V214.988H141.822C141.838 215.716 142.022 216.272 142.374 216.656C142.734 217.032 143.234 217.22 143.874 217.22C144.282 217.22 144.642 217.184 144.954 217.112C145.274 217.032 145.602 216.92 145.938 216.776V217.7C145.61 217.844 145.286 217.948 144.966 218.012C144.646 218.084 144.266 218.12 143.826 218.12C143.218 218.12 142.678 217.996 142.206 217.748C141.742 217.5 141.378 217.132 141.114 216.644C140.858 216.148 140.73 215.544 140.73 214.832C140.73 214.128 140.846 213.524 141.078 213.02C141.318 212.516 141.65 212.128 142.074 211.856C142.506 211.584 143.006 211.448 143.574 211.448ZM143.562 212.312C143.058 212.312 142.658 212.476 142.362 212.804C142.074 213.124 141.902 213.572 141.846 214.148H145.122C145.114 213.604 144.986 213.164 144.738 212.828C144.49 212.484 144.098 212.312 143.562 212.312ZM155.757 211.568V217.112H156.693V220.232H155.673V218H151.197V220.232H150.189V217.112H150.705C151.257 216.352 151.669 215.488 151.941 214.52C152.221 213.544 152.365 212.56 152.373 211.568H155.757ZM154.737 212.396H153.309C153.277 212.94 153.193 213.504 153.057 214.088C152.921 214.664 152.745 215.216 152.529 215.744C152.321 216.272 152.077 216.728 151.797 217.112H154.737V212.396ZM160.39 211.46C161.174 211.46 161.754 211.632 162.13 211.976C162.506 212.32 162.694 212.868 162.694 213.62V218H161.926L161.722 217.088H161.674C161.394 217.44 161.098 217.7 160.786 217.868C160.482 218.036 160.058 218.12 159.514 218.12C158.93 218.12 158.446 217.968 158.062 217.664C157.678 217.352 157.486 216.868 157.486 216.212C157.486 215.572 157.738 215.08 158.242 214.736C158.746 214.384 159.522 214.192 160.57 214.16L161.662 214.124V213.74C161.662 213.204 161.546 212.832 161.314 212.624C161.082 212.416 160.754 212.312 160.33 212.312C159.994 212.312 159.674 212.364 159.37 212.468C159.066 212.564 158.782 212.676 158.518 212.804L158.194 212.012C158.474 211.86 158.806 211.732 159.19 211.628C159.574 211.516 159.974 211.46 160.39 211.46ZM161.65 214.856L160.702 214.892C159.902 214.924 159.346 215.052 159.034 215.276C158.73 215.5 158.578 215.816 158.578 216.224C158.578 216.584 158.686 216.848 158.902 217.016C159.126 217.184 159.41 217.268 159.754 217.268C160.298 217.268 160.75 217.12 161.11 216.824C161.47 216.52 161.65 216.056 161.65 215.432V214.856ZM165.736 211.568V214.244H169.228V211.568H170.284V218H169.228V215.132H165.736V218H164.68V211.568H165.736ZM173.377 211.568V214.244H176.869V211.568H177.925V218H176.869V215.132H173.377V218H172.321V211.568H173.377ZM179.961 218V211.568H181.017V214.208H182.685C183.517 214.208 184.133 214.36 184.533 214.664C184.933 214.968 185.133 215.424 185.133 216.032C185.133 216.632 184.937 217.112 184.545 217.472C184.153 217.824 183.517 218 182.637 218H179.961ZM186.201 218V211.568H187.257V218H186.201ZM181.017 217.148H182.541C182.997 217.148 183.369 217.072 183.657 216.92C183.945 216.76 184.089 216.484 184.089 216.092C184.089 215.7 183.957 215.436 183.693 215.3C183.429 215.156 183.049 215.084 182.553 215.084H181.017V217.148ZM190.825 214.712L188.605 211.568H189.805L191.461 213.992L193.105 211.568H194.293L192.073 214.712L194.413 218H193.213L191.461 215.432L189.685 218H188.497L190.825 214.712ZM204.362 214.772C204.362 215.836 204.09 216.66 203.546 217.244C203.01 217.828 202.282 218.12 201.362 218.12C200.794 218.12 200.286 217.992 199.838 217.736C199.398 217.472 199.05 217.092 198.794 216.596C198.538 216.092 198.41 215.484 198.41 214.772C198.41 213.708 198.678 212.888 199.214 212.312C199.75 211.736 200.478 211.448 201.398 211.448C201.982 211.448 202.494 211.58 202.934 211.844C203.382 212.1 203.73 212.476 203.978 212.972C204.234 213.46 204.362 214.06 204.362 214.772ZM199.502 214.772C199.502 215.532 199.65 216.136 199.946 216.584C200.25 217.024 200.73 217.244 201.386 217.244C202.034 217.244 202.51 217.024 202.814 216.584C203.118 216.136 203.27 215.532 203.27 214.772C203.27 214.012 203.118 213.416 202.814 212.984C202.51 212.552 202.03 212.336 201.374 212.336C200.718 212.336 200.242 212.552 199.946 212.984C199.65 213.416 199.502 214.012 199.502 214.772ZM210.358 212.456H208.258V218H207.214V212.456H205.138V211.568H210.358V212.456ZM32.6 236.12C32.032 236.12 31.524 236.004 31.076 235.772C30.636 235.54 30.288 235.18 30.032 234.692C29.784 234.204 29.66 233.58 29.66 232.82C29.66 232.028 29.792 231.384 30.056 230.888C30.32 230.392 30.676 230.028 31.124 229.796C31.58 229.564 32.096 229.448 32.672 229.448C33 229.448 33.316 229.484 33.62 229.556C33.924 229.62 34.172 229.7 34.364 229.796L34.04 230.672C33.848 230.6 33.624 230.532 33.368 230.468C33.112 230.404 32.872 230.372 32.648 230.372C31.384 230.372 30.752 231.184 30.752 232.808C30.752 233.584 30.904 234.18 31.208 234.596C31.52 235.004 31.98 235.208 32.588 235.208C32.94 235.208 33.248 235.172 33.512 235.1C33.784 235.028 34.032 234.94 34.256 234.836V235.772C34.04 235.884 33.8 235.968 33.536 236.024C33.28 236.088 32.968 236.12 32.6 236.12ZM38.2696 229.448C38.8216 229.448 39.2936 229.568 39.6856 229.808C40.0856 230.048 40.3896 230.388 40.5976 230.828C40.8136 231.26 40.9216 231.768 40.9216 232.352V232.988H36.5176C36.5336 233.716 36.7176 234.272 37.0696 234.656C37.4296 235.032 37.9296 235.22 38.5696 235.22C38.9776 235.22 39.3376 235.184 39.6496 235.112C39.9696 235.032 40.2976 234.92 40.6336 234.776V235.7C40.3056 235.844 39.9816 235.948 39.6616 236.012C39.3416 236.084 38.9616 236.12 38.5216 236.12C37.9136 236.12 37.3736 235.996 36.9016 235.748C36.4376 235.5 36.0736 235.132 35.8096 234.644C35.5536 234.148 35.4256 233.544 35.4256 232.832C35.4256 232.128 35.5416 231.524 35.7736 231.02C36.0136 230.516 36.3456 230.128 36.7696 229.856C37.2016 229.584 37.7016 229.448 38.2696 229.448ZM38.2576 230.312C37.7536 230.312 37.3536 230.476 37.0576 230.804C36.7696 231.124 36.5976 231.572 36.5416 232.148H39.8176C39.8096 231.604 39.6816 231.164 39.4336 230.828C39.1856 230.484 38.7936 230.312 38.2576 230.312ZM45.6191 229.448C46.4111 229.448 47.0471 229.724 47.5271 230.276C48.0151 230.828 48.2591 231.66 48.2591 232.772C48.2591 233.868 48.0151 234.7 47.5271 235.268C47.0471 235.836 46.4071 236.12 45.6071 236.12C45.1111 236.12 44.6991 236.028 44.3711 235.844C44.0511 235.652 43.7991 235.432 43.6151 235.184H43.5431C43.5591 235.32 43.5751 235.492 43.5911 235.7C43.6071 235.908 43.6151 236.088 43.6151 236.24V238.88H42.5591V229.568H43.4231L43.5671 230.444H43.6151C43.8071 230.164 44.0591 229.928 44.3711 229.736C44.6831 229.544 45.0991 229.448 45.6191 229.448ZM45.4271 230.336C44.7711 230.336 44.3071 230.52 44.0351 230.888C43.7711 231.256 43.6311 231.816 43.6151 232.568V232.772C43.6151 233.564 43.7431 234.176 43.9991 234.608C44.2631 235.032 44.7471 235.244 45.4511 235.244C45.8431 235.244 46.1631 235.136 46.4111 234.92C46.6671 234.704 46.8551 234.412 46.9751 234.044C47.1031 233.668 47.1671 233.24 47.1671 232.76C47.1671 232.024 47.0231 231.436 46.7351 230.996C46.4551 230.556 46.0191 230.336 45.4271 230.336ZM55.1139 231.188C55.1139 231.588 54.9939 231.9 54.7539 232.124C54.5139 232.348 54.2059 232.5 53.8299 232.58V232.628C54.2299 232.684 54.5779 232.828 54.8739 233.06C55.1699 233.284 55.3179 233.636 55.3179 234.116C55.3179 234.66 55.1139 235.112 54.7059 235.472C54.3059 235.824 53.6419 236 52.7139 236H49.9419V229.568H52.7019C53.1579 229.568 53.5659 229.62 53.9259 229.724C54.2939 229.82 54.5819 229.988 54.7899 230.228C55.0059 230.46 55.1139 230.78 55.1139 231.188ZM54.0459 231.32C54.0459 231.016 53.9339 230.796 53.7099 230.66C53.4939 230.516 53.1379 230.444 52.6419 230.444H50.9979V232.208H52.4499C53.5139 232.208 54.0459 231.912 54.0459 231.32ZM54.2259 234.116C54.2259 233.748 54.0859 233.484 53.8059 233.324C53.5259 233.164 53.1139 233.084 52.5699 233.084H50.9979V235.148H52.5939C53.1219 235.148 53.5259 235.072 53.8059 234.92C54.0859 234.76 54.2259 234.492 54.2259 234.116ZM59.3399 229.448C59.8919 229.448 60.3639 229.568 60.7559 229.808C61.1559 230.048 61.4599 230.388 61.6679 230.828C61.8839 231.26 61.9919 231.768 61.9919 232.352V232.988H57.5879C57.6039 233.716 57.7879 234.272 58.1399 234.656C58.4999 235.032 58.9999 235.22 59.6399 235.22C60.0479 235.22 60.4079 235.184 60.7199 235.112C61.0399 235.032 61.3679 234.92 61.7039 234.776V235.7C61.3759 235.844 61.0519 235.948 60.7319 236.012C60.4119 236.084 60.0319 236.12 59.5919 236.12C58.9839 236.12 58.4439 235.996 57.9719 235.748C57.5079 235.5 57.1439 235.132 56.8799 234.644C56.6239 234.148 56.4959 233.544 56.4959 232.832C56.4959 232.128 56.6119 231.524 56.8439 231.02C57.0839 230.516 57.4159 230.128 57.8399 229.856C58.2719 229.584 58.7719 229.448 59.3399 229.448ZM59.3279 230.312C58.8239 230.312 58.4239 230.476 58.1279 230.804C57.8399 231.124 57.6679 231.572 57.6119 232.148H60.8879C60.8799 231.604 60.7519 231.164 60.5039 230.828C60.2559 230.484 59.8639 230.312 59.3279 230.312ZM66.6894 229.448C67.4814 229.448 68.1174 229.724 68.5974 230.276C69.0854 230.828 69.3294 231.66 69.3294 232.772C69.3294 233.868 69.0854 234.7 68.5974 235.268C68.1174 235.836 67.4774 236.12 66.6774 236.12C66.1814 236.12 65.7694 236.028 65.4414 235.844C65.1214 235.652 64.8694 235.432 64.6854 235.184H64.6134C64.6294 235.32 64.6454 235.492 64.6614 235.7C64.6774 235.908 64.6854 236.088 64.6854 236.24V238.88H63.6294V229.568H64.4934L64.6374 230.444H64.6854C64.8774 230.164 65.1294 229.928 65.4414 229.736C65.7534 229.544 66.1694 229.448 66.6894 229.448ZM66.4974 230.336C65.8414 230.336 65.3774 230.52 65.1054 230.888C64.8414 231.256 64.7014 231.816 64.6854 232.568V232.772C64.6854 233.564 64.8134 234.176 65.0694 234.608C65.3334 235.032 65.8174 235.244 66.5214 235.244C66.9134 235.244 67.2334 235.136 67.4814 234.92C67.7374 234.704 67.9254 234.412 68.0454 234.044C68.1734 233.668 68.2374 233.24 68.2374 232.76C68.2374 232.024 68.0934 231.436 67.8054 230.996C67.5254 230.556 67.0894 230.336 66.4974 230.336ZM73.4482 229.46C74.2322 229.46 74.8122 229.632 75.1882 229.976C75.5642 230.32 75.7522 230.868 75.7522 231.62V236H74.9842L74.7802 235.088H74.7322C74.4522 235.44 74.1562 235.7 73.8442 235.868C73.5402 236.036 73.1162 236.12 72.5722 236.12C71.9882 236.12 71.5042 235.968 71.1202 235.664C70.7362 235.352 70.5442 234.868 70.5442 234.212C70.5442 233.572 70.7962 233.08 71.3002 232.736C71.8042 232.384 72.5802 232.192 73.6282 232.16L74.7202 232.124V231.74C74.7202 231.204 74.6042 230.832 74.3722 230.624C74.1402 230.416 73.8122 230.312 73.3882 230.312C73.0522 230.312 72.7322 230.364 72.4282 230.468C72.1242 230.564 71.8402 230.676 71.5762 230.804L71.2522 230.012C71.5322 229.86 71.8642 229.732 72.2482 229.628C72.6322 229.516 73.0322 229.46 73.4482 229.46ZM74.7082 232.856L73.7602 232.892C72.9602 232.924 72.4042 233.052 72.0922 233.276C71.7882 233.5 71.6362 233.816 71.6362 234.224C71.6362 234.584 71.7442 234.848 71.9602 235.016C72.1842 235.184 72.4682 235.268 72.8122 235.268C73.3562 235.268 73.8082 235.12 74.1682 234.824C74.5282 234.52 74.7082 234.056 74.7082 233.432V232.856ZM81.8519 229.568V233.492C81.8519 233.588 81.8479 233.732 81.8399 233.924C81.8319 234.116 81.8199 234.308 81.8039 234.5C81.7959 234.692 81.7879 234.844 81.7799 234.956L85.2239 229.568H86.5199V236H85.5359V232.208C85.5359 232.08 85.5359 231.912 85.5359 231.704C85.5439 231.496 85.5519 231.292 85.5599 231.092C85.5679 230.884 85.5759 230.728 85.5839 230.624L82.1639 236H80.8559V229.568H81.8519ZM98.5841 229.568V236H97.6361V231.896C97.6361 231.728 97.6401 231.552 97.6481 231.368C97.6641 231.184 97.6801 231.004 97.6961 230.828H97.6601L95.5601 236H94.6721L92.6321 230.828H92.5961C92.6201 231.188 92.6321 231.556 92.6321 231.932V236H91.6841V229.568H93.0881L95.1161 234.74L97.1801 229.568H98.5841ZM101.693 229.568V232.244H105.185V229.568H106.241V236H105.185V233.132H101.693V236H100.637V229.568H101.693ZM113.87 232.772C113.87 233.836 113.598 234.66 113.054 235.244C112.518 235.828 111.79 236.12 110.87 236.12C110.302 236.12 109.794 235.992 109.346 235.736C108.906 235.472 108.558 235.092 108.302 234.596C108.046 234.092 107.918 233.484 107.918 232.772C107.918 231.708 108.186 230.888 108.722 230.312C109.258 229.736 109.986 229.448 110.906 229.448C111.49 229.448 112.002 229.58 112.442 229.844C112.89 230.1 113.238 230.476 113.486 230.972C113.742 231.46 113.87 232.06 113.87 232.772ZM109.01 232.772C109.01 233.532 109.158 234.136 109.454 234.584C109.758 235.024 110.238 235.244 110.894 235.244C111.542 235.244 112.018 235.024 112.322 234.584C112.626 234.136 112.778 233.532 112.778 232.772C112.778 232.012 112.626 231.416 112.322 230.984C112.018 230.552 111.538 230.336 110.882 230.336C110.226 230.336 109.75 230.552 109.454 230.984C109.158 231.416 109.01 232.012 109.01 232.772ZM119.467 229.568V230.456H116.599V236H115.543V229.568H119.467ZM126.21 232.772C126.21 233.836 125.938 234.66 125.394 235.244C124.858 235.828 124.13 236.12 123.21 236.12C122.642 236.12 122.134 235.992 121.686 235.736C121.246 235.472 120.898 235.092 120.642 234.596C120.386 234.092 120.258 233.484 120.258 232.772C120.258 231.708 120.526 230.888 121.062 230.312C121.598 229.736 122.326 229.448 123.246 229.448C123.83 229.448 124.342 229.58 124.782 229.844C125.23 230.1 125.578 230.476 125.826 230.972C126.082 231.46 126.21 232.06 126.21 232.772ZM121.35 232.772C121.35 233.532 121.498 234.136 121.794 234.584C122.098 235.024 122.578 235.244 123.234 235.244C123.882 235.244 124.358 235.024 124.662 234.584C124.966 234.136 125.118 233.532 125.118 232.772C125.118 232.012 124.966 231.416 124.662 230.984C124.358 230.552 123.878 230.336 123.222 230.336C122.566 230.336 122.09 230.552 121.794 230.984C121.498 231.416 121.35 232.012 121.35 232.772ZM130.367 229.448C130.919 229.448 131.391 229.568 131.783 229.808C132.183 230.048 132.487 230.388 132.695 230.828C132.911 231.26 133.019 231.768 133.019 232.352V232.988H128.615C128.631 233.716 128.815 234.272 129.167 234.656C129.527 235.032 130.027 235.22 130.667 235.22C131.075 235.22 131.435 235.184 131.747 235.112C132.067 235.032 132.395 234.92 132.731 234.776V235.7C132.403 235.844 132.079 235.948 131.759 236.012C131.439 236.084 131.059 236.12 130.619 236.12C130.011 236.12 129.471 235.996 128.999 235.748C128.535 235.5 128.171 235.132 127.907 234.644C127.651 234.148 127.523 233.544 127.523 232.832C127.523 232.128 127.639 231.524 127.871 231.02C128.111 230.516 128.443 230.128 128.867 229.856C129.299 229.584 129.799 229.448 130.367 229.448ZM130.355 230.312C129.851 230.312 129.451 230.476 129.155 230.804C128.867 231.124 128.695 231.572 128.639 232.148H131.915C131.907 231.604 131.779 231.164 131.531 230.828C131.283 230.484 130.891 230.312 130.355 230.312ZM142.55 229.568V235.112H143.486V238.232H142.466V236H137.99V238.232H136.982V235.112H137.498C138.05 234.352 138.462 233.488 138.734 232.52C139.014 231.544 139.158 230.56 139.166 229.568H142.55ZM141.53 230.396H140.102C140.07 230.94 139.986 231.504 139.85 232.088C139.714 232.664 139.538 233.216 139.322 233.744C139.114 234.272 138.87 234.728 138.59 235.112H141.53V230.396ZM147.807 229.448C148.599 229.448 149.235 229.724 149.715 230.276C150.203 230.828 150.447 231.66 150.447 232.772C150.447 233.868 150.203 234.7 149.715 235.268C149.235 235.836 148.595 236.12 147.795 236.12C147.299 236.12 146.887 236.028 146.559 235.844C146.239 235.652 145.987 235.432 145.803 235.184H145.731C145.747 235.32 145.763 235.492 145.779 235.7C145.795 235.908 145.803 236.088 145.803 236.24V238.88H144.747V229.568H145.611L145.755 230.444H145.803C145.995 230.164 146.247 229.928 146.559 229.736C146.871 229.544 147.287 229.448 147.807 229.448ZM147.615 230.336C146.959 230.336 146.495 230.52 146.223 230.888C145.959 231.256 145.819 231.816 145.803 232.568V232.772C145.803 233.564 145.931 234.176 146.187 234.608C146.451 235.032 146.935 235.244 147.639 235.244C148.031 235.244 148.351 235.136 148.599 234.92C148.855 234.704 149.043 234.412 149.163 234.044C149.291 233.668 149.355 233.24 149.355 232.76C149.355 232.024 149.211 231.436 148.923 230.996C148.643 230.556 148.207 230.336 147.615 230.336ZM151.004 229.568H152.132L153.524 233.228C153.644 233.548 153.752 233.856 153.848 234.152C153.944 234.44 154.016 234.716 154.064 234.98H154.112C154.16 234.78 154.236 234.52 154.34 234.2C154.444 233.872 154.552 233.544 154.664 233.216L155.972 229.568H157.112L154.34 236.888C154.116 237.496 153.824 237.98 153.464 238.34C153.112 238.7 152.624 238.88 152 238.88C151.808 238.88 151.64 238.868 151.496 238.844C151.352 238.828 151.228 238.808 151.124 238.784V237.944C151.212 237.96 151.316 237.976 151.436 237.992C151.564 238.008 151.696 238.016 151.832 238.016C152.2 238.016 152.496 237.912 152.72 237.704C152.952 237.496 153.132 237.22 153.26 236.876L153.596 236.024L151.004 229.568ZM162.053 229.568V230.456H159.185V236H158.129V229.568H162.053ZM168.796 232.772C168.796 233.836 168.524 234.66 167.98 235.244C167.444 235.828 166.716 236.12 165.796 236.12C165.228 236.12 164.72 235.992 164.272 235.736C163.832 235.472 163.484 235.092 163.228 234.596C162.972 234.092 162.844 233.484 162.844 232.772C162.844 231.708 163.112 230.888 163.648 230.312C164.184 229.736 164.912 229.448 165.832 229.448C166.416 229.448 166.928 229.58 167.368 229.844C167.816 230.1 168.164 230.476 168.412 230.972C168.668 231.46 168.796 232.06 168.796 232.772ZM163.936 232.772C163.936 233.532 164.084 234.136 164.38 234.584C164.684 235.024 165.164 235.244 165.82 235.244C166.468 235.244 166.944 235.024 167.248 234.584C167.552 234.136 167.704 233.532 167.704 232.772C167.704 232.012 167.552 231.416 167.248 230.984C166.944 230.552 166.464 230.336 165.808 230.336C165.152 230.336 164.676 230.552 164.38 230.984C164.084 231.416 163.936 232.012 163.936 232.772ZM172.953 229.448C173.505 229.448 173.977 229.568 174.369 229.808C174.769 230.048 175.073 230.388 175.281 230.828C175.497 231.26 175.605 231.768 175.605 232.352V232.988H171.201C171.217 233.716 171.401 234.272 171.753 234.656C172.113 235.032 172.613 235.22 173.253 235.22C173.661 235.22 174.021 235.184 174.333 235.112C174.653 235.032 174.981 234.92 175.317 234.776V235.7C174.989 235.844 174.665 235.948 174.345 236.012C174.025 236.084 173.645 236.12 173.205 236.12C172.597 236.12 172.057 235.996 171.585 235.748C171.121 235.5 170.757 235.132 170.493 234.644C170.237 234.148 170.109 233.544 170.109 232.832C170.109 232.128 170.225 231.524 170.457 231.02C170.697 230.516 171.029 230.128 171.453 229.856C171.885 229.584 172.385 229.448 172.953 229.448ZM172.941 230.312C172.437 230.312 172.037 230.476 171.741 230.804C171.453 231.124 171.281 231.572 171.225 232.148H174.501C174.493 231.604 174.365 231.164 174.117 230.828C173.869 230.484 173.477 230.312 172.941 230.312Z" fill="black"/>
<path d="M36.028 120.172V126.864C36.028 127.9 35.734 128.698 35.146 129.258C34.5673 129.818 33.7833 130.098 32.794 130.098C31.758 130.098 30.9273 129.804 30.302 129.216C29.6767 128.628 29.364 127.793 29.364 126.71H31.744C31.744 127.121 31.828 127.433 31.996 127.648C32.164 127.853 32.4067 127.956 32.724 127.956C33.0133 127.956 33.2373 127.863 33.396 127.676C33.5547 127.489 33.634 127.219 33.634 126.864V120.172H36.028ZM37.4858 126.08C37.4858 125.277 37.6351 124.573 37.9338 123.966C38.2418 123.359 38.6571 122.893 39.1798 122.566C39.7024 122.239 40.2858 122.076 40.9298 122.076C41.4804 122.076 41.9611 122.188 42.3718 122.412C42.7918 122.636 43.1138 122.93 43.3378 123.294V122.188H45.7318V130H43.3378V128.894C43.1044 129.258 42.7778 129.552 42.3578 129.776C41.9471 130 41.4664 130.112 40.9158 130.112C40.2811 130.112 39.7024 129.949 39.1798 129.622C38.6571 129.286 38.2418 128.815 37.9338 128.208C37.6351 127.592 37.4858 126.883 37.4858 126.08ZM43.3378 126.094C43.3378 125.497 43.1698 125.025 42.8338 124.68C42.5071 124.335 42.1058 124.162 41.6298 124.162C41.1538 124.162 40.7478 124.335 40.4118 124.68C40.0851 125.016 39.9218 125.483 39.9218 126.08C39.9218 126.677 40.0851 127.153 40.4118 127.508C40.7478 127.853 41.1538 128.026 41.6298 128.026C42.1058 128.026 42.5071 127.853 42.8338 127.508C43.1698 127.163 43.3378 126.691 43.3378 126.094ZM50.9777 127.76L52.6717 122.188H55.2197L52.4477 130H49.4937L46.7217 122.188H49.2837L50.9777 127.76ZM55.7514 126.08C55.7514 125.277 55.9007 124.573 56.1994 123.966C56.5074 123.359 56.9227 122.893 57.4454 122.566C57.968 122.239 58.5514 122.076 59.1954 122.076C59.746 122.076 60.2267 122.188 60.6374 122.412C61.0574 122.636 61.3794 122.93 61.6034 123.294V122.188H63.9974V130H61.6034V128.894C61.37 129.258 61.0434 129.552 60.6234 129.776C60.2127 130 59.732 130.112 59.1814 130.112C58.5467 130.112 57.968 129.949 57.4454 129.622C56.9227 129.286 56.5074 128.815 56.1994 128.208C55.9007 127.592 55.7514 126.883 55.7514 126.08ZM61.6034 126.094C61.6034 125.497 61.4354 125.025 61.0994 124.68C60.7727 124.335 60.3714 124.162 59.8954 124.162C59.4194 124.162 59.0134 124.335 58.6774 124.68C58.3507 125.016 58.1874 125.483 58.1874 126.08C58.1874 126.677 58.3507 127.153 58.6774 127.508C59.0134 127.853 59.4194 128.026 59.8954 128.026C60.3714 128.026 60.7727 127.853 61.0994 127.508C61.4354 127.163 61.6034 126.691 61.6034 126.094ZM72.2521 130.098C71.5335 130.098 70.8895 129.981 70.3201 129.748C69.7508 129.515 69.2935 129.169 68.9481 128.712C68.6121 128.255 68.4348 127.704 68.4161 127.06H70.9641C71.0015 127.424 71.1275 127.704 71.3421 127.9C71.5568 128.087 71.8368 128.18 72.1821 128.18C72.5368 128.18 72.8168 128.101 73.0221 127.942C73.2275 127.774 73.3301 127.545 73.3301 127.256C73.3301 127.013 73.2461 126.813 73.0781 126.654C72.9195 126.495 72.7188 126.365 72.4761 126.262C72.2428 126.159 71.9068 126.043 71.4681 125.912C70.8335 125.716 70.3155 125.52 69.9141 125.324C69.5128 125.128 69.1675 124.839 68.8781 124.456C68.5888 124.073 68.4441 123.574 68.4441 122.958C68.4441 122.043 68.7755 121.329 69.4381 120.816C70.1008 120.293 70.9641 120.032 72.0281 120.032C73.1108 120.032 73.9835 120.293 74.6461 120.816C75.3088 121.329 75.6635 122.048 75.7101 122.972H73.1201C73.1015 122.655 72.9848 122.407 72.7701 122.23C72.5555 122.043 72.2801 121.95 71.9441 121.95C71.6548 121.95 71.4215 122.029 71.2441 122.188C71.0668 122.337 70.9781 122.557 70.9781 122.846C70.9781 123.163 71.1275 123.411 71.4261 123.588C71.7248 123.765 72.1915 123.957 72.8261 124.162C73.4608 124.377 73.9741 124.582 74.3661 124.778C74.7675 124.974 75.1128 125.259 75.4021 125.632C75.6915 126.005 75.8361 126.486 75.8361 127.074C75.8361 127.634 75.6915 128.143 75.4021 128.6C75.1221 129.057 74.7115 129.421 74.1701 129.692C73.6288 129.963 72.9895 130.098 72.2521 130.098ZM76.8334 126.094C76.8334 125.282 76.9967 124.573 77.3234 123.966C77.6594 123.359 78.1214 122.893 78.7094 122.566C79.3067 122.239 79.9881 122.076 80.7534 122.076C81.7334 122.076 82.5501 122.333 83.2034 122.846C83.8661 123.359 84.3001 124.083 84.5054 125.016H81.9574C81.7427 124.419 81.3274 124.12 80.7114 124.12C80.2727 124.12 79.9227 124.293 79.6614 124.638C79.4001 124.974 79.2694 125.459 79.2694 126.094C79.2694 126.729 79.4001 127.219 79.6614 127.564C79.9227 127.9 80.2727 128.068 80.7114 128.068C81.3274 128.068 81.7427 127.769 81.9574 127.172H84.5054C84.3001 128.087 83.8661 128.805 83.2034 129.328C82.5407 129.851 81.7241 130.112 80.7534 130.112C79.9881 130.112 79.3067 129.949 78.7094 129.622C78.1214 129.295 77.6594 128.829 77.3234 128.222C76.9967 127.615 76.8334 126.906 76.8334 126.094ZM88.18 123.49C88.46 123.061 88.81 122.725 89.23 122.482C89.65 122.23 90.1166 122.104 90.63 122.104V124.638H89.972C89.3746 124.638 88.9266 124.769 88.628 125.03C88.3293 125.282 88.18 125.73 88.18 126.374V130H85.786V122.188H88.18V123.49ZM92.9783 121.376C92.5583 121.376 92.2129 121.255 91.9423 121.012C91.6809 120.76 91.5503 120.452 91.5503 120.088C91.5503 119.715 91.6809 119.407 91.9423 119.164C92.2129 118.912 92.5583 118.786 92.9783 118.786C93.3889 118.786 93.7249 118.912 93.9863 119.164C94.2569 119.407 94.3923 119.715 94.3923 120.088C94.3923 120.452 94.2569 120.76 93.9863 121.012C93.7249 121.255 93.3889 121.376 92.9783 121.376ZM94.1683 122.188V130H91.7743V122.188H94.1683ZM98.2972 123.294C98.5305 122.93 98.8525 122.636 99.2632 122.412C99.6738 122.188 100.154 122.076 100.705 122.076C101.349 122.076 101.932 122.239 102.455 122.566C102.978 122.893 103.388 123.359 103.687 123.966C103.995 124.573 104.149 125.277 104.149 126.08C104.149 126.883 103.995 127.592 103.687 128.208C103.388 128.815 102.978 129.286 102.455 129.622C101.932 129.949 101.349 130.112 100.705 130.112C100.164 130.112 99.6832 130 99.2632 129.776C98.8525 129.552 98.5305 129.263 98.2972 128.908V133.724H95.9032V122.188H98.2972V123.294ZM101.713 126.08C101.713 125.483 101.545 125.016 101.209 124.68C100.882 124.335 100.476 124.162 99.9912 124.162C99.5152 124.162 99.1092 124.335 98.7732 124.68C98.4465 125.025 98.2832 125.497 98.2832 126.094C98.2832 126.691 98.4465 127.163 98.7732 127.508C99.1092 127.853 99.5152 128.026 99.9912 128.026C100.467 128.026 100.873 127.853 101.209 127.508C101.545 127.153 101.713 126.677 101.713 126.08ZM109.759 127.97V130H108.541C107.673 130 106.996 129.79 106.511 129.37C106.026 128.941 105.783 128.245 105.783 127.284V124.176H104.831V122.188H105.783V120.284H108.177V122.188H109.745V124.176H108.177V127.312C108.177 127.545 108.233 127.713 108.345 127.816C108.457 127.919 108.644 127.97 108.905 127.97H109.759Z" fill="black"/>
</svg>
