<svg width="270" height="270" viewBox="0 0 270 270" fill="none" xmlns="http://www.w3.org/2000/svg">
<path fill-rule="evenodd" clip-rule="evenodd" d="M184.373 47.7065L191.139 47.7437C191.139 47.7437 178.56 64.7888 177.533 66.178C177.199 66.6279 176.692 67.113 176.435 67.7144C175.786 69.2262 175.119 72.5424 175.119 72.5424L168.928 72.5731C168.928 72.5731 169.891 69.1166 169.852 67.2754C169.817 65.6668 168.996 64.0605 168.535 62.4473C168.07 60.8146 167.438 57.6192 167.438 57.6192H173.802L174.68 61.1306L184.373 47.7065Z" fill="#1A1918"/>
<path fill-rule="evenodd" clip-rule="evenodd" d="M171.561 51.3011C172.81 52.054 173.576 56.206 173.576 56.206C173.576 56.206 167.043 56.3024 163.487 56.3024H160.415L156.684 72.5423H150.979C150.979 72.5423 154.529 54.8937 155.368 51.694C155.64 50.6583 157.229 50.8358 159.912 50.8358H164.198C166.966 50.8358 170.201 50.4826 171.561 51.3011Z" fill="#1A1918"/>
<path fill-rule="evenodd" clip-rule="evenodd" d="M144.998 59.2105C144.998 59.2105 145.176 58.168 144.395 56.961C143.728 55.9318 143.111 55.6926 141.356 55.6378C136.398 55.482 136.494 59.1557 136.494 59.1557L144.998 59.2105ZM150.375 55.0036C151.102 57.624 149.717 63.7818 149.717 63.7818C149.717 63.7818 142.485 63.661 138.525 63.7818C137.293 63.8193 135.819 63.6479 135.452 64.2208C134.936 65.0238 135.64 66.2596 136.238 66.7817C136.925 67.383 138.263 67.4512 138.744 67.5125C141.959 67.9208 148.688 67.6178 148.688 67.6178L147.522 72.7793C147.522 72.7793 138.013 73.2558 133.257 72.1209C132.318 71.8972 131.438 71.4452 130.843 70.8042C130.681 70.6289 130.54 70.3897 130.387 70.1834C130.264 70.0186 129.907 69.4767 129.746 69.0485C128.66 66.154 129.873 60.6084 131.063 57.637C131.201 57.2925 131.374 56.856 131.557 56.4848C131.785 56.022 131.978 55.4996 132.16 55.223C132.283 55.0321 132.435 54.9091 132.562 54.7291C132.709 54.5163 132.88 54.31 133.038 54.1259C133.477 53.6166 133.975 53.2566 134.574 52.8093C136.556 51.3256 140.142 50.1734 144.45 50.6146C146.071 50.7812 148.521 51.3606 149.717 53.0286C150.037 53.4741 150.195 54.3583 150.375 55.0036Z" fill="#1A1918"/>
<path fill-rule="evenodd" clip-rule="evenodd" d="M124.205 50.816L129.737 50.7832C129.737 50.7832 126.654 65.4099 125.083 72.5424H118.718C114.27 72.5424 110.309 73.0932 108.623 69.9087C106.989 66.8168 108.549 61.7319 109.282 58.2775C109.8 55.8328 110.891 50.8359 110.891 50.8359L116.623 50.7832C116.623 50.7832 115.003 58.5628 114.329 62.4472C114.088 63.8386 113.59 65.1488 114.11 66.178C114.604 67.157 115.295 67.227 117.402 67.2753C118.069 67.2908 120.255 67.2753 120.255 67.2753L124.205 50.816Z" fill="#1A1918"/>
<path fill-rule="evenodd" clip-rule="evenodd" d="M98.3091 61.3499C98.8884 59.2915 99.7332 57.0596 99.6257 55.2051C99.5096 53.2214 97.8462 51.4152 96.773 51.0357C93.5405 49.8943 90.5142 51.4899 89.3116 52.7911C87.7554 54.4767 87.2287 56.4453 86.6779 59.1555C86.2677 61.1677 85.9318 63.2921 86.6779 64.8612C87.9989 67.6353 92.1181 67.0296 96.5534 67.0559C97.2117 65.2916 97.756 63.3097 98.3091 61.3499ZM105.99 53.2301C106.622 57.8255 104.197 62.8974 102.527 67.3081C104.23 67.4618 105.722 67.2843 105.83 67.4113C105.942 67.5761 104.689 72.6762 104.252 72.6892C102.9 72.7245 98.4212 72.7617 96.5534 72.7617C90.4591 72.7617 84.7577 73.1589 81.8501 70.1283C80.6694 68.8971 79.8531 66.7858 79.6554 65.3002C79.3261 62.8202 79.7388 60.0902 80.3138 57.8388C80.8339 55.8064 81.501 53.8884 82.5085 52.1327C85.0693 47.6625 89.5244 44.3444 96.9924 45.1103C98.4407 45.2596 100.521 45.8938 101.82 46.6463C101.91 46.6993 102.224 46.9493 102.297 46.9933C104.052 48.1105 105.652 50.7767 105.99 53.2301Z" fill="#1A1918"/>
<path fill-rule="evenodd" clip-rule="evenodd" d="M79.0256 50.8425C78.6569 52.5214 78.2882 54.4242 77.8997 56.0832H71.7549C72.2311 54.2442 72.5955 52.416 73.0716 50.8162C75.038 50.8162 76.8662 50.8425 79.0256 50.8425Z" fill="#1A1918"/>
<path fill-rule="evenodd" clip-rule="evenodd" d="M71.5356 57.6194H77.4607C76.6862 61.9078 75.1523 68.8249 73.9496 73.6396C73.1968 76.6528 72.6943 78.8519 70.6576 80.4428C70.4754 80.5856 70.3704 80.5177 70.2189 80.6624C69.8434 81.0202 68.1075 81.4351 67.1465 81.5401C65.5838 81.7093 63.8173 81.5621 61.8971 81.5227C62.3996 79.6859 62.9681 77.4804 63.4158 75.8343C68.0967 76.4007 68.2154 71.9763 69.1215 67.7145C69.6461 65.2522 71.2351 58.6071 71.5356 57.6194Z" fill="#1A1918"/>
<path fill-rule="evenodd" clip-rule="evenodd" d="M57.7097 68.8116L57.5827 69.1406C55.4187 73.354 51.5848 75.9394 46.116 76.0534C43.5595 76.1061 41.1235 75.4502 39.5323 74.7367C36.098 73.1939 33.2097 70.3325 31.6321 67.2753C29.3693 62.8927 28.9613 56.7963 33.6663 52.2427C33.7388 52.2427 33.0957 53.23 33.1682 53.23L33.0387 53.6514C29.6481 64.2664 40.094 73.363 50.2483 72.3227C52.6886 72.0727 55.8007 70.7361 57.7097 68.8116Z" fill="#21609B"/>
<path fill-rule="evenodd" clip-rule="evenodd" d="M51.565 64.4223C54.1196 64.44 56.788 63.246 58.3681 61.5696C56.9857 65.0788 52.983 67.3345 47.6149 66.617C43.1205 66.0157 38.8389 61.4928 38.3977 56.9609C38.0752 53.6626 39.2249 51.6941 41.1191 49.3064C40.4608 50.5552 40.2148 51.5184 40.1534 52.1328C39.4337 59.2674 45.8527 64.3851 51.565 64.4223Z" fill="#21609B"/>
<path fill-rule="evenodd" clip-rule="evenodd" d="M58.1116 55.5607C57.7144 56.4716 55.4277 58.1919 54.418 58.407C50.4196 59.2586 47.8587 57.3626 46.5176 55.2051C46.318 54.8826 45.9494 54.0027 45.8834 53.7787C45.3632 52.01 45.6024 49.3348 47.1542 47.95C46.6867 49.2666 46.6186 50.7962 46.8645 51.7904C47.0136 52.3917 47.4677 53.441 47.9222 54.1012C48.7494 55.3039 49.2739 55.5961 50.3363 56.2346C50.8146 56.5221 51.328 56.7526 51.5498 56.8161C52.557 57.1123 54.6835 57.8936 58.1116 55.5607Z" fill="#21609B"/>
<rect x="0.5" y="0.5" width="269" height="269" stroke="black"/>
<path d="M31.164 164V155.432H36.252V156.38H32.244V159.056H33.516C34.372 159.056 35.036 159.164 35.508 159.38C35.98 159.588 36.308 159.876 36.492 160.244C36.676 160.604 36.768 161.02 36.768 161.492C36.768 162.276 36.532 162.892 36.06 163.34C35.588 163.78 34.792 164 33.672 164H31.164ZM32.244 163.076H33.564C34.332 163.076 34.872 162.948 35.184 162.692C35.496 162.428 35.652 162.028 35.652 161.492C35.652 160.94 35.48 160.552 35.136 160.328C34.792 160.104 34.208 159.992 33.384 159.992H32.244V163.076ZM39.3988 157.568V161.492C39.3988 161.588 39.3948 161.732 39.3868 161.924C39.3788 162.116 39.3668 162.308 39.3508 162.5C39.3428 162.692 39.3348 162.844 39.3268 162.956L42.7708 157.568H44.0668V164H43.0828V160.208C43.0828 160.08 43.0828 159.912 43.0828 159.704C43.0908 159.496 43.0988 159.292 43.1068 159.092C43.1148 158.884 43.1228 158.728 43.1308 158.624L39.7108 164H38.4028V157.568H39.3988ZM45.7778 160.136C45.7778 158.728 45.9898 157.632 46.4138 156.848C46.8378 156.056 47.5218 155.56 48.4658 155.36C48.9858 155.248 49.4938 155.148 49.9898 155.06C50.4858 154.972 50.9498 154.892 51.3818 154.82L51.5618 155.744C51.2818 155.784 50.9658 155.836 50.6138 155.9C50.2618 155.956 49.9138 156.016 49.5698 156.08C49.2258 156.136 48.9298 156.192 48.6818 156.248C48.1618 156.36 47.7498 156.632 47.4458 157.064C47.1418 157.488 46.9698 158.152 46.9298 159.056H47.0018C47.1138 158.904 47.2658 158.748 47.4578 158.588C47.6578 158.428 47.8938 158.292 48.1658 158.18C48.4458 158.068 48.7618 158.012 49.1138 158.012C49.9458 158.012 50.5738 158.28 50.9978 158.816C51.4218 159.352 51.6338 160.048 51.6338 160.904C51.6338 161.616 51.5098 162.212 51.2617 162.692C51.0138 163.172 50.6698 163.532 50.2298 163.772C49.7898 164.004 49.2778 164.12 48.6938 164.12C47.8058 164.12 47.0978 163.78 46.5698 163.1C46.0418 162.42 45.7778 161.432 45.7778 160.136ZM48.7778 163.244C49.2978 163.244 49.7178 163.076 50.0378 162.74C50.3578 162.404 50.5178 161.828 50.5178 161.012C50.5178 160.356 50.3938 159.84 50.1458 159.464C49.9058 159.08 49.5058 158.888 48.9458 158.888C48.5938 158.888 48.2738 158.968 47.9858 159.128C47.6978 159.28 47.4578 159.456 47.2658 159.656C47.0738 159.856 46.9378 160.024 46.8577 160.16C46.8577 160.552 46.8858 160.932 46.9418 161.3C46.9978 161.668 47.0938 162 47.2298 162.296C47.3738 162.584 47.5698 162.816 47.8178 162.992C48.0738 163.16 48.3938 163.244 48.7778 163.244ZM58.1933 164H57.1253V158.444H55.2293C55.1253 159.796 54.9813 160.888 54.7973 161.72C54.6133 162.544 54.3693 163.144 54.0653 163.52C53.7613 163.896 53.3773 164.084 52.9133 164.084C52.8093 164.084 52.7053 164.076 52.6013 164.06C52.5053 164.052 52.4253 164.032 52.3613 164V163.208C52.4093 163.224 52.4613 163.236 52.5173 163.244C52.5733 163.252 52.6293 163.256 52.6853 163.256C53.1173 163.256 53.4613 162.796 53.7173 161.876C53.9813 160.956 54.1813 159.52 54.3173 157.568H58.1933V164ZM61.2308 157.568V161.492C61.2308 161.588 61.2268 161.732 61.2188 161.924C61.2108 162.116 61.1988 162.308 61.1828 162.5C61.1748 162.692 61.1668 162.844 61.1588 162.956L64.6028 157.568H65.8988V164H64.9148V160.208C64.9148 160.08 64.9148 159.912 64.9148 159.704C64.9228 159.496 64.9308 159.292 64.9388 159.092C64.9468 158.884 64.9548 158.728 64.9628 158.624L61.5428 164H60.2348V157.568H61.2308ZM73.5378 160.772C73.5378 161.836 73.2658 162.66 72.7218 163.244C72.1858 163.828 71.4578 164.12 70.5378 164.12C69.9698 164.12 69.4618 163.992 69.0138 163.736C68.5738 163.472 68.2258 163.092 67.9698 162.596C67.7138 162.092 67.5858 161.484 67.5858 160.772C67.5858 159.708 67.8538 158.888 68.3898 158.312C68.9258 157.736 69.6538 157.448 70.5738 157.448C71.1578 157.448 71.6698 157.58 72.1098 157.844C72.5578 158.1 72.9058 158.476 73.1538 158.972C73.4098 159.46 73.5378 160.06 73.5378 160.772ZM68.6778 160.772C68.6778 161.532 68.8258 162.136 69.1218 162.584C69.4258 163.024 69.9058 163.244 70.5618 163.244C71.2098 163.244 71.6858 163.024 71.9898 162.584C72.2938 162.136 72.4458 161.532 72.4458 160.772C72.4458 160.012 72.2938 159.416 71.9898 158.984C71.6858 158.552 71.2058 158.336 70.5498 158.336C69.8938 158.336 69.4178 158.552 69.1218 158.984C68.8258 159.416 68.6778 160.012 68.6778 160.772ZM79.5342 158.456H77.4342V164H76.3902V158.456H74.3142V157.568H79.5342V158.456ZM83.1681 157.448C83.7201 157.448 84.1921 157.568 84.5841 157.808C84.9841 158.048 85.2881 158.388 85.4961 158.828C85.7121 159.26 85.8201 159.768 85.8201 160.352V160.988H81.4161C81.4321 161.716 81.6161 162.272 81.9681 162.656C82.3281 163.032 82.8281 163.22 83.4681 163.22C83.8761 163.22 84.2361 163.184 84.5481 163.112C84.8681 163.032 85.1961 162.92 85.5321 162.776V163.7C85.2041 163.844 84.8801 163.948 84.5601 164.012C84.2401 164.084 83.8601 164.12 83.4201 164.12C82.8121 164.12 82.2721 163.996 81.8001 163.748C81.3361 163.5 80.9721 163.132 80.7081 162.644C80.4521 162.148 80.3241 161.544 80.3241 160.832C80.3241 160.128 80.4401 159.524 80.6721 159.02C80.9121 158.516 81.2441 158.128 81.6681 157.856C82.1001 157.584 82.6001 157.448 83.1681 157.448ZM83.1561 158.312C82.6521 158.312 82.2521 158.476 81.9561 158.804C81.6681 159.124 81.4961 159.572 81.4401 160.148H84.7161C84.7081 159.604 84.5801 159.164 84.3321 158.828C84.0841 158.484 83.6921 158.312 83.1561 158.312ZM91.2615 157.568H92.4135L89.6655 160.664L92.6415 164H91.4175L88.5135 160.736V164H87.4575V157.568H88.5135V160.688L91.2615 157.568ZM96.2451 157.46C97.0291 157.46 97.6091 157.632 97.9851 157.976C98.3611 158.32 98.5491 158.868 98.5491 159.62V164H97.7811L97.5771 163.088H97.5291C97.2491 163.44 96.9531 163.7 96.6411 163.868C96.3371 164.036 95.9131 164.12 95.3691 164.12C94.7851 164.12 94.3011 163.968 93.9171 163.664C93.5331 163.352 93.3411 162.868 93.3411 162.212C93.3411 161.572 93.5931 161.08 94.0971 160.736C94.6011 160.384 95.3771 160.192 96.4251 160.16L97.5171 160.124V159.74C97.5171 159.204 97.4011 158.832 97.1691 158.624C96.9371 158.416 96.6091 158.312 96.1851 158.312C95.8491 158.312 95.5291 158.364 95.2251 158.468C94.9211 158.564 94.6371 158.676 94.3731 158.804L94.0491 158.012C94.3291 157.86 94.6611 157.732 95.0451 157.628C95.4291 157.516 95.8291 157.46 96.2451 157.46ZM97.5051 160.856L96.5571 160.892C95.7571 160.924 95.2011 161.052 94.8891 161.276C94.5851 161.5 94.4331 161.816 94.4331 162.224C94.4331 162.584 94.5411 162.848 94.7571 163.016C94.9811 163.184 95.2651 163.268 95.6091 163.268C96.1531 163.268 96.6051 163.12 96.9651 162.824C97.3251 162.52 97.5051 162.056 97.5051 161.432V160.856ZM108.081 155.66V161.672C108.081 162.416 107.853 163.004 107.397 163.436C106.949 163.868 106.357 164.084 105.621 164.084C104.885 164.084 104.289 163.868 103.833 163.436C103.385 163.004 103.161 162.416 103.161 161.672H104.541C104.549 162.04 104.641 162.332 104.817 162.548C105.001 162.764 105.269 162.872 105.621 162.872C105.973 162.872 106.241 162.764 106.425 162.548C106.609 162.324 106.701 162.032 106.701 161.672V155.66H108.081ZM109.85 160.664C109.85 160 109.986 159.412 110.258 158.9C110.538 158.388 110.914 157.992 111.386 157.712C111.866 157.424 112.398 157.28 112.982 157.28C113.494 157.28 113.946 157.384 114.338 157.592C114.738 157.8 115.046 158.052 115.262 158.348V157.388H116.642V167.144H115.262V163.04C115.046 163.336 114.734 163.588 114.326 163.796C113.918 164.004 113.454 164.108 112.934 164.108C112.366 164.108 111.846 163.964 111.374 163.676C110.91 163.38 110.538 162.972 110.258 162.452C109.986 161.924 109.85 161.328 109.85 160.664ZM115.262 160.688C115.262 160.232 115.166 159.836 114.974 159.5C114.79 159.164 114.546 158.908 114.242 158.732C113.938 158.556 113.61 158.468 113.258 158.468C112.906 158.468 112.578 158.556 112.274 158.732C111.97 158.9 111.722 159.152 111.53 159.488C111.346 159.816 111.254 160.208 111.254 160.664C111.254 161.12 111.346 161.52 111.53 161.864C111.722 162.208 111.97 162.472 112.274 162.656C112.586 162.832 112.914 162.92 113.258 162.92C113.61 162.92 113.938 162.832 114.242 162.656C114.546 162.48 114.79 162.224 114.974 161.888C115.166 161.544 115.262 161.144 115.262 160.688ZM124.427 157.388V164H123.059V163.22C122.843 163.492 122.559 163.708 122.207 163.868C121.863 164.02 121.495 164.096 121.103 164.096C120.583 164.096 120.115 163.988 119.699 163.772C119.291 163.556 118.967 163.236 118.727 162.812C118.495 162.388 118.379 161.876 118.379 161.276V157.388H119.735V161.072C119.735 161.664 119.883 162.12 120.179 162.44C120.475 162.752 120.879 162.908 121.391 162.908C121.903 162.908 122.307 162.752 122.603 162.44C122.907 162.12 123.059 161.664 123.059 161.072V157.388H124.427ZM132.292 160.532C132.292 160.78 132.276 161.004 132.244 161.204H127.192C127.232 161.732 127.428 162.156 127.78 162.476C128.132 162.796 128.564 162.956 129.076 162.956C129.812 162.956 130.332 162.648 130.636 162.032H132.112C131.912 162.64 131.548 163.14 131.02 163.532C130.5 163.916 129.852 164.108 129.076 164.108C128.444 164.108 127.876 163.968 127.372 163.688C126.876 163.4 126.484 163 126.196 162.488C125.916 161.968 125.776 161.368 125.776 160.688C125.776 160.008 125.912 159.412 126.184 158.9C126.464 158.38 126.852 157.98 127.348 157.7C127.852 157.42 128.428 157.28 129.076 157.28C129.7 157.28 130.256 157.416 130.744 157.688C131.232 157.96 131.612 158.344 131.884 158.84C132.156 159.328 132.292 159.892 132.292 160.532ZM130.864 160.1C130.856 159.596 130.676 159.192 130.324 158.888C129.972 158.584 129.536 158.432 129.016 158.432C128.544 158.432 128.14 158.584 127.804 158.888C127.468 159.184 127.268 159.588 127.204 160.1H130.864ZM135.006 158.348C135.206 158.012 135.47 157.752 135.798 157.568C136.134 157.376 136.53 157.28 136.986 157.28V158.696H136.638C136.102 158.696 135.694 158.832 135.414 159.104C135.142 159.376 135.006 159.848 135.006 160.52V164H133.638V157.388H135.006V158.348ZM144.196 157.388L140.14 167.108H138.724L140.068 163.892L137.464 157.388H138.988L140.848 162.428L142.78 157.388H144.196ZM153.901 157.568V164H152.845V158.468H149.521V164H148.465V157.568H153.901ZM161.546 160.772C161.546 161.836 161.274 162.66 160.73 163.244C160.194 163.828 159.466 164.12 158.546 164.12C157.978 164.12 157.47 163.992 157.022 163.736C156.582 163.472 156.234 163.092 155.978 162.596C155.722 162.092 155.594 161.484 155.594 160.772C155.594 159.708 155.862 158.888 156.398 158.312C156.934 157.736 157.662 157.448 158.582 157.448C159.166 157.448 159.678 157.58 160.118 157.844C160.566 158.1 160.914 158.476 161.162 158.972C161.418 159.46 161.546 160.06 161.546 160.772ZM156.686 160.772C156.686 161.532 156.834 162.136 157.13 162.584C157.434 163.024 157.914 163.244 158.57 163.244C159.218 163.244 159.694 163.024 159.998 162.584C160.302 162.136 160.454 161.532 160.454 160.772C160.454 160.012 160.302 159.416 159.998 158.984C159.694 158.552 159.214 158.336 158.558 158.336C157.902 158.336 157.426 158.552 157.13 158.984C156.834 159.416 156.686 160.012 156.686 160.772ZM164.911 157.448C165.647 157.448 166.231 157.596 166.663 157.892C167.103 158.18 167.323 158.596 167.323 159.14C167.323 159.532 167.215 159.844 166.999 160.076C166.783 160.3 166.487 160.464 166.111 160.568V160.616C166.367 160.688 166.603 160.788 166.819 160.916C167.035 161.044 167.207 161.212 167.335 161.42C167.471 161.628 167.539 161.896 167.539 162.224C167.539 162.76 167.315 163.212 166.867 163.58C166.427 163.94 165.735 164.12 164.791 164.12C164.327 164.12 163.907 164.08 163.531 164C163.155 163.928 162.843 163.828 162.595 163.7V162.752C162.867 162.88 163.187 162.996 163.555 163.1C163.931 163.204 164.339 163.256 164.779 163.256C165.259 163.256 165.663 163.176 165.991 163.016C166.327 162.848 166.495 162.564 166.495 162.164C166.495 161.444 165.883 161.084 164.659 161.084H163.795V160.22H164.491C165.043 160.22 165.483 160.148 165.811 160.004C166.147 159.852 166.315 159.596 166.315 159.236C166.315 158.932 166.187 158.704 165.931 158.552C165.683 158.4 165.323 158.324 164.851 158.324C164.499 158.324 164.187 158.36 163.915 158.432C163.651 158.496 163.359 158.596 163.039 158.732L162.667 157.892C163.339 157.596 164.087 157.448 164.911 157.448ZM174.274 159.188C174.274 159.588 174.154 159.9 173.914 160.124C173.674 160.348 173.366 160.5 172.99 160.58V160.628C173.39 160.684 173.738 160.828 174.034 161.06C174.33 161.284 174.478 161.636 174.478 162.116C174.478 162.66 174.274 163.112 173.866 163.472C173.466 163.824 172.802 164 171.874 164H169.102V157.568H171.862C172.318 157.568 172.726 157.62 173.086 157.724C173.454 157.82 173.742 157.988 173.95 158.228C174.166 158.46 174.274 158.78 174.274 159.188ZM173.206 159.32C173.206 159.016 173.094 158.796 172.87 158.66C172.654 158.516 172.298 158.444 171.802 158.444H170.158V160.208H171.61C172.674 160.208 173.206 159.912 173.206 159.32ZM173.386 162.116C173.386 161.748 173.246 161.484 172.966 161.324C172.686 161.164 172.274 161.084 171.73 161.084H170.158V163.148H171.754C172.282 163.148 172.686 163.072 172.966 162.92C173.246 162.76 173.386 162.492 173.386 162.116ZM181.608 160.772C181.608 161.836 181.336 162.66 180.792 163.244C180.256 163.828 179.528 164.12 178.608 164.12C178.04 164.12 177.532 163.992 177.084 163.736C176.644 163.472 176.296 163.092 176.04 162.596C175.784 162.092 175.656 161.484 175.656 160.772C175.656 159.708 175.924 158.888 176.46 158.312C176.996 157.736 177.724 157.448 178.644 157.448C179.228 157.448 179.74 157.58 180.18 157.844C180.628 158.1 180.976 158.476 181.224 158.972C181.48 159.46 181.608 160.06 181.608 160.772ZM176.748 160.772C176.748 161.532 176.896 162.136 177.192 162.584C177.496 163.024 177.976 163.244 178.632 163.244C179.28 163.244 179.756 163.024 180.06 162.584C180.364 162.136 180.516 161.532 180.516 160.772C180.516 160.012 180.364 159.416 180.06 158.984C179.756 158.552 179.276 158.336 178.62 158.336C177.964 158.336 177.488 158.552 177.192 158.984C176.896 159.416 176.748 160.012 176.748 160.772ZM188.178 164H187.11V158.444H185.214C185.11 159.796 184.966 160.888 184.782 161.72C184.598 162.544 184.354 163.144 184.05 163.52C183.746 163.896 183.362 164.084 182.898 164.084C182.794 164.084 182.69 164.076 182.586 164.06C182.49 164.052 182.41 164.032 182.346 164V163.208C182.394 163.224 182.446 163.236 182.502 163.244C182.558 163.252 182.614 163.256 182.67 163.256C183.102 163.256 183.446 162.796 183.702 161.876C183.966 160.956 184.166 159.52 184.302 157.568H188.178V164ZM191.215 157.568V161.492C191.215 161.588 191.211 161.732 191.203 161.924C191.195 162.116 191.183 162.308 191.167 162.5C191.159 162.692 191.151 162.844 191.143 162.956L194.587 157.568H195.883V164H194.899V160.208C194.899 160.08 194.899 159.912 194.899 159.704C194.907 159.496 194.915 159.292 194.923 159.092C194.931 158.884 194.939 158.728 194.947 158.624L191.527 164H190.219V157.568H191.215ZM202.37 158.456H200.27V164H199.226V158.456H197.15V157.568H202.37V158.456ZM30.012 175.568H31.14L32.532 179.228C32.652 179.548 32.76 179.856 32.856 180.152C32.952 180.44 33.024 180.716 33.072 180.98H33.12C33.168 180.78 33.244 180.52 33.348 180.2C33.452 179.872 33.56 179.544 33.672 179.216L34.98 175.568H36.12L33.348 182.888C33.124 183.496 32.832 183.98 32.472 184.34C32.12 184.7 31.632 184.88 31.008 184.88C30.816 184.88 30.648 184.868 30.504 184.844C30.36 184.828 30.236 184.808 30.132 184.784V183.944C30.22 183.96 30.324 183.976 30.444 183.992C30.572 184.008 30.704 184.016 30.84 184.016C31.208 184.016 31.504 183.912 31.728 183.704C31.96 183.496 32.14 183.22 32.268 182.876L32.604 182.024L30.012 175.568ZM39.7172 182.12C39.1492 182.12 38.6412 182.004 38.1932 181.772C37.7532 181.54 37.4052 181.18 37.1492 180.692C36.9012 180.204 36.7772 179.58 36.7772 178.82C36.7772 178.028 36.9092 177.384 37.1732 176.888C37.4372 176.392 37.7932 176.028 38.2412 175.796C38.6972 175.564 39.2132 175.448 39.7892 175.448C40.1172 175.448 40.4332 175.484 40.7372 175.556C41.0412 175.62 41.2892 175.7 41.4812 175.796L41.1572 176.672C40.9652 176.6 40.7412 176.532 40.4852 176.468C40.2292 176.404 39.9892 176.372 39.7652 176.372C38.5012 176.372 37.8692 177.184 37.8692 178.808C37.8692 179.584 38.0212 180.18 38.3252 180.596C38.6372 181.004 39.0972 181.208 39.7052 181.208C40.0572 181.208 40.3652 181.172 40.6292 181.1C40.9012 181.028 41.1492 180.94 41.3732 180.836V181.772C41.1572 181.884 40.9172 181.968 40.6532 182.024C40.3972 182.088 40.0852 182.12 39.7172 182.12ZM46.7068 175.568H47.8588L45.1108 178.664L48.0868 182H46.8628L43.9588 178.736V182H42.9028V175.568H43.9588V178.688L46.7068 175.568ZM54.612 178.772C54.612 179.836 54.34 180.66 53.796 181.244C53.26 181.828 52.532 182.12 51.612 182.12C51.044 182.12 50.536 181.992 50.088 181.736C49.648 181.472 49.3 181.092 49.044 180.596C48.788 180.092 48.66 179.484 48.66 178.772C48.66 177.708 48.928 176.888 49.464 176.312C50 175.736 50.728 175.448 51.648 175.448C52.232 175.448 52.744 175.58 53.184 175.844C53.632 176.1 53.98 176.476 54.228 176.972C54.484 177.46 54.612 178.06 54.612 178.772ZM49.752 178.772C49.752 179.532 49.9 180.136 50.196 180.584C50.5 181.024 50.98 181.244 51.636 181.244C52.284 181.244 52.76 181.024 53.064 180.584C53.368 180.136 53.52 179.532 53.52 178.772C53.52 178.012 53.368 177.416 53.064 176.984C52.76 176.552 52.28 176.336 51.624 176.336C50.968 176.336 50.492 176.552 50.196 176.984C49.9 177.416 49.752 178.012 49.752 178.772ZM59.3456 175.448C60.1376 175.448 60.7736 175.724 61.2536 176.276C61.7416 176.828 61.9856 177.66 61.9856 178.772C61.9856 179.868 61.7416 180.7 61.2536 181.268C60.7736 181.836 60.1336 182.12 59.3336 182.12C58.8376 182.12 58.4256 182.028 58.0976 181.844C57.7776 181.652 57.5256 181.432 57.3416 181.184H57.2696C57.2856 181.32 57.3016 181.492 57.3176 181.7C57.3336 181.908 57.3416 182.088 57.3416 182.24V184.88H56.2856V175.568H57.1496L57.2936 176.444H57.3416C57.5336 176.164 57.7856 175.928 58.0976 175.736C58.4096 175.544 58.8256 175.448 59.3456 175.448ZM59.1536 176.336C58.4976 176.336 58.0336 176.52 57.7616 176.888C57.4976 177.256 57.3576 177.816 57.3416 178.568V178.772C57.3416 179.564 57.4696 180.176 57.7256 180.608C57.9896 181.032 58.4736 181.244 59.1776 181.244C59.5696 181.244 59.8896 181.136 60.1376 180.92C60.3936 180.704 60.5816 180.412 60.7016 180.044C60.8296 179.668 60.8936 179.24 60.8936 178.76C60.8936 178.024 60.7496 177.436 60.4616 176.996C60.1816 176.556 59.7456 176.336 59.1536 176.336ZM64.6644 175.568V179.492C64.6644 179.588 64.6604 179.732 64.6524 179.924C64.6444 180.116 64.6324 180.308 64.6164 180.5C64.6084 180.692 64.6004 180.844 64.5924 180.956L68.0364 175.568H69.3324V182H68.3484V178.208C68.3484 178.08 68.3484 177.912 68.3484 177.704C68.3564 177.496 68.3644 177.292 68.3724 177.092C68.3804 176.884 68.3884 176.728 68.3964 176.624L64.9764 182H63.6684V175.568H64.6644ZM75.8194 176.456H73.7194V182H72.6754V176.456H70.5994V175.568H75.8194V176.456ZM78.1424 178.208H80.0504C81.7224 178.208 82.5584 178.816 82.5584 180.032C82.5584 180.632 82.3544 181.112 81.9464 181.472C81.5384 181.824 80.8904 182 80.0024 182H77.0864V175.568H78.1424V178.208ZM81.5024 180.092C81.5024 179.7 81.3624 179.436 81.0824 179.3C80.8104 179.156 80.4264 179.084 79.9304 179.084H78.1424V181.148H79.9544C80.4024 181.148 80.7704 181.068 81.0584 180.908C81.3544 180.748 81.5024 180.476 81.5024 180.092ZM90.3886 175.448C91.1806 175.448 91.8166 175.724 92.2966 176.276C92.7846 176.828 93.0286 177.66 93.0286 178.772C93.0286 179.868 92.7846 180.7 92.2966 181.268C91.8166 181.836 91.1766 182.12 90.3766 182.12C89.8806 182.12 89.4686 182.028 89.1406 181.844C88.8206 181.652 88.5686 181.432 88.3846 181.184H88.3126C88.3286 181.32 88.3446 181.492 88.3606 181.7C88.3766 181.908 88.3846 182.088 88.3846 182.24V184.88H87.3286V175.568H88.1926L88.3366 176.444H88.3846C88.5766 176.164 88.8286 175.928 89.1406 175.736C89.4526 175.544 89.8686 175.448 90.3886 175.448ZM90.1966 176.336C89.5406 176.336 89.0766 176.52 88.8046 176.888C88.5406 177.256 88.4006 177.816 88.3846 178.568V178.772C88.3846 179.564 88.5126 180.176 88.7686 180.608C89.0326 181.032 89.5166 181.244 90.2206 181.244C90.6126 181.244 90.9326 181.136 91.1806 180.92C91.4366 180.704 91.6246 180.412 91.7446 180.044C91.8726 179.668 91.9366 179.24 91.9366 178.76C91.9366 178.024 91.7926 177.436 91.5046 176.996C91.2246 176.556 90.7886 176.336 90.1966 176.336ZM97.1474 175.46C97.9314 175.46 98.5114 175.632 98.8874 175.976C99.2634 176.32 99.4514 176.868 99.4514 177.62V182H98.6834L98.4794 181.088H98.4314C98.1514 181.44 97.8554 181.7 97.5434 181.868C97.2394 182.036 96.8154 182.12 96.2714 182.12C95.6874 182.12 95.2034 181.968 94.8194 181.664C94.4354 181.352 94.2434 180.868 94.2434 180.212C94.2434 179.572 94.4954 179.08 94.9994 178.736C95.5034 178.384 96.2794 178.192 97.3274 178.16L98.4194 178.124V177.74C98.4194 177.204 98.3034 176.832 98.0714 176.624C97.8394 176.416 97.5114 176.312 97.0874 176.312C96.7514 176.312 96.4314 176.364 96.1274 176.468C95.8234 176.564 95.5394 176.676 95.2754 176.804L94.9514 176.012C95.2314 175.86 95.5634 175.732 95.9474 175.628C96.3314 175.516 96.7314 175.46 97.1474 175.46ZM98.4074 178.856L97.4594 178.892C96.6594 178.924 96.1034 179.052 95.7914 179.276C95.4874 179.5 95.3354 179.816 95.3354 180.224C95.3354 180.584 95.4434 180.848 95.6594 181.016C95.8834 181.184 96.1674 181.268 96.5114 181.268C97.0554 181.268 97.5074 181.12 97.8674 180.824C98.2274 180.52 98.4074 180.056 98.4074 179.432V178.856ZM103.13 175.448C103.866 175.448 104.45 175.596 104.882 175.892C105.322 176.18 105.542 176.596 105.542 177.14C105.542 177.532 105.434 177.844 105.218 178.076C105.002 178.3 104.706 178.464 104.33 178.568V178.616C104.586 178.688 104.822 178.788 105.038 178.916C105.254 179.044 105.426 179.212 105.554 179.42C105.69 179.628 105.758 179.896 105.758 180.224C105.758 180.76 105.534 181.212 105.086 181.58C104.646 181.94 103.954 182.12 103.01 182.12C102.546 182.12 102.126 182.08 101.75 182C101.374 181.928 101.062 181.828 100.814 181.7V180.752C101.086 180.88 101.406 180.996 101.774 181.1C102.15 181.204 102.558 181.256 102.998 181.256C103.478 181.256 103.882 181.176 104.21 181.016C104.546 180.848 104.714 180.564 104.714 180.164C104.714 179.444 104.102 179.084 102.878 179.084H102.014V178.22H102.71C103.262 178.22 103.702 178.148 104.03 178.004C104.366 177.852 104.534 177.596 104.534 177.236C104.534 176.932 104.406 176.704 104.15 176.552C103.902 176.4 103.542 176.324 103.07 176.324C102.718 176.324 102.406 176.36 102.134 176.432C101.87 176.496 101.578 176.596 101.258 176.732L100.886 175.892C101.558 175.596 102.306 175.448 103.13 175.448ZM110.381 175.448C111.173 175.448 111.809 175.724 112.289 176.276C112.777 176.828 113.021 177.66 113.021 178.772C113.021 179.868 112.777 180.7 112.289 181.268C111.809 181.836 111.169 182.12 110.369 182.12C109.873 182.12 109.461 182.028 109.133 181.844C108.813 181.652 108.561 181.432 108.377 181.184H108.305C108.321 181.32 108.337 181.492 108.353 181.7C108.369 181.908 108.377 182.088 108.377 182.24V184.88H107.321V175.568H108.185L108.329 176.444H108.377C108.569 176.164 108.821 175.928 109.133 175.736C109.445 175.544 109.861 175.448 110.381 175.448ZM110.189 176.336C109.533 176.336 109.069 176.52 108.797 176.888C108.533 177.256 108.393 177.816 108.377 178.568V178.772C108.377 179.564 108.505 180.176 108.761 180.608C109.025 181.032 109.509 181.244 110.213 181.244C110.605 181.244 110.925 181.136 111.173 180.92C111.429 180.704 111.617 180.412 111.737 180.044C111.865 179.668 111.929 179.24 111.929 178.76C111.929 178.024 111.785 177.436 111.497 176.996C111.217 176.556 110.781 176.336 110.189 176.336ZM117.14 175.46C117.924 175.46 118.504 175.632 118.88 175.976C119.256 176.32 119.444 176.868 119.444 177.62V182H118.676L118.472 181.088H118.424C118.144 181.44 117.848 181.7 117.536 181.868C117.232 182.036 116.808 182.12 116.264 182.12C115.68 182.12 115.196 181.968 114.812 181.664C114.428 181.352 114.236 180.868 114.236 180.212C114.236 179.572 114.488 179.08 114.992 178.736C115.496 178.384 116.272 178.192 117.32 178.16L118.412 178.124V177.74C118.412 177.204 118.296 176.832 118.064 176.624C117.832 176.416 117.504 176.312 117.08 176.312C116.744 176.312 116.424 176.364 116.12 176.468C115.816 176.564 115.532 176.676 115.268 176.804L114.944 176.012C115.224 175.86 115.556 175.732 115.94 175.628C116.324 175.516 116.724 175.46 117.14 175.46ZM118.4 178.856L117.452 178.892C116.652 178.924 116.096 179.052 115.784 179.276C115.48 179.5 115.328 179.816 115.328 180.224C115.328 180.584 115.436 180.848 115.652 181.016C115.876 181.184 116.16 181.268 116.504 181.268C117.048 181.268 117.5 181.12 117.86 180.824C118.22 180.52 118.4 180.056 118.4 179.432V178.856ZM121.094 178.136C121.094 176.728 121.306 175.632 121.73 174.848C122.154 174.056 122.838 173.56 123.782 173.36C124.302 173.248 124.81 173.148 125.306 173.06C125.802 172.972 126.266 172.892 126.698 172.82L126.878 173.744C126.598 173.784 126.282 173.836 125.93 173.9C125.578 173.956 125.23 174.016 124.886 174.08C124.542 174.136 124.246 174.192 123.998 174.248C123.478 174.36 123.066 174.632 122.762 175.064C122.458 175.488 122.286 176.152 122.246 177.056H122.318C122.43 176.904 122.582 176.748 122.774 176.588C122.974 176.428 123.21 176.292 123.482 176.18C123.762 176.068 124.078 176.012 124.43 176.012C125.262 176.012 125.89 176.28 126.314 176.816C126.738 177.352 126.95 178.048 126.95 178.904C126.95 179.616 126.826 180.212 126.578 180.692C126.33 181.172 125.986 181.532 125.546 181.772C125.106 182.004 124.594 182.12 124.01 182.12C123.122 182.12 122.414 181.78 121.886 181.1C121.358 180.42 121.094 179.432 121.094 178.136ZM124.094 181.244C124.614 181.244 125.034 181.076 125.354 180.74C125.674 180.404 125.834 179.828 125.834 179.012C125.834 178.356 125.71 177.84 125.462 177.464C125.222 177.08 124.822 176.888 124.262 176.888C123.91 176.888 123.59 176.968 123.302 177.128C123.014 177.28 122.774 177.456 122.582 177.656C122.39 177.856 122.254 178.024 122.174 178.16C122.174 178.552 122.202 178.932 122.258 179.3C122.314 179.668 122.41 180 122.546 180.296C122.69 180.584 122.886 180.816 123.134 180.992C123.39 181.16 123.71 181.244 124.094 181.244ZM134.206 178.772C134.206 179.836 133.934 180.66 133.39 181.244C132.854 181.828 132.126 182.12 131.206 182.12C130.638 182.12 130.13 181.992 129.682 181.736C129.242 181.472 128.894 181.092 128.638 180.596C128.382 180.092 128.254 179.484 128.254 178.772C128.254 177.708 128.522 176.888 129.058 176.312C129.594 175.736 130.322 175.448 131.242 175.448C131.826 175.448 132.338 175.58 132.778 175.844C133.226 176.1 133.574 176.476 133.822 176.972C134.078 177.46 134.206 178.06 134.206 178.772ZM129.346 178.772C129.346 179.532 129.494 180.136 129.79 180.584C130.094 181.024 130.574 181.244 131.23 181.244C131.878 181.244 132.354 181.024 132.658 180.584C132.962 180.136 133.114 179.532 133.114 178.772C133.114 178.012 132.962 177.416 132.658 176.984C132.354 176.552 131.874 176.336 131.218 176.336C130.562 176.336 130.086 176.552 129.79 176.984C129.494 177.416 129.346 178.012 129.346 178.772ZM140.202 176.456H138.102V182H137.058V176.456H134.982V175.568H140.202V176.456ZM145.273 175.568H146.425L143.677 178.664L146.653 182H145.429L142.525 178.736V182H141.469V175.568H142.525V178.688L145.273 175.568ZM146.813 175.568H147.941L149.333 179.228C149.453 179.548 149.561 179.856 149.657 180.152C149.753 180.44 149.825 180.716 149.873 180.98H149.921C149.969 180.78 150.045 180.52 150.149 180.2C150.253 179.872 150.361 179.544 150.473 179.216L151.781 175.568H152.921L150.149 182.888C149.925 183.496 149.633 183.98 149.273 184.34C148.921 184.7 148.433 184.88 147.809 184.88C147.617 184.88 147.449 184.868 147.305 184.844C147.161 184.828 147.037 184.808 146.933 184.784V183.944C147.021 183.96 147.125 183.976 147.245 183.992C147.373 184.008 147.505 184.016 147.641 184.016C148.009 184.016 148.305 183.912 148.529 183.704C148.761 183.496 148.941 183.22 149.069 182.876L149.405 182.024L146.813 175.568ZM154.37 182.084C154.122 182.084 153.914 182 153.746 181.832C153.578 181.664 153.494 181.456 153.494 181.208C153.494 180.96 153.578 180.752 153.746 180.584C153.914 180.416 154.122 180.332 154.37 180.332C154.61 180.332 154.814 180.416 154.982 180.584C155.15 180.752 155.234 180.96 155.234 181.208C155.234 181.456 155.15 181.664 154.982 181.832C154.814 182 154.61 182.084 154.37 182.084ZM160.094 182V173.432H165.182V174.38H161.174V177.056H162.446C163.302 177.056 163.966 177.164 164.438 177.38C164.91 177.588 165.238 177.876 165.422 178.244C165.606 178.604 165.698 179.02 165.698 179.492C165.698 180.276 165.462 180.892 164.99 181.34C164.518 181.78 163.722 182 162.602 182H160.094ZM161.174 181.076H162.494C163.262 181.076 163.802 180.948 164.114 180.692C164.426 180.428 164.582 180.028 164.582 179.492C164.582 178.94 164.41 178.552 164.066 178.328C163.722 178.104 163.138 177.992 162.314 177.992H161.174V181.076ZM169.817 175.448C170.369 175.448 170.841 175.568 171.233 175.808C171.633 176.048 171.937 176.388 172.145 176.828C172.361 177.26 172.469 177.768 172.469 178.352V178.988H168.065C168.081 179.716 168.265 180.272 168.617 180.656C168.977 181.032 169.477 181.22 170.117 181.22C170.525 181.22 170.885 181.184 171.197 181.112C171.517 181.032 171.845 180.92 172.181 180.776V181.7C171.853 181.844 171.529 181.948 171.209 182.012C170.889 182.084 170.509 182.12 170.069 182.12C169.461 182.12 168.921 181.996 168.449 181.748C167.985 181.5 167.621 181.132 167.357 180.644C167.101 180.148 166.973 179.544 166.973 178.832C166.973 178.128 167.089 177.524 167.321 177.02C167.561 176.516 167.893 176.128 168.317 175.856C168.749 175.584 169.249 175.448 169.817 175.448ZM169.805 176.312C169.301 176.312 168.901 176.476 168.605 176.804C168.317 177.124 168.145 177.572 168.089 178.148H171.365C171.357 177.604 171.229 177.164 170.981 176.828C170.733 176.484 170.341 176.312 169.805 176.312ZM175.798 175.448C176.534 175.448 177.118 175.596 177.55 175.892C177.99 176.18 178.21 176.596 178.21 177.14C178.21 177.532 178.102 177.844 177.886 178.076C177.67 178.3 177.374 178.464 176.998 178.568V178.616C177.254 178.688 177.49 178.788 177.706 178.916C177.922 179.044 178.094 179.212 178.222 179.42C178.358 179.628 178.426 179.896 178.426 180.224C178.426 180.76 178.202 181.212 177.754 181.58C177.314 181.94 176.622 182.12 175.678 182.12C175.214 182.12 174.794 182.08 174.418 182C174.042 181.928 173.73 181.828 173.482 181.7V180.752C173.754 180.88 174.074 180.996 174.442 181.1C174.818 181.204 175.226 181.256 175.666 181.256C176.146 181.256 176.55 181.176 176.878 181.016C177.214 180.848 177.382 180.564 177.382 180.164C177.382 179.444 176.77 179.084 175.546 179.084H174.682V178.22H175.378C175.93 178.22 176.37 178.148 176.698 178.004C177.034 177.852 177.202 177.596 177.202 177.236C177.202 176.932 177.074 176.704 176.818 176.552C176.57 176.4 176.21 176.324 175.738 176.324C175.386 176.324 175.074 176.36 174.802 176.432C174.538 176.496 174.246 176.596 173.926 176.732L173.554 175.892C174.226 175.596 174.974 175.448 175.798 175.448ZM32.076 193.568V196.244H35.568V193.568H36.624V200H35.568V197.132H32.076V200H31.02V193.568H32.076ZM41.1446 193.448C41.6966 193.448 42.1686 193.568 42.5606 193.808C42.9606 194.048 43.2646 194.388 43.4726 194.828C43.6886 195.26 43.7966 195.768 43.7966 196.352V196.988H39.3926C39.4086 197.716 39.5926 198.272 39.9446 198.656C40.3046 199.032 40.8046 199.22 41.4446 199.22C41.8526 199.22 42.2126 199.184 42.5246 199.112C42.8446 199.032 43.1726 198.92 43.5086 198.776V199.7C43.1806 199.844 42.8566 199.948 42.5366 200.012C42.2166 200.084 41.8366 200.12 41.3966 200.12C40.7886 200.12 40.2486 199.996 39.7766 199.748C39.3126 199.5 38.9486 199.132 38.6846 198.644C38.4286 198.148 38.3006 197.544 38.3006 196.832C38.3006 196.128 38.4166 195.524 38.6486 195.02C38.8886 194.516 39.2206 194.128 39.6446 193.856C40.0766 193.584 40.5766 193.448 41.1446 193.448ZM41.1326 194.312C40.6286 194.312 40.2286 194.476 39.9326 194.804C39.6446 195.124 39.4726 195.572 39.4166 196.148H42.6926C42.6846 195.604 42.5566 195.164 42.3086 194.828C42.0606 194.484 41.6686 194.312 41.1326 194.312ZM51.0261 196.772C51.0261 197.836 50.7541 198.66 50.2101 199.244C49.6741 199.828 48.9461 200.12 48.0261 200.12C47.4581 200.12 46.9501 199.992 46.5021 199.736C46.0621 199.472 45.7141 199.092 45.4581 198.596C45.2021 198.092 45.0741 197.484 45.0741 196.772C45.0741 195.708 45.3421 194.888 45.8781 194.312C46.4141 193.736 47.1421 193.448 48.0621 193.448C48.6461 193.448 49.1581 193.58 49.5981 193.844C50.0461 194.1 50.3941 194.476 50.6421 194.972C50.8981 195.46 51.0261 196.06 51.0261 196.772ZM46.1661 196.772C46.1661 197.532 46.3141 198.136 46.6101 198.584C46.9141 199.024 47.3941 199.244 48.0501 199.244C48.6981 199.244 49.1741 199.024 49.4781 198.584C49.7821 198.136 49.9341 197.532 49.9341 196.772C49.9341 196.012 49.7821 195.416 49.4781 194.984C49.1741 194.552 48.6941 194.336 48.0381 194.336C47.3821 194.336 46.9061 194.552 46.6101 194.984C46.3141 195.416 46.1661 196.012 46.1661 196.772ZM52.3637 196.136C52.3637 194.728 52.5757 193.632 52.9997 192.848C53.4237 192.056 54.1077 191.56 55.0517 191.36C55.5717 191.248 56.0797 191.148 56.5757 191.06C57.0717 190.972 57.5357 190.892 57.9677 190.82L58.1477 191.744C57.8677 191.784 57.5517 191.836 57.1997 191.9C56.8477 191.956 56.4997 192.016 56.1557 192.08C55.8117 192.136 55.5157 192.192 55.2677 192.248C54.7477 192.36 54.3357 192.632 54.0317 193.064C53.7277 193.488 53.5557 194.152 53.5157 195.056H53.5877C53.6997 194.904 53.8517 194.748 54.0437 194.588C54.2437 194.428 54.4797 194.292 54.7517 194.18C55.0317 194.068 55.3477 194.012 55.6997 194.012C56.5317 194.012 57.1597 194.28 57.5837 194.816C58.0077 195.352 58.2197 196.048 58.2197 196.904C58.2197 197.616 58.0957 198.212 57.8477 198.692C57.5997 199.172 57.2557 199.532 56.8157 199.772C56.3757 200.004 55.8637 200.12 55.2797 200.12C54.3917 200.12 53.6837 199.78 53.1557 199.1C52.6277 198.42 52.3637 197.432 52.3637 196.136ZM55.3637 199.244C55.8837 199.244 56.3037 199.076 56.6237 198.74C56.9437 198.404 57.1037 197.828 57.1037 197.012C57.1037 196.356 56.9797 195.84 56.7317 195.464C56.4917 195.08 56.0917 194.888 55.5317 194.888C55.1797 194.888 54.8597 194.968 54.5717 195.128C54.2837 195.28 54.0437 195.456 53.8517 195.656C53.6597 195.856 53.5237 196.024 53.4437 196.16C53.4437 196.552 53.4717 196.932 53.5277 197.3C53.5837 197.668 53.6797 198 53.8157 198.296C53.9597 198.584 54.1557 198.816 54.4037 198.992C54.6597 199.16 54.9797 199.244 55.3637 199.244ZM61.4073 196.712L59.1873 193.568H60.3873L62.0433 195.992L63.6873 193.568H64.8753L62.6553 196.712L64.9953 200H63.7953L62.0433 197.432L60.2673 200H59.0793L61.4073 196.712ZM71.5925 196.772C71.5925 197.836 71.3205 198.66 70.7765 199.244C70.2405 199.828 69.5125 200.12 68.5925 200.12C68.0245 200.12 67.5165 199.992 67.0685 199.736C66.6285 199.472 66.2805 199.092 66.0245 198.596C65.7685 198.092 65.6405 197.484 65.6405 196.772C65.6405 195.708 65.9085 194.888 66.4445 194.312C66.9805 193.736 67.7085 193.448 68.6285 193.448C69.2125 193.448 69.7245 193.58 70.1645 193.844C70.6125 194.1 70.9605 194.476 71.2085 194.972C71.4645 195.46 71.5925 196.06 71.5925 196.772ZM66.7325 196.772C66.7325 197.532 66.8805 198.136 67.1765 198.584C67.4805 199.024 67.9605 199.244 68.6165 199.244C69.2645 199.244 69.7405 199.024 70.0445 198.584C70.3485 198.136 70.5005 197.532 70.5005 196.772C70.5005 196.012 70.3485 195.416 70.0445 194.984C69.7405 194.552 69.2605 194.336 68.6045 194.336C67.9485 194.336 67.4725 194.552 67.1765 194.984C66.8805 195.416 66.7325 196.012 66.7325 196.772ZM78.0421 193.568V199.112H78.9781V202.232H77.9581V200H73.4821V202.232H72.4741V199.112H72.9901C73.5421 198.352 73.9541 197.488 74.2261 196.52C74.5061 195.544 74.6501 194.56 74.6581 193.568H78.0421ZM77.0221 194.396H75.5941C75.5621 194.94 75.4781 195.504 75.3421 196.088C75.2061 196.664 75.0301 197.216 74.8141 197.744C74.6061 198.272 74.3621 198.728 74.0821 199.112H77.0221V194.396ZM81.2348 193.568V197.492C81.2348 197.588 81.2308 197.732 81.2228 197.924C81.2148 198.116 81.2028 198.308 81.1868 198.5C81.1788 198.692 81.1708 198.844 81.1628 198.956L84.6068 193.568H85.9028V200H84.9188V196.208C84.9188 196.08 84.9188 195.912 84.9188 195.704C84.9268 195.496 84.9348 195.292 84.9428 195.092C84.9508 194.884 84.9588 194.728 84.9668 194.624L81.5468 200H80.2388V193.568H81.2348ZM94.8497 193.568V200H93.9017V195.896C93.9017 195.728 93.9057 195.552 93.9137 195.368C93.9297 195.184 93.9457 195.004 93.9617 194.828H93.9257L91.8257 200H90.9377L88.8977 194.828H88.8617C88.8857 195.188 88.8977 195.556 88.8977 195.932V200H87.9497V193.568H89.3537L91.3817 198.74L93.4457 193.568H94.8497ZM102.495 196.772C102.495 197.836 102.223 198.66 101.679 199.244C101.143 199.828 100.415 200.12 99.4948 200.12C98.9268 200.12 98.4188 199.992 97.9708 199.736C97.5308 199.472 97.1828 199.092 96.9268 198.596C96.6708 198.092 96.5428 197.484 96.5428 196.772C96.5428 195.708 96.8108 194.888 97.3468 194.312C97.8828 193.736 98.6108 193.448 99.5308 193.448C100.115 193.448 100.627 193.58 101.067 193.844C101.515 194.1 101.863 194.476 102.111 194.972C102.367 195.46 102.495 196.06 102.495 196.772ZM97.6348 196.772C97.6348 197.532 97.7828 198.136 98.0788 198.584C98.3828 199.024 98.8628 199.244 99.5188 199.244C100.167 199.244 100.643 199.024 100.947 198.584C101.251 198.136 101.403 197.532 101.403 196.772C101.403 196.012 101.251 195.416 100.947 194.984C100.643 194.552 100.163 194.336 99.5068 194.336C98.8508 194.336 98.3748 194.552 98.0788 194.984C97.7828 195.416 97.6348 196.012 97.6348 196.772ZM106.748 200.12C106.18 200.12 105.672 200.004 105.224 199.772C104.784 199.54 104.436 199.18 104.18 198.692C103.932 198.204 103.808 197.58 103.808 196.82C103.808 196.028 103.94 195.384 104.204 194.888C104.468 194.392 104.824 194.028 105.272 193.796C105.728 193.564 106.244 193.448 106.82 193.448C107.148 193.448 107.464 193.484 107.768 193.556C108.072 193.62 108.32 193.7 108.512 193.796L108.188 194.672C107.996 194.6 107.772 194.532 107.516 194.468C107.26 194.404 107.02 194.372 106.796 194.372C105.532 194.372 104.9 195.184 104.9 196.808C104.9 197.584 105.052 198.18 105.356 198.596C105.668 199.004 106.128 199.208 106.736 199.208C107.088 199.208 107.396 199.172 107.66 199.1C107.932 199.028 108.18 198.94 108.404 198.836V199.772C108.188 199.884 107.948 199.968 107.684 200.024C107.428 200.088 107.116 200.12 106.748 200.12ZM114.374 194.456H112.274V200H111.23V194.456H109.154V193.568H114.374V194.456ZM116.637 193.568V197.492C116.637 197.588 116.633 197.732 116.625 197.924C116.617 198.116 116.605 198.308 116.589 198.5C116.581 198.692 116.573 198.844 116.565 198.956L120.009 193.568H121.305V200H120.321V196.208C120.321 196.08 120.321 195.912 120.321 195.704C120.329 195.496 120.337 195.292 120.345 195.092C120.353 194.884 120.361 194.728 120.369 194.624L116.949 200H115.641V193.568H116.637ZM127.465 193.568V197.492C127.465 197.588 127.461 197.732 127.453 197.924C127.445 198.116 127.433 198.308 127.417 198.5C127.409 198.692 127.401 198.844 127.393 198.956L130.837 193.568H132.133V200H131.149V196.208C131.149 196.08 131.149 195.912 131.149 195.704C131.157 195.496 131.165 195.292 131.173 195.092C131.181 194.884 131.189 194.728 131.197 194.624L127.777 200H126.469V193.568H127.465ZM135.236 193.568V196.244H138.728V193.568H139.784V200H138.728V197.132H135.236V200H134.18V193.568H135.236ZM146.261 194.456H144.161V200H143.117V194.456H141.041V193.568H146.261V194.456ZM149.895 193.448C150.447 193.448 150.919 193.568 151.311 193.808C151.711 194.048 152.015 194.388 152.223 194.828C152.439 195.26 152.547 195.768 152.547 196.352V196.988H148.143C148.159 197.716 148.343 198.272 148.695 198.656C149.055 199.032 149.555 199.22 150.195 199.22C150.603 199.22 150.963 199.184 151.275 199.112C151.595 199.032 151.923 198.92 152.259 198.776V199.7C151.931 199.844 151.607 199.948 151.287 200.012C150.967 200.084 150.587 200.12 150.147 200.12C149.539 200.12 148.999 199.996 148.527 199.748C148.063 199.5 147.699 199.132 147.435 198.644C147.179 198.148 147.051 197.544 147.051 196.832C147.051 196.128 147.167 195.524 147.399 195.02C147.639 194.516 147.971 194.128 148.395 193.856C148.827 193.584 149.327 193.448 149.895 193.448ZM149.883 194.312C149.379 194.312 148.979 194.476 148.683 194.804C148.395 195.124 148.223 195.572 148.167 196.148H151.443C151.435 195.604 151.307 195.164 151.059 194.828C150.811 194.484 150.419 194.312 149.883 194.312ZM158.108 193.568V194.456H155.24V200H154.184V193.568H158.108ZM162.435 193.448C163.227 193.448 163.863 193.724 164.343 194.276C164.831 194.828 165.075 195.66 165.075 196.772C165.075 197.868 164.831 198.7 164.343 199.268C163.863 199.836 163.223 200.12 162.423 200.12C161.927 200.12 161.515 200.028 161.187 199.844C160.867 199.652 160.615 199.432 160.431 199.184H160.359C160.375 199.32 160.391 199.492 160.407 199.7C160.423 199.908 160.431 200.088 160.431 200.24V202.88H159.375V193.568H160.239L160.383 194.444H160.431C160.623 194.164 160.875 193.928 161.187 193.736C161.499 193.544 161.915 193.448 162.435 193.448ZM162.243 194.336C161.587 194.336 161.123 194.52 160.851 194.888C160.587 195.256 160.447 195.816 160.431 196.568V196.772C160.431 197.564 160.559 198.176 160.815 198.608C161.079 199.032 161.563 199.244 162.267 199.244C162.659 199.244 162.979 199.136 163.227 198.92C163.483 198.704 163.671 198.412 163.791 198.044C163.919 197.668 163.983 197.24 163.983 196.76C163.983 196.024 163.839 195.436 163.551 194.996C163.271 194.556 162.835 194.336 162.243 194.336ZM167.754 193.568V197.492C167.754 197.588 167.75 197.732 167.742 197.924C167.734 198.116 167.722 198.308 167.706 198.5C167.698 198.692 167.69 198.844 167.682 198.956L171.126 193.568H172.422V200H171.438V196.208C171.438 196.08 171.438 195.912 171.438 195.704C171.446 195.496 171.454 195.292 171.462 195.092C171.47 194.884 171.478 194.728 171.486 194.624L168.066 200H166.758V193.568H167.754ZM177.529 193.448C178.321 193.448 178.957 193.724 179.437 194.276C179.925 194.828 180.169 195.66 180.169 196.772C180.169 197.868 179.925 198.7 179.437 199.268C178.957 199.836 178.317 200.12 177.517 200.12C177.021 200.12 176.609 200.028 176.281 199.844C175.961 199.652 175.709 199.432 175.525 199.184H175.453C175.469 199.32 175.485 199.492 175.501 199.7C175.517 199.908 175.525 200.088 175.525 200.24V202.88H174.469V193.568H175.333L175.477 194.444H175.525C175.717 194.164 175.969 193.928 176.281 193.736C176.593 193.544 177.009 193.448 177.529 193.448ZM177.337 194.336C176.681 194.336 176.217 194.52 175.945 194.888C175.681 195.256 175.541 195.816 175.525 196.568V196.772C175.525 197.564 175.653 198.176 175.909 198.608C176.173 199.032 176.657 199.244 177.361 199.244C177.753 199.244 178.073 199.136 178.321 198.92C178.577 198.704 178.765 198.412 178.885 198.044C179.013 197.668 179.077 197.24 179.077 196.76C179.077 196.024 178.933 195.436 178.645 194.996C178.365 194.556 177.929 194.336 177.337 194.336ZM187.444 196.772C187.444 197.836 187.172 198.66 186.628 199.244C186.092 199.828 185.364 200.12 184.444 200.12C183.876 200.12 183.368 199.992 182.92 199.736C182.48 199.472 182.132 199.092 181.876 198.596C181.62 198.092 181.492 197.484 181.492 196.772C181.492 195.708 181.76 194.888 182.296 194.312C182.832 193.736 183.56 193.448 184.48 193.448C185.064 193.448 185.576 193.58 186.016 193.844C186.464 194.1 186.812 194.476 187.06 194.972C187.316 195.46 187.444 196.06 187.444 196.772ZM182.584 196.772C182.584 197.532 182.732 198.136 183.028 198.584C183.332 199.024 183.812 199.244 184.468 199.244C185.116 199.244 185.592 199.024 185.896 198.584C186.2 198.136 186.352 197.532 186.352 196.772C186.352 196.012 186.2 195.416 185.896 194.984C185.592 194.552 185.112 194.336 184.456 194.336C183.8 194.336 183.324 194.552 183.028 194.984C182.732 195.416 182.584 196.012 182.584 196.772ZM194.29 195.188C194.29 195.588 194.17 195.9 193.93 196.124C193.69 196.348 193.382 196.5 193.006 196.58V196.628C193.406 196.684 193.754 196.828 194.05 197.06C194.346 197.284 194.494 197.636 194.494 198.116C194.494 198.66 194.29 199.112 193.882 199.472C193.482 199.824 192.818 200 191.89 200H189.118V193.568H191.878C192.334 193.568 192.742 193.62 193.102 193.724C193.47 193.82 193.758 193.988 193.966 194.228C194.182 194.46 194.29 194.78 194.29 195.188ZM193.222 195.32C193.222 195.016 193.11 194.796 192.886 194.66C192.67 194.516 192.314 194.444 191.818 194.444H190.174V196.208H191.626C192.69 196.208 193.222 195.912 193.222 195.32ZM193.402 198.116C193.402 197.748 193.262 197.484 192.982 197.324C192.702 197.164 192.29 197.084 191.746 197.084H190.174V199.148H191.77C192.298 199.148 192.702 199.072 192.982 198.92C193.262 198.76 193.402 198.492 193.402 198.116ZM198.468 193.46C199.252 193.46 199.832 193.632 200.208 193.976C200.584 194.32 200.772 194.868 200.772 195.62V200H200.004L199.8 199.088H199.752C199.472 199.44 199.176 199.7 198.864 199.868C198.56 200.036 198.136 200.12 197.592 200.12C197.008 200.12 196.524 199.968 196.14 199.664C195.756 199.352 195.564 198.868 195.564 198.212C195.564 197.572 195.816 197.08 196.32 196.736C196.824 196.384 197.6 196.192 198.648 196.16L199.74 196.124V195.74C199.74 195.204 199.624 194.832 199.392 194.624C199.16 194.416 198.832 194.312 198.408 194.312C198.072 194.312 197.752 194.364 197.448 194.468C197.144 194.564 196.86 194.676 196.596 194.804L196.272 194.012C196.552 193.86 196.884 193.732 197.268 193.628C197.652 193.516 198.052 193.46 198.468 193.46ZM199.728 196.856L198.78 196.892C197.98 196.924 197.424 197.052 197.112 197.276C196.808 197.5 196.656 197.816 196.656 198.224C196.656 198.584 196.764 198.848 196.98 199.016C197.204 199.184 197.488 199.268 197.832 199.268C198.376 199.268 198.828 199.12 199.188 198.824C199.548 198.52 199.728 198.056 199.728 197.432V196.856ZM207.198 194.456H205.098V200H204.054V194.456H201.978V193.568H207.198V194.456ZM209.521 196.208H211.429C213.101 196.208 213.937 196.816 213.937 198.032C213.937 198.632 213.733 199.112 213.325 199.472C212.917 199.824 212.269 200 211.381 200H208.465V193.568H209.521V196.208ZM212.881 198.092C212.881 197.7 212.741 197.436 212.461 197.3C212.189 197.156 211.805 197.084 211.309 197.084H209.521V199.148H211.333C211.781 199.148 212.149 199.068 212.437 198.908C212.733 198.748 212.881 198.476 212.881 198.092ZM223.88 195.188C223.88 195.588 223.76 195.9 223.52 196.124C223.28 196.348 222.972 196.5 222.596 196.58V196.628C222.996 196.684 223.344 196.828 223.64 197.06C223.936 197.284 224.084 197.636 224.084 198.116C224.084 198.66 223.88 199.112 223.472 199.472C223.072 199.824 222.408 200 221.48 200H218.708V193.568H221.468C221.924 193.568 222.332 193.62 222.692 193.724C223.06 193.82 223.348 193.988 223.556 194.228C223.772 194.46 223.88 194.78 223.88 195.188ZM222.812 195.32C222.812 195.016 222.7 194.796 222.476 194.66C222.26 194.516 221.904 194.444 221.408 194.444H219.764V196.208H221.215C222.28 196.208 222.812 195.912 222.812 195.32ZM222.992 198.116C222.992 197.748 222.852 197.484 222.572 197.324C222.292 197.164 221.88 197.084 221.336 197.084H219.764V199.148H221.36C221.888 199.148 222.292 199.072 222.572 198.92C222.852 198.76 222.992 198.492 222.992 198.116ZM36.456 211.568V218H35.4V212.468H32.076V218H31.02V211.568H36.456ZM41.5683 211.448C42.3603 211.448 42.9963 211.724 43.4763 212.276C43.9643 212.828 44.2083 213.66 44.2083 214.772C44.2083 215.868 43.9643 216.7 43.4763 217.268C42.9963 217.836 42.3563 218.12 41.5563 218.12C41.0603 218.12 40.6483 218.028 40.3203 217.844C40.0003 217.652 39.7483 217.432 39.5643 217.184H39.4923C39.5083 217.32 39.5243 217.492 39.5403 217.7C39.5563 217.908 39.5643 218.088 39.5643 218.24V220.88H38.5083V211.568H39.3723L39.5163 212.444H39.5643C39.7563 212.164 40.0083 211.928 40.3203 211.736C40.6323 211.544 41.0483 211.448 41.5683 211.448ZM41.3763 212.336C40.7203 212.336 40.2563 212.52 39.9843 212.888C39.7203 213.256 39.5803 213.816 39.5643 214.568V214.772C39.5643 215.564 39.6923 216.176 39.9483 216.608C40.2123 217.032 40.6963 217.244 41.4003 217.244C41.7923 217.244 42.1123 217.136 42.3603 216.92C42.6163 216.704 42.8043 216.412 42.9243 216.044C43.0523 215.668 43.1163 215.24 43.1163 214.76C43.1163 214.024 42.9723 213.436 42.6843 212.996C42.4043 212.556 41.9683 212.336 41.3763 212.336ZM51.4831 214.772C51.4831 215.836 51.2111 216.66 50.6671 217.244C50.1311 217.828 49.4031 218.12 48.4831 218.12C47.9151 218.12 47.4071 217.992 46.9591 217.736C46.5191 217.472 46.1711 217.092 45.9151 216.596C45.6591 216.092 45.5311 215.484 45.5311 214.772C45.5311 213.708 45.7991 212.888 46.3351 212.312C46.8711 211.736 47.5991 211.448 48.5191 211.448C49.1031 211.448 49.6151 211.58 50.0551 211.844C50.5031 212.1 50.8511 212.476 51.0991 212.972C51.3551 213.46 51.4831 214.06 51.4831 214.772ZM46.6231 214.772C46.6231 215.532 46.7711 216.136 47.0671 216.584C47.3711 217.024 47.8511 217.244 48.5071 217.244C49.1551 217.244 49.6311 217.024 49.9351 216.584C50.2391 216.136 50.3911 215.532 50.3911 214.772C50.3911 214.012 50.2391 213.416 49.9351 212.984C49.6311 212.552 49.1511 212.336 48.4951 212.336C47.8391 212.336 47.3631 212.552 47.0671 212.984C46.7711 213.416 46.6231 214.012 46.6231 214.772ZM55.6407 211.448C56.1927 211.448 56.6647 211.568 57.0567 211.808C57.4567 212.048 57.7607 212.388 57.9687 212.828C58.1847 213.26 58.2927 213.768 58.2927 214.352V214.988H53.8887C53.9047 215.716 54.0887 216.272 54.4407 216.656C54.8007 217.032 55.3007 217.22 55.9407 217.22C56.3487 217.22 56.7087 217.184 57.0207 217.112C57.3407 217.032 57.6687 216.92 58.0047 216.776V217.7C57.6767 217.844 57.3527 217.948 57.0327 218.012C56.7127 218.084 56.3327 218.12 55.8927 218.12C55.2847 218.12 54.7447 217.996 54.2727 217.748C53.8087 217.5 53.4447 217.132 53.1807 216.644C52.9247 216.148 52.7967 215.544 52.7967 214.832C52.7967 214.128 52.9127 213.524 53.1447 213.02C53.3847 212.516 53.7167 212.128 54.1407 211.856C54.5727 211.584 55.0727 211.448 55.6407 211.448ZM55.6287 212.312C55.1247 212.312 54.7247 212.476 54.4287 212.804C54.1407 213.124 53.9687 213.572 53.9127 214.148H57.1887C57.1807 213.604 57.0527 213.164 56.8047 212.828C56.5567 212.484 56.1647 212.312 55.6287 212.312ZM63.7342 211.568H64.8862L62.1382 214.664L65.1142 218H63.8902L60.9862 214.736V218H59.9302V211.568H60.9862V214.688L63.7342 211.568ZM70.7217 212.456H68.6217V218H67.5777V212.456H65.5017V211.568H70.7217V212.456ZM82.0059 211.568V218H81.0579V213.896C81.0579 213.728 81.0619 213.552 81.0699 213.368C81.0859 213.184 81.1019 213.004 81.1179 212.828H81.0819L78.9819 218H78.0939L76.0539 212.828H76.0179C76.0419 213.188 76.0539 213.556 76.0539 213.932V218H75.1059V211.568H76.5099L78.5379 216.74L80.6019 211.568H82.0059ZM84.0591 218V211.568H85.1151V214.208H86.7831C87.6151 214.208 88.2311 214.36 88.6311 214.664C89.0311 214.968 89.2311 215.424 89.2311 216.032C89.2311 216.632 89.0351 217.112 88.6431 217.472C88.2511 217.824 87.6151 218 86.7351 218H84.0591ZM90.2991 218V211.568H91.3551V218H90.2991ZM85.1151 217.148H86.6391C87.0951 217.148 87.4671 217.072 87.7551 216.92C88.0431 216.76 88.1871 216.484 88.1871 216.092C88.1871 215.7 88.0551 215.436 87.7911 215.3C87.5271 215.156 87.1471 215.084 86.6511 215.084H85.1151V217.148ZM99.0001 211.448C99.5521 211.448 100.024 211.568 100.416 211.808C100.816 212.048 101.12 212.388 101.328 212.828C101.544 213.26 101.652 213.768 101.652 214.352V214.988H97.2481C97.2641 215.716 97.4481 216.272 97.8001 216.656C98.1601 217.032 98.6601 217.22 99.3001 217.22C99.7081 217.22 100.068 217.184 100.38 217.112C100.7 217.032 101.028 216.92 101.364 216.776V217.7C101.036 217.844 100.712 217.948 100.392 218.012C100.072 218.084 99.6921 218.12 99.2521 218.12C98.6441 218.12 98.1041 217.996 97.6321 217.748C97.1681 217.5 96.8041 217.132 96.5401 216.644C96.2841 216.148 96.1561 215.544 96.1561 214.832C96.1561 214.128 96.2721 213.524 96.5041 213.02C96.7441 212.516 97.0761 212.128 97.5001 211.856C97.9321 211.584 98.4321 211.448 99.0001 211.448ZM98.9881 212.312C98.4841 212.312 98.0841 212.476 97.7881 212.804C97.5001 213.124 97.3281 213.572 97.2721 214.148H100.548C100.54 213.604 100.412 213.164 100.164 212.828C99.9161 212.484 99.5241 212.312 98.9881 212.312ZM105.774 211.448C106.326 211.448 106.798 211.568 107.19 211.808C107.59 212.048 107.894 212.388 108.102 212.828C108.318 213.26 108.426 213.768 108.426 214.352V214.988H104.022C104.038 215.716 104.222 216.272 104.574 216.656C104.934 217.032 105.434 217.22 106.074 217.22C106.482 217.22 106.842 217.184 107.154 217.112C107.474 217.032 107.802 216.92 108.138 216.776V217.7C107.81 217.844 107.486 217.948 107.166 218.012C106.846 218.084 106.466 218.12 106.026 218.12C105.418 218.12 104.878 217.996 104.406 217.748C103.942 217.5 103.578 217.132 103.314 216.644C103.058 216.148 102.93 215.544 102.93 214.832C102.93 214.128 103.046 213.524 103.278 213.02C103.518 212.516 103.85 212.128 104.274 211.856C104.706 211.584 105.206 211.448 105.774 211.448ZM105.762 212.312C105.258 212.312 104.858 212.476 104.562 212.804C104.274 213.124 104.102 213.572 104.046 214.148H107.322C107.314 213.604 107.186 213.164 106.938 212.828C106.69 212.484 106.298 212.312 105.762 212.312ZM103.998 209.828C103.998 209.62 104.054 209.472 104.166 209.384C104.278 209.288 104.41 209.24 104.562 209.24C104.714 209.24 104.846 209.288 104.958 209.384C105.07 209.472 105.126 209.62 105.126 209.828C105.126 210.028 105.07 210.18 104.958 210.284C104.846 210.38 104.714 210.428 104.562 210.428C104.41 210.428 104.278 210.38 104.166 210.284C104.054 210.18 103.998 210.028 103.998 209.828ZM106.254 209.828C106.254 209.62 106.306 209.472 106.41 209.384C106.522 209.288 106.654 209.24 106.806 209.24C106.958 209.24 107.09 209.288 107.202 209.384C107.314 209.472 107.37 209.62 107.37 209.828C107.37 210.028 107.314 210.18 107.202 210.284C107.09 210.38 106.958 210.428 106.806 210.428C106.654 210.428 106.522 210.38 106.41 210.284C106.306 210.18 106.254 210.028 106.254 209.828ZM114.236 211.568V214.244H117.728V211.568H118.784V218H117.728V215.132H114.236V218H113.18V211.568H114.236ZM123.305 211.448C123.857 211.448 124.329 211.568 124.721 211.808C125.121 212.048 125.425 212.388 125.633 212.828C125.849 213.26 125.957 213.768 125.957 214.352V214.988H121.553C121.569 215.716 121.753 216.272 122.105 216.656C122.465 217.032 122.965 217.22 123.605 217.22C124.013 217.22 124.373 217.184 124.685 217.112C125.005 217.032 125.333 216.92 125.669 216.776V217.7C125.341 217.844 125.017 217.948 124.697 218.012C124.377 218.084 123.997 218.12 123.557 218.12C122.949 218.12 122.409 217.996 121.937 217.748C121.473 217.5 121.109 217.132 120.845 216.644C120.589 216.148 120.461 215.544 120.461 214.832C120.461 214.128 120.577 213.524 120.809 213.02C121.049 212.516 121.381 212.128 121.805 211.856C122.237 211.584 122.737 211.448 123.305 211.448ZM123.293 212.312C122.789 212.312 122.389 212.476 122.093 212.804C121.805 213.124 121.633 213.572 121.577 214.148H124.853C124.845 213.604 124.717 213.164 124.469 212.828C124.221 212.484 123.829 212.312 123.293 212.312ZM130.375 214.136C130.375 212.728 130.587 211.632 131.011 210.848C131.435 210.056 132.119 209.56 133.063 209.36C133.583 209.248 134.091 209.148 134.587 209.06C135.083 208.972 135.547 208.892 135.979 208.82L136.159 209.744C135.879 209.784 135.563 209.836 135.211 209.9C134.859 209.956 134.511 210.016 134.167 210.08C133.823 210.136 133.527 210.192 133.279 210.248C132.759 210.36 132.347 210.632 132.043 211.064C131.739 211.488 131.567 212.152 131.527 213.056H131.599C131.711 212.904 131.863 212.748 132.055 212.588C132.255 212.428 132.491 212.292 132.763 212.18C133.043 212.068 133.359 212.012 133.711 212.012C134.543 212.012 135.171 212.28 135.595 212.816C136.019 213.352 136.231 214.048 136.231 214.904C136.231 215.616 136.107 216.212 135.859 216.692C135.611 217.172 135.267 217.532 134.827 217.772C134.387 218.004 133.875 218.12 133.291 218.12C132.403 218.12 131.695 217.78 131.167 217.1C130.639 216.42 130.375 215.432 130.375 214.136ZM133.375 217.244C133.895 217.244 134.315 217.076 134.635 216.74C134.955 216.404 135.115 215.828 135.115 215.012C135.115 214.356 134.991 213.84 134.743 213.464C134.503 213.08 134.103 212.888 133.543 212.888C133.191 212.888 132.871 212.968 132.583 213.128C132.295 213.28 132.055 213.456 131.863 213.656C131.671 213.856 131.535 214.024 131.455 214.16C131.455 214.552 131.483 214.932 131.539 215.3C131.595 215.668 131.691 216 131.827 216.296C131.971 216.584 132.167 216.816 132.415 216.992C132.671 217.16 132.991 217.244 133.375 217.244ZM136.887 211.568H138.015L139.407 215.228C139.527 215.548 139.635 215.856 139.731 216.152C139.827 216.44 139.899 216.716 139.947 216.98H139.995C140.043 216.78 140.119 216.52 140.223 216.2C140.327 215.872 140.435 215.544 140.547 215.216L141.855 211.568H142.995L140.223 218.888C139.999 219.496 139.707 219.98 139.347 220.34C138.995 220.7 138.507 220.88 137.883 220.88C137.691 220.88 137.523 220.868 137.379 220.844C137.235 220.828 137.111 220.808 137.007 220.784V219.944C137.095 219.96 137.199 219.976 137.319 219.992C137.447 220.008 137.579 220.016 137.715 220.016C138.083 220.016 138.379 219.912 138.603 219.704C138.835 219.496 139.015 219.22 139.143 218.876L139.479 218.024L136.887 211.568ZM148.554 211.568V217.112H149.49V220.232H148.47V218H143.994V220.232H142.986V217.112H143.502C144.054 216.352 144.466 215.488 144.738 214.52C145.018 213.544 145.162 212.56 145.17 211.568H148.554ZM147.534 212.396H146.106C146.074 212.94 145.99 213.504 145.854 214.088C145.718 214.664 145.542 215.216 145.326 215.744C145.118 216.272 144.874 216.728 144.594 217.112H147.534V212.396ZM153.234 211.448C153.786 211.448 154.258 211.568 154.65 211.808C155.05 212.048 155.354 212.388 155.562 212.828C155.778 213.26 155.886 213.768 155.886 214.352V214.988H151.482C151.498 215.716 151.682 216.272 152.034 216.656C152.394 217.032 152.894 217.22 153.534 217.22C153.942 217.22 154.302 217.184 154.614 217.112C154.934 217.032 155.262 216.92 155.598 216.776V217.7C155.27 217.844 154.946 217.948 154.626 218.012C154.306 218.084 153.926 218.12 153.486 218.12C152.878 218.12 152.338 217.996 151.866 217.748C151.402 217.5 151.038 217.132 150.774 216.644C150.518 216.148 150.39 215.544 150.39 214.832C150.39 214.128 150.506 213.524 150.738 213.02C150.978 212.516 151.31 212.128 151.734 211.856C152.166 211.584 152.666 211.448 153.234 211.448ZM153.222 212.312C152.718 212.312 152.318 212.476 152.022 212.804C151.734 213.124 151.562 213.572 151.506 214.148H154.782C154.774 213.604 154.646 213.164 154.398 212.828C154.15 212.484 153.758 212.312 153.222 212.312ZM164.424 211.568V218H163.476V213.896C163.476 213.728 163.48 213.552 163.488 213.368C163.504 213.184 163.52 213.004 163.536 212.828H163.5L161.4 218H160.512L158.472 212.828H158.436C158.46 213.188 158.472 213.556 158.472 213.932V218H157.524V211.568H158.928L160.956 216.74L163.02 211.568H164.424ZM167.857 216.356L166.405 219.668H165.517L166.369 216.356H167.857ZM173.346 211.568V214.244H176.838V211.568H177.894V218H176.838V215.132H173.346V218H172.29V211.568H173.346ZM185.522 214.772C185.522 215.836 185.25 216.66 184.706 217.244C184.17 217.828 183.442 218.12 182.522 218.12C181.954 218.12 181.446 217.992 180.998 217.736C180.558 217.472 180.21 217.092 179.954 216.596C179.698 216.092 179.57 215.484 179.57 214.772C179.57 213.708 179.838 212.888 180.374 212.312C180.91 211.736 181.638 211.448 182.558 211.448C183.142 211.448 183.654 211.58 184.094 211.844C184.542 212.1 184.89 212.476 185.138 212.972C185.394 213.46 185.522 214.06 185.522 214.772ZM180.662 214.772C180.662 215.532 180.81 216.136 181.106 216.584C181.41 217.024 181.89 217.244 182.546 217.244C183.194 217.244 183.67 217.024 183.974 216.584C184.278 216.136 184.43 215.532 184.43 214.772C184.43 214.012 184.278 213.416 183.974 212.984C183.67 212.552 183.19 212.336 182.534 212.336C181.878 212.336 181.402 212.552 181.106 212.984C180.81 213.416 180.662 214.012 180.662 214.772ZM191.369 211.568V214.244H194.861V211.568H195.917V218H194.861V215.132H191.369V218H190.313V211.568H191.369ZM200.39 211.46C201.174 211.46 201.754 211.632 202.13 211.976C202.506 212.32 202.694 212.868 202.694 213.62V218H201.926L201.722 217.088H201.674C201.394 217.44 201.098 217.7 200.786 217.868C200.482 218.036 200.058 218.12 199.514 218.12C198.93 218.12 198.446 217.968 198.062 217.664C197.678 217.352 197.486 216.868 197.486 216.212C197.486 215.572 197.738 215.08 198.242 214.736C198.746 214.384 199.522 214.192 200.57 214.16L201.662 214.124V213.74C201.662 213.204 201.546 212.832 201.314 212.624C201.082 212.416 200.754 212.312 200.33 212.312C199.994 212.312 199.674 212.364 199.37 212.468C199.066 212.564 198.782 212.676 198.518 212.804L198.194 212.012C198.474 211.86 198.806 211.732 199.19 211.628C199.574 211.516 199.974 211.46 200.39 211.46ZM201.65 214.856L200.702 214.892C199.902 214.924 199.346 215.052 199.034 215.276C198.73 215.5 198.578 215.816 198.578 216.224C198.578 216.584 198.686 216.848 198.902 217.016C199.126 217.184 199.41 217.268 199.754 217.268C200.298 217.268 200.75 217.12 201.11 216.824C201.47 216.52 201.65 216.056 201.65 215.432V214.856ZM209.852 213.188C209.852 213.588 209.732 213.9 209.492 214.124C209.252 214.348 208.944 214.5 208.568 214.58V214.628C208.968 214.684 209.316 214.828 209.612 215.06C209.908 215.284 210.056 215.636 210.056 216.116C210.056 216.66 209.852 217.112 209.444 217.472C209.044 217.824 208.38 218 207.452 218H204.68V211.568H207.44C207.896 211.568 208.304 211.62 208.664 211.724C209.032 211.82 209.32 211.988 209.528 212.228C209.744 212.46 209.852 212.78 209.852 213.188ZM208.784 213.32C208.784 213.016 208.672 212.796 208.448 212.66C208.232 212.516 207.876 212.444 207.38 212.444H205.736V214.208H207.188C208.252 214.208 208.784 213.912 208.784 213.32ZM208.964 216.116C208.964 215.748 208.824 215.484 208.544 215.324C208.264 215.164 207.852 215.084 207.308 215.084H205.736V217.148H207.332C207.86 217.148 208.264 217.072 208.544 216.92C208.824 216.76 208.964 216.492 208.964 216.116ZM211.594 218V211.568H212.65V214.208H214.318C215.15 214.208 215.766 214.36 216.166 214.664C216.566 214.968 216.766 215.424 216.766 216.032C216.766 216.632 216.57 217.112 216.178 217.472C215.786 217.824 215.15 218 214.27 218H211.594ZM217.834 218V211.568H218.89V218H217.834ZM212.65 217.148H214.174C214.63 217.148 215.002 217.072 215.29 216.92C215.578 216.76 215.722 216.484 215.722 216.092C215.722 215.7 215.59 215.436 215.326 215.3C215.062 215.156 214.682 215.084 214.186 215.084H212.65V217.148ZM224.738 211.568H225.89L223.142 214.664L226.118 218H224.894L221.99 214.736V218H220.934V211.568H221.99V214.688L224.738 211.568ZM34.08 229.448C34.872 229.448 35.508 229.724 35.988 230.276C36.476 230.828 36.72 231.66 36.72 232.772C36.72 233.868 36.476 234.7 35.988 235.268C35.508 235.836 34.868 236.12 34.068 236.12C33.572 236.12 33.16 236.028 32.832 235.844C32.512 235.652 32.26 235.432 32.076 235.184H32.004C32.02 235.32 32.036 235.492 32.052 235.7C32.068 235.908 32.076 236.088 32.076 236.24V238.88H31.02V229.568H31.884L32.028 230.444H32.076C32.268 230.164 32.52 229.928 32.832 229.736C33.144 229.544 33.56 229.448 34.08 229.448ZM33.888 230.336C33.232 230.336 32.768 230.52 32.496 230.888C32.232 231.256 32.092 231.816 32.076 232.568V232.772C32.076 233.564 32.204 234.176 32.46 234.608C32.724 235.032 33.208 235.244 33.912 235.244C34.304 235.244 34.624 235.136 34.872 234.92C35.128 234.704 35.316 234.412 35.436 234.044C35.564 233.668 35.628 233.24 35.628 232.76C35.628 232.024 35.484 231.436 35.196 230.996C34.916 230.556 34.48 230.336 33.888 230.336ZM40.8388 229.46C41.6228 229.46 42.2028 229.632 42.5788 229.976C42.9548 230.32 43.1428 230.868 43.1428 231.62V236H42.3748L42.1708 235.088H42.1228C41.8428 235.44 41.5468 235.7 41.2348 235.868C40.9308 236.036 40.5068 236.12 39.9628 236.12C39.3788 236.12 38.8948 235.968 38.5108 235.664C38.1268 235.352 37.9348 234.868 37.9348 234.212C37.9348 233.572 38.1868 233.08 38.6908 232.736C39.1948 232.384 39.9708 232.192 41.0188 232.16L42.1108 232.124V231.74C42.1108 231.204 41.9948 230.832 41.7628 230.624C41.5308 230.416 41.2028 230.312 40.7788 230.312C40.4428 230.312 40.1228 230.364 39.8188 230.468C39.5148 230.564 39.2308 230.676 38.9668 230.804L38.6428 230.012C38.9228 229.86 39.2548 229.732 39.6388 229.628C40.0228 229.516 40.4228 229.46 40.8388 229.46ZM42.0988 232.856L41.1508 232.892C40.3508 232.924 39.7948 233.052 39.4828 233.276C39.1788 233.5 39.0268 233.816 39.0268 234.224C39.0268 234.584 39.1348 234.848 39.3508 235.016C39.5748 235.184 39.8588 235.268 40.2028 235.268C40.7468 235.268 41.1988 235.12 41.5588 234.824C41.9188 234.52 42.0988 234.056 42.0988 233.432V232.856ZM44.7934 232.136C44.7934 230.728 45.0054 229.632 45.4294 228.848C45.8534 228.056 46.5374 227.56 47.4814 227.36C48.0014 227.248 48.5094 227.148 49.0054 227.06C49.5014 226.972 49.9654 226.892 50.3974 226.82L50.5774 227.744C50.2974 227.784 49.9814 227.836 49.6294 227.9C49.2774 227.956 48.9294 228.016 48.5854 228.08C48.2414 228.136 47.9454 228.192 47.6974 228.248C47.1774 228.36 46.7654 228.632 46.4614 229.064C46.1574 229.488 45.9854 230.152 45.9454 231.056H46.0174C46.1294 230.904 46.2814 230.748 46.4734 230.588C46.6734 230.428 46.9094 230.292 47.1814 230.18C47.4614 230.068 47.7774 230.012 48.1294 230.012C48.9614 230.012 49.5894 230.28 50.0134 230.816C50.4374 231.352 50.6494 232.048 50.6494 232.904C50.6494 233.616 50.5254 234.212 50.2774 234.692C50.0294 235.172 49.6854 235.532 49.2454 235.772C48.8054 236.004 48.2934 236.12 47.7094 236.12C46.8214 236.12 46.1134 235.78 45.5854 235.1C45.0574 234.42 44.7934 233.432 44.7934 232.136ZM47.7934 235.244C48.3134 235.244 48.7334 235.076 49.0534 234.74C49.3734 234.404 49.5334 233.828 49.5334 233.012C49.5334 232.356 49.4094 231.84 49.1614 231.464C48.9214 231.08 48.5214 230.888 47.9614 230.888C47.6094 230.888 47.2894 230.968 47.0014 231.128C46.7134 231.28 46.4734 231.456 46.2814 231.656C46.0894 231.856 45.9534 232.024 45.8734 232.16C45.8734 232.552 45.9014 232.932 45.9574 233.3C46.0134 233.668 46.1094 234 46.2454 234.296C46.3894 234.584 46.5854 234.816 46.8334 234.992C47.0894 235.16 47.4094 235.244 47.7934 235.244ZM57.905 232.772C57.905 233.836 57.633 234.66 57.089 235.244C56.553 235.828 55.825 236.12 54.905 236.12C54.337 236.12 53.829 235.992 53.381 235.736C52.941 235.472 52.593 235.092 52.337 234.596C52.081 234.092 51.953 233.484 51.953 232.772C51.953 231.708 52.221 230.888 52.757 230.312C53.293 229.736 54.021 229.448 54.941 229.448C55.525 229.448 56.037 229.58 56.477 229.844C56.925 230.1 57.273 230.476 57.521 230.972C57.777 231.46 57.905 232.06 57.905 232.772ZM53.045 232.772C53.045 233.532 53.193 234.136 53.489 234.584C53.793 235.024 54.273 235.244 54.929 235.244C55.577 235.244 56.053 235.024 56.357 234.584C56.661 234.136 56.813 233.532 56.813 232.772C56.813 232.012 56.661 231.416 56.357 230.984C56.053 230.552 55.573 230.336 54.917 230.336C54.261 230.336 53.785 230.552 53.489 230.984C53.193 231.416 53.045 232.012 53.045 232.772ZM63.9014 230.456H61.8014V236H60.7574V230.456H58.6814V229.568H63.9014V230.456ZM65.1684 236V229.568H66.2244V232.208H67.8924C68.7244 232.208 69.3404 232.36 69.7404 232.664C70.1404 232.968 70.3404 233.424 70.3404 234.032C70.3404 234.632 70.1444 235.112 69.7524 235.472C69.3604 235.824 68.7244 236 67.8444 236H65.1684ZM71.4084 236V229.568H72.4644V236H71.4084ZM66.2244 235.148H67.7484C68.2044 235.148 68.5764 235.072 68.8644 234.92C69.1524 234.76 69.2964 234.484 69.2964 234.092C69.2964 233.7 69.1644 233.436 68.9004 233.3C68.6364 233.156 68.2564 233.084 67.7604 233.084H66.2244V235.148ZM80.2055 236.12C79.6375 236.12 79.1295 236.004 78.6815 235.772C78.2415 235.54 77.8935 235.18 77.6375 234.692C77.3895 234.204 77.2655 233.58 77.2655 232.82C77.2655 232.028 77.3975 231.384 77.6615 230.888C77.9255 230.392 78.2815 230.028 78.7295 229.796C79.1855 229.564 79.7015 229.448 80.2775 229.448C80.6055 229.448 80.9215 229.484 81.2255 229.556C81.5295 229.62 81.7775 229.7 81.9695 229.796L81.6455 230.672C81.4535 230.6 81.2295 230.532 80.9735 230.468C80.7175 230.404 80.4775 230.372 80.2535 230.372C78.9895 230.372 78.3575 231.184 78.3575 232.808C78.3575 233.584 78.5095 234.18 78.8135 234.596C79.1255 235.004 79.5855 235.208 80.1935 235.208C80.5455 235.208 80.8535 235.172 81.1175 235.1C81.3895 235.028 81.6375 234.94 81.8615 234.836V235.772C81.6455 235.884 81.4055 235.968 81.1415 236.024C80.8855 236.088 80.5735 236.12 80.2055 236.12ZM87.5643 229.568V232.244H91.0563V229.568H92.1123V236H91.0563V233.132H87.5643V236H86.5083V229.568H87.5643ZM96.6329 229.448C97.1849 229.448 97.6569 229.568 98.0489 229.808C98.4489 230.048 98.7529 230.388 98.9609 230.828C99.1769 231.26 99.2849 231.768 99.2849 232.352V232.988H94.8809C94.8969 233.716 95.0809 234.272 95.4329 234.656C95.7929 235.032 96.2929 235.22 96.9329 235.22C97.3409 235.22 97.7009 235.184 98.0129 235.112C98.3329 235.032 98.6609 234.92 98.9969 234.776V235.7C98.6689 235.844 98.3449 235.948 98.0249 236.012C97.7049 236.084 97.3249 236.12 96.8849 236.12C96.2769 236.12 95.7369 235.996 95.2649 235.748C94.8009 235.5 94.4369 235.132 94.1729 234.644C93.9169 234.148 93.7889 233.544 93.7889 232.832C93.7889 232.128 93.9049 231.524 94.1369 231.02C94.3769 230.516 94.7089 230.128 95.1329 229.856C95.5649 229.584 96.0649 229.448 96.6329 229.448ZM96.6209 230.312C96.1169 230.312 95.7169 230.476 95.4209 230.804C95.1329 231.124 94.9609 231.572 94.9049 232.148H98.1809C98.1729 231.604 98.0449 231.164 97.7969 230.828C97.5489 230.484 97.1569 230.312 96.6209 230.312ZM101.918 229.568V233.492C101.918 233.588 101.914 233.732 101.906 233.924C101.898 234.116 101.886 234.308 101.87 234.5C101.862 234.692 101.854 234.844 101.846 234.956L105.29 229.568H106.586V236H105.602V232.208C105.602 232.08 105.602 231.912 105.602 231.704C105.61 231.496 105.618 231.292 105.626 231.092C105.634 230.884 105.642 230.728 105.65 230.624L102.23 236H100.922V229.568H101.918ZM106.13 226.904C106.074 227.504 105.87 227.96 105.518 228.272C105.174 228.576 104.622 228.728 103.862 228.728C103.078 228.728 102.522 228.576 102.194 228.272C101.874 227.968 101.694 227.512 101.654 226.904H102.638C102.678 227.336 102.79 227.628 102.974 227.78C103.166 227.924 103.47 227.996 103.886 227.996C104.254 227.996 104.542 227.92 104.75 227.768C104.966 227.608 105.094 227.32 105.134 226.904H106.13ZM117.186 229.568V236H116.13V230.468H112.806V236H111.75V229.568H117.186ZM122.299 229.448C123.091 229.448 123.727 229.724 124.207 230.276C124.695 230.828 124.939 231.66 124.939 232.772C124.939 233.868 124.695 234.7 124.207 235.268C123.727 235.836 123.087 236.12 122.287 236.12C121.791 236.12 121.379 236.028 121.051 235.844C120.731 235.652 120.479 235.432 120.295 235.184H120.223C120.239 235.32 120.255 235.492 120.271 235.7C120.287 235.908 120.295 236.088 120.295 236.24V238.88H119.239V229.568H120.103L120.247 230.444H120.295C120.487 230.164 120.739 229.928 121.051 229.736C121.363 229.544 121.779 229.448 122.299 229.448ZM122.107 230.336C121.451 230.336 120.987 230.52 120.715 230.888C120.451 231.256 120.311 231.816 120.295 232.568V232.772C120.295 233.564 120.423 234.176 120.679 234.608C120.943 235.032 121.427 235.244 122.131 235.244C122.523 235.244 122.843 235.136 123.091 234.92C123.347 234.704 123.535 234.412 123.655 234.044C123.783 233.668 123.847 233.24 123.847 232.76C123.847 232.024 123.703 231.436 123.415 230.996C123.135 230.556 122.699 230.336 122.107 230.336ZM127.618 229.568V233.492C127.618 233.588 127.614 233.732 127.606 233.924C127.598 234.116 127.586 234.308 127.57 234.5C127.562 234.692 127.554 234.844 127.546 234.956L130.99 229.568H132.286V236H131.302V232.208C131.302 232.08 131.302 231.912 131.302 231.704C131.31 231.496 131.318 231.292 131.326 231.092C131.334 230.884 131.342 230.728 131.35 230.624L127.93 236H126.622V229.568H127.618ZM136.913 236.12C136.345 236.12 135.837 236.004 135.389 235.772C134.949 235.54 134.601 235.18 134.345 234.692C134.097 234.204 133.973 233.58 133.973 232.82C133.973 232.028 134.105 231.384 134.369 230.888C134.633 230.392 134.989 230.028 135.437 229.796C135.893 229.564 136.409 229.448 136.985 229.448C137.313 229.448 137.629 229.484 137.933 229.556C138.237 229.62 138.485 229.7 138.677 229.796L138.353 230.672C138.161 230.6 137.937 230.532 137.681 230.468C137.425 230.404 137.185 230.372 136.961 230.372C135.697 230.372 135.065 231.184 135.065 232.808C135.065 233.584 135.217 234.18 135.521 234.596C135.833 235.004 136.293 235.208 136.901 235.208C137.253 235.208 137.561 235.172 137.825 235.1C138.097 235.028 138.345 234.94 138.569 234.836V235.772C138.353 235.884 138.113 235.968 137.849 236.024C137.593 236.088 137.281 236.12 136.913 236.12ZM139.09 229.568H140.218L141.61 233.228C141.73 233.548 141.838 233.856 141.934 234.152C142.03 234.44 142.102 234.716 142.15 234.98H142.198C142.246 234.78 142.322 234.52 142.426 234.2C142.53 233.872 142.638 233.544 142.75 233.216L144.058 229.568H145.198L142.426 236.888C142.202 237.496 141.91 237.98 141.55 238.34C141.198 238.7 140.71 238.88 140.086 238.88C139.894 238.88 139.726 238.868 139.582 238.844C139.438 238.828 139.314 238.808 139.21 238.784V237.944C139.298 237.96 139.402 237.976 139.522 237.992C139.65 238.008 139.782 238.016 139.918 238.016C140.286 238.016 140.582 237.912 140.806 237.704C141.038 237.496 141.218 237.22 141.346 236.876L141.682 236.024L139.09 229.568ZM150.655 230.456H148.555V236H147.511V230.456H145.435V229.568H150.655V230.456ZM154.385 236.12C153.817 236.12 153.309 236.004 152.861 235.772C152.421 235.54 152.073 235.18 151.817 234.692C151.569 234.204 151.445 233.58 151.445 232.82C151.445 232.028 151.577 231.384 151.841 230.888C152.105 230.392 152.461 230.028 152.909 229.796C153.365 229.564 153.881 229.448 154.457 229.448C154.785 229.448 155.101 229.484 155.405 229.556C155.709 229.62 155.957 229.7 156.149 229.796L155.825 230.672C155.633 230.6 155.409 230.532 155.153 230.468C154.897 230.404 154.657 230.372 154.433 230.372C153.169 230.372 152.537 231.184 152.537 232.808C152.537 233.584 152.689 234.18 152.993 234.596C153.305 235.004 153.765 235.208 154.373 235.208C154.725 235.208 155.033 235.172 155.297 235.1C155.569 235.028 155.817 234.94 156.041 234.836V235.772C155.825 235.884 155.585 235.968 155.321 236.024C155.065 236.088 154.753 236.12 154.385 236.12ZM162.011 230.456H159.911V236H158.867V230.456H156.791V229.568H162.011V230.456ZM168.45 231.188C168.45 231.588 168.33 231.9 168.09 232.124C167.85 232.348 167.542 232.5 167.166 232.58V232.628C167.566 232.684 167.914 232.828 168.21 233.06C168.506 233.284 168.654 233.636 168.654 234.116C168.654 234.66 168.45 235.112 168.042 235.472C167.642 235.824 166.978 236 166.05 236H163.278V229.568H166.038C166.494 229.568 166.902 229.62 167.262 229.724C167.63 229.82 167.918 229.988 168.126 230.228C168.342 230.46 168.45 230.78 168.45 231.188ZM167.382 231.32C167.382 231.016 167.27 230.796 167.046 230.66C166.83 230.516 166.474 230.444 165.978 230.444H164.334V232.208H165.786C166.85 232.208 167.382 231.912 167.382 231.32ZM167.562 234.116C167.562 233.748 167.422 233.484 167.142 233.324C166.862 233.164 166.45 233.084 165.906 233.084H164.334V235.148H165.93C166.458 235.148 166.862 235.072 167.142 234.92C167.422 234.76 167.562 234.492 167.562 234.116ZM169.184 229.568H170.312L171.704 233.228C171.824 233.548 171.932 233.856 172.028 234.152C172.124 234.44 172.196 234.716 172.244 234.98H172.292C172.34 234.78 172.416 234.52 172.52 234.2C172.624 233.872 172.732 233.544 172.844 233.216L174.152 229.568H175.292L172.52 236.888C172.296 237.496 172.004 237.98 171.644 238.34C171.292 238.7 170.804 238.88 170.18 238.88C169.988 238.88 169.82 238.868 169.676 238.844C169.532 238.828 169.408 238.808 169.304 238.784V237.944C169.392 237.96 169.496 237.976 169.616 237.992C169.744 238.008 169.876 238.016 170.012 238.016C170.38 238.016 170.676 237.912 170.9 237.704C171.132 237.496 171.312 237.22 171.44 236.876L171.776 236.024L169.184 229.568ZM178.793 229.448C179.345 229.448 179.817 229.568 180.209 229.808C180.609 230.048 180.913 230.388 181.121 230.828C181.337 231.26 181.445 231.768 181.445 232.352V232.988H177.041C177.057 233.716 177.241 234.272 177.593 234.656C177.953 235.032 178.453 235.22 179.093 235.22C179.501 235.22 179.861 235.184 180.173 235.112C180.493 235.032 180.821 234.92 181.157 234.776V235.7C180.829 235.844 180.505 235.948 180.185 236.012C179.865 236.084 179.485 236.12 179.045 236.12C178.437 236.12 177.897 235.996 177.425 235.748C176.961 235.5 176.597 235.132 176.333 234.644C176.077 234.148 175.949 233.544 175.949 232.832C175.949 232.128 176.065 231.524 176.297 231.02C176.537 230.516 176.869 230.128 177.293 229.856C177.725 229.584 178.225 229.448 178.793 229.448ZM178.781 230.312C178.277 230.312 177.877 230.476 177.581 230.804C177.293 231.124 177.121 231.572 177.065 232.148H180.341C180.333 231.604 180.205 231.164 179.957 230.828C179.709 230.484 179.317 230.312 178.781 230.312ZM187.523 230.456H185.423V236H184.379V230.456H182.303V229.568H187.523V230.456Z" fill="black"/>
<path d="M37.028 120.172V126.864C37.028 127.9 36.734 128.698 36.146 129.258C35.5673 129.818 34.7833 130.098 33.794 130.098C32.758 130.098 31.9273 129.804 31.302 129.216C30.6767 128.628 30.364 127.793 30.364 126.71H32.744C32.744 127.121 32.828 127.433 32.996 127.648C33.164 127.853 33.4067 127.956 33.724 127.956C34.0133 127.956 34.2373 127.863 34.396 127.676C34.5547 127.489 34.634 127.219 34.634 126.864V120.172H37.028ZM38.4858 126.108C38.4858 125.333 38.6444 124.643 38.9618 124.036C39.2884 123.429 39.7224 122.958 40.2638 122.622C40.8144 122.277 41.4118 122.104 42.0558 122.104C42.5504 122.104 42.9938 122.193 43.3858 122.37C43.7778 122.538 44.0951 122.776 44.3378 123.084V122.188H46.7318V133.724H44.3378V129.02C44.0671 129.347 43.7358 129.608 43.3438 129.804C42.9611 130 42.5224 130.098 42.0278 130.098C41.3931 130.098 40.8051 129.93 40.2638 129.594C39.7224 129.258 39.2884 128.787 38.9618 128.18C38.6444 127.573 38.4858 126.883 38.4858 126.108ZM44.3378 126.094C44.3378 125.674 44.2538 125.324 44.0858 125.044C43.9271 124.755 43.7171 124.54 43.4558 124.4C43.1944 124.251 42.9191 124.176 42.6298 124.176C42.3498 124.176 42.0791 124.251 41.8178 124.4C41.5564 124.54 41.3418 124.755 41.1738 125.044C41.0058 125.333 40.9218 125.688 40.9218 126.108C40.9218 126.528 41.0058 126.883 41.1738 127.172C41.3418 127.452 41.5564 127.667 41.8178 127.816C42.0791 127.956 42.3498 128.026 42.6298 128.026C42.9098 128.026 43.1804 127.956 43.4418 127.816C43.7124 127.667 43.9271 127.447 44.0858 127.158C44.2538 126.869 44.3378 126.514 44.3378 126.094ZM56.1777 122.188V130H53.7837V128.936C53.541 129.281 53.2097 129.561 52.7897 129.776C52.379 129.981 51.9217 130.084 51.4177 130.084C50.8204 130.084 50.293 129.953 49.8357 129.692C49.3784 129.421 49.0237 129.034 48.7717 128.53C48.5197 128.026 48.3937 127.433 48.3937 126.752V122.188H50.7737V126.43C50.7737 126.953 50.909 127.359 51.1797 127.648C51.4504 127.937 51.8144 128.082 52.2717 128.082C52.7384 128.082 53.107 127.937 53.3777 127.648C53.6484 127.359 53.7837 126.953 53.7837 126.43V122.188H56.1777ZM65.2613 125.968C65.2613 126.192 65.2473 126.425 65.2193 126.668H59.8013C59.8386 127.153 59.9926 127.527 60.2633 127.788C60.5433 128.04 60.884 128.166 61.2853 128.166C61.8826 128.166 62.298 127.914 62.5313 127.41H65.0793C64.9486 127.923 64.7106 128.385 64.3653 128.796C64.0293 129.207 63.6046 129.529 63.0913 129.762C62.578 129.995 62.004 130.112 61.3693 130.112C60.604 130.112 59.9226 129.949 59.3253 129.622C58.728 129.295 58.2613 128.829 57.9253 128.222C57.5893 127.615 57.4213 126.906 57.4213 126.094C57.4213 125.282 57.5846 124.573 57.9113 123.966C58.2473 123.359 58.714 122.893 59.3113 122.566C59.9086 122.239 60.5946 122.076 61.3693 122.076C62.1253 122.076 62.7973 122.235 63.3853 122.552C63.9733 122.869 64.4306 123.322 64.7573 123.91C65.0933 124.498 65.2613 125.184 65.2613 125.968ZM62.8113 125.338C62.8113 124.927 62.6713 124.601 62.3913 124.358C62.1113 124.115 61.7613 123.994 61.3413 123.994C60.94 123.994 60.5993 124.111 60.3193 124.344C60.0486 124.577 59.8806 124.909 59.8153 125.338H62.8113ZM68.9183 123.49C69.1983 123.061 69.5483 122.725 69.9683 122.482C70.3883 122.23 70.8549 122.104 71.3683 122.104V124.638H70.7103C70.1129 124.638 69.6649 124.769 69.3663 125.03C69.0676 125.282 68.9183 125.73 68.9183 126.374V130H66.5243V122.188H68.9183V123.49ZM80.4925 122.188L75.5925 133.71H73.0165L74.8085 129.734L71.6305 122.188H74.3045L76.1105 127.074L77.9025 122.188H80.4925Z" fill="black"/>
</svg>
