<svg width="270" height="270" viewBox="0 0 270 270" fill="none" xmlns="http://www.w3.org/2000/svg">
<path d="M34.1657 89.7793L30 42.774H75.7746L71.6044 89.7719L52.8592 95L34.1657 89.7793Z" fill="#E53D20"/>
<path d="M52.8873 91.0039L68.0343 86.7793L71.598 46.6174H52.8873V91.0039Z" fill="#F15123"/>
<path d="M52.8873 64.0511H45.3044L44.7806 58.1476H52.8873V52.3825H52.8675H38.5179L38.6551 53.9292L40.0635 69.8159H52.8873V64.0511Z" fill="#EDEDED"/>
<path d="M52.8873 79.0232L52.8622 79.03L46.4802 77.2962L46.072 72.6984H42.9709H40.3195L41.1224 81.7503L52.8609 85.0286L52.8873 85.0212V79.0232Z" fill="#EDEDED"/>
<path d="M34.2588 30H37.171V32.8946H39.8349V30H42.7473V38.7654H39.8351V35.8303H37.1712V38.7654H34.259V30H34.2588Z" fill="#100F0D"/>
<path d="M46.5769 32.9068H44.0131V30H52.0541V32.9068H49.4892V38.7654H46.5771V32.9068H46.5769Z" fill="#100F0D"/>
<path d="M53.3303 30H56.3669L58.2348 33.0799L60.1008 30H63.1386V38.7654H60.2384V34.4208L58.2348 37.5374H58.1848L56.1798 34.4208V38.7654H53.3303V30Z" fill="#100F0D"/>
<path d="M64.588 30H67.501V35.8681H71.5963V38.7654H64.588V30Z" fill="#100F0D"/>
<path d="M52.8675 64.0511V69.8159H59.9239L59.2588 77.2927L52.8675 79.0282V85.0259L64.6153 81.7504L64.7014 80.7765L66.0481 65.5991L66.1879 64.0511H64.6437H52.8675Z" fill="white"/>
<path d="M52.8675 52.3827V58.1477H66.691H66.7093L66.8243 56.8518L67.0854 53.9293L67.2224 52.3827H52.8675" fill="white"/>
<rect x="0.5" y="0.5" width="269" height="269" stroke="black"/>
<path d="M39.38 120.172V130H36.986V125.954H33.262V130H30.868V120.172H33.262V124.022H36.986V120.172H39.38ZM48.1782 120.172V122.09H45.5742V130H43.1802V122.09H40.5762V120.172H48.1782ZM60.5097 120.172V130H58.1157V124.106L55.9177 130H53.9857L51.7737 124.092V130H49.3797V120.172H52.2077L54.9657 126.976L57.6957 120.172H60.5097ZM64.6253 128.152H67.7613V130H62.2313V120.172H64.6253V128.152ZM75.8612 121.866H71.4932V123.798C71.6798 123.593 71.9412 123.425 72.2772 123.294C72.6132 123.163 72.9772 123.098 73.3692 123.098C74.0692 123.098 74.6478 123.257 75.1052 123.574C75.5718 123.891 75.9125 124.302 76.1272 124.806C76.3418 125.31 76.4492 125.856 76.4492 126.444C76.4492 127.536 76.1412 128.404 75.5252 129.048C74.9092 129.683 74.0412 130 72.9212 130C72.1745 130 71.5258 129.874 70.9752 129.622C70.4245 129.361 69.9998 129.001 69.7012 128.544C69.4025 128.087 69.2392 127.559 69.2112 126.962H71.5492C71.6052 127.251 71.7405 127.494 71.9552 127.69C72.1698 127.877 72.4638 127.97 72.8372 127.97C73.2758 127.97 73.6025 127.83 73.8172 127.55C74.0318 127.27 74.1392 126.897 74.1392 126.43C74.1392 125.973 74.0272 125.623 73.8032 125.38C73.5792 125.137 73.2525 125.016 72.8232 125.016C72.5058 125.016 72.2445 125.095 72.0392 125.254C71.8338 125.403 71.6985 125.604 71.6332 125.856H69.3232V119.766H75.8612V121.866Z" fill="black"/>
<path d="M31.176 155.432H32.184V160.136C32.184 160.4 32.18 160.696 32.172 161.024C32.164 161.352 32.152 161.652 32.136 161.924C32.128 162.196 32.116 162.396 32.1 162.524H32.148L36.864 155.432H38.064V164H37.056V159.344C37.056 159.048 37.06 158.732 37.068 158.396C37.084 158.06 37.1 157.752 37.116 157.472C37.132 157.192 37.144 156.992 37.152 156.872H37.104L32.376 164H31.176V155.432ZM47.1309 157.568V164H46.1829V159.896C46.1829 159.728 46.1869 159.552 46.1949 159.368C46.2109 159.184 46.2269 159.004 46.2429 158.828H46.2069L44.1069 164H43.2189L41.1789 158.828H41.1429C41.1669 159.188 41.1789 159.556 41.1789 159.932V164H40.2309V157.568H41.6349L43.6629 162.74L45.7269 157.568H47.1309ZM51.6681 157.448C52.2201 157.448 52.6921 157.568 53.0841 157.808C53.4841 158.048 53.7881 158.388 53.9961 158.828C54.2121 159.26 54.3201 159.768 54.3201 160.352V160.988H49.9161C49.9321 161.716 50.1161 162.272 50.4681 162.656C50.8281 163.032 51.3281 163.22 51.9681 163.22C52.3761 163.22 52.7361 163.184 53.0481 163.112C53.3681 163.032 53.6961 162.92 54.0321 162.776V163.7C53.7041 163.844 53.3801 163.948 53.0601 164.012C52.7401 164.084 52.3601 164.12 51.9201 164.12C51.3121 164.12 50.7721 163.996 50.3001 163.748C49.8361 163.5 49.4721 163.132 49.2081 162.644C48.9521 162.148 48.8241 161.544 48.8241 160.832C48.8241 160.128 48.9401 159.524 49.1721 159.02C49.4121 158.516 49.7441 158.128 50.1681 157.856C50.6001 157.584 51.1001 157.448 51.6681 157.448ZM51.6561 158.312C51.1521 158.312 50.7521 158.476 50.4561 158.804C50.1681 159.124 49.9961 159.572 49.9401 160.148H53.2161C53.2081 159.604 53.0801 159.164 52.8321 158.828C52.5841 158.484 52.1921 158.312 51.6561 158.312ZM57.0135 157.568V160.244H60.5055V157.568H61.5615V164H60.5055V161.132H57.0135V164H55.9575V157.568H57.0135ZM64.6541 157.568V160.244H68.1461V157.568H69.2021V164H68.1461V161.132H64.6541V164H63.5981V157.568H64.6541ZM76.8307 160.772C76.8307 161.836 76.5588 162.66 76.0148 163.244C75.4788 163.828 74.7508 164.12 73.8308 164.12C73.2628 164.12 72.7548 163.992 72.3068 163.736C71.8668 163.472 71.5188 163.092 71.2628 162.596C71.0068 162.092 70.8788 161.484 70.8788 160.772C70.8788 159.708 71.1468 158.888 71.6828 158.312C72.2188 157.736 72.9468 157.448 73.8668 157.448C74.4508 157.448 74.9628 157.58 75.4028 157.844C75.8508 158.1 76.1988 158.476 76.4468 158.972C76.7028 159.46 76.8307 160.06 76.8307 160.772ZM71.9708 160.772C71.9708 161.532 72.1188 162.136 72.4148 162.584C72.7188 163.024 73.1988 163.244 73.8548 163.244C74.5028 163.244 74.9788 163.024 75.2828 162.584C75.5868 162.136 75.7388 161.532 75.7388 160.772C75.7388 160.012 75.5868 159.416 75.2828 158.984C74.9788 158.552 74.4988 158.336 73.8428 158.336C73.1868 158.336 72.7108 158.552 72.4148 158.984C72.1188 159.416 71.9708 160.012 71.9708 160.772ZM87.2136 160.772C87.2136 161.836 86.9416 162.66 86.3976 163.244C85.8616 163.828 85.1336 164.12 84.2136 164.12C83.6456 164.12 83.1376 163.992 82.6896 163.736C82.2496 163.472 81.9016 163.092 81.6456 162.596C81.3896 162.092 81.2616 161.484 81.2616 160.772C81.2616 159.708 81.5296 158.888 82.0656 158.312C82.6016 157.736 83.3296 157.448 84.2496 157.448C84.8336 157.448 85.3456 157.58 85.7856 157.844C86.2336 158.1 86.5816 158.476 86.8296 158.972C87.0856 159.46 87.2136 160.06 87.2136 160.772ZM82.3536 160.772C82.3536 161.532 82.5016 162.136 82.7976 162.584C83.1016 163.024 83.5816 163.244 84.2376 163.244C84.8856 163.244 85.3616 163.024 85.6656 162.584C85.9696 162.136 86.1216 161.532 86.1216 160.772C86.1216 160.012 85.9696 159.416 85.6656 158.984C85.3616 158.552 84.8816 158.336 84.2256 158.336C83.5696 158.336 83.0936 158.552 82.7976 158.984C82.5016 159.416 82.3536 160.012 82.3536 160.772ZM89.9432 157.568V160.244H93.4352V157.568H94.4912V164H93.4352V161.132H89.9432V164H88.8872V157.568H89.9432ZM102.225 164.12C101.657 164.12 101.149 164.004 100.701 163.772C100.261 163.54 99.913 163.18 99.657 162.692C99.409 162.204 99.285 161.58 99.285 160.82C99.285 160.028 99.417 159.384 99.681 158.888C99.945 158.392 100.301 158.028 100.749 157.796C101.205 157.564 101.721 157.448 102.297 157.448C102.625 157.448 102.941 157.484 103.245 157.556C103.549 157.62 103.797 157.7 103.989 157.796L103.665 158.672C103.473 158.6 103.249 158.532 102.993 158.468C102.737 158.404 102.497 158.372 102.273 158.372C101.009 158.372 100.377 159.184 100.377 160.808C100.377 161.584 100.529 162.18 100.833 162.596C101.145 163.004 101.605 163.208 102.213 163.208C102.565 163.208 102.873 163.172 103.137 163.1C103.409 163.028 103.657 162.94 103.881 162.836V163.772C103.665 163.884 103.425 163.968 103.161 164.024C102.905 164.088 102.593 164.12 102.225 164.12ZM111.003 160.772C111.003 161.836 110.731 162.66 110.187 163.244C109.651 163.828 108.923 164.12 108.003 164.12C107.435 164.12 106.927 163.992 106.479 163.736C106.039 163.472 105.691 163.092 105.435 162.596C105.179 162.092 105.051 161.484 105.051 160.772C105.051 159.708 105.319 158.888 105.855 158.312C106.391 157.736 107.119 157.448 108.039 157.448C108.623 157.448 109.135 157.58 109.575 157.844C110.023 158.1 110.371 158.476 110.619 158.972C110.875 159.46 111.003 160.06 111.003 160.772ZM106.143 160.772C106.143 161.532 106.291 162.136 106.587 162.584C106.891 163.024 107.371 163.244 108.027 163.244C108.675 163.244 109.151 163.024 109.455 162.584C109.759 162.136 109.911 161.532 109.911 160.772C109.911 160.012 109.759 159.416 109.455 158.984C109.151 158.552 108.671 158.336 108.015 158.336C107.359 158.336 106.883 158.552 106.587 158.984C106.291 159.416 106.143 160.012 106.143 160.772ZM114.368 157.448C115.104 157.448 115.688 157.596 116.12 157.892C116.56 158.18 116.78 158.596 116.78 159.14C116.78 159.532 116.672 159.844 116.456 160.076C116.24 160.3 115.944 160.464 115.568 160.568V160.616C115.824 160.688 116.06 160.788 116.276 160.916C116.492 161.044 116.664 161.212 116.792 161.42C116.928 161.628 116.996 161.896 116.996 162.224C116.996 162.76 116.772 163.212 116.324 163.58C115.884 163.94 115.192 164.12 114.248 164.12C113.784 164.12 113.364 164.08 112.988 164C112.612 163.928 112.3 163.828 112.052 163.7V162.752C112.324 162.88 112.644 162.996 113.012 163.1C113.388 163.204 113.796 163.256 114.236 163.256C114.716 163.256 115.12 163.176 115.448 163.016C115.784 162.848 115.952 162.564 115.952 162.164C115.952 161.444 115.34 161.084 114.116 161.084H113.252V160.22H113.948C114.5 160.22 114.94 160.148 115.268 160.004C115.604 159.852 115.772 159.596 115.772 159.236C115.772 158.932 115.644 158.704 115.388 158.552C115.14 158.4 114.78 158.324 114.308 158.324C113.956 158.324 113.644 158.36 113.372 158.432C113.108 158.496 112.816 158.596 112.496 158.732L112.124 157.892C112.796 157.596 113.544 157.448 114.368 157.448ZM123.335 157.568V163.112H124.271V166.232H123.251V164H118.775V166.232H117.767V163.112H118.283C118.835 162.352 119.247 161.488 119.519 160.52C119.799 159.544 119.943 158.56 119.951 157.568H123.335ZM122.315 158.396H120.887C120.855 158.94 120.771 159.504 120.635 160.088C120.499 160.664 120.323 161.216 120.107 161.744C119.899 162.272 119.655 162.728 119.375 163.112H122.315V158.396ZM127.968 157.46C128.752 157.46 129.332 157.632 129.708 157.976C130.084 158.32 130.272 158.868 130.272 159.62V164H129.504L129.3 163.088H129.252C128.972 163.44 128.676 163.7 128.364 163.868C128.06 164.036 127.636 164.12 127.092 164.12C126.508 164.12 126.024 163.968 125.64 163.664C125.256 163.352 125.064 162.868 125.064 162.212C125.064 161.572 125.316 161.08 125.82 160.736C126.324 160.384 127.1 160.192 128.148 160.16L129.24 160.124V159.74C129.24 159.204 129.124 158.832 128.892 158.624C128.66 158.416 128.332 158.312 127.908 158.312C127.572 158.312 127.252 158.364 126.948 158.468C126.644 158.564 126.36 158.676 126.096 158.804L125.772 158.012C126.052 157.86 126.384 157.732 126.768 157.628C127.152 157.516 127.552 157.46 127.968 157.46ZM129.228 160.856L128.28 160.892C127.48 160.924 126.924 161.052 126.612 161.276C126.308 161.5 126.156 161.816 126.156 162.224C126.156 162.584 126.264 162.848 126.48 163.016C126.704 163.184 126.988 163.268 127.332 163.268C127.876 163.268 128.328 163.12 128.688 162.824C129.048 162.52 129.228 162.056 129.228 161.432V160.856ZM134.742 157.448C135.294 157.448 135.766 157.568 136.158 157.808C136.558 158.048 136.862 158.388 137.07 158.828C137.286 159.26 137.394 159.768 137.394 160.352V160.988H132.99C133.006 161.716 133.19 162.272 133.542 162.656C133.902 163.032 134.402 163.22 135.042 163.22C135.45 163.22 135.81 163.184 136.122 163.112C136.442 163.032 136.77 162.92 137.106 162.776V163.7C136.778 163.844 136.454 163.948 136.134 164.012C135.814 164.084 135.434 164.12 134.994 164.12C134.386 164.12 133.846 163.996 133.374 163.748C132.91 163.5 132.546 163.132 132.282 162.644C132.026 162.148 131.898 161.544 131.898 160.832C131.898 160.128 132.014 159.524 132.246 159.02C132.486 158.516 132.818 158.128 133.242 157.856C133.674 157.584 134.174 157.448 134.742 157.448ZM134.73 158.312C134.226 158.312 133.826 158.476 133.53 158.804C133.242 159.124 133.07 159.572 133.014 160.148H136.29C136.282 159.604 136.154 159.164 135.906 158.828C135.658 158.484 135.266 158.312 134.73 158.312ZM143.472 158.456H141.372V164H140.328V158.456H138.252V157.568H143.472V158.456ZM151.66 157.568H152.812L150.064 160.664L153.04 164H151.816L148.912 160.736V164H147.856V157.568H148.912V160.688L151.66 157.568ZM156.644 157.46C157.428 157.46 158.008 157.632 158.384 157.976C158.76 158.32 158.948 158.868 158.948 159.62V164H158.18L157.976 163.088H157.928C157.648 163.44 157.352 163.7 157.04 163.868C156.736 164.036 156.312 164.12 155.768 164.12C155.184 164.12 154.7 163.968 154.316 163.664C153.932 163.352 153.74 162.868 153.74 162.212C153.74 161.572 153.992 161.08 154.496 160.736C155 160.384 155.776 160.192 156.824 160.16L157.916 160.124V159.74C157.916 159.204 157.8 158.832 157.568 158.624C157.336 158.416 157.008 158.312 156.584 158.312C156.248 158.312 155.928 158.364 155.624 158.468C155.32 158.564 155.036 158.676 154.771 158.804L154.448 158.012C154.728 157.86 155.06 157.732 155.444 157.628C155.828 157.516 156.228 157.46 156.644 157.46ZM157.904 160.856L156.956 160.892C156.156 160.924 155.6 161.052 155.288 161.276C154.984 161.5 154.832 161.816 154.832 162.224C154.832 162.584 154.94 162.848 155.156 163.016C155.38 163.184 155.664 163.268 156.008 163.268C156.552 163.268 157.004 163.12 157.364 162.824C157.724 162.52 157.904 162.056 157.904 161.432V160.856ZM163.994 157.448C164.786 157.448 165.422 157.724 165.902 158.276C166.39 158.828 166.634 159.66 166.634 160.772C166.634 161.868 166.39 162.7 165.902 163.268C165.422 163.836 164.782 164.12 163.982 164.12C163.486 164.12 163.074 164.028 162.746 163.844C162.426 163.652 162.174 163.432 161.99 163.184H161.918C161.934 163.32 161.95 163.492 161.966 163.7C161.982 163.908 161.99 164.088 161.99 164.24V166.88H160.934V157.568H161.798L161.942 158.444H161.99C162.182 158.164 162.434 157.928 162.746 157.736C163.058 157.544 163.474 157.448 163.994 157.448ZM163.802 158.336C163.146 158.336 162.682 158.52 162.41 158.888C162.146 159.256 162.006 159.816 161.99 160.568V160.772C161.99 161.564 162.118 162.176 162.374 162.608C162.638 163.032 163.122 163.244 163.826 163.244C164.218 163.244 164.538 163.136 164.786 162.92C165.042 162.704 165.23 162.412 165.35 162.044C165.478 161.668 165.542 161.24 165.542 160.76C165.542 160.024 165.398 159.436 165.11 158.996C164.83 158.556 164.394 158.336 163.802 158.336ZM172.121 157.568H173.273L170.525 160.664L173.501 164H172.277L169.373 160.736V164H168.317V157.568H169.373V160.688L172.121 157.568ZM177.104 157.46C177.888 157.46 178.468 157.632 178.844 157.976C179.22 158.32 179.408 158.868 179.408 159.62V164H178.64L178.436 163.088H178.388C178.108 163.44 177.812 163.7 177.5 163.868C177.196 164.036 176.772 164.12 176.228 164.12C175.644 164.12 175.16 163.968 174.776 163.664C174.392 163.352 174.2 162.868 174.2 162.212C174.2 161.572 174.452 161.08 174.956 160.736C175.46 160.384 176.236 160.192 177.284 160.16L178.376 160.124V159.74C178.376 159.204 178.26 158.832 178.028 158.624C177.796 158.416 177.468 158.312 177.044 158.312C176.708 158.312 176.388 158.364 176.084 158.468C175.78 158.564 175.496 158.676 175.232 158.804L174.908 158.012C175.188 157.86 175.52 157.732 175.904 157.628C176.288 157.516 176.688 157.46 177.104 157.46ZM178.364 160.856L177.416 160.892C176.616 160.924 176.06 161.052 175.748 161.276C175.444 161.5 175.292 161.816 175.292 162.224C175.292 162.584 175.4 162.848 175.616 163.016C175.84 163.184 176.124 163.268 176.468 163.268C177.012 163.268 177.464 163.12 177.824 162.824C178.184 162.52 178.364 162.056 178.364 161.432V160.856ZM183.975 164.12C183.407 164.12 182.899 164.004 182.451 163.772C182.011 163.54 181.663 163.18 181.407 162.692C181.159 162.204 181.035 161.58 181.035 160.82C181.035 160.028 181.167 159.384 181.431 158.888C181.695 158.392 182.051 158.028 182.499 157.796C182.955 157.564 183.471 157.448 184.047 157.448C184.375 157.448 184.691 157.484 184.995 157.556C185.299 157.62 185.547 157.7 185.739 157.796L185.415 158.672C185.223 158.6 184.999 158.532 184.743 158.468C184.487 158.404 184.247 158.372 184.023 158.372C182.759 158.372 182.127 159.184 182.127 160.808C182.127 161.584 182.279 162.18 182.583 162.596C182.895 163.004 183.355 163.208 183.963 163.208C184.315 163.208 184.623 163.172 184.887 163.1C185.159 163.028 185.407 162.94 185.631 162.836V163.772C185.415 163.884 185.175 163.968 184.911 164.024C184.655 164.088 184.343 164.12 183.975 164.12ZM195.45 159.188C195.45 159.588 195.33 159.9 195.09 160.124C194.85 160.348 194.542 160.5 194.166 160.58V160.628C194.566 160.684 194.914 160.828 195.21 161.06C195.506 161.284 195.654 161.636 195.654 162.116C195.654 162.66 195.45 163.112 195.042 163.472C194.642 163.824 193.978 164 193.05 164H190.278V157.568H193.038C193.494 157.568 193.902 157.62 194.262 157.724C194.63 157.82 194.918 157.988 195.126 158.228C195.342 158.46 195.45 158.78 195.45 159.188ZM194.382 159.32C194.382 159.016 194.27 158.796 194.046 158.66C193.83 158.516 193.474 158.444 192.978 158.444H191.334V160.208H192.786C193.85 160.208 194.382 159.912 194.382 159.32ZM194.562 162.116C194.562 161.748 194.422 161.484 194.142 161.324C193.862 161.164 193.45 161.084 192.906 161.084H191.334V163.148H192.93C193.458 163.148 193.862 163.072 194.142 162.92C194.422 162.76 194.562 162.492 194.562 162.116ZM199.628 157.46C200.412 157.46 200.992 157.632 201.368 157.976C201.744 158.32 201.932 158.868 201.932 159.62V164H201.164L200.96 163.088H200.912C200.632 163.44 200.336 163.7 200.024 163.868C199.72 164.036 199.296 164.12 198.752 164.12C198.168 164.12 197.684 163.968 197.3 163.664C196.916 163.352 196.724 162.868 196.724 162.212C196.724 161.572 196.976 161.08 197.48 160.736C197.984 160.384 198.76 160.192 199.808 160.16L200.9 160.124V159.74C200.9 159.204 200.784 158.832 200.552 158.624C200.32 158.416 199.992 158.312 199.568 158.312C199.232 158.312 198.912 158.364 198.608 158.468C198.304 158.564 198.02 158.676 197.756 158.804L197.432 158.012C197.712 157.86 198.044 157.732 198.428 157.628C198.812 157.516 199.212 157.46 199.628 157.46ZM200.888 160.856L199.94 160.892C199.14 160.924 198.584 161.052 198.272 161.276C197.968 161.5 197.816 161.816 197.816 162.224C197.816 162.584 197.924 162.848 198.14 163.016C198.364 163.184 198.648 163.268 198.992 163.268C199.536 163.268 199.988 163.12 200.348 162.824C200.708 162.52 200.888 162.056 200.888 161.432V160.856ZM212.642 157.568V164H203.918V157.568H204.974V163.112H207.746V157.568H208.802V163.112H211.586V157.568H212.642ZM217.184 157.448C217.736 157.448 218.208 157.568 218.6 157.808C219 158.048 219.304 158.388 219.512 158.828C219.728 159.26 219.836 159.768 219.836 160.352V160.988H215.432C215.448 161.716 215.632 162.272 215.984 162.656C216.344 163.032 216.844 163.22 217.484 163.22C217.892 163.22 218.252 163.184 218.564 163.112C218.884 163.032 219.212 162.92 219.548 162.776V163.7C219.22 163.844 218.896 163.948 218.576 164.012C218.256 164.084 217.876 164.12 217.436 164.12C216.828 164.12 216.288 163.996 215.816 163.748C215.352 163.5 214.988 163.132 214.724 162.644C214.468 162.148 214.34 161.544 214.34 160.832C214.34 160.128 214.456 159.524 214.688 159.02C214.928 158.516 215.26 158.128 215.684 157.856C216.116 157.584 216.616 157.448 217.184 157.448ZM217.172 158.312C216.668 158.312 216.268 158.476 215.972 158.804C215.684 159.124 215.512 159.572 215.456 160.148H218.732C218.724 159.604 218.596 159.164 218.348 158.828C218.1 158.484 217.708 158.312 217.172 158.312ZM225.397 157.568V158.456H222.529V164H221.473V157.568H225.397ZM232.139 160.772C232.139 161.836 231.867 162.66 231.323 163.244C230.787 163.828 230.059 164.12 229.139 164.12C228.571 164.12 228.063 163.992 227.615 163.736C227.175 163.472 226.827 163.092 226.571 162.596C226.315 162.092 226.187 161.484 226.187 160.772C226.187 159.708 226.455 158.888 226.991 158.312C227.527 157.736 228.255 157.448 229.175 157.448C229.759 157.448 230.271 157.58 230.711 157.844C231.159 158.1 231.507 158.476 231.755 158.972C232.011 159.46 232.139 160.06 232.139 160.772ZM227.279 160.772C227.279 161.532 227.427 162.136 227.723 162.584C228.027 163.024 228.507 163.244 229.163 163.244C229.811 163.244 230.287 163.024 230.591 162.584C230.895 162.136 231.047 161.532 231.047 160.772C231.047 160.012 230.895 159.416 230.591 158.984C230.287 158.552 229.807 158.336 229.151 158.336C228.495 158.336 228.019 158.552 227.723 158.984C227.427 159.416 227.279 160.012 227.279 160.772ZM33.6 182.12C33.032 182.12 32.524 182.004 32.076 181.772C31.636 181.54 31.288 181.18 31.032 180.692C30.784 180.204 30.66 179.58 30.66 178.82C30.66 178.028 30.792 177.384 31.056 176.888C31.32 176.392 31.676 176.028 32.124 175.796C32.58 175.564 33.096 175.448 33.672 175.448C34 175.448 34.316 175.484 34.62 175.556C34.924 175.62 35.172 175.7 35.364 175.796L35.04 176.672C34.848 176.6 34.624 176.532 34.368 176.468C34.112 176.404 33.872 176.372 33.648 176.372C32.384 176.372 31.752 177.184 31.752 178.808C31.752 179.584 31.904 180.18 32.208 180.596C32.52 181.004 32.98 181.208 33.588 181.208C33.94 181.208 34.248 181.172 34.512 181.1C34.784 181.028 35.032 180.94 35.256 180.836V181.772C35.04 181.884 34.8 181.968 34.536 182.024C34.28 182.088 33.968 182.12 33.6 182.12ZM39.2216 175.46C40.0056 175.46 40.5856 175.632 40.9616 175.976C41.3376 176.32 41.5256 176.868 41.5256 177.62V182H40.7576L40.5536 181.088H40.5056C40.2256 181.44 39.9296 181.7 39.6176 181.868C39.3136 182.036 38.8896 182.12 38.3456 182.12C37.7616 182.12 37.2776 181.968 36.8936 181.664C36.5096 181.352 36.3176 180.868 36.3176 180.212C36.3176 179.572 36.5696 179.08 37.0736 178.736C37.5776 178.384 38.3536 178.192 39.4016 178.16L40.4936 178.124V177.74C40.4936 177.204 40.3776 176.832 40.1456 176.624C39.9136 176.416 39.5856 176.312 39.1616 176.312C38.8256 176.312 38.5056 176.364 38.2016 176.468C37.8976 176.564 37.6136 176.676 37.3496 176.804L37.0256 176.012C37.3056 175.86 37.6376 175.732 38.0216 175.628C38.4056 175.516 38.8056 175.46 39.2216 175.46ZM40.4816 178.856L39.5336 178.892C38.7336 178.924 38.1776 179.052 37.8656 179.276C37.5616 179.5 37.4096 179.816 37.4096 180.224C37.4096 180.584 37.5176 180.848 37.7336 181.016C37.9576 181.184 38.2416 181.268 38.5856 181.268C39.1296 181.268 39.5816 181.12 39.9416 180.824C40.3016 180.52 40.4816 180.056 40.4816 179.432V178.856ZM44.5082 175.568V179.492C44.5082 179.588 44.5042 179.732 44.4962 179.924C44.4882 180.116 44.4762 180.308 44.4602 180.5C44.4522 180.692 44.4442 180.844 44.4362 180.956L47.8802 175.568H49.1762V182H48.1922V178.208C48.1922 178.08 48.1922 177.912 48.1922 177.704C48.2002 177.496 48.2082 177.292 48.2162 177.092C48.2242 176.884 48.2322 176.728 48.2402 176.624L44.8202 182H43.5122V175.568H44.5082ZM48.7202 172.904C48.6642 173.504 48.4602 173.96 48.1082 174.272C47.7642 174.576 47.2122 174.728 46.4522 174.728C45.6682 174.728 45.1122 174.576 44.7842 174.272C44.4642 173.968 44.2842 173.512 44.2442 172.904H45.2282C45.2682 173.336 45.3802 173.628 45.5642 173.78C45.7562 173.924 46.0602 173.996 46.4762 173.996C46.8442 173.996 47.1322 173.92 47.3402 173.768C47.5562 173.608 47.6842 173.32 47.7242 172.904H48.7202ZM55.6631 176.456H53.5631V182H52.5191V176.456H50.4431V175.568H55.6631V176.456ZM59.3662 175.46C60.1502 175.46 60.7302 175.632 61.1062 175.976C61.4822 176.32 61.6702 176.868 61.6702 177.62V182H60.9022L60.6982 181.088H60.6502C60.3702 181.44 60.0742 181.7 59.7622 181.868C59.4582 182.036 59.0342 182.12 58.4902 182.12C57.9062 182.12 57.4222 181.968 57.0382 181.664C56.6542 181.352 56.4622 180.868 56.4622 180.212C56.4622 179.572 56.7142 179.08 57.2182 178.736C57.7222 178.384 58.4982 178.192 59.5462 178.16L60.6382 178.124V177.74C60.6382 177.204 60.5222 176.832 60.2902 176.624C60.0582 176.416 59.7302 176.312 59.3062 176.312C58.9702 176.312 58.6502 176.364 58.3462 176.468C58.0422 176.564 57.7582 176.676 57.4942 176.804L57.1702 176.012C57.4502 175.86 57.7822 175.732 58.1662 175.628C58.5502 175.516 58.9502 175.46 59.3662 175.46ZM60.6262 178.856L59.6782 178.892C58.8782 178.924 58.3222 179.052 58.0102 179.276C57.7062 179.5 57.5542 179.816 57.5542 180.224C57.5542 180.584 57.6622 180.848 57.8782 181.016C58.1022 181.184 58.3862 181.268 58.7302 181.268C59.2742 181.268 59.7262 181.12 60.0862 180.824C60.4462 180.52 60.6262 180.056 60.6262 179.432V178.856ZM67.7699 175.568V179.492C67.7699 179.588 67.7659 179.732 67.7579 179.924C67.7499 180.116 67.7379 180.308 67.7219 180.5C67.7139 180.692 67.7059 180.844 67.6979 180.956L71.1419 175.568H72.4379V182H71.4539V178.208C71.4539 178.08 71.4539 177.912 71.4539 177.704C71.4619 177.496 71.4699 177.292 71.4779 177.092C71.4859 176.884 71.4939 176.728 71.5019 176.624L68.0819 182H66.7739V175.568H67.7699ZM79.3808 182H78.3128V176.444H76.4168C76.3128 177.796 76.1688 178.888 75.9848 179.72C75.8008 180.544 75.5568 181.144 75.2528 181.52C74.9488 181.896 74.5648 182.084 74.1008 182.084C73.9968 182.084 73.8928 182.076 73.7888 182.06C73.6928 182.052 73.6128 182.032 73.5488 182V181.208C73.5968 181.224 73.6488 181.236 73.7048 181.244C73.7608 181.252 73.8168 181.256 73.8728 181.256C74.3048 181.256 74.6488 180.796 74.9048 179.876C75.1688 178.956 75.3688 177.52 75.5048 175.568H79.3808V182ZM82.4183 175.568V179.492C82.4183 179.588 82.4143 179.732 82.4063 179.924C82.3983 180.116 82.3863 180.308 82.3703 180.5C82.3623 180.692 82.3543 180.844 82.3463 180.956L85.7903 175.568H87.0863V182H86.1023V178.208C86.1023 178.08 86.1023 177.912 86.1023 177.704C86.1103 177.496 86.1183 177.292 86.1263 177.092C86.1343 176.884 86.1423 176.728 86.1503 176.624L82.7303 182H81.4223V175.568H82.4183ZM97.6865 175.568V182H96.6305V176.468H93.3065V182H92.2505V175.568H97.6865ZM102.799 175.448C103.591 175.448 104.227 175.724 104.707 176.276C105.195 176.828 105.439 177.66 105.439 178.772C105.439 179.868 105.195 180.7 104.707 181.268C104.227 181.836 103.587 182.12 102.787 182.12C102.291 182.12 101.879 182.028 101.551 181.844C101.231 181.652 100.979 181.432 100.795 181.184H100.723C100.739 181.32 100.755 181.492 100.771 181.7C100.787 181.908 100.795 182.088 100.795 182.24V184.88H99.7388V175.568H100.603L100.747 176.444H100.795C100.987 176.164 101.239 175.928 101.551 175.736C101.863 175.544 102.279 175.448 102.799 175.448ZM102.607 176.336C101.951 176.336 101.487 176.52 101.215 176.888C100.951 177.256 100.811 177.816 100.795 178.568V178.772C100.795 179.564 100.923 180.176 101.179 180.608C101.443 181.032 101.927 181.244 102.631 181.244C103.023 181.244 103.343 181.136 103.591 180.92C103.847 180.704 104.035 180.412 104.155 180.044C104.283 179.668 104.347 179.24 104.347 178.76C104.347 178.024 104.203 177.436 103.915 176.996C103.635 176.556 103.199 176.336 102.607 176.336ZM108.118 175.568V179.492C108.118 179.588 108.114 179.732 108.106 179.924C108.098 180.116 108.086 180.308 108.07 180.5C108.062 180.692 108.054 180.844 108.046 180.956L111.49 175.568H112.786V182H111.802V178.208C111.802 178.08 111.802 177.912 111.802 177.704C111.81 177.496 111.818 177.292 111.826 177.092C111.834 176.884 111.842 176.728 111.85 176.624L108.43 182H107.122V175.568H108.118ZM119.729 182H118.661V176.444H116.765C116.661 177.796 116.517 178.888 116.333 179.72C116.149 180.544 115.905 181.144 115.601 181.52C115.297 181.896 114.913 182.084 114.449 182.084C114.345 182.084 114.241 182.076 114.137 182.06C114.041 182.052 113.961 182.032 113.897 182V181.208C113.945 181.224 113.997 181.236 114.053 181.244C114.109 181.252 114.165 181.256 114.221 181.256C114.653 181.256 114.997 180.796 115.253 179.876C115.517 178.956 115.717 177.52 115.853 175.568H119.729V182ZM127.362 178.772C127.362 179.836 127.09 180.66 126.546 181.244C126.01 181.828 125.282 182.12 124.362 182.12C123.794 182.12 123.286 181.992 122.838 181.736C122.398 181.472 122.05 181.092 121.794 180.596C121.538 180.092 121.41 179.484 121.41 178.772C121.41 177.708 121.678 176.888 122.214 176.312C122.75 175.736 123.478 175.448 124.398 175.448C124.982 175.448 125.494 175.58 125.934 175.844C126.382 176.1 126.73 176.476 126.978 176.972C127.234 177.46 127.362 178.06 127.362 178.772ZM122.502 178.772C122.502 179.532 122.65 180.136 122.946 180.584C123.25 181.024 123.73 181.244 124.386 181.244C125.034 181.244 125.51 181.024 125.814 180.584C126.118 180.136 126.27 179.532 126.27 178.772C126.27 178.012 126.118 177.416 125.814 176.984C125.51 176.552 125.03 176.336 124.374 176.336C123.718 176.336 123.242 176.552 122.946 176.984C122.65 177.416 122.502 178.012 122.502 178.772ZM136.517 175.568L133.865 178.688L136.745 182H135.545L132.761 178.736V182H131.777V178.736L128.993 182H127.793L130.673 178.688L128.021 175.568H129.173L131.777 178.688V175.568H132.761V178.688L135.377 175.568H136.517ZM140.051 175.448C140.603 175.448 141.075 175.568 141.467 175.808C141.867 176.048 142.171 176.388 142.379 176.828C142.595 177.26 142.703 177.768 142.703 178.352V178.988H138.299C138.315 179.716 138.499 180.272 138.851 180.656C139.211 181.032 139.711 181.22 140.351 181.22C140.759 181.22 141.119 181.184 141.431 181.112C141.751 181.032 142.079 180.92 142.415 180.776V181.7C142.087 181.844 141.763 181.948 141.443 182.012C141.123 182.084 140.743 182.12 140.303 182.12C139.695 182.12 139.155 181.996 138.683 181.748C138.219 181.5 137.855 181.132 137.591 180.644C137.335 180.148 137.207 179.544 137.207 178.832C137.207 178.128 137.323 177.524 137.555 177.02C137.795 176.516 138.127 176.128 138.551 175.856C138.983 175.584 139.483 175.448 140.051 175.448ZM140.039 176.312C139.535 176.312 139.135 176.476 138.839 176.804C138.551 177.124 138.379 177.572 138.323 178.148H141.599C141.591 177.604 141.463 177.164 141.215 176.828C140.967 176.484 140.575 176.312 140.039 176.312ZM145.396 175.568V178.244H148.888V175.568H149.944V182H148.888V179.132H145.396V182H144.34V175.568H145.396ZM152.977 175.568V179.492C152.977 179.588 152.973 179.732 152.965 179.924C152.957 180.116 152.945 180.308 152.929 180.5C152.921 180.692 152.913 180.844 152.905 180.956L156.349 175.568H157.645V182H156.661V178.208C156.661 178.08 156.661 177.912 156.661 177.704C156.669 177.496 156.677 177.292 156.685 177.092C156.693 176.884 156.701 176.728 156.709 176.624L153.289 182H151.981V175.568H152.977ZM160.088 182H158.864L160.7 179.3C160.452 179.236 160.212 179.136 159.98 179C159.748 178.856 159.56 178.66 159.416 178.412C159.272 178.156 159.2 177.84 159.2 177.464C159.2 176.848 159.408 176.38 159.824 176.06C160.24 175.732 160.792 175.568 161.48 175.568H164.36V182H163.304V179.444H161.744L160.088 182ZM160.22 177.476C160.22 177.844 160.356 178.12 160.628 178.304C160.908 178.48 161.296 178.568 161.792 178.568H163.304V176.444H161.588C161.1 176.444 160.748 176.54 160.532 176.732C160.324 176.924 160.22 177.172 160.22 177.476ZM167.775 180.356L166.323 183.668H165.435L166.287 180.356H167.775ZM174.644 175.46C175.428 175.46 176.008 175.632 176.384 175.976C176.76 176.32 176.948 176.868 176.948 177.62V182H176.18L175.976 181.088H175.928C175.648 181.44 175.352 181.7 175.04 181.868C174.736 182.036 174.312 182.12 173.768 182.12C173.184 182.12 172.7 181.968 172.316 181.664C171.932 181.352 171.74 180.868 171.74 180.212C171.74 179.572 171.992 179.08 172.496 178.736C173 178.384 173.776 178.192 174.824 178.16L175.916 178.124V177.74C175.916 177.204 175.8 176.832 175.568 176.624C175.336 176.416 175.008 176.312 174.584 176.312C174.248 176.312 173.928 176.364 173.624 176.468C173.32 176.564 173.036 176.676 172.771 176.804L172.448 176.012C172.728 175.86 173.06 175.732 173.444 175.628C173.828 175.516 174.228 175.46 174.644 175.46ZM175.904 178.856L174.956 178.892C174.156 178.924 173.6 179.052 173.288 179.276C172.984 179.5 172.832 179.816 172.832 180.224C172.832 180.584 172.94 180.848 173.156 181.016C173.38 181.184 173.664 181.268 174.008 181.268C174.552 181.268 175.004 181.12 175.364 180.824C175.724 180.52 175.904 180.056 175.904 179.432V178.856ZM187.487 175.568V182H186.431V176.468H183.107V182H182.051V175.568H187.487ZM189.936 182H188.712L190.548 179.3C190.3 179.236 190.06 179.136 189.828 179C189.596 178.856 189.408 178.66 189.264 178.412C189.12 178.156 189.048 177.84 189.048 177.464C189.048 176.848 189.256 176.38 189.672 176.06C190.088 175.732 190.64 175.568 191.328 175.568H194.208V182H193.152V179.444H191.592L189.936 182ZM190.068 177.476C190.068 177.844 190.204 178.12 190.476 178.304C190.756 178.48 191.144 178.568 191.64 178.568H193.152V176.444H191.436C190.948 176.444 190.596 176.54 190.38 176.732C190.172 176.924 190.068 177.172 190.068 177.476ZM200.683 176.456H198.583V182H197.539V176.456H195.463V175.568H200.683V176.456ZM204.386 175.46C205.17 175.46 205.75 175.632 206.126 175.976C206.502 176.32 206.69 176.868 206.69 177.62V182H205.922L205.718 181.088H205.67C205.39 181.44 205.094 181.7 204.782 181.868C204.478 182.036 204.054 182.12 203.51 182.12C202.926 182.12 202.442 181.968 202.058 181.664C201.674 181.352 201.482 180.868 201.482 180.212C201.482 179.572 201.734 179.08 202.238 178.736C202.742 178.384 203.518 178.192 204.566 178.16L205.658 178.124V177.74C205.658 177.204 205.542 176.832 205.31 176.624C205.078 176.416 204.75 176.312 204.326 176.312C203.99 176.312 203.67 176.364 203.366 176.468C203.062 176.564 202.778 176.676 202.514 176.804L202.19 176.012C202.47 175.86 202.802 175.732 203.186 175.628C203.57 175.516 203.97 175.46 204.386 175.46ZM205.646 178.856L204.698 178.892C203.898 178.924 203.342 179.052 203.03 179.276C202.726 179.5 202.574 179.816 202.574 180.224C202.574 180.584 202.682 180.848 202.898 181.016C203.122 181.184 203.406 181.268 203.75 181.268C204.294 181.268 204.746 181.12 205.106 180.824C205.466 180.52 205.646 180.056 205.646 179.432V178.856ZM209.072 182H207.848L209.684 179.3C209.436 179.236 209.196 179.136 208.964 179C208.732 178.856 208.544 178.66 208.4 178.412C208.256 178.156 208.184 177.84 208.184 177.464C208.184 176.848 208.392 176.38 208.808 176.06C209.224 175.732 209.776 175.568 210.464 175.568H213.344V182H212.288V179.444H210.728L209.072 182ZM209.204 177.476C209.204 177.844 209.34 178.12 209.612 178.304C209.892 178.48 210.28 178.568 210.776 178.568H212.288V176.444H210.572C210.084 176.444 209.732 176.54 209.516 176.732C209.308 176.924 209.204 177.172 209.204 177.476ZM36.192 195.188C36.192 195.588 36.072 195.9 35.832 196.124C35.592 196.348 35.284 196.5 34.908 196.58V196.628C35.308 196.684 35.656 196.828 35.952 197.06C36.248 197.284 36.396 197.636 36.396 198.116C36.396 198.66 36.192 199.112 35.784 199.472C35.384 199.824 34.72 200 33.792 200H31.02V193.568H33.78C34.236 193.568 34.644 193.62 35.004 193.724C35.372 193.82 35.66 193.988 35.868 194.228C36.084 194.46 36.192 194.78 36.192 195.188ZM35.124 195.32C35.124 195.016 35.012 194.796 34.788 194.66C34.572 194.516 34.216 194.444 33.72 194.444H32.076V196.208H33.528C34.592 196.208 35.124 195.912 35.124 195.32ZM35.304 198.116C35.304 197.748 35.164 197.484 34.884 197.324C34.604 197.164 34.192 197.084 33.648 197.084H32.076V199.148H33.672C34.2 199.148 34.604 199.072 34.884 198.92C35.164 198.76 35.304 198.492 35.304 198.116ZM40.4181 193.448C40.9701 193.448 41.4421 193.568 41.8341 193.808C42.2341 194.048 42.5381 194.388 42.7461 194.828C42.9621 195.26 43.0701 195.768 43.0701 196.352V196.988H38.6661C38.6821 197.716 38.8661 198.272 39.2181 198.656C39.5781 199.032 40.0781 199.22 40.7181 199.22C41.1261 199.22 41.4861 199.184 41.7981 199.112C42.1181 199.032 42.4461 198.92 42.7821 198.776V199.7C42.4541 199.844 42.1301 199.948 41.8101 200.012C41.4901 200.084 41.1101 200.12 40.6701 200.12C40.0621 200.12 39.5221 199.996 39.0501 199.748C38.5861 199.5 38.2221 199.132 37.9581 198.644C37.7021 198.148 37.5741 197.544 37.5741 196.832C37.5741 196.128 37.6901 195.524 37.9221 195.02C38.1621 194.516 38.4941 194.128 38.9181 193.856C39.3501 193.584 39.8501 193.448 40.4181 193.448ZM40.4061 194.312C39.9021 194.312 39.5021 194.476 39.2061 194.804C38.9181 195.124 38.7461 195.572 38.6901 196.148H41.9661C41.9581 195.604 41.8301 195.164 41.5821 194.828C41.3341 194.484 40.9421 194.312 40.4061 194.312ZM47.7675 193.448C48.5595 193.448 49.1955 193.724 49.6755 194.276C50.1635 194.828 50.4075 195.66 50.4075 196.772C50.4075 197.868 50.1635 198.7 49.6755 199.268C49.1955 199.836 48.5555 200.12 47.7555 200.12C47.2595 200.12 46.8475 200.028 46.5195 199.844C46.1995 199.652 45.9475 199.432 45.7635 199.184H45.6915C45.7075 199.32 45.7235 199.492 45.7395 199.7C45.7555 199.908 45.7635 200.088 45.7635 200.24V202.88H44.7075V193.568H45.5715L45.7155 194.444H45.7635C45.9555 194.164 46.2075 193.928 46.5195 193.736C46.8315 193.544 47.2475 193.448 47.7675 193.448ZM47.5755 194.336C46.9195 194.336 46.4555 194.52 46.1835 194.888C45.9195 195.256 45.7795 195.816 45.7635 196.568V196.772C45.7635 197.564 45.8915 198.176 46.1475 198.608C46.4115 199.032 46.8955 199.244 47.5995 199.244C47.9915 199.244 48.3115 199.136 48.5595 198.92C48.8155 198.704 49.0035 198.412 49.1235 198.044C49.2515 197.668 49.3155 197.24 49.3155 196.76C49.3155 196.024 49.1715 195.436 48.8835 194.996C48.6035 194.556 48.1675 194.336 47.5755 194.336ZM54.6703 200.12C54.1023 200.12 53.5943 200.004 53.1463 199.772C52.7063 199.54 52.3583 199.18 52.1023 198.692C51.8543 198.204 51.7303 197.58 51.7303 196.82C51.7303 196.028 51.8623 195.384 52.1263 194.888C52.3903 194.392 52.7463 194.028 53.1943 193.796C53.6503 193.564 54.1663 193.448 54.7423 193.448C55.0703 193.448 55.3863 193.484 55.6903 193.556C55.9943 193.62 56.2423 193.7 56.4343 193.796L56.1103 194.672C55.9183 194.6 55.6943 194.532 55.4383 194.468C55.1823 194.404 54.9423 194.372 54.7183 194.372C53.4543 194.372 52.8223 195.184 52.8223 196.808C52.8223 197.584 52.9743 198.18 53.2783 198.596C53.5903 199.004 54.0503 199.208 54.6583 199.208C55.0103 199.208 55.3183 199.172 55.5823 199.1C55.8543 199.028 56.1023 198.94 56.3263 198.836V199.772C56.1103 199.884 55.8703 199.968 55.6063 200.024C55.3503 200.088 55.0383 200.12 54.6703 200.12ZM58.8519 193.568V197.492C58.8519 197.588 58.8479 197.732 58.8399 197.924C58.8319 198.116 58.8199 198.308 58.8039 198.5C58.7959 198.692 58.7879 198.844 58.7799 198.956L62.2239 193.568H63.5199V200H62.5359V196.208C62.5359 196.08 62.5359 195.912 62.5359 195.704C62.5439 195.496 62.5519 195.292 62.5599 195.092C62.5679 194.884 62.5759 194.728 62.5839 194.624L59.1639 200H57.8559V193.568H58.8519ZM65.9629 200H64.7389L66.5749 197.3C66.3269 197.236 66.0869 197.136 65.8549 197C65.6229 196.856 65.4349 196.66 65.2909 196.412C65.1469 196.156 65.0749 195.84 65.0749 195.464C65.0749 194.848 65.2829 194.38 65.6989 194.06C66.1149 193.732 66.6669 193.568 67.3549 193.568H70.2349V200H69.1789V197.444H67.6189L65.9629 200ZM66.0949 195.476C66.0949 195.844 66.2309 196.12 66.5029 196.304C66.7829 196.48 67.1709 196.568 67.6669 196.568H69.1789V194.444H67.4629C66.9749 194.444 66.6229 194.54 66.4069 194.732C66.1989 194.924 66.0949 195.172 66.0949 195.476ZM80.8232 193.568V200H79.7672V194.468H76.4432V200H75.3872V193.568H80.8232ZM88.4675 196.772C88.4675 197.836 88.1955 198.66 87.6515 199.244C87.1155 199.828 86.3875 200.12 85.4675 200.12C84.8995 200.12 84.3915 199.992 83.9435 199.736C83.5035 199.472 83.1555 199.092 82.8995 198.596C82.6435 198.092 82.5155 197.484 82.5155 196.772C82.5155 195.708 82.7835 194.888 83.3195 194.312C83.8555 193.736 84.5835 193.448 85.5035 193.448C86.0875 193.448 86.5995 193.58 87.0395 193.844C87.4875 194.1 87.8355 194.476 88.0835 194.972C88.3395 195.46 88.4675 196.06 88.4675 196.772ZM83.6075 196.772C83.6075 197.532 83.7555 198.136 84.0515 198.584C84.3555 199.024 84.8355 199.244 85.4915 199.244C86.1395 199.244 86.6155 199.024 86.9195 198.584C87.2235 198.136 87.3755 197.532 87.3755 196.772C87.3755 196.012 87.2235 195.416 86.9195 194.984C86.6155 194.552 86.1355 194.336 85.4795 194.336C84.8235 194.336 84.3475 194.552 84.0515 194.984C83.7555 195.416 83.6075 196.012 83.6075 196.772ZM91.8331 193.448C92.5691 193.448 93.1531 193.596 93.5851 193.892C94.0251 194.18 94.2451 194.596 94.2451 195.14C94.2451 195.532 94.1371 195.844 93.9211 196.076C93.7051 196.3 93.4091 196.464 93.0331 196.568V196.616C93.2891 196.688 93.5251 196.788 93.7411 196.916C93.9571 197.044 94.1291 197.212 94.2571 197.42C94.3931 197.628 94.4611 197.896 94.4611 198.224C94.4611 198.76 94.2371 199.212 93.7891 199.58C93.3491 199.94 92.6571 200.12 91.7131 200.12C91.2491 200.12 90.8291 200.08 90.4531 200C90.0771 199.928 89.7651 199.828 89.5171 199.7V198.752C89.7891 198.88 90.1091 198.996 90.4771 199.1C90.8531 199.204 91.2611 199.256 91.7011 199.256C92.1811 199.256 92.5851 199.176 92.9131 199.016C93.2491 198.848 93.4171 198.564 93.4171 198.164C93.4171 197.444 92.8051 197.084 91.5811 197.084H90.7171V196.22H91.4131C91.9651 196.22 92.4051 196.148 92.7331 196.004C93.0691 195.852 93.2371 195.596 93.2371 195.236C93.2371 194.932 93.1091 194.704 92.8531 194.552C92.6051 194.4 92.2451 194.324 91.7731 194.324C91.4211 194.324 91.1091 194.36 90.8371 194.432C90.5731 194.496 90.2811 194.596 89.9611 194.732L89.5891 193.892C90.2611 193.596 91.0091 193.448 91.8331 193.448ZM101.196 195.188C101.196 195.588 101.076 195.9 100.836 196.124C100.596 196.348 100.288 196.5 99.9119 196.58V196.628C100.312 196.684 100.66 196.828 100.956 197.06C101.252 197.284 101.4 197.636 101.4 198.116C101.4 198.66 101.196 199.112 100.788 199.472C100.388 199.824 99.7239 200 98.7959 200H96.0239V193.568H98.7839C99.2399 193.568 99.6479 193.62 100.008 193.724C100.376 193.82 100.664 193.988 100.872 194.228C101.088 194.46 101.196 194.78 101.196 195.188ZM100.128 195.32C100.128 195.016 100.016 194.796 99.7919 194.66C99.5759 194.516 99.2199 194.444 98.7239 194.444H97.0799V196.208H98.5319C99.5959 196.208 100.128 195.912 100.128 195.32ZM100.308 198.116C100.308 197.748 100.168 197.484 99.8879 197.324C99.6079 197.164 99.1959 197.084 98.6519 197.084H97.0799V199.148H98.6759C99.2039 199.148 99.6079 199.072 99.8879 198.92C100.168 198.76 100.308 198.492 100.308 198.116ZM108.53 196.772C108.53 197.836 108.258 198.66 107.714 199.244C107.178 199.828 106.45 200.12 105.53 200.12C104.962 200.12 104.454 199.992 104.006 199.736C103.566 199.472 103.218 199.092 102.962 198.596C102.706 198.092 102.578 197.484 102.578 196.772C102.578 195.708 102.846 194.888 103.382 194.312C103.918 193.736 104.646 193.448 105.566 193.448C106.15 193.448 106.662 193.58 107.102 193.844C107.55 194.1 107.898 194.476 108.146 194.972C108.402 195.46 108.53 196.06 108.53 196.772ZM103.67 196.772C103.67 197.532 103.818 198.136 104.114 198.584C104.418 199.024 104.898 199.244 105.554 199.244C106.202 199.244 106.678 199.024 106.982 198.584C107.286 198.136 107.438 197.532 107.438 196.772C107.438 196.012 107.286 195.416 106.982 194.984C106.678 194.552 106.198 194.336 105.542 194.336C104.886 194.336 104.41 194.552 104.114 194.984C103.818 195.416 103.67 196.012 103.67 196.772ZM115.1 200H114.032V194.444H112.136C112.032 195.796 111.888 196.888 111.704 197.72C111.52 198.544 111.276 199.144 110.972 199.52C110.668 199.896 110.284 200.084 109.82 200.084C109.716 200.084 109.612 200.076 109.508 200.06C109.412 200.052 109.332 200.032 109.268 200V199.208C109.316 199.224 109.368 199.236 109.424 199.244C109.48 199.252 109.536 199.256 109.592 199.256C110.024 199.256 110.368 198.796 110.624 197.876C110.888 196.956 111.088 195.52 111.224 193.568H115.1V200ZM118.137 193.568V197.492C118.137 197.588 118.133 197.732 118.125 197.924C118.117 198.116 118.105 198.308 118.089 198.5C118.081 198.692 118.073 198.844 118.065 198.956L121.509 193.568H122.805V200H121.821V196.208C121.821 196.08 121.821 195.912 121.821 195.704C121.829 195.496 121.837 195.292 121.845 195.092C121.853 194.884 121.861 194.728 121.869 194.624L118.449 200H117.141V193.568H118.137ZM129.292 194.456H127.192V200H126.148V194.456H124.072V193.568H129.292V194.456ZM140.576 193.568V200H139.628V195.896C139.628 195.728 139.632 195.552 139.64 195.368C139.656 195.184 139.672 195.004 139.688 194.828H139.652L137.552 200H136.664L134.624 194.828H134.588C134.612 195.188 134.624 195.556 134.624 195.932V200H133.676V193.568H135.08L137.108 198.74L139.172 193.568H140.576ZM143.685 193.568V196.244H147.177V193.568H148.233V200H147.177V197.132H143.685V200H142.629V193.568H143.685ZM152.754 193.448C153.306 193.448 153.778 193.568 154.17 193.808C154.57 194.048 154.874 194.388 155.082 194.828C155.298 195.26 155.406 195.768 155.406 196.352V196.988H151.002C151.018 197.716 151.202 198.272 151.554 198.656C151.914 199.032 152.414 199.22 153.054 199.22C153.462 199.22 153.822 199.184 154.134 199.112C154.454 199.032 154.782 198.92 155.118 198.776V199.7C154.79 199.844 154.466 199.948 154.146 200.012C153.826 200.084 153.446 200.12 153.006 200.12C152.398 200.12 151.858 199.996 151.386 199.748C150.922 199.5 150.558 199.132 150.294 198.644C150.038 198.148 149.91 197.544 149.91 196.832C149.91 196.128 150.026 195.524 150.258 195.02C150.498 194.516 150.83 194.128 151.254 193.856C151.686 193.584 152.186 193.448 152.754 193.448ZM152.742 194.312C152.238 194.312 151.838 194.476 151.542 194.804C151.254 195.124 151.082 195.572 151.026 196.148H154.302C154.294 195.604 154.166 195.164 153.918 194.828C153.67 194.484 153.278 194.312 152.742 194.312ZM162.741 200.12C162.173 200.12 161.665 200.004 161.217 199.772C160.777 199.54 160.429 199.18 160.173 198.692C159.925 198.204 159.801 197.58 159.801 196.82C159.801 196.028 159.933 195.384 160.197 194.888C160.461 194.392 160.817 194.028 161.265 193.796C161.721 193.564 162.237 193.448 162.813 193.448C163.141 193.448 163.457 193.484 163.761 193.556C164.065 193.62 164.313 193.7 164.505 193.796L164.181 194.672C163.989 194.6 163.765 194.532 163.509 194.468C163.253 194.404 163.013 194.372 162.789 194.372C161.525 194.372 160.893 195.184 160.893 196.808C160.893 197.584 161.045 198.18 161.349 198.596C161.661 199.004 162.121 199.208 162.729 199.208C163.081 199.208 163.389 199.172 163.653 199.1C163.925 199.028 164.173 198.94 164.397 198.836V199.772C164.181 199.884 163.941 199.968 163.677 200.024C163.421 200.088 163.109 200.12 162.741 200.12ZM171.518 196.772C171.518 197.836 171.246 198.66 170.702 199.244C170.166 199.828 169.438 200.12 168.518 200.12C167.95 200.12 167.442 199.992 166.994 199.736C166.554 199.472 166.206 199.092 165.95 198.596C165.694 198.092 165.566 197.484 165.566 196.772C165.566 195.708 165.834 194.888 166.37 194.312C166.906 193.736 167.634 193.448 168.554 193.448C169.138 193.448 169.65 193.58 170.09 193.844C170.538 194.1 170.886 194.476 171.134 194.972C171.39 195.46 171.518 196.06 171.518 196.772ZM166.658 196.772C166.658 197.532 166.806 198.136 167.102 198.584C167.406 199.024 167.886 199.244 168.542 199.244C169.19 199.244 169.666 199.024 169.97 198.584C170.274 198.136 170.426 197.532 170.426 196.772C170.426 196.012 170.274 195.416 169.97 194.984C169.666 194.552 169.186 194.336 168.53 194.336C167.874 194.336 167.398 194.552 167.102 194.984C166.806 195.416 166.658 196.012 166.658 196.772ZM174.884 193.448C175.62 193.448 176.204 193.596 176.636 193.892C177.076 194.18 177.296 194.596 177.296 195.14C177.296 195.532 177.188 195.844 176.972 196.076C176.756 196.3 176.46 196.464 176.084 196.568V196.616C176.34 196.688 176.576 196.788 176.792 196.916C177.008 197.044 177.18 197.212 177.308 197.42C177.444 197.628 177.512 197.896 177.512 198.224C177.512 198.76 177.288 199.212 176.84 199.58C176.4 199.94 175.708 200.12 174.764 200.12C174.3 200.12 173.88 200.08 173.504 200C173.128 199.928 172.816 199.828 172.568 199.7V198.752C172.84 198.88 173.16 198.996 173.528 199.1C173.904 199.204 174.312 199.256 174.752 199.256C175.232 199.256 175.636 199.176 175.964 199.016C176.3 198.848 176.468 198.564 176.468 198.164C176.468 197.444 175.856 197.084 174.632 197.084H173.768V196.22H174.464C175.016 196.22 175.456 196.148 175.784 196.004C176.12 195.852 176.288 195.596 176.288 195.236C176.288 194.932 176.16 194.704 175.904 194.552C175.656 194.4 175.296 194.324 174.824 194.324C174.472 194.324 174.16 194.36 173.888 194.432C173.624 194.496 173.332 194.596 173.012 194.732L172.64 193.892C173.312 193.596 174.06 193.448 174.884 193.448ZM183.851 193.568V199.112H184.787V202.232H183.767V200H179.291V202.232H178.283V199.112H178.799C179.351 198.352 179.763 197.488 180.035 196.52C180.315 195.544 180.459 194.56 180.467 193.568H183.851ZM182.831 194.396H181.403C181.371 194.94 181.287 195.504 181.151 196.088C181.015 196.664 180.839 197.216 180.623 197.744C180.415 198.272 180.171 198.728 179.891 199.112H182.831V194.396ZM188.483 193.46C189.267 193.46 189.847 193.632 190.223 193.976C190.599 194.32 190.787 194.868 190.787 195.62V200H190.019L189.815 199.088H189.767C189.487 199.44 189.191 199.7 188.879 199.868C188.575 200.036 188.151 200.12 187.607 200.12C187.023 200.12 186.539 199.968 186.155 199.664C185.771 199.352 185.579 198.868 185.579 198.212C185.579 197.572 185.831 197.08 186.335 196.736C186.839 196.384 187.615 196.192 188.663 196.16L189.755 196.124V195.74C189.755 195.204 189.639 194.832 189.407 194.624C189.175 194.416 188.847 194.312 188.423 194.312C188.087 194.312 187.767 194.364 187.463 194.468C187.159 194.564 186.875 194.676 186.611 194.804L186.287 194.012C186.567 193.86 186.899 193.732 187.283 193.628C187.667 193.516 188.067 193.46 188.483 193.46ZM189.743 196.856L188.795 196.892C187.995 196.924 187.439 197.052 187.127 197.276C186.823 197.5 186.671 197.816 186.671 198.224C186.671 198.584 186.779 198.848 186.995 199.016C187.219 199.184 187.503 199.268 187.847 199.268C188.391 199.268 188.843 199.12 189.203 198.824C189.563 198.52 189.743 198.056 189.743 197.432V196.856ZM197.946 195.188C197.946 195.588 197.826 195.9 197.586 196.124C197.346 196.348 197.038 196.5 196.662 196.58V196.628C197.062 196.684 197.41 196.828 197.706 197.06C198.002 197.284 198.15 197.636 198.15 198.116C198.15 198.66 197.946 199.112 197.538 199.472C197.138 199.824 196.474 200 195.546 200H192.774V193.568H195.534C195.99 193.568 196.398 193.62 196.758 193.724C197.126 193.82 197.414 193.988 197.622 194.228C197.838 194.46 197.946 194.78 197.946 195.188ZM196.878 195.32C196.878 195.016 196.766 194.796 196.542 194.66C196.326 194.516 195.97 194.444 195.474 194.444H193.83V196.208H195.282C196.346 196.208 196.878 195.912 196.878 195.32ZM197.058 198.116C197.058 197.748 196.918 197.484 196.638 197.324C196.358 197.164 195.946 197.084 195.402 197.084H193.83V199.148H195.426C195.954 199.148 196.358 199.072 196.638 198.92C196.918 198.76 197.058 198.492 197.058 198.116ZM202.124 193.46C202.908 193.46 203.488 193.632 203.864 193.976C204.24 194.32 204.428 194.868 204.428 195.62V200H203.66L203.456 199.088H203.408C203.128 199.44 202.832 199.7 202.52 199.868C202.216 200.036 201.792 200.12 201.248 200.12C200.664 200.12 200.18 199.968 199.796 199.664C199.412 199.352 199.22 198.868 199.22 198.212C199.22 197.572 199.472 197.08 199.976 196.736C200.48 196.384 201.256 196.192 202.304 196.16L203.396 196.124V195.74C203.396 195.204 203.28 194.832 203.048 194.624C202.816 194.416 202.488 194.312 202.064 194.312C201.728 194.312 201.408 194.364 201.104 194.468C200.8 194.564 200.516 194.676 200.252 194.804L199.928 194.012C200.208 193.86 200.54 193.732 200.924 193.628C201.308 193.516 201.708 193.46 202.124 193.46ZM203.384 196.856L202.436 196.892C201.636 196.924 201.08 197.052 200.768 197.276C200.464 197.5 200.312 197.816 200.312 198.224C200.312 198.584 200.42 198.848 200.636 199.016C200.86 199.184 201.144 199.268 201.488 199.268C202.032 199.268 202.484 199.12 202.844 198.824C203.204 198.52 203.384 198.056 203.384 197.432V196.856ZM210.855 194.456H208.755V200H207.711V194.456H205.635V193.568H210.855V194.456ZM213.178 196.208H215.086C216.758 196.208 217.594 196.816 217.594 198.032C217.594 198.632 217.39 199.112 216.982 199.472C216.574 199.824 215.926 200 215.038 200H212.122V193.568H213.178V196.208ZM216.538 198.092C216.538 197.7 216.398 197.436 216.118 197.3C215.846 197.156 215.462 197.084 214.966 197.084H213.178V199.148H214.99C215.438 199.148 215.806 199.068 216.094 198.908C216.39 198.748 216.538 198.476 216.538 198.092ZM30.684 214.136C30.684 212.728 30.896 211.632 31.32 210.848C31.744 210.056 32.428 209.56 33.372 209.36C33.892 209.248 34.4 209.148 34.896 209.06C35.392 208.972 35.856 208.892 36.288 208.82L36.468 209.744C36.188 209.784 35.872 209.836 35.52 209.9C35.168 209.956 34.82 210.016 34.476 210.08C34.132 210.136 33.836 210.192 33.588 210.248C33.068 210.36 32.656 210.632 32.352 211.064C32.048 211.488 31.876 212.152 31.836 213.056H31.908C32.02 212.904 32.172 212.748 32.364 212.588C32.564 212.428 32.8 212.292 33.072 212.18C33.352 212.068 33.668 212.012 34.02 212.012C34.852 212.012 35.48 212.28 35.904 212.816C36.328 213.352 36.54 214.048 36.54 214.904C36.54 215.616 36.416 216.212 36.168 216.692C35.92 217.172 35.576 217.532 35.136 217.772C34.696 218.004 34.184 218.12 33.6 218.12C32.712 218.12 32.004 217.78 31.476 217.1C30.948 216.42 30.684 215.432 30.684 214.136ZM33.684 217.244C34.204 217.244 34.624 217.076 34.944 216.74C35.264 216.404 35.424 215.828 35.424 215.012C35.424 214.356 35.3 213.84 35.052 213.464C34.812 213.08 34.412 212.888 33.852 212.888C33.5 212.888 33.18 212.968 32.892 213.128C32.604 213.28 32.364 213.456 32.172 213.656C31.98 213.856 31.844 214.024 31.764 214.16C31.764 214.552 31.792 214.932 31.848 215.3C31.904 215.668 32 216 32.136 216.296C32.28 216.584 32.476 216.816 32.724 216.992C32.98 217.16 33.3 217.244 33.684 217.244ZM43.7956 214.772C43.7956 215.836 43.5236 216.66 42.9796 217.244C42.4436 217.828 41.7156 218.12 40.7956 218.12C40.2276 218.12 39.7196 217.992 39.2716 217.736C38.8316 217.472 38.4836 217.092 38.2276 216.596C37.9716 216.092 37.8436 215.484 37.8436 214.772C37.8436 213.708 38.1116 212.888 38.6476 212.312C39.1836 211.736 39.9116 211.448 40.8316 211.448C41.4156 211.448 41.9276 211.58 42.3676 211.844C42.8156 212.1 43.1636 212.476 43.4116 212.972C43.6676 213.46 43.7956 214.06 43.7956 214.772ZM38.9356 214.772C38.9356 215.532 39.0836 216.136 39.3796 216.584C39.6836 217.024 40.1636 217.244 40.8196 217.244C41.4676 217.244 41.9436 217.024 42.2476 216.584C42.5516 216.136 42.7036 215.532 42.7036 214.772C42.7036 214.012 42.5516 213.416 42.2476 212.984C41.9436 212.552 41.4636 212.336 40.8076 212.336C40.1516 212.336 39.6756 212.552 39.3796 212.984C39.0836 213.416 38.9356 214.012 38.9356 214.772ZM50.3652 218H49.2972V212.444H47.4012C47.2972 213.796 47.1532 214.888 46.9692 215.72C46.7852 216.544 46.5412 217.144 46.2372 217.52C45.9332 217.896 45.5492 218.084 45.0852 218.084C44.9812 218.084 44.8772 218.076 44.7732 218.06C44.6772 218.052 44.5972 218.032 44.5332 218V217.208C44.5812 217.224 44.6332 217.236 44.6892 217.244C44.7452 217.252 44.8012 217.256 44.8572 217.256C45.2892 217.256 45.6332 216.796 45.8892 215.876C46.1532 214.956 46.3532 213.52 46.4892 211.568H50.3652V218ZM54.8907 211.448C55.4427 211.448 55.9147 211.568 56.3067 211.808C56.7067 212.048 57.0107 212.388 57.2187 212.828C57.4347 213.26 57.5427 213.768 57.5427 214.352V214.988H53.1387C53.1547 215.716 53.3387 216.272 53.6907 216.656C54.0507 217.032 54.5507 217.22 55.1907 217.22C55.5987 217.22 55.9587 217.184 56.2707 217.112C56.5907 217.032 56.9187 216.92 57.2547 216.776V217.7C56.9267 217.844 56.6027 217.948 56.2827 218.012C55.9627 218.084 55.5827 218.12 55.1427 218.12C54.5347 218.12 53.9947 217.996 53.5227 217.748C53.0587 217.5 52.6947 217.132 52.4307 216.644C52.1747 216.148 52.0467 215.544 52.0467 214.832C52.0467 214.128 52.1627 213.524 52.3947 213.02C52.6347 212.516 52.9667 212.128 53.3907 211.856C53.8227 211.584 54.3227 211.448 54.8907 211.448ZM54.8787 212.312C54.3747 212.312 53.9747 212.476 53.6787 212.804C53.3907 213.124 53.2187 213.572 53.1627 214.148H56.4387C56.4307 213.604 56.3027 213.164 56.0547 212.828C55.8067 212.484 55.4147 212.312 54.8787 212.312ZM61.6642 211.448C62.2162 211.448 62.6882 211.568 63.0802 211.808C63.4802 212.048 63.7842 212.388 63.9922 212.828C64.2082 213.26 64.3162 213.768 64.3162 214.352V214.988H59.9122C59.9282 215.716 60.1122 216.272 60.4642 216.656C60.8242 217.032 61.3242 217.22 61.9642 217.22C62.3722 217.22 62.7322 217.184 63.0442 217.112C63.3642 217.032 63.6922 216.92 64.0282 216.776V217.7C63.7002 217.844 63.3762 217.948 63.0562 218.012C62.7362 218.084 62.3562 218.12 61.9162 218.12C61.3082 218.12 60.7682 217.996 60.2962 217.748C59.8322 217.5 59.4682 217.132 59.2042 216.644C58.9482 216.148 58.8202 215.544 58.8202 214.832C58.8202 214.128 58.9362 213.524 59.1682 213.02C59.4082 212.516 59.7402 212.128 60.1642 211.856C60.5962 211.584 61.0962 211.448 61.6642 211.448ZM61.6522 212.312C61.1482 212.312 60.7482 212.476 60.4522 212.804C60.1642 213.124 59.9922 213.572 59.9362 214.148H63.2122C63.2042 213.604 63.0762 213.164 62.8282 212.828C62.5802 212.484 62.1882 212.312 61.6522 212.312ZM71.6988 218.084C71.1388 218.084 70.6348 217.988 70.1868 217.796C69.7388 217.596 69.3868 217.316 69.1308 216.956C68.8748 216.596 68.7468 216.176 68.7468 215.696H70.2108C70.2428 216.056 70.3828 216.352 70.6308 216.584C70.8868 216.816 71.2428 216.932 71.6988 216.932C72.1708 216.932 72.5388 216.82 72.8028 216.596C73.0668 216.364 73.1988 216.068 73.1988 215.708C73.1988 215.428 73.1148 215.2 72.9468 215.024C72.7868 214.848 72.5828 214.712 72.3348 214.616C72.0948 214.52 71.7588 214.416 71.3268 214.304C70.7828 214.16 70.3388 214.016 69.9948 213.872C69.6588 213.72 69.3708 213.488 69.1308 213.176C68.8908 212.864 68.7708 212.448 68.7708 211.928C68.7708 211.448 68.8908 211.028 69.1308 210.668C69.3708 210.308 69.7068 210.032 70.1388 209.84C70.5708 209.648 71.0708 209.552 71.6388 209.552C72.4468 209.552 73.1068 209.756 73.6188 210.164C74.1388 210.564 74.4268 211.116 74.4828 211.82H72.9708C72.9468 211.516 72.8028 211.256 72.5388 211.04C72.2748 210.824 71.9268 210.716 71.4948 210.716C71.1028 210.716 70.7828 210.816 70.5348 211.016C70.2868 211.216 70.1628 211.504 70.1628 211.88C70.1628 212.136 70.2388 212.348 70.3908 212.516C70.5508 212.676 70.7508 212.804 70.9908 212.9C71.2308 212.996 71.5588 213.1 71.9748 213.212C72.5268 213.364 72.9748 213.516 73.3188 213.668C73.6708 213.82 73.9668 214.056 74.2068 214.376C74.4548 214.688 74.5788 215.108 74.5788 215.636C74.5788 216.06 74.4628 216.46 74.2308 216.836C74.0068 217.212 73.6748 217.516 73.2348 217.748C72.8028 217.972 72.2908 218.084 71.6988 218.084ZM77.561 210.764V213.212H80.441V214.328H77.561V216.884H80.801V218H76.193V209.648H80.801V210.764H77.561ZM86.2899 218.084C85.5139 218.084 84.7979 217.904 84.1419 217.544C83.4939 217.176 82.9779 216.668 82.5939 216.02C82.2179 215.364 82.0299 214.628 82.0299 213.812C82.0299 212.996 82.2179 212.264 82.5939 211.616C82.9779 210.968 83.4939 210.464 84.1419 210.104C84.7979 209.736 85.5139 209.552 86.2899 209.552C87.0739 209.552 87.7899 209.736 88.4379 210.104C89.0939 210.464 89.6099 210.968 89.9859 211.616C90.3619 212.264 90.5499 212.996 90.5499 213.812C90.5499 214.628 90.3619 215.364 89.9859 216.02C89.6099 216.668 89.0939 217.176 88.4379 217.544C87.7899 217.904 87.0739 218.084 86.2899 218.084ZM86.2899 216.896C86.8419 216.896 87.3339 216.772 87.7659 216.524C88.1979 216.268 88.5339 215.908 88.7739 215.444C89.0219 214.972 89.1459 214.428 89.1459 213.812C89.1459 213.196 89.0219 212.656 88.7739 212.192C88.5339 211.728 88.1979 211.372 87.7659 211.124C87.3339 210.876 86.8419 210.752 86.2899 210.752C85.7379 210.752 85.2459 210.876 84.8139 211.124C84.3819 211.372 84.0419 211.728 83.7939 212.192C83.5539 212.656 83.4339 213.196 83.4339 213.812C83.4339 214.428 83.5539 214.972 83.7939 215.444C84.0419 215.908 84.3819 216.268 84.8139 216.524C85.2459 216.772 85.7379 216.896 86.2899 216.896ZM96.9721 213.08V214.232H92.0401V213.08H96.9721ZM104.628 214.772C104.628 215.836 104.356 216.66 103.812 217.244C103.276 217.828 102.548 218.12 101.628 218.12C101.06 218.12 100.552 217.992 100.104 217.736C99.6636 217.472 99.3156 217.092 99.0596 216.596C98.8036 216.092 98.6756 215.484 98.6756 214.772C98.6756 213.708 98.9436 212.888 99.4796 212.312C100.016 211.736 100.744 211.448 101.664 211.448C102.248 211.448 102.76 211.58 103.2 211.844C103.648 212.1 103.996 212.476 104.244 212.972C104.5 213.46 104.628 214.06 104.628 214.772ZM99.7676 214.772C99.7676 215.532 99.9156 216.136 100.212 216.584C100.516 217.024 100.996 217.244 101.652 217.244C102.3 217.244 102.776 217.024 103.08 216.584C103.384 216.136 103.536 215.532 103.536 214.772C103.536 214.012 103.384 213.416 103.08 212.984C102.776 212.552 102.296 212.336 101.64 212.336C100.984 212.336 100.508 212.552 100.212 212.984C99.9156 213.416 99.7676 214.012 99.7676 214.772ZM111.737 211.568V218H110.681V212.468H107.357V218H106.301V211.568H111.737ZM118.23 212.456H116.13V218H115.086V212.456H113.01V211.568H118.23V212.456ZM120.493 211.568V215.492C120.493 215.588 120.489 215.732 120.481 215.924C120.473 216.116 120.461 216.308 120.445 216.5C120.437 216.692 120.429 216.844 120.421 216.956L123.865 211.568H125.161V218H124.177V214.208C124.177 214.08 124.177 213.912 124.177 213.704C124.185 213.496 124.193 213.292 124.201 213.092C124.209 212.884 124.217 212.728 124.225 212.624L120.805 218H119.497V211.568H120.493ZM134.108 211.568V218H133.16V213.896C133.16 213.728 133.164 213.552 133.172 213.368C133.188 213.184 133.204 213.004 133.22 212.828H133.184L131.084 218H130.196L128.156 212.828H128.12C128.144 213.188 128.156 213.556 128.156 213.932V218H127.208V211.568H128.612L130.64 216.74L132.704 211.568H134.108ZM137.157 211.568V215.492C137.157 215.588 137.153 215.732 137.145 215.924C137.137 216.116 137.125 216.308 137.109 216.5C137.101 216.692 137.093 216.844 137.085 216.956L140.529 211.568H141.825V218H140.841V214.208C140.841 214.08 140.841 213.912 140.841 213.704C140.849 213.496 140.857 213.292 140.865 213.092C140.873 212.884 140.881 212.728 140.889 212.624L137.469 218H136.161V211.568H137.157ZM145.564 211.448C146.3 211.448 146.884 211.596 147.316 211.892C147.756 212.18 147.976 212.596 147.976 213.14C147.976 213.532 147.868 213.844 147.652 214.076C147.436 214.3 147.14 214.464 146.764 214.568V214.616C147.02 214.688 147.256 214.788 147.472 214.916C147.688 215.044 147.86 215.212 147.988 215.42C148.124 215.628 148.192 215.896 148.192 216.224C148.192 216.76 147.968 217.212 147.52 217.58C147.08 217.94 146.388 218.12 145.444 218.12C144.98 218.12 144.56 218.08 144.184 218C143.808 217.928 143.496 217.828 143.248 217.7V216.752C143.52 216.88 143.84 216.996 144.208 217.1C144.584 217.204 144.992 217.256 145.432 217.256C145.912 217.256 146.316 217.176 146.644 217.016C146.98 216.848 147.148 216.564 147.148 216.164C147.148 215.444 146.536 215.084 145.312 215.084H144.448V214.22H145.144C145.696 214.22 146.136 214.148 146.464 214.004C146.8 213.852 146.968 213.596 146.968 213.236C146.968 212.932 146.84 212.704 146.584 212.552C146.336 212.4 145.976 212.324 145.504 212.324C145.152 212.324 144.84 212.36 144.568 212.432C144.304 212.496 144.012 212.596 143.692 212.732L143.32 211.892C143.992 211.596 144.74 211.448 145.564 211.448ZM150.75 211.568V215.492C150.75 215.588 150.746 215.732 150.738 215.924C150.73 216.116 150.718 216.308 150.702 216.5C150.694 216.692 150.686 216.844 150.678 216.956L154.122 211.568H155.418V218H154.434V214.208C154.434 214.08 154.434 213.912 154.434 213.704C154.442 213.496 154.45 213.292 154.458 213.092C154.466 212.884 154.474 212.728 154.482 212.624L151.062 218H149.754V211.568H150.75ZM160.525 211.448C161.317 211.448 161.953 211.724 162.433 212.276C162.921 212.828 163.165 213.66 163.165 214.772C163.165 215.868 162.921 216.7 162.433 217.268C161.953 217.836 161.313 218.12 160.513 218.12C160.017 218.12 159.605 218.028 159.277 217.844C158.957 217.652 158.705 217.432 158.521 217.184H158.449C158.465 217.32 158.481 217.492 158.497 217.7C158.513 217.908 158.521 218.088 158.521 218.24V220.88H157.465V211.568H158.329L158.473 212.444H158.521C158.713 212.164 158.965 211.928 159.277 211.736C159.589 211.544 160.005 211.448 160.525 211.448ZM160.333 212.336C159.677 212.336 159.213 212.52 158.941 212.888C158.677 213.256 158.537 213.816 158.521 214.568V214.772C158.521 215.564 158.649 216.176 158.905 216.608C159.169 217.032 159.653 217.244 160.357 217.244C160.749 217.244 161.069 217.136 161.317 216.92C161.573 216.704 161.761 216.412 161.881 216.044C162.009 215.668 162.073 215.24 162.073 214.76C162.073 214.024 161.929 213.436 161.641 212.996C161.361 212.556 160.925 212.336 160.333 212.336ZM170.44 214.772C170.44 215.836 170.168 216.66 169.624 217.244C169.088 217.828 168.36 218.12 167.44 218.12C166.872 218.12 166.364 217.992 165.916 217.736C165.476 217.472 165.128 217.092 164.872 216.596C164.616 216.092 164.488 215.484 164.488 214.772C164.488 213.708 164.756 212.888 165.292 212.312C165.828 211.736 166.556 211.448 167.476 211.448C168.06 211.448 168.572 211.58 169.012 211.844C169.46 212.1 169.808 212.476 170.056 212.972C170.312 213.46 170.44 214.06 170.44 214.772ZM165.58 214.772C165.58 215.532 165.728 216.136 166.024 216.584C166.328 217.024 166.808 217.244 167.464 217.244C168.112 217.244 168.588 217.024 168.892 216.584C169.196 216.136 169.348 215.532 169.348 214.772C169.348 214.012 169.196 213.416 168.892 212.984C168.588 212.552 168.108 212.336 167.452 212.336C166.796 212.336 166.32 212.552 166.024 212.984C165.728 213.416 165.58 214.012 165.58 214.772ZM177.286 213.188C177.286 213.588 177.166 213.9 176.926 214.124C176.686 214.348 176.378 214.5 176.002 214.58V214.628C176.402 214.684 176.75 214.828 177.046 215.06C177.342 215.284 177.49 215.636 177.49 216.116C177.49 216.66 177.286 217.112 176.878 217.472C176.478 217.824 175.814 218 174.886 218H172.114V211.568H174.874C175.33 211.568 175.738 211.62 176.098 211.724C176.466 211.82 176.754 211.988 176.962 212.228C177.178 212.46 177.286 212.78 177.286 213.188ZM176.218 213.32C176.218 213.016 176.106 212.796 175.882 212.66C175.666 212.516 175.31 212.444 174.814 212.444H173.17V214.208H174.622C175.686 214.208 176.218 213.912 176.218 213.32ZM176.398 216.116C176.398 215.748 176.258 215.484 175.978 215.324C175.698 215.164 175.286 215.084 174.742 215.084H173.17V217.148H174.766C175.294 217.148 175.698 217.072 175.978 216.92C176.258 216.76 176.398 216.492 176.398 216.116ZM181.464 211.46C182.248 211.46 182.828 211.632 183.204 211.976C183.58 212.32 183.768 212.868 183.768 213.62V218H183L182.796 217.088H182.748C182.468 217.44 182.172 217.7 181.86 217.868C181.556 218.036 181.132 218.12 180.588 218.12C180.004 218.12 179.52 217.968 179.136 217.664C178.752 217.352 178.56 216.868 178.56 216.212C178.56 215.572 178.812 215.08 179.316 214.736C179.82 214.384 180.596 214.192 181.644 214.16L182.736 214.124V213.74C182.736 213.204 182.62 212.832 182.388 212.624C182.156 212.416 181.828 212.312 181.404 212.312C181.068 212.312 180.748 212.364 180.444 212.468C180.14 212.564 179.856 212.676 179.592 212.804L179.268 212.012C179.548 211.86 179.88 211.732 180.264 211.628C180.648 211.516 181.048 211.46 181.464 211.46ZM182.724 214.856L181.776 214.892C180.976 214.924 180.42 215.052 180.108 215.276C179.804 215.5 179.652 215.816 179.652 216.224C179.652 216.584 179.76 216.848 179.976 217.016C180.2 217.184 180.484 217.268 180.828 217.268C181.372 217.268 181.824 217.12 182.184 216.824C182.544 216.52 182.724 216.056 182.724 215.432V214.856ZM186.81 211.568V214.244H190.302V211.568H191.358V218H190.302V215.132H186.81V218H185.754V211.568H186.81ZM194.451 211.568V214.244H197.943V211.568H198.999V218H197.943V215.132H194.451V218H193.395V211.568H194.451ZM200.028 211.568H201.156L202.548 215.228C202.668 215.548 202.776 215.856 202.872 216.152C202.968 216.44 203.04 216.716 203.088 216.98H203.136C203.184 216.78 203.26 216.52 203.364 216.2C203.468 215.872 203.576 215.544 203.688 215.216L204.996 211.568H206.136L203.364 218.888C203.14 219.496 202.848 219.98 202.488 220.34C202.136 220.7 201.648 220.88 201.024 220.88C200.832 220.88 200.664 220.868 200.52 220.844C200.376 220.828 200.252 220.808 200.148 220.784V219.944C200.236 219.96 200.34 219.976 200.46 219.992C200.588 220.008 200.72 220.016 200.856 220.016C201.224 220.016 201.52 219.912 201.744 219.704C201.976 219.496 202.156 219.22 202.284 218.876L202.62 218.024L200.028 211.568ZM215.505 214.772C215.505 215.836 215.249 216.66 214.737 217.244C214.225 217.828 213.533 218.12 212.661 218.12C211.845 218.12 211.185 217.864 210.681 217.352C210.185 216.84 209.905 216.1 209.841 215.132H208.209V218H207.153V211.568H208.209V214.244H209.853C209.941 213.34 210.233 212.648 210.729 212.168C211.225 211.688 211.877 211.448 212.685 211.448C213.237 211.448 213.725 211.58 214.149 211.844C214.573 212.1 214.905 212.476 215.145 212.972C215.385 213.46 215.505 214.06 215.505 214.772ZM210.921 214.772C210.921 215.58 211.061 216.196 211.341 216.62C211.621 217.036 212.065 217.244 212.673 217.244C213.289 217.244 213.733 217.036 214.005 216.62C214.277 216.196 214.413 215.58 214.413 214.772C214.413 213.964 214.273 213.356 213.993 212.948C213.721 212.54 213.281 212.336 212.673 212.336C212.065 212.336 211.621 212.54 211.341 212.948C211.061 213.356 210.921 213.964 210.921 214.772ZM33.6 236.12C33.032 236.12 32.524 236.004 32.076 235.772C31.636 235.54 31.288 235.18 31.032 234.692C30.784 234.204 30.66 233.58 30.66 232.82C30.66 232.028 30.792 231.384 31.056 230.888C31.32 230.392 31.676 230.028 32.124 229.796C32.58 229.564 33.096 229.448 33.672 229.448C34 229.448 34.316 229.484 34.62 229.556C34.924 229.62 35.172 229.7 35.364 229.796L35.04 230.672C34.848 230.6 34.624 230.532 34.368 230.468C34.112 230.404 33.872 230.372 33.648 230.372C32.384 230.372 31.752 231.184 31.752 232.808C31.752 233.584 31.904 234.18 32.208 234.596C32.52 235.004 32.98 235.208 33.588 235.208C33.94 235.208 34.248 235.172 34.512 235.1C34.784 235.028 35.032 234.94 35.256 234.836V235.772C35.04 235.884 34.8 235.968 34.536 236.024C34.28 236.088 33.968 236.12 33.6 236.12ZM41.2256 230.456H39.1256V236H38.0816V230.456H36.0056V229.568H41.2256V230.456ZM45.5527 229.448C46.3447 229.448 46.9807 229.724 47.4607 230.276C47.9487 230.828 48.1927 231.66 48.1927 232.772C48.1927 233.868 47.9487 234.7 47.4607 235.268C46.9807 235.836 46.3407 236.12 45.5407 236.12C45.0447 236.12 44.6327 236.028 44.3047 235.844C43.9847 235.652 43.7327 235.432 43.5487 235.184H43.4767C43.4927 235.32 43.5087 235.492 43.5247 235.7C43.5407 235.908 43.5487 236.088 43.5487 236.24V238.88H42.4927V229.568H43.3567L43.5007 230.444H43.5487C43.7407 230.164 43.9927 229.928 44.3047 229.736C44.6167 229.544 45.0327 229.448 45.5527 229.448ZM45.3607 230.336C44.7047 230.336 44.2407 230.52 43.9687 230.888C43.7047 231.256 43.5647 231.816 43.5487 232.568V232.772C43.5487 233.564 43.6767 234.176 43.9327 234.608C44.1967 235.032 44.6807 235.244 45.3847 235.244C45.7767 235.244 46.0967 235.136 46.3447 234.92C46.6007 234.704 46.7887 234.412 46.9087 234.044C47.0367 233.668 47.1007 233.24 47.1007 232.76C47.1007 232.024 46.9567 231.436 46.6687 230.996C46.3887 230.556 45.9527 230.336 45.3607 230.336ZM48.7503 229.568H49.8783L51.2703 233.228C51.3903 233.548 51.4983 233.856 51.5943 234.152C51.6903 234.44 51.7623 234.716 51.8103 234.98H51.8583C51.9063 234.78 51.9823 234.52 52.0863 234.2C52.1903 233.872 52.2983 233.544 52.4103 233.216L53.7183 229.568H54.8583L52.0863 236.888C51.8623 237.496 51.5703 237.98 51.2103 238.34C50.8583 238.7 50.3703 238.88 49.7463 238.88C49.5543 238.88 49.3863 238.868 49.2423 238.844C49.0983 238.828 48.9743 238.808 48.8703 238.784V237.944C48.9583 237.96 49.0623 237.976 49.1823 237.992C49.3103 238.008 49.4423 238.016 49.5783 238.016C49.9463 238.016 50.2423 237.912 50.4663 237.704C50.6983 237.496 50.8783 237.22 51.0063 236.876L51.3423 236.024L48.7503 229.568ZM59.6795 229.568H60.8315L58.0835 232.664L61.0595 236H59.8355L56.9315 232.736V236H55.8755V229.568H56.9315V232.688L59.6795 229.568ZM66.667 230.456H64.567V236H63.523V230.456H61.447V229.568H66.667V230.456ZM66.9261 229.568H68.0541L69.4461 233.228C69.5661 233.548 69.6741 233.856 69.7701 234.152C69.8661 234.44 69.9381 234.716 69.9861 234.98H70.0341C70.0821 234.78 70.1581 234.52 70.2621 234.2C70.3661 233.872 70.4741 233.544 70.5861 233.216L71.8941 229.568H73.0341L70.2621 236.888C70.0381 237.496 69.7461 237.98 69.3861 238.34C69.0341 238.7 68.5461 238.88 67.9221 238.88C67.7301 238.88 67.5621 238.868 67.4181 238.844C67.2741 238.828 67.1501 238.808 67.0461 238.784V237.944C67.1341 237.96 67.2381 237.976 67.3581 237.992C67.4861 238.008 67.6181 238.016 67.7541 238.016C68.1221 238.016 68.4181 237.912 68.6421 237.704C68.8741 237.496 69.0541 237.22 69.1821 236.876L69.5181 236.024L66.9261 229.568ZM77.1113 229.448C77.9033 229.448 78.5393 229.724 79.0193 230.276C79.5073 230.828 79.7513 231.66 79.7513 232.772C79.7513 233.868 79.5073 234.7 79.0193 235.268C78.5393 235.836 77.8993 236.12 77.0993 236.12C76.6033 236.12 76.1913 236.028 75.8633 235.844C75.5433 235.652 75.2913 235.432 75.1073 235.184H75.0353C75.0513 235.32 75.0673 235.492 75.0833 235.7C75.0993 235.908 75.1073 236.088 75.1073 236.24V238.88H74.0513V229.568H74.9153L75.0593 230.444H75.1073C75.2993 230.164 75.5513 229.928 75.8633 229.736C76.1753 229.544 76.5913 229.448 77.1113 229.448ZM76.9193 230.336C76.2633 230.336 75.7993 230.52 75.5273 230.888C75.2633 231.256 75.1233 231.816 75.1073 232.568V232.772C75.1073 233.564 75.2353 234.176 75.4913 234.608C75.7553 235.032 76.2393 235.244 76.9433 235.244C77.3353 235.244 77.6553 235.136 77.9033 234.92C78.1593 234.704 78.3473 234.412 78.4673 234.044C78.5953 233.668 78.6593 233.24 78.6593 232.76C78.6593 232.024 78.5153 231.436 78.2273 230.996C77.9473 230.556 77.5113 230.336 76.9193 230.336ZM80.3089 229.568H81.4369L82.8289 233.228C82.9489 233.548 83.0569 233.856 83.1529 234.152C83.2489 234.44 83.3209 234.716 83.3689 234.98H83.4169C83.4649 234.78 83.5409 234.52 83.6449 234.2C83.7489 233.872 83.8569 233.544 83.9689 233.216L85.2769 229.568H86.4169L83.6449 236.888C83.4209 237.496 83.1289 237.98 82.7689 238.34C82.4169 238.7 81.9289 238.88 81.3049 238.88C81.1129 238.88 80.9449 238.868 80.8009 238.844C80.6569 238.828 80.5329 238.808 80.4289 238.784V237.944C80.5169 237.96 80.6209 237.976 80.7409 237.992C80.8689 238.008 81.0009 238.016 81.1369 238.016C81.5049 238.016 81.8009 237.912 82.0249 237.704C82.2569 237.496 82.4369 237.22 82.5649 236.876L82.9009 236.024L80.3089 229.568ZM95.7233 231.188C95.7233 231.588 95.6033 231.9 95.3633 232.124C95.1233 232.348 94.8153 232.5 94.4393 232.58V232.628C94.8393 232.684 95.1873 232.828 95.4833 233.06C95.7793 233.284 95.9273 233.636 95.9273 234.116C95.9273 234.66 95.7233 235.112 95.3153 235.472C94.9153 235.824 94.2513 236 93.3233 236H90.5513V229.568H93.3113C93.7673 229.568 94.1753 229.62 94.5353 229.724C94.9033 229.82 95.1913 229.988 95.3993 230.228C95.6153 230.46 95.7233 230.78 95.7233 231.188ZM94.6553 231.32C94.6553 231.016 94.5433 230.796 94.3193 230.66C94.1033 230.516 93.7473 230.444 93.2513 230.444H91.6073V232.208H93.0592C94.1233 232.208 94.6553 231.912 94.6553 231.32ZM94.8353 234.116C94.8353 233.748 94.6953 233.484 94.4153 233.324C94.1353 233.164 93.7233 233.084 93.1793 233.084H91.6073V235.148H93.2033C93.7313 235.148 94.1353 235.072 94.4153 234.92C94.6953 234.76 94.8353 234.492 94.8353 234.116ZM99.9013 229.46C100.685 229.46 101.265 229.632 101.641 229.976C102.017 230.32 102.205 230.868 102.205 231.62V236H101.437L101.233 235.088H101.185C100.905 235.44 100.609 235.7 100.297 235.868C99.9933 236.036 99.5693 236.12 99.0253 236.12C98.4413 236.12 97.9573 235.968 97.5733 235.664C97.1893 235.352 96.9973 234.868 96.9973 234.212C96.9973 233.572 97.2493 233.08 97.7533 232.736C98.2573 232.384 99.0333 232.192 100.081 232.16L101.173 232.124V231.74C101.173 231.204 101.057 230.832 100.825 230.624C100.593 230.416 100.265 230.312 99.8413 230.312C99.5053 230.312 99.1853 230.364 98.8813 230.468C98.5773 230.564 98.2933 230.676 98.0293 230.804L97.7053 230.012C97.9853 229.86 98.3173 229.732 98.7013 229.628C99.0853 229.516 99.4853 229.46 99.9013 229.46ZM101.161 232.856L100.213 232.892C99.4133 232.924 98.8573 233.052 98.5453 233.276C98.2413 233.5 98.0893 233.816 98.0893 234.224C98.0893 234.584 98.1973 234.848 98.4133 235.016C98.6373 235.184 98.9213 235.268 99.2653 235.268C99.8093 235.268 100.261 235.12 100.621 234.824C100.981 234.52 101.161 234.056 101.161 233.432V232.856ZM112.916 229.568V236H104.192V229.568H105.248V235.112H108.02V229.568H109.076V235.112H111.86V229.568H112.916ZM117.457 229.448C118.009 229.448 118.481 229.568 118.873 229.808C119.273 230.048 119.577 230.388 119.785 230.828C120.001 231.26 120.109 231.768 120.109 232.352V232.988H115.705C115.721 233.716 115.905 234.272 116.257 234.656C116.617 235.032 117.117 235.22 117.757 235.22C118.165 235.22 118.525 235.184 118.837 235.112C119.157 235.032 119.485 234.92 119.821 234.776V235.7C119.493 235.844 119.169 235.948 118.849 236.012C118.529 236.084 118.149 236.12 117.709 236.12C117.101 236.12 116.561 235.996 116.089 235.748C115.625 235.5 115.261 235.132 114.997 234.644C114.741 234.148 114.613 233.544 114.613 232.832C114.613 232.128 114.729 231.524 114.961 231.02C115.201 230.516 115.533 230.128 115.957 229.856C116.389 229.584 116.889 229.448 117.457 229.448ZM117.445 230.312C116.941 230.312 116.541 230.476 116.245 230.804C115.957 231.124 115.785 231.572 115.729 232.148H119.005C118.997 231.604 118.869 231.164 118.621 230.828C118.373 230.484 117.981 230.312 117.445 230.312ZM125.671 229.568V230.456H122.803V236H121.747V229.568H125.671ZM132.413 232.772C132.413 233.836 132.141 234.66 131.597 235.244C131.061 235.828 130.333 236.12 129.413 236.12C128.845 236.12 128.337 235.992 127.889 235.736C127.449 235.472 127.101 235.092 126.845 234.596C126.589 234.092 126.461 233.484 126.461 232.772C126.461 231.708 126.729 230.888 127.265 230.312C127.801 229.736 128.529 229.448 129.449 229.448C130.033 229.448 130.545 229.58 130.985 229.844C131.433 230.1 131.781 230.476 132.029 230.972C132.285 231.46 132.413 232.06 132.413 232.772ZM127.553 232.772C127.553 233.532 127.701 234.136 127.997 234.584C128.301 235.024 128.781 235.244 129.437 235.244C130.085 235.244 130.561 235.024 130.865 234.584C131.169 234.136 131.321 233.532 131.321 232.772C131.321 232.012 131.169 231.416 130.865 230.984C130.561 230.552 130.081 230.336 129.425 230.336C128.769 230.336 128.293 230.552 127.997 230.984C127.701 231.416 127.553 232.012 127.553 232.772ZM142.64 229.568V236H141.584V230.468H138.26V236H137.204V229.568H142.64ZM147.752 229.448C148.544 229.448 149.18 229.724 149.66 230.276C150.148 230.828 150.392 231.66 150.392 232.772C150.392 233.868 150.148 234.7 149.66 235.268C149.18 235.836 148.54 236.12 147.74 236.12C147.244 236.12 146.832 236.028 146.504 235.844C146.184 235.652 145.932 235.432 145.748 235.184H145.676C145.692 235.32 145.708 235.492 145.724 235.7C145.74 235.908 145.748 236.088 145.748 236.24V238.88H144.692V229.568H145.556L145.7 230.444H145.748C145.94 230.164 146.192 229.928 146.504 229.736C146.816 229.544 147.232 229.448 147.752 229.448ZM147.56 230.336C146.904 230.336 146.44 230.52 146.168 230.888C145.904 231.256 145.764 231.816 145.748 232.568V232.772C145.748 233.564 145.876 234.176 146.132 234.608C146.396 235.032 146.88 235.244 147.584 235.244C147.976 235.244 148.296 235.136 148.544 234.92C148.8 234.704 148.988 234.412 149.108 234.044C149.236 233.668 149.3 233.24 149.3 232.76C149.3 232.024 149.156 231.436 148.868 230.996C148.588 230.556 148.152 230.336 147.56 230.336ZM157.667 232.772C157.667 233.836 157.395 234.66 156.851 235.244C156.315 235.828 155.587 236.12 154.667 236.12C154.099 236.12 153.591 235.992 153.143 235.736C152.703 235.472 152.355 235.092 152.099 234.596C151.843 234.092 151.715 233.484 151.715 232.772C151.715 231.708 151.983 230.888 152.519 230.312C153.055 229.736 153.783 229.448 154.703 229.448C155.287 229.448 155.799 229.58 156.239 229.844C156.687 230.1 157.035 230.476 157.283 230.972C157.539 231.46 157.667 232.06 157.667 232.772ZM152.807 232.772C152.807 233.532 152.955 234.136 153.251 234.584C153.555 235.024 154.035 235.244 154.691 235.244C155.339 235.244 155.815 235.024 156.119 234.584C156.423 234.136 156.575 233.532 156.575 232.772C156.575 232.012 156.423 231.416 156.119 230.984C155.815 230.552 155.335 230.336 154.679 230.336C154.023 230.336 153.547 230.552 153.251 230.984C152.955 231.416 152.807 232.012 152.807 232.772ZM164.116 229.568V235.112H165.052V238.232H164.032V236H159.556V238.232H158.548V235.112H159.064C159.616 234.352 160.028 233.488 160.3 232.52C160.58 231.544 160.724 230.56 160.732 229.568H164.116ZM163.096 230.396H161.668C161.636 230.94 161.552 231.504 161.416 232.088C161.28 232.664 161.104 233.216 160.888 233.744C160.68 234.272 160.436 234.728 160.156 235.112H163.096V230.396ZM165.305 229.568H166.433L167.825 233.228C167.945 233.548 168.053 233.856 168.149 234.152C168.245 234.44 168.317 234.716 168.365 234.98H168.413C168.461 234.78 168.537 234.52 168.641 234.2C168.745 233.872 168.853 233.544 168.965 233.216L170.273 229.568H171.413L168.641 236.888C168.417 237.496 168.125 237.98 167.765 238.34C167.413 238.7 166.925 238.88 166.301 238.88C166.109 238.88 165.941 238.868 165.797 238.844C165.653 238.828 165.529 238.808 165.425 238.784V237.944C165.513 237.96 165.617 237.976 165.737 237.992C165.865 238.008 165.997 238.016 166.133 238.016C166.501 238.016 166.797 237.912 167.021 237.704C167.253 237.496 167.433 237.22 167.561 236.876L167.897 236.024L165.305 229.568ZM176.234 229.568H177.386L174.638 232.664L177.614 236H176.39L173.486 232.736V236H172.43V229.568H173.486V232.688L176.234 229.568ZM183.222 230.456H181.122V236H180.078V230.456H178.002V229.568H183.222V230.456ZM186.925 229.46C187.709 229.46 188.289 229.632 188.665 229.976C189.041 230.32 189.229 230.868 189.229 231.62V236H188.461L188.257 235.088H188.209C187.929 235.44 187.633 235.7 187.321 235.868C187.017 236.036 186.593 236.12 186.049 236.12C185.465 236.12 184.981 235.968 184.597 235.664C184.213 235.352 184.021 234.868 184.021 234.212C184.021 233.572 184.273 233.08 184.777 232.736C185.281 232.384 186.057 232.192 187.105 232.16L188.197 232.124V231.74C188.197 231.204 188.081 230.832 187.849 230.624C187.617 230.416 187.289 230.312 186.865 230.312C186.529 230.312 186.209 230.364 185.905 230.468C185.601 230.564 185.317 230.676 185.053 230.804L184.729 230.012C185.009 229.86 185.341 229.732 185.725 229.628C186.109 229.516 186.509 229.46 186.925 229.46ZM188.185 232.856L187.237 232.892C186.437 232.924 185.881 233.052 185.569 233.276C185.265 233.5 185.113 233.816 185.113 234.224C185.113 234.584 185.221 234.848 185.437 235.016C185.661 235.184 185.945 235.268 186.289 235.268C186.833 235.268 187.285 235.12 187.645 234.824C188.005 234.52 188.185 234.056 188.185 233.432V232.856Z" fill="black"/>
</svg>
