<svg width="270" height="270" viewBox="0 0 270 270" fill="none" xmlns="http://www.w3.org/2000/svg">
<rect x="0.5" y="0.5" width="269" height="269" stroke="black"/>
<path d="M52.9719 95L34.1863 89.7793L30 42.7742H76.0001L71.8093 89.7722L52.9719 95Z" fill="#4353AD"/>
<path d="M68.2216 86.7794L71.8025 46.6177H52.9999V91.0039L68.2216 86.7794" fill="#485FB5"/>
<path d="M53 79.0235L52.9747 79.03L46.5613 77.2964L46.1513 72.6987H40.3704L41.1771 81.7505L52.9735 85.0288L53 85.0215V79.0235ZM38.5599 52.3827L39.0834 58.1476H53V52.3827H38.5599ZM39.597 64.051L40.1131 69.816H53V64.051H39.597" fill="#EDEDED"/>
<path d="M57.5654 30.0001H64.5403V32.5391H60.4824V33.0471H64.5403V38.8867H57.5654V36.2205H61.6236V35.7129H57.5656V30.0001H57.5654ZM49.1956 30.0001H56.1703V32.5391H52.1124V33.0471H56.1703V38.8867H49.1958V36.2205H53.2538V35.7129H49.1955V30.0001H49.1956ZM40.8259 30.0001H47.8005V32.9199H43.7427V35.8401H47.8009V38.7599H40.8259V30.0001Z" fill="#100F0D"/>
<path d="M66.3662 64.0512L67.4057 52.3829H52.9802V58.1477H61.0947L60.5708 64.0512H52.9802V69.8162H60.0715L59.4026 77.2932L52.98 79.0284V85.0261L64.7856 81.7507L64.872 80.7769L66.2257 65.5992L66.3662 64.0512Z" fill="white"/>
<path d="M32.784 156.26C32.384 156.26 32.02 156.308 31.692 156.404C31.364 156.492 31.068 156.596 30.804 156.716L30.36 155.816C30.688 155.656 31.064 155.532 31.488 155.444C31.912 155.356 32.348 155.312 32.796 155.312C33.716 155.312 34.472 155.496 35.064 155.864C35.664 156.232 36.112 156.74 36.408 157.388C36.704 158.028 36.852 158.756 36.852 159.572C36.852 160.508 36.7 161.316 36.396 161.996C36.092 162.676 35.632 163.2 35.016 163.568C34.408 163.936 33.64 164.12 32.712 164.12C32.216 164.12 31.796 164.092 31.452 164.036C31.108 163.98 30.768 163.892 30.432 163.772V162.836C30.768 162.924 31.108 163.004 31.452 163.076C31.796 163.14 32.16 163.172 32.544 163.172C33.576 163.172 34.352 162.9 34.872 162.356C35.4 161.804 35.68 161.016 35.712 159.992H31.548V159.044H35.7C35.62 158.164 35.32 157.48 34.8 156.992C34.288 156.504 33.616 156.26 32.784 156.26ZM43.0538 158.456H40.9538V164H39.9098V158.456H37.8338V157.568H43.0538V158.456ZM49.7956 160.772C49.7956 161.836 49.5236 162.66 48.9796 163.244C48.4436 163.828 47.7156 164.12 46.7956 164.12C46.2276 164.12 45.7196 163.992 45.2716 163.736C44.8316 163.472 44.4836 163.092 44.2276 162.596C43.9716 162.092 43.8436 161.484 43.8436 160.772C43.8436 159.708 44.1116 158.888 44.6476 158.312C45.1836 157.736 45.9116 157.448 46.8316 157.448C47.4156 157.448 47.9276 157.58 48.3676 157.844C48.8156 158.1 49.1636 158.476 49.4116 158.972C49.6676 159.46 49.7956 160.06 49.7956 160.772ZM44.9356 160.772C44.9356 161.532 45.0836 162.136 45.3796 162.584C45.6836 163.024 46.1636 163.244 46.8196 163.244C47.4676 163.244 47.9436 163.024 48.2476 162.584C48.5516 162.136 48.7036 161.532 48.7036 160.772C48.7036 160.012 48.5516 159.416 48.2476 158.984C47.9436 158.552 47.4636 158.336 46.8076 158.336C46.1516 158.336 45.6756 158.552 45.3796 158.984C45.0836 159.416 44.9356 160.012 44.9356 160.772ZM55.792 158.456H53.692V164H52.648V158.456H50.572V157.568H55.792V158.456ZM60.5723 164H59.3483L61.1843 161.3C60.9363 161.236 60.6963 161.136 60.4643 161C60.2323 160.856 60.0443 160.66 59.9003 160.412C59.7563 160.156 59.6843 159.84 59.6843 159.464C59.6843 158.848 59.8923 158.38 60.3083 158.06C60.7243 157.732 61.2763 157.568 61.9643 157.568H64.8443V164H63.7883V161.444H62.2283L60.5723 164ZM60.7043 159.476C60.7043 159.844 60.8403 160.12 61.1123 160.304C61.3923 160.48 61.7803 160.568 62.2763 160.568H63.7883V158.444H62.0723C61.5843 158.444 61.2323 158.54 61.0163 158.732C60.8083 158.924 60.7043 159.172 60.7043 159.476ZM68.5714 157.448C69.3074 157.448 69.8914 157.596 70.3234 157.892C70.7634 158.18 70.9834 158.596 70.9834 159.14C70.9834 159.532 70.8754 159.844 70.6594 160.076C70.4434 160.3 70.1474 160.464 69.7714 160.568V160.616C70.0274 160.688 70.2634 160.788 70.4794 160.916C70.6954 161.044 70.8674 161.212 70.9954 161.42C71.1314 161.628 71.1994 161.896 71.1994 162.224C71.1994 162.76 70.9754 163.212 70.5274 163.58C70.0874 163.94 69.3954 164.12 68.4514 164.12C67.9874 164.12 67.5674 164.08 67.1914 164C66.8154 163.928 66.5034 163.828 66.2554 163.7V162.752C66.5274 162.88 66.8474 162.996 67.2154 163.1C67.5914 163.204 67.9994 163.256 68.4394 163.256C68.9194 163.256 69.3234 163.176 69.6514 163.016C69.9874 162.848 70.1554 162.564 70.1554 162.164C70.1554 161.444 69.5434 161.084 68.3194 161.084H67.4554V160.22H68.1514C68.7034 160.22 69.1434 160.148 69.4714 160.004C69.8074 159.852 69.9754 159.596 69.9754 159.236C69.9754 158.932 69.8474 158.704 69.5914 158.552C69.3434 158.4 68.9834 158.324 68.5114 158.324C68.1594 158.324 67.8474 158.36 67.5754 158.432C67.3114 158.496 67.0194 158.596 66.6994 158.732L66.3274 157.892C66.9994 157.596 67.7474 157.448 68.5714 157.448ZM72.7622 164V157.568H73.8182V160.208H75.4862C76.3182 160.208 76.9342 160.36 77.3342 160.664C77.7342 160.968 77.9342 161.424 77.9342 162.032C77.9342 162.632 77.7382 163.112 77.3462 163.472C76.9542 163.824 76.3182 164 75.4382 164H72.7622ZM79.0022 164V157.568H80.0582V164H79.0022ZM73.8182 163.148H75.3422C75.7982 163.148 76.1702 163.072 76.4582 162.92C76.7462 162.76 76.8902 162.484 76.8902 162.092C76.8902 161.7 76.7582 161.436 76.4942 161.3C76.2302 161.156 75.8502 161.084 75.3542 161.084H73.8182V163.148ZM85.906 157.568H87.058L84.31 160.664L87.286 164H86.062L83.158 160.736V164H82.102V157.568H83.158V160.688L85.906 157.568ZM94.1508 164.12C93.5828 164.12 93.0748 164.004 92.6268 163.772C92.1868 163.54 91.8388 163.18 91.5828 162.692C91.3348 162.204 91.2108 161.58 91.2108 160.82C91.2108 160.028 91.3428 159.384 91.6068 158.888C91.8708 158.392 92.2268 158.028 92.6748 157.796C93.1308 157.564 93.6468 157.448 94.2228 157.448C94.5508 157.448 94.8668 157.484 95.1708 157.556C95.4748 157.62 95.7228 157.7 95.9148 157.796L95.5908 158.672C95.3988 158.6 95.1748 158.532 94.9188 158.468C94.6628 158.404 94.4228 158.372 94.1988 158.372C92.9348 158.372 92.3028 159.184 92.3028 160.808C92.3028 161.584 92.4548 162.18 92.7588 162.596C93.0708 163.004 93.5308 163.208 94.1388 163.208C94.4908 163.208 94.7988 163.172 95.0628 163.1C95.3348 163.028 95.5828 162.94 95.8068 162.836V163.772C95.5908 163.884 95.3508 163.968 95.0868 164.024C94.8308 164.088 94.5188 164.12 94.1508 164.12ZM101.776 158.456H99.6764V164H98.6324V158.456H96.5564V157.568H101.776V158.456ZM104.039 157.568V161.492C104.039 161.588 104.035 161.732 104.027 161.924C104.019 162.116 104.007 162.308 103.991 162.5C103.983 162.692 103.975 162.844 103.967 162.956L107.411 157.568H108.707V164H107.723V160.208C107.723 160.08 107.723 159.912 107.723 159.704C107.731 159.496 107.739 159.292 107.747 159.092C107.755 158.884 107.763 158.728 107.771 158.624L104.351 164H103.043V157.568H104.039ZM115.65 164H114.582V158.444H112.686C112.582 159.796 112.438 160.888 112.254 161.72C112.07 162.544 111.826 163.144 111.522 163.52C111.218 163.896 110.834 164.084 110.37 164.084C110.266 164.084 110.162 164.076 110.058 164.06C109.962 164.052 109.882 164.032 109.818 164V163.208C109.866 163.224 109.918 163.236 109.974 163.244C110.03 163.252 110.086 163.256 110.142 163.256C110.574 163.256 110.918 162.796 111.174 161.876C111.438 160.956 111.638 159.52 111.774 157.568H115.65V164ZM120.176 157.448C120.728 157.448 121.2 157.568 121.592 157.808C121.992 158.048 122.296 158.388 122.504 158.828C122.72 159.26 122.828 159.768 122.828 160.352V160.988H118.424C118.44 161.716 118.624 162.272 118.976 162.656C119.336 163.032 119.836 163.22 120.476 163.22C120.884 163.22 121.244 163.184 121.556 163.112C121.876 163.032 122.204 162.92 122.54 162.776V163.7C122.212 163.844 121.888 163.948 121.568 164.012C121.248 164.084 120.868 164.12 120.428 164.12C119.82 164.12 119.28 163.996 118.808 163.748C118.344 163.5 117.98 163.132 117.716 162.644C117.46 162.148 117.332 161.544 117.332 160.832C117.332 160.128 117.448 159.524 117.68 159.02C117.92 158.516 118.252 158.128 118.676 157.856C119.108 157.584 119.608 157.448 120.176 157.448ZM120.164 158.312C119.66 158.312 119.26 158.476 118.964 158.804C118.676 159.124 118.504 159.572 118.448 160.148H121.724C121.716 159.604 121.588 159.164 121.34 158.828C121.092 158.484 120.7 158.312 120.164 158.312ZM125.461 157.568V161.492C125.461 161.588 125.457 161.732 125.449 161.924C125.441 162.116 125.429 162.308 125.413 162.5C125.405 162.692 125.397 162.844 125.389 162.956L128.833 157.568H130.129V164H129.145V160.208C129.145 160.08 129.145 159.912 129.145 159.704C129.153 159.496 129.161 159.292 129.169 159.092C129.177 158.884 129.185 158.728 129.193 158.624L125.773 164H124.465V157.568H125.461ZM129.673 154.904C129.617 155.504 129.413 155.96 129.061 156.272C128.717 156.576 128.165 156.728 127.405 156.728C126.621 156.728 126.065 156.576 125.737 156.272C125.417 155.968 125.237 155.512 125.197 154.904H126.181C126.221 155.336 126.333 155.628 126.517 155.78C126.709 155.924 127.013 155.996 127.429 155.996C127.797 155.996 128.085 155.92 128.293 155.768C128.509 155.608 128.637 155.32 128.677 154.904H129.673ZM140.729 157.568V164H139.673V158.468H136.349V164H135.293V157.568H140.729ZM148.374 160.772C148.374 161.836 148.102 162.66 147.558 163.244C147.022 163.828 146.294 164.12 145.374 164.12C144.806 164.12 144.298 163.992 143.85 163.736C143.41 163.472 143.062 163.092 142.806 162.596C142.55 162.092 142.422 161.484 142.422 160.772C142.422 159.708 142.69 158.888 143.226 158.312C143.762 157.736 144.49 157.448 145.41 157.448C145.994 157.448 146.506 157.58 146.946 157.844C147.394 158.1 147.742 158.476 147.99 158.972C148.246 159.46 148.374 160.06 148.374 160.772ZM143.514 160.772C143.514 161.532 143.662 162.136 143.958 162.584C144.262 163.024 144.742 163.244 145.398 163.244C146.046 163.244 146.522 163.024 146.826 162.584C147.13 162.136 147.282 161.532 147.282 160.772C147.282 160.012 147.13 159.416 146.826 158.984C146.522 158.552 146.042 158.336 145.386 158.336C144.73 158.336 144.254 158.552 143.958 158.984C143.662 159.416 143.514 160.012 143.514 160.772ZM151.739 157.448C152.475 157.448 153.059 157.596 153.491 157.892C153.931 158.18 154.151 158.596 154.151 159.14C154.151 159.532 154.043 159.844 153.827 160.076C153.611 160.3 153.315 160.464 152.939 160.568V160.616C153.195 160.688 153.431 160.788 153.647 160.916C153.863 161.044 154.035 161.212 154.163 161.42C154.299 161.628 154.367 161.896 154.367 162.224C154.367 162.76 154.143 163.212 153.695 163.58C153.255 163.94 152.563 164.12 151.619 164.12C151.155 164.12 150.735 164.08 150.359 164C149.983 163.928 149.671 163.828 149.423 163.7V162.752C149.695 162.88 150.015 162.996 150.383 163.1C150.759 163.204 151.167 163.256 151.607 163.256C152.087 163.256 152.491 163.176 152.819 163.016C153.155 162.848 153.323 162.564 153.323 162.164C153.323 161.444 152.711 161.084 151.487 161.084H150.623V160.22H151.319C151.871 160.22 152.311 160.148 152.639 160.004C152.975 159.852 153.143 159.596 153.143 159.236C153.143 158.932 153.015 158.704 152.759 158.552C152.511 158.4 152.151 158.324 151.679 158.324C151.327 158.324 151.015 158.36 150.743 158.432C150.479 158.496 150.187 158.596 149.867 158.732L149.495 157.892C150.167 157.596 150.915 157.448 151.739 157.448ZM161.102 159.188C161.102 159.588 160.982 159.9 160.742 160.124C160.502 160.348 160.194 160.5 159.818 160.58V160.628C160.218 160.684 160.566 160.828 160.862 161.06C161.158 161.284 161.306 161.636 161.306 162.116C161.306 162.66 161.102 163.112 160.694 163.472C160.294 163.824 159.63 164 158.702 164H155.93V157.568H158.69C159.146 157.568 159.554 157.62 159.914 157.724C160.282 157.82 160.57 157.988 160.778 158.228C160.994 158.46 161.102 158.78 161.102 159.188ZM160.034 159.32C160.034 159.016 159.922 158.796 159.698 158.66C159.482 158.516 159.126 158.444 158.63 158.444H156.986V160.208H158.438C159.502 160.208 160.034 159.912 160.034 159.32ZM160.214 162.116C160.214 161.748 160.074 161.484 159.794 161.324C159.514 161.164 159.102 161.084 158.558 161.084H156.986V163.148H158.582C159.11 163.148 159.514 163.072 159.794 162.92C160.074 162.76 160.214 162.492 160.214 162.116ZM168.436 160.772C168.436 161.836 168.164 162.66 167.62 163.244C167.084 163.828 166.356 164.12 165.436 164.12C164.868 164.12 164.36 163.992 163.912 163.736C163.472 163.472 163.124 163.092 162.868 162.596C162.612 162.092 162.484 161.484 162.484 160.772C162.484 159.708 162.752 158.888 163.288 158.312C163.824 157.736 164.552 157.448 165.472 157.448C166.056 157.448 166.568 157.58 167.008 157.844C167.456 158.1 167.804 158.476 168.052 158.972C168.308 159.46 168.436 160.06 168.436 160.772ZM163.576 160.772C163.576 161.532 163.724 162.136 164.02 162.584C164.324 163.024 164.804 163.244 165.46 163.244C166.108 163.244 166.584 163.024 166.888 162.584C167.192 162.136 167.344 161.532 167.344 160.772C167.344 160.012 167.192 159.416 166.888 158.984C166.584 158.552 166.104 158.336 165.448 158.336C164.792 158.336 164.316 158.552 164.02 158.984C163.724 159.416 163.576 160.012 163.576 160.772ZM175.006 164H173.938V158.444H172.042C171.938 159.796 171.794 160.888 171.61 161.72C171.426 162.544 171.182 163.144 170.878 163.52C170.574 163.896 170.19 164.084 169.726 164.084C169.622 164.084 169.518 164.076 169.414 164.06C169.318 164.052 169.238 164.032 169.174 164V163.208C169.222 163.224 169.274 163.236 169.33 163.244C169.386 163.252 169.442 163.256 169.498 163.256C169.93 163.256 170.274 162.796 170.53 161.876C170.794 160.956 170.994 159.52 171.13 157.568H175.006V164ZM177.443 164H176.219L178.055 161.3C177.807 161.236 177.567 161.136 177.335 161C177.103 160.856 176.915 160.66 176.771 160.412C176.627 160.156 176.555 159.84 176.555 159.464C176.555 158.848 176.763 158.38 177.179 158.06C177.595 157.732 178.147 157.568 178.835 157.568H181.715V164H180.659V161.444H179.099L177.443 164ZM177.575 159.476C177.575 159.844 177.711 160.12 177.983 160.304C178.263 160.48 178.651 160.568 179.147 160.568H180.659V158.444H178.943C178.455 158.444 178.103 158.54 177.887 158.732C177.679 158.924 177.575 159.172 177.575 159.476ZM186.234 157.448C186.786 157.448 187.258 157.568 187.65 157.808C188.05 158.048 188.354 158.388 188.562 158.828C188.778 159.26 188.886 159.768 188.886 160.352V160.988H184.482C184.498 161.716 184.682 162.272 185.034 162.656C185.394 163.032 185.894 163.22 186.534 163.22C186.942 163.22 187.302 163.184 187.614 163.112C187.934 163.032 188.262 162.92 188.598 162.776V163.7C188.27 163.844 187.946 163.948 187.626 164.012C187.306 164.084 186.926 164.12 186.486 164.12C185.878 164.12 185.338 163.996 184.866 163.748C184.402 163.5 184.038 163.132 183.774 162.644C183.518 162.148 183.39 161.544 183.39 160.832C183.39 160.128 183.506 159.524 183.738 159.02C183.978 158.516 184.31 158.128 184.734 157.856C185.166 157.584 185.666 157.448 186.234 157.448ZM186.222 158.312C185.718 158.312 185.318 158.476 185.022 158.804C184.734 159.124 184.562 159.572 184.506 160.148H187.782C187.774 159.604 187.646 159.164 187.398 158.828C187.15 158.484 186.758 158.312 186.222 158.312ZM194.964 158.456H192.864V164H191.82V158.456H189.744V157.568H194.964V158.456ZM206.248 157.568V164H205.3V159.896C205.3 159.728 205.304 159.552 205.312 159.368C205.328 159.184 205.344 159.004 205.36 158.828H205.324L203.224 164H202.336L200.296 158.828H200.26C200.284 159.188 200.296 159.556 200.296 159.932V164H199.348V157.568H200.752L202.78 162.74L204.844 157.568H206.248ZM209.357 157.568V160.244H212.849V157.568H213.905V164H212.849V161.132H209.357V164H208.301V157.568H209.357ZM218.426 157.448C218.978 157.448 219.45 157.568 219.842 157.808C220.242 158.048 220.546 158.388 220.754 158.828C220.97 159.26 221.078 159.768 221.078 160.352V160.988H216.674C216.69 161.716 216.874 162.272 217.226 162.656C217.586 163.032 218.086 163.22 218.726 163.22C219.134 163.22 219.494 163.184 219.806 163.112C220.126 163.032 220.454 162.92 220.79 162.776V163.7C220.462 163.844 220.138 163.948 219.818 164.012C219.498 164.084 219.118 164.12 218.678 164.12C218.07 164.12 217.53 163.996 217.058 163.748C216.594 163.5 216.23 163.132 215.966 162.644C215.71 162.148 215.582 161.544 215.582 160.832C215.582 160.128 215.698 159.524 215.93 159.02C216.17 158.516 216.502 158.128 216.926 157.856C217.358 157.584 217.858 157.448 218.426 157.448ZM218.414 158.312C217.91 158.312 217.51 158.476 217.214 158.804C216.926 159.124 216.754 159.572 216.698 160.148H219.974C219.966 159.604 219.838 159.164 219.59 158.828C219.342 158.484 218.95 158.312 218.414 158.312ZM33.6 182.12C33.032 182.12 32.524 182.004 32.076 181.772C31.636 181.54 31.288 181.18 31.032 180.692C30.784 180.204 30.66 179.58 30.66 178.82C30.66 178.028 30.792 177.384 31.056 176.888C31.32 176.392 31.676 176.028 32.124 175.796C32.58 175.564 33.096 175.448 33.672 175.448C34 175.448 34.316 175.484 34.62 175.556C34.924 175.62 35.172 175.7 35.364 175.796L35.04 176.672C34.848 176.6 34.624 176.532 34.368 176.468C34.112 176.404 33.872 176.372 33.648 176.372C32.384 176.372 31.752 177.184 31.752 178.808C31.752 179.584 31.904 180.18 32.208 180.596C32.52 181.004 32.98 181.208 33.588 181.208C33.94 181.208 34.248 181.172 34.512 181.1C34.784 181.028 35.032 180.94 35.256 180.836V181.772C35.04 181.884 34.8 181.968 34.536 182.024C34.28 182.088 33.968 182.12 33.6 182.12ZM42.3776 178.772C42.3776 179.836 42.1056 180.66 41.5616 181.244C41.0256 181.828 40.2976 182.12 39.3776 182.12C38.8096 182.12 38.3016 181.992 37.8536 181.736C37.4136 181.472 37.0656 181.092 36.8096 180.596C36.5536 180.092 36.4256 179.484 36.4256 178.772C36.4256 177.708 36.6936 176.888 37.2296 176.312C37.7656 175.736 38.4936 175.448 39.4136 175.448C39.9976 175.448 40.5096 175.58 40.9496 175.844C41.3976 176.1 41.7456 176.476 41.9936 176.972C42.2496 177.46 42.3776 178.06 42.3776 178.772ZM37.5176 178.772C37.5176 179.532 37.6656 180.136 37.9616 180.584C38.2656 181.024 38.7456 181.244 39.4016 181.244C40.0496 181.244 40.5256 181.024 40.8296 180.584C41.1336 180.136 41.2856 179.532 41.2856 178.772C41.2856 178.012 41.1336 177.416 40.8296 176.984C40.5256 176.552 40.0456 176.336 39.3896 176.336C38.7336 176.336 38.2576 176.552 37.9616 176.984C37.6656 177.416 37.5176 178.012 37.5176 178.772ZM45.7433 175.448C46.4793 175.448 47.0633 175.596 47.4953 175.892C47.9353 176.18 48.1553 176.596 48.1553 177.14C48.1553 177.532 48.0473 177.844 47.8313 178.076C47.6153 178.3 47.3193 178.464 46.9433 178.568V178.616C47.1993 178.688 47.4353 178.788 47.6513 178.916C47.8673 179.044 48.0393 179.212 48.1673 179.42C48.3033 179.628 48.3713 179.896 48.3713 180.224C48.3713 180.76 48.1473 181.212 47.6993 181.58C47.2593 181.94 46.5673 182.12 45.6233 182.12C45.1593 182.12 44.7393 182.08 44.3633 182C43.9873 181.928 43.6753 181.828 43.4272 181.7V180.752C43.6993 180.88 44.0193 180.996 44.3873 181.1C44.7633 181.204 45.1713 181.256 45.6113 181.256C46.0913 181.256 46.4953 181.176 46.8233 181.016C47.1593 180.848 47.3273 180.564 47.3273 180.164C47.3273 179.444 46.7153 179.084 45.4913 179.084H44.6273V178.22H45.3233C45.8753 178.22 46.3153 178.148 46.6433 178.004C46.9793 177.852 47.1473 177.596 47.1473 177.236C47.1473 176.932 47.0193 176.704 46.7633 176.552C46.5153 176.4 46.1553 176.324 45.6833 176.324C45.3313 176.324 45.0193 176.36 44.7473 176.432C44.4833 176.496 44.1913 176.596 43.8713 176.732L43.4993 175.892C44.1713 175.596 44.9193 175.448 45.7433 175.448ZM54.7101 175.568V181.112H55.6461V184.232H54.6261V182H50.1501V184.232H49.1421V181.112H49.6581C50.2101 180.352 50.6221 179.488 50.8941 178.52C51.1741 177.544 51.3181 176.56 51.3261 175.568H54.7101ZM53.6901 176.396H52.2621C52.2301 176.94 52.1461 177.504 52.0101 178.088C51.8741 178.664 51.6981 179.216 51.4821 179.744C51.2741 180.272 51.0301 180.728 50.7501 181.112H53.6901V176.396ZM59.3427 175.46C60.1267 175.46 60.7067 175.632 61.0827 175.976C61.4587 176.32 61.6467 176.868 61.6467 177.62V182H60.8787L60.6747 181.088H60.6267C60.3467 181.44 60.0507 181.7 59.7387 181.868C59.4347 182.036 59.0107 182.12 58.4667 182.12C57.8827 182.12 57.3987 181.968 57.0147 181.664C56.6307 181.352 56.4387 180.868 56.4387 180.212C56.4387 179.572 56.6907 179.08 57.1947 178.736C57.6987 178.384 58.4747 178.192 59.5227 178.16L60.6147 178.124V177.74C60.6147 177.204 60.4987 176.832 60.2667 176.624C60.0347 176.416 59.7067 176.312 59.2827 176.312C58.9467 176.312 58.6267 176.364 58.3227 176.468C58.0187 176.564 57.7347 176.676 57.4707 176.804L57.1467 176.012C57.4267 175.86 57.7587 175.732 58.1427 175.628C58.5267 175.516 58.9267 175.46 59.3427 175.46ZM60.6027 178.856L59.6547 178.892C58.8547 178.924 58.2987 179.052 57.9867 179.276C57.6827 179.5 57.5307 179.816 57.5307 180.224C57.5307 180.584 57.6387 180.848 57.8547 181.016C58.0787 181.184 58.3627 181.268 58.7067 181.268C59.2507 181.268 59.7027 181.12 60.0627 180.824C60.4227 180.52 60.6027 180.056 60.6027 179.432V178.856ZM68.8053 177.188C68.8053 177.588 68.6853 177.9 68.4453 178.124C68.2053 178.348 67.8973 178.5 67.5213 178.58V178.628C67.9213 178.684 68.2693 178.828 68.5653 179.06C68.8613 179.284 69.0093 179.636 69.0093 180.116C69.0093 180.66 68.8053 181.112 68.3973 181.472C67.9973 181.824 67.3333 182 66.4053 182H63.6333V175.568H66.3933C66.8493 175.568 67.2573 175.62 67.6173 175.724C67.9853 175.82 68.2733 175.988 68.4813 176.228C68.6973 176.46 68.8053 176.78 68.8053 177.188ZM67.7373 177.32C67.7373 177.016 67.6253 176.796 67.4013 176.66C67.1853 176.516 66.8293 176.444 66.3333 176.444H64.6893V178.208H66.1413C67.2053 178.208 67.7373 177.912 67.7373 177.32ZM67.9173 180.116C67.9173 179.748 67.7773 179.484 67.4973 179.324C67.2173 179.164 66.8053 179.084 66.2613 179.084H64.6893V181.148H66.2853C66.8133 181.148 67.2173 181.072 67.4973 180.92C67.7773 180.76 67.9173 180.492 67.9173 180.116ZM72.9833 175.46C73.7673 175.46 74.3473 175.632 74.7233 175.976C75.0993 176.32 75.2873 176.868 75.2873 177.62V182H74.5193L74.3153 181.088H74.2673C73.9873 181.44 73.6913 181.7 73.3793 181.868C73.0753 182.036 72.6513 182.12 72.1073 182.12C71.5233 182.12 71.0393 181.968 70.6553 181.664C70.2713 181.352 70.0793 180.868 70.0793 180.212C70.0793 179.572 70.3313 179.08 70.8353 178.736C71.3393 178.384 72.1153 178.192 73.1633 178.16L74.2553 178.124V177.74C74.2553 177.204 74.1393 176.832 73.9073 176.624C73.6753 176.416 73.3473 176.312 72.9233 176.312C72.5873 176.312 72.2673 176.364 71.9633 176.468C71.6593 176.564 71.3753 176.676 71.1113 176.804L70.7873 176.012C71.0673 175.86 71.3993 175.732 71.7833 175.628C72.1673 175.516 72.5673 175.46 72.9833 175.46ZM74.2433 178.856L73.2953 178.892C72.4953 178.924 71.9393 179.052 71.6273 179.276C71.3233 179.5 71.1713 179.816 71.1713 180.224C71.1713 180.584 71.2793 180.848 71.4953 181.016C71.7193 181.184 72.0033 181.268 72.3473 181.268C72.8913 181.268 73.3433 181.12 73.7033 180.824C74.0633 180.52 74.2433 180.056 74.2433 179.432V178.856ZM81.7139 176.456H79.6139V182H78.5699V176.456H76.4939V175.568H81.7139V176.456ZM84.0369 178.208H85.9449C87.6169 178.208 88.4529 178.816 88.4529 180.032C88.4529 180.632 88.2489 181.112 87.8409 181.472C87.4329 181.824 86.7849 182 85.8969 182H82.9809V175.568H84.0369V178.208ZM87.3969 180.092C87.3969 179.7 87.2569 179.436 86.9769 179.3C86.7049 179.156 86.3209 179.084 85.8249 179.084H84.0369V181.148H85.8489C86.2969 181.148 86.6649 181.068 86.9529 180.908C87.2489 180.748 87.3969 180.476 87.3969 180.092ZM95.6591 175.46C96.4431 175.46 97.0231 175.632 97.3991 175.976C97.7751 176.32 97.9631 176.868 97.9631 177.62V182H97.1951L96.9911 181.088H96.9431C96.6631 181.44 96.3671 181.7 96.0551 181.868C95.7511 182.036 95.3271 182.12 94.7831 182.12C94.1991 182.12 93.7151 181.968 93.3311 181.664C92.9471 181.352 92.7551 180.868 92.7551 180.212C92.7551 179.572 93.0071 179.08 93.5111 178.736C94.0151 178.384 94.7911 178.192 95.8391 178.16L96.9311 178.124V177.74C96.9311 177.204 96.8151 176.832 96.5831 176.624C96.3511 176.416 96.0231 176.312 95.5991 176.312C95.2631 176.312 94.9431 176.364 94.6391 176.468C94.3351 176.564 94.0511 176.676 93.7871 176.804L93.4631 176.012C93.7431 175.86 94.0751 175.732 94.4591 175.628C94.8431 175.516 95.2431 175.46 95.6591 175.46ZM96.9191 178.856L95.9711 178.892C95.1711 178.924 94.6151 179.052 94.3031 179.276C93.9991 179.5 93.8471 179.816 93.8471 180.224C93.8471 180.584 93.9551 180.848 94.1711 181.016C94.3951 181.184 94.6791 181.268 95.0231 181.268C95.5671 181.268 96.0191 181.12 96.3791 180.824C96.7391 180.52 96.9191 180.056 96.9191 179.432V178.856ZM99.6137 178.136C99.6137 176.728 99.8257 175.632 100.25 174.848C100.674 174.056 101.358 173.56 102.302 173.36C102.822 173.248 103.33 173.148 103.826 173.06C104.322 172.972 104.786 172.892 105.218 172.82L105.398 173.744C105.118 173.784 104.802 173.836 104.45 173.9C104.098 173.956 103.75 174.016 103.406 174.08C103.062 174.136 102.766 174.192 102.518 174.248C101.998 174.36 101.586 174.632 101.282 175.064C100.978 175.488 100.806 176.152 100.766 177.056H100.838C100.95 176.904 101.102 176.748 101.294 176.588C101.494 176.428 101.73 176.292 102.002 176.18C102.282 176.068 102.598 176.012 102.95 176.012C103.782 176.012 104.41 176.28 104.834 176.816C105.258 177.352 105.47 178.048 105.47 178.904C105.47 179.616 105.346 180.212 105.098 180.692C104.85 181.172 104.506 181.532 104.066 181.772C103.626 182.004 103.114 182.12 102.53 182.12C101.642 182.12 100.934 181.78 100.406 181.1C99.8777 180.42 99.6137 179.432 99.6137 178.136ZM102.614 181.244C103.134 181.244 103.554 181.076 103.874 180.74C104.194 180.404 104.354 179.828 104.354 179.012C104.354 178.356 104.23 177.84 103.982 177.464C103.742 177.08 103.342 176.888 102.782 176.888C102.43 176.888 102.11 176.968 101.822 177.128C101.534 177.28 101.294 177.456 101.102 177.656C100.91 177.856 100.774 178.024 100.694 178.16C100.694 178.552 100.722 178.932 100.778 179.3C100.834 179.668 100.93 180 101.066 180.296C101.21 180.584 101.406 180.816 101.654 180.992C101.91 181.16 102.23 181.244 102.614 181.244ZM109.713 182.12C109.145 182.12 108.637 182.004 108.189 181.772C107.749 181.54 107.401 181.18 107.145 180.692C106.897 180.204 106.773 179.58 106.773 178.82C106.773 178.028 106.905 177.384 107.169 176.888C107.433 176.392 107.789 176.028 108.237 175.796C108.693 175.564 109.209 175.448 109.785 175.448C110.113 175.448 110.429 175.484 110.733 175.556C111.037 175.62 111.285 175.7 111.477 175.796L111.153 176.672C110.961 176.6 110.737 176.532 110.481 176.468C110.225 176.404 109.985 176.372 109.761 176.372C108.497 176.372 107.865 177.184 107.865 178.808C107.865 179.584 108.017 180.18 108.321 180.596C108.633 181.004 109.093 181.208 109.701 181.208C110.053 181.208 110.361 181.172 110.625 181.1C110.897 181.028 111.145 180.94 111.369 180.836V181.772C111.153 181.884 110.913 181.968 110.649 182.024C110.393 182.088 110.081 182.12 109.713 182.12ZM118.491 178.772C118.491 179.836 118.219 180.66 117.675 181.244C117.139 181.828 116.411 182.12 115.491 182.12C114.923 182.12 114.415 181.992 113.967 181.736C113.527 181.472 113.179 181.092 112.923 180.596C112.667 180.092 112.539 179.484 112.539 178.772C112.539 177.708 112.807 176.888 113.343 176.312C113.879 175.736 114.607 175.448 115.527 175.448C116.111 175.448 116.623 175.58 117.063 175.844C117.511 176.1 117.859 176.476 118.107 176.972C118.363 177.46 118.491 178.06 118.491 178.772ZM113.631 178.772C113.631 179.532 113.779 180.136 114.075 180.584C114.379 181.024 114.859 181.244 115.515 181.244C116.163 181.244 116.639 181.024 116.943 180.584C117.247 180.136 117.399 179.532 117.399 178.772C117.399 178.012 117.247 177.416 116.943 176.984C116.639 176.552 116.159 176.336 115.503 176.336C114.847 176.336 114.371 176.552 114.075 176.984C113.779 177.416 113.631 178.012 113.631 178.772ZM125.061 182H123.993V176.444H122.097C121.993 177.796 121.849 178.888 121.665 179.72C121.481 180.544 121.237 181.144 120.933 181.52C120.629 181.896 120.245 182.084 119.781 182.084C119.677 182.084 119.573 182.076 119.469 182.06C119.373 182.052 119.293 182.032 119.229 182V181.208C119.277 181.224 119.329 181.236 119.385 181.244C119.441 181.252 119.497 181.256 119.553 181.256C119.985 181.256 120.329 180.796 120.585 179.876C120.849 178.956 121.049 177.52 121.185 175.568H125.061V182ZM135.454 178.772C135.454 179.836 135.198 180.66 134.686 181.244C134.174 181.828 133.482 182.12 132.61 182.12C131.794 182.12 131.134 181.864 130.63 181.352C130.134 180.84 129.854 180.1 129.79 179.132H128.158V182H127.102V175.568H128.158V178.244H129.802C129.89 177.34 130.182 176.648 130.678 176.168C131.174 175.688 131.826 175.448 132.634 175.448C133.186 175.448 133.674 175.58 134.098 175.844C134.522 176.1 134.854 176.476 135.094 176.972C135.334 177.46 135.454 178.06 135.454 178.772ZM130.87 178.772C130.87 179.58 131.01 180.196 131.29 180.62C131.57 181.036 132.014 181.244 132.622 181.244C133.238 181.244 133.682 181.036 133.954 180.62C134.226 180.196 134.362 179.58 134.362 178.772C134.362 177.964 134.222 177.356 133.942 176.948C133.67 176.54 133.23 176.336 132.622 176.336C132.014 176.336 131.57 176.54 131.29 176.948C131.01 177.356 130.87 177.964 130.87 178.772ZM141.456 176.456H139.356V182H138.312V176.456H136.236V175.568H141.456V176.456ZM143.779 175.568V178.244H147.271V175.568H148.327V182H147.271V179.132H143.779V182H142.723V175.568H143.779ZM155.956 178.772C155.956 179.836 155.684 180.66 155.14 181.244C154.604 181.828 153.876 182.12 152.956 182.12C152.388 182.12 151.88 181.992 151.432 181.736C150.992 181.472 150.644 181.092 150.388 180.596C150.132 180.092 150.004 179.484 150.004 178.772C150.004 177.708 150.272 176.888 150.808 176.312C151.344 175.736 152.072 175.448 152.992 175.448C153.576 175.448 154.088 175.58 154.528 175.844C154.976 176.1 155.324 176.476 155.572 176.972C155.828 177.46 155.956 178.06 155.956 178.772ZM151.096 178.772C151.096 179.532 151.244 180.136 151.54 180.584C151.844 181.024 152.324 181.244 152.98 181.244C153.628 181.244 154.104 181.024 154.408 180.584C154.712 180.136 154.864 179.532 154.864 178.772C154.864 178.012 154.712 177.416 154.408 176.984C154.104 176.552 153.624 176.336 152.968 176.336C152.312 176.336 151.836 176.552 151.54 176.984C151.244 177.416 151.096 178.012 151.096 178.772ZM165.643 182H164.575V176.444H162.679C162.575 177.796 162.431 178.888 162.247 179.72C162.063 180.544 161.819 181.144 161.515 181.52C161.211 181.896 160.827 182.084 160.363 182.084C160.259 182.084 160.155 182.076 160.051 182.06C159.955 182.052 159.875 182.032 159.811 182V181.208C159.859 181.224 159.911 181.236 159.967 181.244C160.023 181.252 160.079 181.256 160.135 181.256C160.567 181.256 160.911 180.796 161.167 179.876C161.431 178.956 161.631 177.52 161.767 175.568H165.643V182ZM176.036 178.772C176.036 179.836 175.78 180.66 175.268 181.244C174.756 181.828 174.064 182.12 173.192 182.12C172.376 182.12 171.716 181.864 171.212 181.352C170.716 180.84 170.436 180.1 170.372 179.132H168.74V182H167.684V175.568H168.74V178.244H170.384C170.472 177.34 170.764 176.648 171.26 176.168C171.756 175.688 172.408 175.448 173.216 175.448C173.768 175.448 174.256 175.58 174.68 175.844C175.104 176.1 175.436 176.476 175.676 176.972C175.916 177.46 176.036 178.06 176.036 178.772ZM171.452 178.772C171.452 179.58 171.592 180.196 171.872 180.62C172.152 181.036 172.596 181.244 173.204 181.244C173.82 181.244 174.264 181.036 174.536 180.62C174.808 180.196 174.944 179.58 174.944 178.772C174.944 177.964 174.804 177.356 174.524 176.948C174.252 176.54 173.812 176.336 173.204 176.336C172.596 176.336 172.152 176.54 171.872 176.948C171.592 177.356 171.452 177.964 171.452 178.772ZM177.379 178.136C177.379 176.728 177.591 175.632 178.015 174.848C178.439 174.056 179.123 173.56 180.067 173.36C180.587 173.248 181.095 173.148 181.591 173.06C182.087 172.972 182.551 172.892 182.983 172.82L183.163 173.744C182.883 173.784 182.567 173.836 182.215 173.9C181.863 173.956 181.515 174.016 181.171 174.08C180.827 174.136 180.531 174.192 180.283 174.248C179.763 174.36 179.351 174.632 179.047 175.064C178.743 175.488 178.571 176.152 178.531 177.056H178.603C178.715 176.904 178.867 176.748 179.059 176.588C179.259 176.428 179.495 176.292 179.767 176.18C180.047 176.068 180.363 176.012 180.715 176.012C181.547 176.012 182.175 176.28 182.599 176.816C183.023 177.352 183.235 178.048 183.235 178.904C183.235 179.616 183.111 180.212 182.863 180.692C182.615 181.172 182.271 181.532 181.831 181.772C181.391 182.004 180.879 182.12 180.295 182.12C179.407 182.12 178.699 181.78 178.171 181.1C177.643 180.42 177.379 179.432 177.379 178.136ZM180.379 181.244C180.899 181.244 181.319 181.076 181.639 180.74C181.959 180.404 182.119 179.828 182.119 179.012C182.119 178.356 181.995 177.84 181.747 177.464C181.507 177.08 181.107 176.888 180.547 176.888C180.195 176.888 179.875 176.968 179.587 177.128C179.299 177.28 179.059 177.456 178.867 177.656C178.675 177.856 178.539 178.024 178.459 178.16C178.459 178.552 178.487 178.932 178.543 179.3C178.599 179.668 178.695 180 178.831 180.296C178.975 180.584 179.171 180.816 179.419 180.992C179.675 181.16 179.995 181.244 180.379 181.244ZM190.491 178.772C190.491 179.836 190.219 180.66 189.675 181.244C189.139 181.828 188.411 182.12 187.491 182.12C186.923 182.12 186.415 181.992 185.967 181.736C185.527 181.472 185.179 181.092 184.923 180.596C184.667 180.092 184.539 179.484 184.539 178.772C184.539 177.708 184.807 176.888 185.343 176.312C185.879 175.736 186.607 175.448 187.527 175.448C188.111 175.448 188.623 175.58 189.063 175.844C189.511 176.1 189.859 176.476 190.107 176.972C190.363 177.46 190.491 178.06 190.491 178.772ZM185.631 178.772C185.631 179.532 185.779 180.136 186.075 180.584C186.379 181.024 186.859 181.244 187.515 181.244C188.163 181.244 188.639 181.024 188.943 180.584C189.247 180.136 189.399 179.532 189.399 178.772C189.399 178.012 189.247 177.416 188.943 176.984C188.639 176.552 188.159 176.336 187.503 176.336C186.847 176.336 186.371 176.552 186.075 176.984C185.779 177.416 185.631 178.012 185.631 178.772ZM193.161 175.568V179.492C193.161 179.588 193.157 179.732 193.149 179.924C193.141 180.116 193.129 180.308 193.113 180.5C193.105 180.692 193.097 180.844 193.089 180.956L196.533 175.568H197.829V182H196.845V178.208C196.845 178.08 196.845 177.912 196.845 177.704C196.853 177.496 196.861 177.292 196.869 177.092C196.877 176.884 196.885 176.728 196.893 176.624L193.473 182H192.165V175.568H193.161ZM197.373 172.904C197.317 173.504 197.113 173.96 196.761 174.272C196.417 174.576 195.865 174.728 195.105 174.728C194.321 174.728 193.765 174.576 193.437 174.272C193.117 173.968 192.937 173.512 192.897 172.904H193.881C193.921 173.336 194.033 173.628 194.217 173.78C194.409 173.924 194.713 173.996 195.129 173.996C195.497 173.996 195.785 173.92 195.993 173.768C196.209 173.608 196.337 173.32 196.377 172.904H197.373ZM36.192 195.188C36.192 195.588 36.072 195.9 35.832 196.124C35.592 196.348 35.284 196.5 34.908 196.58V196.628C35.308 196.684 35.656 196.828 35.952 197.06C36.248 197.284 36.396 197.636 36.396 198.116C36.396 198.66 36.192 199.112 35.784 199.472C35.384 199.824 34.72 200 33.792 200H31.02V193.568H33.78C34.236 193.568 34.644 193.62 35.004 193.724C35.372 193.82 35.66 193.988 35.868 194.228C36.084 194.46 36.192 194.78 36.192 195.188ZM35.124 195.32C35.124 195.016 35.012 194.796 34.788 194.66C34.572 194.516 34.216 194.444 33.72 194.444H32.076V196.208H33.528C34.592 196.208 35.124 195.912 35.124 195.32ZM35.304 198.116C35.304 197.748 35.164 197.484 34.884 197.324C34.604 197.164 34.192 197.084 33.648 197.084H32.076V199.148H33.672C34.2 199.148 34.604 199.072 34.884 198.92C35.164 198.76 35.304 198.492 35.304 198.116ZM38.9901 193.568V196.244H42.4821V193.568H43.5381V200H42.4821V197.132H38.9901V200H37.9341V193.568H38.9901ZM48.0587 193.448C48.6107 193.448 49.0827 193.568 49.4747 193.808C49.8747 194.048 50.1787 194.388 50.3867 194.828C50.6027 195.26 50.7107 195.768 50.7107 196.352V196.988H46.3067C46.3227 197.716 46.5067 198.272 46.8587 198.656C47.2187 199.032 47.7187 199.22 48.3587 199.22C48.7667 199.22 49.1267 199.184 49.4387 199.112C49.7587 199.032 50.0867 198.92 50.4227 198.776V199.7C50.0947 199.844 49.7707 199.948 49.4507 200.012C49.1307 200.084 48.7507 200.12 48.3107 200.12C47.7027 200.12 47.1627 199.996 46.6907 199.748C46.2267 199.5 45.8627 199.132 45.5987 198.644C45.3427 198.148 45.2147 197.544 45.2147 196.832C45.2147 196.128 45.3307 195.524 45.5627 195.02C45.8027 194.516 46.1347 194.128 46.5587 193.856C46.9907 193.584 47.4907 193.448 48.0587 193.448ZM48.0467 194.312C47.5427 194.312 47.1427 194.476 46.8467 194.804C46.5587 195.124 46.3867 195.572 46.3307 196.148H49.6067C49.5987 195.604 49.4707 195.164 49.2227 194.828C48.9747 194.484 48.5827 194.312 48.0467 194.312ZM61.0721 193.568V200H52.3481V193.568H53.4041V199.112H56.1761V193.568H57.2321V199.112H60.0161V193.568H61.0721ZM64.1854 193.568V196.244H67.6774V193.568H68.7334V200H67.6774V197.132H64.1854V200H63.1294V193.568H64.1854ZM71.766 193.568V197.492C71.766 197.588 71.762 197.732 71.754 197.924C71.746 198.116 71.734 198.308 71.718 198.5C71.71 198.692 71.702 198.844 71.694 198.956L75.138 193.568H76.434V200H75.45V196.208C75.45 196.08 75.45 195.912 75.45 195.704C75.458 195.496 75.466 195.292 75.474 195.092C75.482 194.884 75.49 194.728 75.498 194.624L72.078 200H70.77V193.568H71.766ZM79.4769 193.568V197.492C79.4769 197.588 79.4729 197.732 79.4649 197.924C79.4569 198.116 79.4449 198.308 79.4289 198.5C79.4209 198.692 79.4129 198.844 79.4049 198.956L82.8489 193.568H84.1449V200H83.1609V196.208C83.1609 196.08 83.1609 195.912 83.1609 195.704C83.1689 195.496 83.1769 195.292 83.1849 195.092C83.1929 194.884 83.2009 194.728 83.2089 194.624L79.7889 200H78.4809V193.568H79.4769ZM83.6889 190.904C83.6329 191.504 83.4289 191.96 83.0769 192.272C82.7329 192.576 82.1809 192.728 81.4209 192.728C80.6369 192.728 80.0809 192.576 79.7529 192.272C79.4329 191.968 79.2529 191.512 79.2129 190.904H80.1969C80.2369 191.336 80.3489 191.628 80.5329 191.78C80.7249 191.924 81.0289 191.996 81.4449 191.996C81.8129 191.996 82.1009 191.92 82.3089 191.768C82.5249 191.608 82.6529 191.32 82.6929 190.904H83.6889ZM94.4811 195.188C94.4811 195.588 94.3611 195.9 94.1211 196.124C93.8811 196.348 93.5731 196.5 93.1971 196.58V196.628C93.5971 196.684 93.9451 196.828 94.2411 197.06C94.5371 197.284 94.6851 197.636 94.6851 198.116C94.6851 198.66 94.4811 199.112 94.0731 199.472C93.6731 199.824 93.0091 200 92.0811 200H89.3091V193.568H92.0691C92.5251 193.568 92.9331 193.62 93.2931 193.724C93.6611 193.82 93.9491 193.988 94.1571 194.228C94.3731 194.46 94.4811 194.78 94.4811 195.188ZM93.4131 195.32C93.4131 195.016 93.3011 194.796 93.0771 194.66C92.8611 194.516 92.5051 194.444 92.0091 194.444H90.3651V196.208H91.8171C92.8811 196.208 93.4131 195.912 93.4131 195.32ZM93.5931 198.116C93.5931 197.748 93.4531 197.484 93.1731 197.324C92.8931 197.164 92.4811 197.084 91.9371 197.084H90.3651V199.148H91.9611C92.4891 199.148 92.8931 199.072 93.1731 198.92C93.4531 198.76 93.5931 198.492 93.5931 198.116ZM97.2191 193.568V197.492C97.2191 197.588 97.2151 197.732 97.2071 197.924C97.1991 198.116 97.1871 198.308 97.1711 198.5C97.1631 198.692 97.1551 198.844 97.1471 198.956L100.591 193.568H101.887V200H100.903V196.208C100.903 196.08 100.903 195.912 100.903 195.704C100.911 195.496 100.919 195.292 100.927 195.092C100.935 194.884 100.943 194.728 100.951 194.624L97.5311 200H96.2231V193.568H97.2191ZM108.71 193.568V199.112H109.646V202.232H108.626V200H104.15V202.232H103.142V199.112H103.658C104.21 198.352 104.622 197.488 104.894 196.52C105.174 195.544 105.318 194.56 105.326 193.568H108.71ZM107.69 194.396H106.262C106.23 194.94 106.146 195.504 106.01 196.088C105.874 196.664 105.698 197.216 105.482 197.744C105.274 198.272 105.03 198.728 104.75 199.112H107.69V194.396ZM119.196 195.188C119.196 195.588 119.076 195.9 118.836 196.124C118.596 196.348 118.288 196.5 117.912 196.58V196.628C118.312 196.684 118.66 196.828 118.956 197.06C119.252 197.284 119.4 197.636 119.4 198.116C119.4 198.66 119.196 199.112 118.788 199.472C118.388 199.824 117.724 200 116.796 200H114.024V193.568H116.784C117.24 193.568 117.648 193.62 118.008 193.724C118.376 193.82 118.664 193.988 118.872 194.228C119.088 194.46 119.196 194.78 119.196 195.188ZM118.128 195.32C118.128 195.016 118.016 194.796 117.792 194.66C117.576 194.516 117.22 194.444 116.724 194.444H115.08V196.208H116.532C117.596 196.208 118.128 195.912 118.128 195.32ZM118.308 198.116C118.308 197.748 118.168 197.484 117.888 197.324C117.608 197.164 117.196 197.084 116.652 197.084H115.08V199.148H116.676C117.204 199.148 117.608 199.072 117.888 198.92C118.168 198.76 118.308 198.492 118.308 198.116ZM123.374 193.46C124.158 193.46 124.738 193.632 125.114 193.976C125.49 194.32 125.678 194.868 125.678 195.62V200H124.91L124.706 199.088H124.658C124.378 199.44 124.082 199.7 123.77 199.868C123.466 200.036 123.042 200.12 122.498 200.12C121.914 200.12 121.43 199.968 121.046 199.664C120.662 199.352 120.47 198.868 120.47 198.212C120.47 197.572 120.722 197.08 121.226 196.736C121.73 196.384 122.506 196.192 123.554 196.16L124.646 196.124V195.74C124.646 195.204 124.53 194.832 124.298 194.624C124.066 194.416 123.738 194.312 123.314 194.312C122.978 194.312 122.658 194.364 122.354 194.468C122.05 194.564 121.766 194.676 121.502 194.804L121.178 194.012C121.458 193.86 121.79 193.732 122.174 193.628C122.558 193.516 122.958 193.46 123.374 193.46ZM124.634 196.856L123.686 196.892C122.886 196.924 122.33 197.052 122.018 197.276C121.714 197.5 121.562 197.816 121.562 198.224C121.562 198.584 121.67 198.848 121.886 199.016C122.11 199.184 122.394 199.268 122.738 199.268C123.282 199.268 123.734 199.12 124.094 198.824C124.454 198.52 124.634 198.056 124.634 197.432V196.856ZM136.389 193.568V200H127.665V193.568H128.721V199.112H131.493V193.568H132.549V199.112H135.333V193.568H136.389ZM140.93 193.448C141.482 193.448 141.954 193.568 142.346 193.808C142.746 194.048 143.05 194.388 143.258 194.828C143.474 195.26 143.582 195.768 143.582 196.352V196.988H139.178C139.194 197.716 139.378 198.272 139.73 198.656C140.09 199.032 140.59 199.22 141.23 199.22C141.638 199.22 141.998 199.184 142.31 199.112C142.63 199.032 142.958 198.92 143.294 198.776V199.7C142.966 199.844 142.642 199.948 142.322 200.012C142.002 200.084 141.622 200.12 141.182 200.12C140.574 200.12 140.034 199.996 139.562 199.748C139.098 199.5 138.734 199.132 138.47 198.644C138.214 198.148 138.086 197.544 138.086 196.832C138.086 196.128 138.202 195.524 138.434 195.02C138.674 194.516 139.006 194.128 139.43 193.856C139.862 193.584 140.362 193.448 140.93 193.448ZM140.918 194.312C140.414 194.312 140.014 194.476 139.718 194.804C139.43 195.124 139.258 195.572 139.202 196.148H142.478C142.47 195.604 142.342 195.164 142.094 194.828C141.846 194.484 141.454 194.312 140.918 194.312ZM149.143 193.568V194.456H146.275V200H145.219V193.568H149.143ZM155.885 196.772C155.885 197.836 155.613 198.66 155.069 199.244C154.533 199.828 153.805 200.12 152.885 200.12C152.317 200.12 151.809 199.992 151.361 199.736C150.921 199.472 150.573 199.092 150.317 198.596C150.061 198.092 149.933 197.484 149.933 196.772C149.933 195.708 150.201 194.888 150.737 194.312C151.273 193.736 152.001 193.448 152.921 193.448C153.505 193.448 154.017 193.58 154.457 193.844C154.905 194.1 155.253 194.476 155.501 194.972C155.757 195.46 155.885 196.06 155.885 196.772ZM151.025 196.772C151.025 197.532 151.173 198.136 151.469 198.584C151.773 199.024 152.253 199.244 152.909 199.244C153.557 199.244 154.033 199.024 154.337 198.584C154.641 198.136 154.793 197.532 154.793 196.772C154.793 196.012 154.641 195.416 154.337 194.984C154.033 194.552 153.553 194.336 152.897 194.336C152.241 194.336 151.765 194.552 151.469 194.984C151.173 195.416 151.025 196.012 151.025 196.772ZM163.256 200.12C162.688 200.12 162.18 200.004 161.732 199.772C161.292 199.54 160.944 199.18 160.688 198.692C160.44 198.204 160.316 197.58 160.316 196.82C160.316 196.028 160.448 195.384 160.712 194.888C160.976 194.392 161.332 194.028 161.78 193.796C162.236 193.564 162.752 193.448 163.328 193.448C163.656 193.448 163.972 193.484 164.276 193.556C164.58 193.62 164.828 193.7 165.02 193.796L164.696 194.672C164.504 194.6 164.28 194.532 164.024 194.468C163.768 194.404 163.528 194.372 163.304 194.372C162.04 194.372 161.408 195.184 161.408 196.808C161.408 197.584 161.56 198.18 161.864 198.596C162.176 199.004 162.636 199.208 163.244 199.208C163.596 199.208 163.904 199.172 164.168 199.1C164.44 199.028 164.688 198.94 164.912 198.836V199.772C164.696 199.884 164.456 199.968 164.192 200.024C163.936 200.088 163.624 200.12 163.256 200.12ZM168.878 193.46C169.662 193.46 170.242 193.632 170.618 193.976C170.994 194.32 171.182 194.868 171.182 195.62V200H170.414L170.21 199.088H170.162C169.882 199.44 169.586 199.7 169.274 199.868C168.97 200.036 168.546 200.12 168.002 200.12C167.418 200.12 166.934 199.968 166.55 199.664C166.166 199.352 165.974 198.868 165.974 198.212C165.974 197.572 166.226 197.08 166.73 196.736C167.234 196.384 168.01 196.192 169.058 196.16L170.15 196.124V195.74C170.15 195.204 170.034 194.832 169.802 194.624C169.57 194.416 169.242 194.312 168.818 194.312C168.482 194.312 168.162 194.364 167.858 194.468C167.554 194.564 167.27 194.676 167.006 194.804L166.682 194.012C166.962 193.86 167.294 193.732 167.678 193.628C168.062 193.516 168.462 193.46 168.878 193.46ZM170.138 196.856L169.19 196.892C168.39 196.924 167.834 197.052 167.522 197.276C167.218 197.5 167.066 197.816 167.066 198.224C167.066 198.584 167.174 198.848 167.39 199.016C167.614 199.184 167.898 199.268 168.242 199.268C168.786 199.268 169.238 199.12 169.598 198.824C169.958 198.52 170.138 198.056 170.138 197.432V196.856ZM174.164 193.568V197.492C174.164 197.588 174.16 197.732 174.152 197.924C174.144 198.116 174.132 198.308 174.116 198.5C174.108 198.692 174.1 198.844 174.092 198.956L177.536 193.568H178.832V200H177.848V196.208C177.848 196.08 177.848 195.912 177.848 195.704C177.856 195.496 177.864 195.292 177.872 195.092C177.88 194.884 177.888 194.728 177.896 194.624L174.476 200H173.168V193.568H174.164ZM178.376 190.904C178.32 191.504 178.116 191.96 177.764 192.272C177.42 192.576 176.868 192.728 176.108 192.728C175.324 192.728 174.768 192.576 174.44 192.272C174.12 191.968 173.94 191.512 173.9 190.904H174.884C174.924 191.336 175.036 191.628 175.22 191.78C175.412 191.924 175.716 191.996 176.132 191.996C176.5 191.996 176.788 191.92 176.996 191.768C177.212 191.608 177.34 191.32 177.38 190.904H178.376ZM185.319 194.456H183.219V200H182.175V194.456H180.099V193.568H185.319V194.456ZM189.022 193.46C189.806 193.46 190.386 193.632 190.762 193.976C191.138 194.32 191.326 194.868 191.326 195.62V200H190.558L190.354 199.088H190.306C190.026 199.44 189.73 199.7 189.418 199.868C189.114 200.036 188.69 200.12 188.146 200.12C187.562 200.12 187.078 199.968 186.694 199.664C186.31 199.352 186.118 198.868 186.118 198.212C186.118 197.572 186.37 197.08 186.874 196.736C187.378 196.384 188.154 196.192 189.202 196.16L190.294 196.124V195.74C190.294 195.204 190.178 194.832 189.946 194.624C189.714 194.416 189.386 194.312 188.962 194.312C188.626 194.312 188.306 194.364 188.002 194.468C187.698 194.564 187.414 194.676 187.15 194.804L186.826 194.012C187.106 193.86 187.438 193.732 187.822 193.628C188.206 193.516 188.606 193.46 189.022 193.46ZM190.282 196.856L189.334 196.892C188.534 196.924 187.978 197.052 187.666 197.276C187.362 197.5 187.21 197.816 187.21 198.224C187.21 198.584 187.318 198.848 187.534 199.016C187.758 199.184 188.042 199.268 188.386 199.268C188.93 199.268 189.382 199.12 189.742 198.824C190.102 198.52 190.282 198.056 190.282 197.432V196.856ZM197.426 193.568V197.492C197.426 197.588 197.422 197.732 197.414 197.924C197.406 198.116 197.394 198.308 197.378 198.5C197.37 198.692 197.362 198.844 197.354 198.956L200.798 193.568H202.094V200H201.11V196.208C201.11 196.08 201.11 195.912 201.11 195.704C201.118 195.496 201.126 195.292 201.134 195.092C201.142 194.884 201.15 194.728 201.158 194.624L197.738 200H196.43V193.568H197.426ZM209.037 200H207.969V194.444H206.073C205.969 195.796 205.825 196.888 205.641 197.72C205.457 198.544 205.213 199.144 204.909 199.52C204.605 199.896 204.221 200.084 203.757 200.084C203.653 200.084 203.549 200.076 203.445 200.06C203.349 200.052 203.269 200.032 203.205 200V199.208C203.253 199.224 203.305 199.236 203.361 199.244C203.417 199.252 203.473 199.256 203.529 199.256C203.961 199.256 204.305 198.796 204.561 197.876C204.825 196.956 205.025 195.52 205.161 193.568H209.037V200ZM212.075 193.568V197.492C212.075 197.588 212.071 197.732 212.063 197.924C212.055 198.116 212.043 198.308 212.027 198.5C212.019 198.692 212.011 198.844 212.003 198.956L215.447 193.568H216.743V200H215.759V196.208C215.759 196.08 215.759 195.912 215.759 195.704C215.767 195.496 215.775 195.292 215.783 195.092C215.791 194.884 215.799 194.728 215.807 194.624L212.387 200H211.079V193.568H212.075ZM36.456 211.568V218H35.4V212.468H32.076V218H31.02V211.568H36.456ZM41.5683 211.448C42.3603 211.448 42.9963 211.724 43.4763 212.276C43.9643 212.828 44.2083 213.66 44.2083 214.772C44.2083 215.868 43.9643 216.7 43.4763 217.268C42.9963 217.836 42.3563 218.12 41.5563 218.12C41.0603 218.12 40.6483 218.028 40.3203 217.844C40.0003 217.652 39.7483 217.432 39.5643 217.184H39.4923C39.5083 217.32 39.5243 217.492 39.5403 217.7C39.5563 217.908 39.5643 218.088 39.5643 218.24V220.88H38.5083V211.568H39.3723L39.5163 212.444H39.5643C39.7563 212.164 40.0083 211.928 40.3203 211.736C40.6323 211.544 41.0483 211.448 41.5683 211.448ZM41.3763 212.336C40.7203 212.336 40.2563 212.52 39.9843 212.888C39.7203 213.256 39.5803 213.816 39.5643 214.568V214.772C39.5643 215.564 39.6923 216.176 39.9483 216.608C40.2123 217.032 40.6963 217.244 41.4003 217.244C41.7923 217.244 42.1123 217.136 42.3603 216.92C42.6163 216.704 42.8043 216.412 42.9243 216.044C43.0523 215.668 43.1163 215.24 43.1163 214.76C43.1163 214.024 42.9723 213.436 42.6843 212.996C42.4043 212.556 41.9683 212.336 41.3763 212.336ZM46.8871 211.568V215.492C46.8871 215.588 46.8831 215.732 46.8751 215.924C46.8671 216.116 46.8551 216.308 46.8391 216.5C46.8311 216.692 46.8231 216.844 46.8151 216.956L50.2591 211.568H51.5551V218H50.5711V214.208C50.5711 214.08 50.5711 213.912 50.5711 213.704C50.5791 213.496 50.5871 213.292 50.5951 213.092C50.6031 212.884 50.6111 212.728 50.6191 212.624L47.1991 218H45.8911V211.568H46.8871ZM58.498 218H57.43V212.444H55.534C55.43 213.796 55.286 214.888 55.102 215.72C54.918 216.544 54.674 217.144 54.37 217.52C54.066 217.896 53.682 218.084 53.218 218.084C53.114 218.084 53.01 218.076 52.906 218.06C52.81 218.052 52.73 218.032 52.666 218V217.208C52.714 217.224 52.766 217.236 52.822 217.244C52.878 217.252 52.934 217.256 52.99 217.256C53.422 217.256 53.766 216.796 54.022 215.876C54.286 214.956 54.486 213.52 54.622 211.568H58.498V218ZM66.1315 214.772C66.1315 215.836 65.8595 216.66 65.3155 217.244C64.7795 217.828 64.0515 218.12 63.1315 218.12C62.5635 218.12 62.0555 217.992 61.6075 217.736C61.1675 217.472 60.8195 217.092 60.5635 216.596C60.3075 216.092 60.1795 215.484 60.1795 214.772C60.1795 213.708 60.4475 212.888 60.9835 212.312C61.5195 211.736 62.2475 211.448 63.1675 211.448C63.7515 211.448 64.2635 211.58 64.7035 211.844C65.1515 212.1 65.4995 212.476 65.7475 212.972C66.0035 213.46 66.1315 214.06 66.1315 214.772ZM61.2715 214.772C61.2715 215.532 61.4195 216.136 61.7155 216.584C62.0195 217.024 62.4995 217.244 63.1555 217.244C63.8035 217.244 64.2795 217.024 64.5835 216.584C64.8875 216.136 65.0395 215.532 65.0395 214.772C65.0395 214.012 64.8875 213.416 64.5835 212.984C64.2795 212.552 63.7995 212.336 63.1435 212.336C62.4875 212.336 62.0115 212.552 61.7155 212.984C61.4195 213.416 61.2715 214.012 61.2715 214.772ZM75.2868 211.568L72.6348 214.688L75.5148 218H74.3148L71.5308 214.736V218H70.5468V214.736L67.7628 218H66.5628L69.4428 214.688L66.7908 211.568H67.9428L70.5468 214.688V211.568H71.5308V214.688L74.1468 211.568H75.2868ZM78.8204 211.448C79.3724 211.448 79.8444 211.568 80.2364 211.808C80.6364 212.048 80.9404 212.388 81.1484 212.828C81.3644 213.26 81.4724 213.768 81.4724 214.352V214.988H77.0684C77.0844 215.716 77.2684 216.272 77.6204 216.656C77.9804 217.032 78.4804 217.22 79.1204 217.22C79.5284 217.22 79.8884 217.184 80.2004 217.112C80.5204 217.032 80.8484 216.92 81.1844 216.776V217.7C80.8564 217.844 80.5324 217.948 80.2124 218.012C79.8924 218.084 79.5124 218.12 79.0724 218.12C78.4644 218.12 77.9244 217.996 77.4524 217.748C76.9884 217.5 76.6244 217.132 76.3604 216.644C76.1044 216.148 75.9764 215.544 75.9764 214.832C75.9764 214.128 76.0924 213.524 76.3244 213.02C76.5644 212.516 76.8964 212.128 77.3204 211.856C77.7524 211.584 78.2524 211.448 78.8204 211.448ZM78.8084 212.312C78.3044 212.312 77.9044 212.476 77.6084 212.804C77.3204 213.124 77.1484 213.572 77.0924 214.148H80.3684C80.3604 213.604 80.2324 213.164 79.9844 212.828C79.7364 212.484 79.3444 212.312 78.8084 212.312ZM84.1658 211.568V214.244H87.6578V211.568H88.7138V218H87.6578V215.132H84.1658V218H83.1098V211.568H84.1658ZM91.7465 211.568V215.492C91.7465 215.588 91.7425 215.732 91.7345 215.924C91.7265 216.116 91.7145 216.308 91.6985 216.5C91.6905 216.692 91.6825 216.844 91.6745 216.956L95.1185 211.568H96.4145V218H95.4305V214.208C95.4305 214.08 95.4305 213.912 95.4305 213.704C95.4385 213.496 95.4465 213.292 95.4545 213.092C95.4625 212.884 95.4705 212.728 95.4785 212.624L92.0585 218H90.7505V211.568H91.7465ZM98.8574 218H97.6334L99.4694 215.3C99.2214 215.236 98.9814 215.136 98.7494 215C98.5174 214.856 98.3294 214.66 98.1854 214.412C98.0414 214.156 97.9694 213.84 97.9694 213.464C97.9694 212.848 98.1774 212.38 98.5934 212.06C99.0094 211.732 99.5614 211.568 100.249 211.568H103.129V218H102.073V215.444H100.513L98.8574 218ZM98.9894 213.476C98.9894 213.844 99.1254 214.12 99.3974 214.304C99.6774 214.48 100.065 214.568 100.561 214.568H102.073V212.444H100.357C99.8694 212.444 99.5174 212.54 99.3014 212.732C99.0934 212.924 98.9894 213.172 98.9894 213.476ZM105.597 218.084C105.349 218.084 105.141 218 104.973 217.832C104.805 217.664 104.721 217.456 104.721 217.208C104.721 216.96 104.805 216.752 104.973 216.584C105.141 216.416 105.349 216.332 105.597 216.332C105.837 216.332 106.041 216.416 106.209 216.584C106.377 216.752 106.461 216.96 106.461 217.208C106.461 217.456 106.377 217.664 106.209 217.832C106.041 218 105.837 218.084 105.597 218.084ZM111.32 209.432H113.768C114.84 209.432 115.648 209.592 116.192 209.912C116.744 210.224 117.02 210.772 117.02 211.556C117.02 212.06 116.88 212.48 116.6 212.816C116.32 213.144 115.916 213.356 115.388 213.452V213.512C115.748 213.568 116.072 213.672 116.36 213.824C116.656 213.976 116.888 214.192 117.056 214.472C117.224 214.752 117.308 215.116 117.308 215.564C117.308 216.34 117.04 216.94 116.504 217.364C115.976 217.788 115.252 218 114.332 218H111.32V209.432ZM112.4 213.08H113.984C114.72 213.08 115.224 212.964 115.496 212.732C115.768 212.492 115.904 212.14 115.904 211.676C115.904 211.204 115.736 210.868 115.4 210.668C115.072 210.46 114.544 210.356 113.816 210.356H112.4V213.08ZM112.4 213.98V217.088H114.128C114.888 217.088 115.416 216.94 115.712 216.644C116.008 216.348 116.156 215.96 116.156 215.48C116.156 215.032 116 214.672 115.688 214.4C115.384 214.12 114.836 213.98 114.044 213.98H112.4ZM121.561 218.12C120.993 218.12 120.485 218.004 120.037 217.772C119.597 217.54 119.249 217.18 118.993 216.692C118.745 216.204 118.621 215.58 118.621 214.82C118.621 214.028 118.753 213.384 119.017 212.888C119.281 212.392 119.637 212.028 120.085 211.796C120.541 211.564 121.057 211.448 121.633 211.448C121.961 211.448 122.277 211.484 122.581 211.556C122.885 211.62 123.133 211.7 123.325 211.796L123.001 212.672C122.809 212.6 122.585 212.532 122.329 212.468C122.073 212.404 121.833 212.372 121.609 212.372C120.345 212.372 119.713 213.184 119.713 214.808C119.713 215.584 119.865 216.18 120.169 216.596C120.481 217.004 120.941 217.208 121.549 217.208C121.901 217.208 122.209 217.172 122.473 217.1C122.745 217.028 122.993 216.94 123.217 216.836V217.772C123.001 217.884 122.761 217.968 122.497 218.024C122.241 218.088 121.929 218.12 121.561 218.12ZM127.231 211.448C127.783 211.448 128.255 211.568 128.647 211.808C129.047 212.048 129.351 212.388 129.559 212.828C129.775 213.26 129.883 213.768 129.883 214.352V214.988H125.479C125.495 215.716 125.679 216.272 126.031 216.656C126.391 217.032 126.891 217.22 127.531 217.22C127.939 217.22 128.299 217.184 128.611 217.112C128.931 217.032 129.259 216.92 129.595 216.776V217.7C129.267 217.844 128.943 217.948 128.623 218.012C128.303 218.084 127.923 218.12 127.483 218.12C126.875 218.12 126.335 217.996 125.863 217.748C125.399 217.5 125.035 217.132 124.771 216.644C124.515 216.148 124.387 215.544 124.387 214.832C124.387 214.128 124.503 213.524 124.735 213.02C124.975 212.516 125.307 212.128 125.731 211.856C126.163 211.584 126.663 211.448 127.231 211.448ZM127.219 212.312C126.715 212.312 126.315 212.476 126.019 212.804C125.731 213.124 125.559 213.572 125.503 214.148H128.779C128.771 213.604 128.643 213.164 128.395 212.828C128.147 212.484 127.755 212.312 127.219 212.312ZM140.229 214.772C140.229 215.836 139.957 216.66 139.413 217.244C138.877 217.828 138.149 218.12 137.229 218.12C136.661 218.12 136.153 217.992 135.705 217.736C135.265 217.472 134.917 217.092 134.661 216.596C134.405 216.092 134.277 215.484 134.277 214.772C134.277 213.708 134.545 212.888 135.081 212.312C135.617 211.736 136.345 211.448 137.265 211.448C137.849 211.448 138.361 211.58 138.801 211.844C139.249 212.1 139.597 212.476 139.845 212.972C140.101 213.46 140.229 214.06 140.229 214.772ZM135.369 214.772C135.369 215.532 135.517 216.136 135.813 216.584C136.117 217.024 136.597 217.244 137.253 217.244C137.901 217.244 138.377 217.024 138.681 216.584C138.985 216.136 139.137 215.532 139.137 214.772C139.137 214.012 138.985 213.416 138.681 212.984C138.377 212.552 137.897 212.336 137.241 212.336C136.585 212.336 136.109 212.552 135.813 212.984C135.517 213.416 135.369 214.012 135.369 214.772ZM145.827 211.568V212.456H142.959V218H141.903V211.568H145.827ZM150.154 211.448C150.946 211.448 151.582 211.724 152.062 212.276C152.55 212.828 152.794 213.66 152.794 214.772C152.794 215.868 152.55 216.7 152.062 217.268C151.582 217.836 150.942 218.12 150.142 218.12C149.646 218.12 149.234 218.028 148.906 217.844C148.586 217.652 148.334 217.432 148.15 217.184H148.078C148.094 217.32 148.11 217.492 148.126 217.7C148.142 217.908 148.15 218.088 148.15 218.24V220.88H147.094V211.568H147.958L148.102 212.444H148.15C148.342 212.164 148.594 211.928 148.906 211.736C149.218 211.544 149.634 211.448 150.154 211.448ZM149.962 212.336C149.306 212.336 148.842 212.52 148.57 212.888C148.306 213.256 148.166 213.816 148.15 214.568V214.772C148.15 215.564 148.278 216.176 148.534 216.608C148.798 217.032 149.282 217.244 149.986 217.244C150.378 217.244 150.698 217.136 150.946 216.92C151.202 216.704 151.39 216.412 151.51 216.044C151.638 215.668 151.702 215.24 151.702 214.76C151.702 214.024 151.558 213.436 151.27 212.996C150.99 212.556 150.554 212.336 149.962 212.336ZM156.913 211.46C157.697 211.46 158.277 211.632 158.653 211.976C159.029 212.32 159.217 212.868 159.217 213.62V218H158.449L158.245 217.088H158.197C157.917 217.44 157.621 217.7 157.309 217.868C157.005 218.036 156.581 218.12 156.037 218.12C155.453 218.12 154.969 217.968 154.585 217.664C154.201 217.352 154.009 216.868 154.009 216.212C154.009 215.572 154.261 215.08 154.765 214.736C155.269 214.384 156.045 214.192 157.093 214.16L158.185 214.124V213.74C158.185 213.204 158.069 212.832 157.837 212.624C157.605 212.416 157.277 212.312 156.853 212.312C156.517 212.312 156.197 212.364 155.893 212.468C155.589 212.564 155.305 212.676 155.041 212.804L154.717 212.012C154.997 211.86 155.329 211.732 155.713 211.628C156.097 211.516 156.497 211.46 156.913 211.46ZM158.173 214.856L157.225 214.892C156.425 214.924 155.869 215.052 155.557 215.276C155.253 215.5 155.101 215.816 155.101 216.224C155.101 216.584 155.209 216.848 155.425 217.016C155.649 217.184 155.933 217.268 156.277 217.268C156.821 217.268 157.273 217.12 157.633 216.824C157.993 216.52 158.173 216.056 158.173 215.432V214.856ZM162.26 211.568V214.244H165.752V211.568H166.808V218H165.752V215.132H162.26V218H161.204V211.568H162.26ZM169.84 211.568V215.492C169.84 215.588 169.836 215.732 169.828 215.924C169.82 216.116 169.808 216.308 169.792 216.5C169.784 216.692 169.776 216.844 169.768 216.956L173.212 211.568H174.508V218H173.524V214.208C173.524 214.08 173.524 213.912 173.524 213.704C173.532 213.496 173.54 213.292 173.548 213.092C173.556 212.884 173.564 212.728 173.572 212.624L170.152 218H168.844V211.568H169.84ZM177.479 211.568V213.908C177.479 214.644 177.891 215.012 178.715 215.012C179.115 215.012 179.479 214.952 179.807 214.832C180.135 214.704 180.471 214.536 180.815 214.328V211.568H181.871V218H180.815V215.132C180.455 215.364 180.099 215.548 179.747 215.684C179.403 215.812 178.987 215.876 178.499 215.876C177.843 215.876 177.331 215.704 176.963 215.36C176.603 215.016 176.423 214.556 176.423 213.98V211.568H177.479ZM184.911 211.568V215.492C184.911 215.588 184.907 215.732 184.899 215.924C184.891 216.116 184.879 216.308 184.863 216.5C184.855 216.692 184.847 216.844 184.839 216.956L188.283 211.568H189.579V218H188.595V214.208C188.595 214.08 188.595 213.912 188.595 213.704C188.603 213.496 188.611 213.292 188.619 213.092C188.627 212.884 188.635 212.728 188.643 212.624L185.223 218H183.915V211.568H184.911ZM196.797 213.188C196.797 213.588 196.677 213.9 196.437 214.124C196.197 214.348 195.889 214.5 195.513 214.58V214.628C195.913 214.684 196.261 214.828 196.557 215.06C196.853 215.284 197.001 215.636 197.001 216.116C197.001 216.66 196.797 217.112 196.389 217.472C195.989 217.824 195.325 218 194.397 218H191.625V211.568H194.385C194.841 211.568 195.249 211.62 195.609 211.724C195.977 211.82 196.265 211.988 196.473 212.228C196.689 212.46 196.797 212.78 196.797 213.188ZM195.729 213.32C195.729 213.016 195.617 212.796 195.393 212.66C195.177 212.516 194.821 212.444 194.325 212.444H192.681V214.208H194.133C195.197 214.208 195.729 213.912 195.729 213.32ZM195.909 216.116C195.909 215.748 195.769 215.484 195.489 215.324C195.209 215.164 194.797 215.084 194.253 215.084H192.681V217.148H194.277C194.805 217.148 195.209 217.072 195.489 216.92C195.769 216.76 195.909 216.492 195.909 216.116ZM200.976 211.46C201.76 211.46 202.34 211.632 202.716 211.976C203.092 212.32 203.28 212.868 203.28 213.62V218H202.512L202.308 217.088H202.26C201.98 217.44 201.684 217.7 201.372 217.868C201.068 218.036 200.644 218.12 200.1 218.12C199.516 218.12 199.032 217.968 198.648 217.664C198.264 217.352 198.072 216.868 198.072 216.212C198.072 215.572 198.324 215.08 198.828 214.736C199.332 214.384 200.108 214.192 201.156 214.16L202.248 214.124V213.74C202.248 213.204 202.132 212.832 201.9 212.624C201.668 212.416 201.34 212.312 200.916 212.312C200.58 212.312 200.26 212.364 199.956 212.468C199.652 212.564 199.368 212.676 199.104 212.804L198.78 212.012C199.06 211.86 199.392 211.732 199.776 211.628C200.16 211.516 200.56 211.46 200.976 211.46ZM202.236 214.856L201.288 214.892C200.488 214.924 199.932 215.052 199.62 215.276C199.316 215.5 199.164 215.816 199.164 216.224C199.164 216.584 199.272 216.848 199.488 217.016C199.712 217.184 199.996 217.268 200.34 217.268C200.884 217.268 201.336 217.12 201.696 216.824C202.056 216.52 202.236 216.056 202.236 215.432V214.856ZM207.75 211.448C208.302 211.448 208.774 211.568 209.166 211.808C209.566 212.048 209.87 212.388 210.078 212.828C210.294 213.26 210.402 213.768 210.402 214.352V214.988H205.998C206.014 215.716 206.198 216.272 206.55 216.656C206.91 217.032 207.41 217.22 208.05 217.22C208.458 217.22 208.818 217.184 209.13 217.112C209.45 217.032 209.778 216.92 210.114 216.776V217.7C209.786 217.844 209.462 217.948 209.142 218.012C208.822 218.084 208.442 218.12 208.002 218.12C207.394 218.12 206.854 217.996 206.382 217.748C205.918 217.5 205.554 217.132 205.29 216.644C205.034 216.148 204.906 215.544 204.906 214.832C204.906 214.128 205.022 213.524 205.254 213.02C205.494 212.516 205.826 212.128 206.25 211.856C206.682 211.584 207.182 211.448 207.75 211.448ZM207.738 212.312C207.234 212.312 206.834 212.476 206.538 212.804C206.25 213.124 206.078 213.572 206.022 214.148H209.298C209.29 213.604 209.162 213.164 208.914 212.828C208.666 212.484 208.274 212.312 207.738 212.312ZM216.48 212.456H214.38V218H213.336V212.456H211.26V211.568H216.48V212.456ZM220.209 218.12C219.641 218.12 219.133 218.004 218.685 217.772C218.245 217.54 217.897 217.18 217.641 216.692C217.393 216.204 217.269 215.58 217.269 214.82C217.269 214.028 217.401 213.384 217.665 212.888C217.929 212.392 218.285 212.028 218.733 211.796C219.189 211.564 219.705 211.448 220.281 211.448C220.609 211.448 220.925 211.484 221.229 211.556C221.533 211.62 221.781 211.7 221.973 211.796L221.649 212.672C221.457 212.6 221.233 212.532 220.977 212.468C220.721 212.404 220.481 212.372 220.257 212.372C218.993 212.372 218.361 213.184 218.361 214.808C218.361 215.584 218.513 216.18 218.817 216.596C219.129 217.004 219.589 217.208 220.197 217.208C220.549 217.208 220.857 217.172 221.121 217.1C221.393 217.028 221.641 216.94 221.865 216.836V217.772C221.649 217.884 221.409 217.968 221.145 218.024C220.889 218.088 220.577 218.12 220.209 218.12ZM223.791 218H222.567L224.403 215.3C224.155 215.236 223.915 215.136 223.683 215C223.451 214.856 223.263 214.66 223.119 214.412C222.975 214.156 222.903 213.84 222.903 213.464C222.903 212.848 223.111 212.38 223.527 212.06C223.943 211.732 224.495 211.568 225.183 211.568H228.063V218H227.007V215.444H225.447L223.791 218ZM223.923 213.476C223.923 213.844 224.059 214.12 224.331 214.304C224.611 214.48 224.999 214.568 225.495 214.568H227.007V212.444H225.291C224.803 212.444 224.451 212.54 224.235 212.732C224.027 212.924 223.923 213.172 223.923 213.476ZM35.46 230.456H33.36V236H32.316V230.456H30.24V229.568H35.46V230.456ZM42.2018 232.772C42.2018 233.836 41.9298 234.66 41.3858 235.244C40.8498 235.828 40.1218 236.12 39.2018 236.12C38.6338 236.12 38.1258 235.992 37.6778 235.736C37.2378 235.472 36.8898 235.092 36.6338 234.596C36.3778 234.092 36.2498 233.484 36.2498 232.772C36.2498 231.708 36.5178 230.888 37.0538 230.312C37.5898 229.736 38.3178 229.448 39.2378 229.448C39.8218 229.448 40.3338 229.58 40.7738 229.844C41.2218 230.1 41.5698 230.476 41.8178 230.972C42.0738 231.46 42.2018 232.06 42.2018 232.772ZM37.3418 232.772C37.3418 233.532 37.4898 234.136 37.7858 234.584C38.0898 235.024 38.5698 235.244 39.2258 235.244C39.8738 235.244 40.3498 235.024 40.6538 234.584C40.9578 234.136 41.1098 233.532 41.1098 232.772C41.1098 232.012 40.9578 231.416 40.6538 230.984C40.3498 230.552 39.8698 230.336 39.2138 230.336C38.5578 230.336 38.0818 230.552 37.7858 230.984C37.4898 231.416 37.3418 232.012 37.3418 232.772ZM48.7715 236H47.7035V230.444H45.8075C45.7035 231.796 45.5595 232.888 45.3755 233.72C45.1915 234.544 44.9475 235.144 44.6435 235.52C44.3395 235.896 43.9555 236.084 43.4915 236.084C43.3875 236.084 43.2835 236.076 43.1795 236.06C43.0835 236.052 43.0035 236.032 42.9395 236V235.208C42.9875 235.224 43.0395 235.236 43.0955 235.244C43.1515 235.252 43.2075 235.256 43.2635 235.256C43.6955 235.256 44.0395 234.796 44.2955 233.876C44.5595 232.956 44.7595 231.52 44.8955 229.568H48.7715V236ZM51.869 232.208H53.777C55.449 232.208 56.285 232.816 56.285 234.032C56.285 234.632 56.081 235.112 55.673 235.472C55.265 235.824 54.617 236 53.729 236H50.813V229.568H51.869V232.208ZM55.229 234.092C55.229 233.7 55.089 233.436 54.809 233.3C54.537 233.156 54.153 233.084 53.657 233.084H51.869V235.148H53.681C54.129 235.148 54.497 235.068 54.785 234.908C55.081 234.748 55.229 234.476 55.229 234.092ZM61.742 229.568H62.894L60.146 232.664L63.122 236H61.898L58.994 232.736V236H57.938V229.568H58.994V232.688L61.742 229.568ZM69.6472 232.772C69.6472 233.836 69.3752 234.66 68.8312 235.244C68.2952 235.828 67.5672 236.12 66.6472 236.12C66.0792 236.12 65.5712 235.992 65.1232 235.736C64.6832 235.472 64.3352 235.092 64.0792 234.596C63.8232 234.092 63.6952 233.484 63.6952 232.772C63.6952 231.708 63.9632 230.888 64.4992 230.312C65.0352 229.736 65.7632 229.448 66.6832 229.448C67.2672 229.448 67.7792 229.58 68.2192 229.844C68.6672 230.1 69.0152 230.476 69.2632 230.972C69.5192 231.46 69.6472 232.06 69.6472 232.772ZM64.7872 232.772C64.7872 233.532 64.9352 234.136 65.2312 234.584C65.5352 235.024 66.0152 235.244 66.6712 235.244C67.3192 235.244 67.7952 235.024 68.0992 234.584C68.4032 234.136 68.5552 233.532 68.5552 232.772C68.5552 232.012 68.4032 231.416 68.0992 230.984C67.7952 230.552 67.3152 230.336 66.6592 230.336C66.0032 230.336 65.5272 230.552 65.2312 230.984C64.9352 231.416 64.7872 232.012 64.7872 232.772ZM79.61 231.188C79.61 231.588 79.49 231.9 79.25 232.124C79.01 232.348 78.702 232.5 78.326 232.58V232.628C78.726 232.684 79.074 232.828 79.37 233.06C79.666 233.284 79.814 233.636 79.814 234.116C79.814 234.66 79.61 235.112 79.202 235.472C78.802 235.824 78.138 236 77.21 236H74.438V229.568H77.198C77.654 229.568 78.062 229.62 78.422 229.724C78.79 229.82 79.078 229.988 79.286 230.228C79.502 230.46 79.61 230.78 79.61 231.188ZM78.542 231.32C78.542 231.016 78.43 230.796 78.206 230.66C77.99 230.516 77.634 230.444 77.138 230.444H75.494V232.208H76.946C78.01 232.208 78.542 231.912 78.542 231.32ZM78.722 234.116C78.722 233.748 78.582 233.484 78.302 233.324C78.022 233.164 77.61 233.084 77.066 233.084H75.494V235.148H77.09C77.618 235.148 78.022 235.072 78.302 234.92C78.582 234.76 78.722 234.492 78.722 234.116ZM83.788 229.46C84.572 229.46 85.152 229.632 85.528 229.976C85.904 230.32 86.092 230.868 86.092 231.62V236H85.324L85.12 235.088H85.072C84.792 235.44 84.496 235.7 84.184 235.868C83.88 236.036 83.456 236.12 82.912 236.12C82.328 236.12 81.844 235.968 81.46 235.664C81.076 235.352 80.884 234.868 80.884 234.212C80.884 233.572 81.136 233.08 81.64 232.736C82.144 232.384 82.92 232.192 83.968 232.16L85.06 232.124V231.74C85.06 231.204 84.944 230.832 84.712 230.624C84.48 230.416 84.152 230.312 83.728 230.312C83.392 230.312 83.072 230.364 82.768 230.468C82.464 230.564 82.18 230.676 81.916 230.804L81.592 230.012C81.872 229.86 82.204 229.732 82.588 229.628C82.972 229.516 83.372 229.46 83.788 229.46ZM85.048 232.856L84.1 232.892C83.3 232.924 82.744 233.052 82.432 233.276C82.128 233.5 81.976 233.816 81.976 234.224C81.976 234.584 82.084 234.848 82.3 235.016C82.524 235.184 82.808 235.268 83.152 235.268C83.696 235.268 84.148 235.12 84.508 234.824C84.868 234.52 85.048 234.056 85.048 233.432V232.856ZM96.8026 229.568V236H88.0786V229.568H89.1346V235.112H91.9066V229.568H92.9626V235.112H95.7466V229.568H96.8026ZM101.344 229.448C101.896 229.448 102.368 229.568 102.76 229.808C103.16 230.048 103.464 230.388 103.672 230.828C103.888 231.26 103.996 231.768 103.996 232.352V232.988H99.5918C99.6078 233.716 99.7918 234.272 100.144 234.656C100.504 235.032 101.004 235.22 101.644 235.22C102.052 235.22 102.412 235.184 102.724 235.112C103.044 235.032 103.372 234.92 103.708 234.776V235.7C103.38 235.844 103.056 235.948 102.736 236.012C102.416 236.084 102.036 236.12 101.596 236.12C100.988 236.12 100.448 235.996 99.9758 235.748C99.5118 235.5 99.1478 235.132 98.8838 234.644C98.6278 234.148 98.4998 233.544 98.4998 232.832C98.4998 232.128 98.6158 231.524 98.8478 231.02C99.0878 230.516 99.4198 230.128 99.8438 229.856C100.276 229.584 100.776 229.448 101.344 229.448ZM101.332 230.312C100.828 230.312 100.428 230.476 100.132 230.804C99.8438 231.124 99.6718 231.572 99.6158 232.148H102.892C102.884 231.604 102.756 231.164 102.508 230.828C102.26 230.484 101.868 230.312 101.332 230.312ZM106.629 229.568V233.492C106.629 233.588 106.625 233.732 106.617 233.924C106.609 234.116 106.597 234.308 106.581 234.5C106.573 234.692 106.565 234.844 106.557 234.956L110.001 229.568H111.297V236H110.313V232.208C110.313 232.08 110.313 231.912 110.313 231.704C110.321 231.496 110.329 231.292 110.337 231.092C110.345 230.884 110.353 230.728 110.361 230.624L106.941 236H105.633V229.568H106.629ZM110.841 226.904C110.785 227.504 110.581 227.96 110.229 228.272C109.885 228.576 109.333 228.728 108.573 228.728C107.789 228.728 107.233 228.576 106.905 228.272C106.585 227.968 106.405 227.512 106.365 226.904H107.349C107.389 227.336 107.501 227.628 107.685 227.78C107.877 227.924 108.181 227.996 108.597 227.996C108.965 227.996 109.253 227.92 109.461 227.768C109.677 227.608 109.805 227.32 109.845 226.904H110.841ZM120.301 226.88V229.472C120.941 229.528 121.497 229.696 121.969 229.976C122.449 230.256 122.821 230.632 123.085 231.104C123.349 231.576 123.481 232.136 123.481 232.784C123.481 233.752 123.197 234.524 122.629 235.1C122.069 235.676 121.293 236.008 120.301 236.096V238.88H119.269V236.096C118.637 236.04 118.081 235.876 117.601 235.604C117.121 235.324 116.749 234.948 116.485 234.476C116.221 233.996 116.089 233.432 116.089 232.784C116.089 231.808 116.369 231.032 116.929 230.456C117.497 229.88 118.289 229.552 119.305 229.472V226.88H120.301ZM119.305 230.348C118.569 230.42 118.033 230.664 117.697 231.08C117.361 231.488 117.193 232.056 117.193 232.784C117.193 233.512 117.361 234.084 117.697 234.5C118.041 234.916 118.577 235.16 119.305 235.232V230.348ZM120.301 230.36V235.232C121.021 235.152 121.549 234.904 121.885 234.488C122.221 234.072 122.389 233.504 122.389 232.784C122.389 232.064 122.217 231.5 121.873 231.092C121.537 230.684 121.013 230.44 120.301 230.36ZM127.593 229.46C128.377 229.46 128.957 229.632 129.333 229.976C129.709 230.32 129.897 230.868 129.897 231.62V236H129.129L128.925 235.088H128.877C128.597 235.44 128.301 235.7 127.989 235.868C127.685 236.036 127.261 236.12 126.717 236.12C126.133 236.12 125.649 235.968 125.265 235.664C124.881 235.352 124.689 234.868 124.689 234.212C124.689 233.572 124.941 233.08 125.445 232.736C125.949 232.384 126.725 232.192 127.773 232.16L128.865 232.124V231.74C128.865 231.204 128.749 230.832 128.517 230.624C128.285 230.416 127.957 230.312 127.533 230.312C127.197 230.312 126.877 230.364 126.573 230.468C126.269 230.564 125.985 230.676 125.721 230.804L125.397 230.012C125.677 229.86 126.009 229.732 126.393 229.628C126.777 229.516 127.177 229.46 127.593 229.46ZM128.853 232.856L127.905 232.892C127.105 232.924 126.549 233.052 126.237 233.276C125.933 233.5 125.781 233.816 125.781 234.224C125.781 234.584 125.889 234.848 126.105 235.016C126.329 235.184 126.613 235.268 126.957 235.268C127.501 235.268 127.953 235.12 128.313 234.824C128.673 234.52 128.853 234.056 128.853 233.432V232.856ZM132.939 229.568V232.244H136.431V229.568H137.487V236H136.431V233.132H132.939V236H131.883V229.568H132.939ZM143.964 230.456H141.864V236H140.82V230.456H138.744V229.568H143.964V230.456ZM147.667 229.46C148.451 229.46 149.031 229.632 149.407 229.976C149.783 230.32 149.971 230.868 149.971 231.62V236H149.203L148.999 235.088H148.951C148.671 235.44 148.375 235.7 148.063 235.868C147.759 236.036 147.335 236.12 146.791 236.12C146.207 236.12 145.723 235.968 145.339 235.664C144.955 235.352 144.763 234.868 144.763 234.212C144.763 233.572 145.015 233.08 145.519 232.736C146.023 232.384 146.799 232.192 147.847 232.16L148.939 232.124V231.74C148.939 231.204 148.823 230.832 148.591 230.624C148.359 230.416 148.031 230.312 147.607 230.312C147.271 230.312 146.951 230.364 146.647 230.468C146.343 230.564 146.059 230.676 145.795 230.804L145.471 230.012C145.751 229.86 146.083 229.732 146.467 229.628C146.851 229.516 147.251 229.46 147.667 229.46ZM148.927 232.856L147.979 232.892C147.179 232.924 146.623 233.052 146.311 233.276C146.007 233.5 145.855 233.816 145.855 234.224C145.855 234.584 145.963 234.848 146.179 235.016C146.403 235.184 146.687 235.268 147.031 235.268C147.575 235.268 148.027 235.12 148.387 234.824C148.747 234.52 148.927 234.056 148.927 233.432V232.856ZM153.65 229.448C154.386 229.448 154.97 229.596 155.402 229.892C155.842 230.18 156.062 230.596 156.062 231.14C156.062 231.532 155.954 231.844 155.738 232.076C155.522 232.3 155.226 232.464 154.85 232.568V232.616C155.106 232.688 155.342 232.788 155.558 232.916C155.774 233.044 155.946 233.212 156.074 233.42C156.21 233.628 156.278 233.896 156.278 234.224C156.278 234.76 156.054 235.212 155.606 235.58C155.166 235.94 154.474 236.12 153.53 236.12C153.066 236.12 152.646 236.08 152.27 236C151.894 235.928 151.582 235.828 151.333 235.7V234.752C151.606 234.88 151.926 234.996 152.294 235.1C152.67 235.204 153.078 235.256 153.518 235.256C153.998 235.256 154.402 235.176 154.73 235.016C155.066 234.848 155.234 234.564 155.234 234.164C155.234 233.444 154.622 233.084 153.398 233.084H152.534V232.22H153.23C153.782 232.22 154.222 232.148 154.55 232.004C154.886 231.852 155.054 231.596 155.054 231.236C155.054 230.932 154.926 230.704 154.67 230.552C154.422 230.4 154.062 230.324 153.59 230.324C153.238 230.324 152.926 230.36 152.654 230.432C152.39 230.496 152.098 230.596 151.778 230.732L151.406 229.892C152.078 229.596 152.826 229.448 153.65 229.448ZM158.836 229.568V233.492C158.836 233.588 158.832 233.732 158.824 233.924C158.816 234.116 158.804 234.308 158.788 234.5C158.78 234.692 158.772 234.844 158.764 234.956L162.208 229.568H163.504V236H162.52V232.208C162.52 232.08 162.52 231.912 162.52 231.704C162.528 231.496 162.536 231.292 162.544 231.092C162.552 230.884 162.56 230.728 162.568 230.624L159.148 236H157.84V229.568H158.836ZM168.035 229.448C168.587 229.448 169.059 229.568 169.451 229.808C169.851 230.048 170.155 230.388 170.363 230.828C170.579 231.26 170.687 231.768 170.687 232.352V232.988H166.283C166.299 233.716 166.483 234.272 166.835 234.656C167.195 235.032 167.695 235.22 168.335 235.22C168.743 235.22 169.103 235.184 169.415 235.112C169.735 235.032 170.063 234.92 170.399 234.776V235.7C170.071 235.844 169.747 235.948 169.427 236.012C169.107 236.084 168.727 236.12 168.287 236.12C167.679 236.12 167.139 235.996 166.667 235.748C166.203 235.5 165.839 235.132 165.575 234.644C165.319 234.148 165.191 233.544 165.191 232.832C165.191 232.128 165.307 231.524 165.539 231.02C165.779 230.516 166.111 230.128 166.535 229.856C166.967 229.584 167.467 229.448 168.035 229.448ZM168.023 230.312C167.519 230.312 167.119 230.476 166.823 230.804C166.535 231.124 166.363 231.572 166.307 232.148H169.583C169.575 231.604 169.447 231.164 169.199 230.828C168.951 230.484 168.559 230.312 168.023 230.312ZM173.321 229.568V233.492C173.321 233.588 173.317 233.732 173.309 233.924C173.301 234.116 173.289 234.308 173.273 234.5C173.265 234.692 173.257 234.844 173.249 234.956L176.693 229.568H177.989V236H177.005V232.208C177.005 232.08 177.005 231.912 177.005 231.704C177.013 231.496 177.021 231.292 177.029 231.092C177.037 230.884 177.045 230.728 177.053 230.624L173.633 236H172.325V229.568H173.321ZM177.533 226.904C177.477 227.504 177.273 227.96 176.921 228.272C176.577 228.576 176.025 228.728 175.265 228.728C174.481 228.728 173.925 228.576 173.597 228.272C173.277 227.968 173.097 227.512 173.057 226.904H174.041C174.081 227.336 174.193 227.628 174.377 227.78C174.569 227.924 174.873 227.996 175.289 227.996C175.657 227.996 175.945 227.92 176.153 227.768C176.369 227.608 176.497 227.32 176.537 226.904H177.533ZM181.632 227.66L181.476 233.48H180.336L180.18 227.66H181.632ZM180.948 236.084C180.7 236.084 180.492 236 180.324 235.832C180.156 235.664 180.072 235.456 180.072 235.208C180.072 234.96 180.156 234.752 180.324 234.584C180.492 234.416 180.7 234.332 180.948 234.332C181.188 234.332 181.392 234.416 181.56 234.584C181.728 234.752 181.812 234.96 181.812 235.208C181.812 235.456 181.728 235.664 181.56 235.832C181.392 236 181.188 236.084 180.948 236.084Z" fill="black"/>
<path d="M30.462 125.072C30.462 124.101 30.672 123.238 31.092 122.482C31.512 121.717 32.0953 121.124 32.842 120.704C33.598 120.275 34.452 120.06 35.404 120.06C36.5707 120.06 37.5693 120.368 38.4 120.984C39.2307 121.6 39.786 122.44 40.066 123.504H37.434C37.238 123.093 36.958 122.781 36.594 122.566C36.2393 122.351 35.8333 122.244 35.376 122.244C34.6387 122.244 34.0413 122.501 33.584 123.014C33.1267 123.527 32.898 124.213 32.898 125.072C32.898 125.931 33.1267 126.617 33.584 127.13C34.0413 127.643 34.6387 127.9 35.376 127.9C35.8333 127.9 36.2393 127.793 36.594 127.578C36.958 127.363 37.238 127.051 37.434 126.64H40.066C39.786 127.704 39.2307 128.544 38.4 129.16C37.5693 129.767 36.5707 130.07 35.404 130.07C34.452 130.07 33.598 129.86 32.842 129.44C32.0953 129.011 31.512 128.418 31.092 127.662C30.672 126.906 30.462 126.043 30.462 125.072ZM45.0881 130.098C44.3694 130.098 43.7254 129.981 43.1561 129.748C42.5867 129.515 42.1294 129.169 41.7841 128.712C41.4481 128.255 41.2707 127.704 41.2521 127.06H43.8001C43.8374 127.424 43.9634 127.704 44.1781 127.9C44.3927 128.087 44.6727 128.18 45.0181 128.18C45.3727 128.18 45.6527 128.101 45.8581 127.942C46.0634 127.774 46.1661 127.545 46.1661 127.256C46.1661 127.013 46.0821 126.813 45.9141 126.654C45.7554 126.495 45.5547 126.365 45.3121 126.262C45.0787 126.159 44.7427 126.043 44.3041 125.912C43.6694 125.716 43.1514 125.52 42.7501 125.324C42.3487 125.128 42.0034 124.839 41.7141 124.456C41.4247 124.073 41.2801 123.574 41.2801 122.958C41.2801 122.043 41.6114 121.329 42.2741 120.816C42.9367 120.293 43.8001 120.032 44.8641 120.032C45.9467 120.032 46.8194 120.293 47.4821 120.816C48.1447 121.329 48.4994 122.048 48.5461 122.972H45.9561C45.9374 122.655 45.8207 122.407 45.6061 122.23C45.3914 122.043 45.1161 121.95 44.7801 121.95C44.4907 121.95 44.2574 122.029 44.0801 122.188C43.9027 122.337 43.8141 122.557 43.8141 122.846C43.8141 123.163 43.9634 123.411 44.2621 123.588C44.5607 123.765 45.0274 123.957 45.6621 124.162C46.2967 124.377 46.8101 124.582 47.2021 124.778C47.6034 124.974 47.9487 125.259 48.2381 125.632C48.5274 126.005 48.6721 126.486 48.6721 127.074C48.6721 127.634 48.5274 128.143 48.2381 128.6C47.9581 129.057 47.5474 129.421 47.0061 129.692C46.4647 129.963 45.8254 130.098 45.0881 130.098ZM53.7013 130.098C52.9827 130.098 52.3387 129.981 51.7693 129.748C51.2 129.515 50.7427 129.169 50.3973 128.712C50.0613 128.255 49.884 127.704 49.8653 127.06H52.4133C52.4507 127.424 52.5767 127.704 52.7913 127.9C53.006 128.087 53.286 128.18 53.6313 128.18C53.986 128.18 54.266 128.101 54.4713 127.942C54.6767 127.774 54.7793 127.545 54.7793 127.256C54.7793 127.013 54.6953 126.813 54.5273 126.654C54.3687 126.495 54.168 126.365 53.9253 126.262C53.692 126.159 53.356 126.043 52.9173 125.912C52.2827 125.716 51.7647 125.52 51.3633 125.324C50.962 125.128 50.6167 124.839 50.3273 124.456C50.038 124.073 49.8933 123.574 49.8933 122.958C49.8933 122.043 50.2247 121.329 50.8873 120.816C51.55 120.293 52.4133 120.032 53.4773 120.032C54.56 120.032 55.4327 120.293 56.0953 120.816C56.758 121.329 57.1127 122.048 57.1593 122.972H54.5693C54.5507 122.655 54.434 122.407 54.2193 122.23C54.0047 122.043 53.7293 121.95 53.3933 121.95C53.104 121.95 52.8707 122.029 52.6933 122.188C52.516 122.337 52.4273 122.557 52.4273 122.846C52.4273 123.163 52.5767 123.411 52.8753 123.588C53.174 123.765 53.6407 123.957 54.2753 124.162C54.91 124.377 55.4233 124.582 55.8153 124.778C56.2167 124.974 56.562 125.259 56.8513 125.632C57.1407 126.005 57.2853 126.486 57.2853 127.074C57.2853 127.634 57.1407 128.143 56.8513 128.6C56.5713 129.057 56.1607 129.421 55.6193 129.692C55.078 129.963 54.4387 130.098 53.7013 130.098ZM58.6046 122.664C58.642 121.665 58.9686 120.895 59.5846 120.354C60.2006 119.813 61.036 119.542 62.0906 119.542C62.7906 119.542 63.388 119.663 63.8826 119.906C64.3866 120.149 64.7646 120.48 65.0166 120.9C65.278 121.32 65.4086 121.791 65.4086 122.314C65.4086 122.93 65.2546 123.434 64.9466 123.826C64.6386 124.209 64.2793 124.47 63.8686 124.61V124.666C64.4006 124.843 64.8206 125.137 65.1286 125.548C65.4366 125.959 65.5906 126.486 65.5906 127.13C65.5906 127.709 65.4553 128.222 65.1846 128.67C64.9233 129.109 64.536 129.454 64.0226 129.706C63.5186 129.958 62.9166 130.084 62.2166 130.084C61.0966 130.084 60.2006 129.809 59.5286 129.258C58.866 128.707 58.516 127.877 58.4786 126.766H60.8026C60.812 127.177 60.9286 127.503 61.1526 127.746C61.3766 127.979 61.7033 128.096 62.1326 128.096C62.4966 128.096 62.7766 127.993 62.9726 127.788C63.178 127.573 63.2806 127.293 63.2806 126.948C63.2806 126.5 63.136 126.178 62.8466 125.982C62.5666 125.777 62.114 125.674 61.4886 125.674H61.0406V123.728H61.4886C61.9646 123.728 62.3473 123.649 62.6366 123.49C62.9353 123.322 63.0846 123.028 63.0846 122.608C63.0846 122.272 62.9913 122.011 62.8046 121.824C62.618 121.637 62.3613 121.544 62.0346 121.544C61.68 121.544 61.414 121.651 61.2366 121.866C61.0686 122.081 60.9706 122.347 60.9426 122.664H58.6046Z" fill="black"/>
</svg>
