<svg width="270" height="270" viewBox="0 0 270 270" fill="none" xmlns="http://www.w3.org/2000/svg">
<path d="M30.2121 62.4294C30.2121 67.8596 35.489 72.9288 43.8086 75.7861C42.1473 84.1903 43.5108 90.9639 48.0654 93.6034C52.747 96.3162 59.7215 94.4383 66.3412 88.624C72.7938 94.2036 79.3154 96.3995 83.8657 93.7525C88.5428 91.0319 89.9654 83.7988 88.2581 75.1323C96.9234 72.2536 101.77 67.931 101.77 62.4294C101.77 57.1252 96.4838 52.5363 88.2764 49.6972C90.1144 40.6726 88.557 34.0633 83.8139 31.3149C79.2411 28.6652 72.6438 30.9747 66.0962 36.7004C59.2846 30.623 52.7524 28.7675 48.0139 31.5239C43.4455 34.1811 42.1419 41.0779 43.8086 49.6376C35.77 52.4539 30.2121 57.1464 30.2121 62.4294Z" fill="white"/>
<path d="M86.5381 52.5166C85.8789 52.2885 85.1958 52.0728 84.4924 51.8688C84.608 51.3947 84.7141 50.9267 84.8085 50.4667C86.357 42.9133 85.3445 36.8283 81.887 34.8248C78.5718 32.9038 73.1499 34.9068 67.674 39.6952C67.1475 40.1557 66.6194 40.6432 66.0916 41.1541C65.7399 40.8161 65.3888 40.4894 65.0386 40.177C59.2998 35.0568 53.5474 32.8991 50.0934 34.9084C46.7813 36.835 45.8004 42.5555 47.1944 49.7139C47.329 50.4053 47.4863 51.1114 47.6643 51.8293C46.8501 52.0616 46.0642 52.3091 45.3122 52.5725C38.584 54.9296 34.2871 58.6237 34.2871 62.4554C34.2871 66.4129 38.8998 70.3823 45.9078 72.7892C46.4608 72.9791 47.0346 73.1587 47.626 73.3292C47.4341 74.1057 47.2671 74.8665 47.1269 75.6086C45.7978 82.6428 46.8358 88.2282 50.1391 90.1427C53.5511 92.1197 59.2774 90.0875 64.8533 85.1899C65.294 84.8028 65.7363 84.3922 66.1794 83.9619C66.7537 84.5176 67.3271 85.0435 67.8974 85.5368C73.2984 90.207 78.6327 92.0928 81.933 90.173C85.3416 88.1902 86.4493 82.1902 85.0112 74.8902C84.9013 74.3326 84.7735 73.7631 84.6299 73.1834C85.0321 73.0639 85.4269 72.9406 85.8118 72.8124C93.0972 70.3869 97.8373 66.4658 97.8373 62.4554C97.8373 58.6098 93.4018 54.8908 86.5381 52.5166Z" fill="#53C1DE"/>
<path d="M84.958 70.2229C84.6105 70.3385 84.2539 70.4502 83.8906 70.5586C83.0863 68.0001 82.0009 65.2795 80.6725 62.4687C81.9401 59.7248 82.9836 57.039 83.7654 54.4971C84.4155 54.6861 85.0465 54.8855 85.6545 55.0959C91.5353 57.1302 95.1225 60.1379 95.1225 62.4554C95.1225 64.924 91.2484 68.1285 84.958 70.2229ZM82.3479 75.4199C82.9839 78.6479 83.0747 81.5663 82.6534 83.8478C82.2749 85.8979 81.5138 87.2647 80.5726 87.8121C78.5698 88.977 74.287 87.4628 69.668 83.4689C69.1385 83.011 68.6051 82.5222 68.0701 82.0048C69.8607 80.0369 71.6504 77.7491 73.397 75.2084C76.4692 74.9344 79.3717 74.4866 82.0039 73.8752C82.1335 74.4007 82.2487 74.916 82.3479 75.4199ZM55.9528 87.6108C53.9961 88.3052 52.4376 88.3251 51.4956 87.7793C49.491 86.6175 48.6577 82.133 49.7944 76.1174C49.9246 75.4284 50.0796 74.7208 50.2582 73.9974C52.8615 74.5758 55.7427 74.9921 58.8223 75.2429C60.5807 77.7291 62.4221 80.0144 64.2777 82.0153C63.8722 82.4086 63.4684 82.783 63.0668 83.1358C60.6012 85.3015 58.1303 86.838 55.9528 87.6108ZM46.7858 70.2078C43.687 69.1436 41.1279 67.7604 39.3738 66.251C37.7976 64.8946 37.0018 63.548 37.0018 62.4554C37.0018 60.1301 40.4518 57.1643 46.2058 55.1484C46.904 54.9038 47.6349 54.6733 48.3933 54.4568C49.1885 57.0561 50.2317 59.7737 51.4906 62.5218C50.2154 65.3107 49.1574 68.0716 48.3544 70.7013C47.8137 70.5452 47.2898 70.3808 46.7858 70.2078ZM49.8587 49.19C48.6643 43.0568 49.4575 38.4302 51.4535 37.2692C53.5796 36.0325 58.2809 37.7959 63.2359 42.2169C63.5527 42.4994 63.8707 42.7952 64.1895 43.1012C62.3431 45.0934 60.5186 47.3615 58.7758 49.833C55.787 50.1114 52.926 50.5585 50.2955 51.1573C50.1301 50.4888 49.9836 49.8321 49.8587 49.19ZM77.2714 55.9916C76.6425 54.9002 75.997 53.8346 75.3388 52.7981C77.3665 53.0556 79.3092 53.3975 81.1336 53.8159C80.5858 55.5798 79.9032 57.424 79.0996 59.3146C78.5231 58.2149 77.9134 57.1061 77.2714 55.9916ZM66.0925 45.0508C67.3447 46.4139 68.5988 47.9359 69.8322 49.5872C68.5893 49.5283 67.3309 49.4976 66.0622 49.4976C64.8055 49.4976 63.5564 49.5276 62.3212 49.5855C63.5558 47.9496 64.8207 46.4296 66.0925 45.0508ZM54.8421 56.0105C54.2139 57.1049 53.6155 58.2077 53.0481 59.3125C52.2576 57.4285 51.5812 55.5759 51.0287 53.7871C52.8419 53.3793 54.7755 53.046 56.7902 52.7933C56.1228 53.8393 55.4719 54.9128 54.8421 56.0102V56.0105ZM56.8482 72.3121C54.7666 72.0787 52.804 71.7625 50.9913 71.366C51.5526 69.5452 52.2439 67.6531 53.0512 65.7285C53.6201 66.8325 54.2208 67.9357 54.8528 69.0326H54.8529C55.4967 70.1501 56.1637 71.2447 56.8482 72.3121ZM66.1676 80.0523C64.8809 78.6573 63.5975 77.1142 62.344 75.4544C63.5608 75.5023 64.8014 75.5269 66.0622 75.5269C67.3575 75.5269 68.638 75.4975 69.8984 75.4412C68.6609 77.1309 67.4114 78.6764 66.1676 80.0523ZM79.1255 65.6304C79.9749 67.5758 80.6909 69.4581 81.2595 71.2478C79.4169 71.6702 77.4275 72.0104 75.3314 72.2632C75.9911 71.2127 76.6423 70.1288 77.2822 69.0139C77.9296 67.8858 78.5443 66.7561 79.1255 65.6304ZM74.9306 67.651C73.9372 69.3818 72.9173 71.034 71.8819 72.5936C69.9961 72.7291 68.0479 72.7989 66.0622 72.7989C64.0846 72.7989 62.1609 72.7372 60.3084 72.6164C59.2313 71.0363 58.1893 69.3792 57.2022 67.6659H57.2024C56.218 65.9573 55.3119 64.2342 54.4909 62.5209C55.3116 60.8035 56.2154 59.0785 57.1942 57.373L57.1939 57.3733C58.1754 55.6632 59.2082 54.0142 60.2754 52.444C62.1654 52.3004 64.1035 52.2255 66.0621 52.2255H66.0622C68.0297 52.2255 69.9702 52.301 71.8597 52.4458C72.9105 54.0045 73.9364 55.6482 74.9217 57.3585C75.9181 59.0881 76.8335 60.8016 77.6613 62.4821C76.836 64.1915 75.9226 65.9223 74.9306 67.651ZM80.531 37.1881C82.6591 38.4212 83.4867 43.3945 82.1496 49.9161C82.0643 50.3322 81.9683 50.7561 81.864 51.1856C79.2274 50.5743 76.3644 50.1194 73.3668 49.8369C71.6206 47.3382 69.8111 45.0666 67.9947 43.0999C68.4831 42.6279 68.9707 42.1778 69.4563 41.753C74.148 37.6503 78.5331 36.0304 80.531 37.1881Z" fill="white"/>
<path d="M66.0622 56.7532C69.1963 56.7532 71.737 59.3061 71.737 62.4554C71.737 65.6046 69.1963 68.1576 66.0622 68.1576C62.9281 68.1576 60.3874 65.6046 60.3874 62.4554C60.3874 59.3061 62.9281 56.7532 66.0622 56.7532Z" fill="#53C1DE"/>
<rect x="0.5" y="0.5" width="269" height="269" stroke="black"/>
<path d="M35.88 130L33.836 126.29H33.262V130H30.868V120.172H34.886C35.6607 120.172 36.3187 120.307 36.86 120.578C37.4107 120.849 37.8213 121.222 38.092 121.698C38.3627 122.165 38.498 122.687 38.498 123.266C38.498 123.919 38.3113 124.503 37.938 125.016C37.574 125.529 37.0327 125.893 36.314 126.108L38.582 130H35.88ZM33.262 124.596H34.746C35.1847 124.596 35.5113 124.489 35.726 124.274C35.95 124.059 36.062 123.756 36.062 123.364C36.062 122.991 35.95 122.697 35.726 122.482C35.5113 122.267 35.1847 122.16 34.746 122.16H33.262V124.596ZM47.3648 125.968C47.3648 126.192 47.3508 126.425 47.3228 126.668H41.9048C41.9421 127.153 42.0961 127.527 42.3668 127.788C42.6468 128.04 42.9875 128.166 43.3888 128.166C43.9861 128.166 44.4015 127.914 44.6348 127.41H47.1828C47.0521 127.923 46.8141 128.385 46.4688 128.796C46.1328 129.207 45.7081 129.529 45.1948 129.762C44.6815 129.995 44.1075 130.112 43.4728 130.112C42.7075 130.112 42.0261 129.949 41.4288 129.622C40.8315 129.295 40.3648 128.829 40.0288 128.222C39.6928 127.615 39.5248 126.906 39.5248 126.094C39.5248 125.282 39.6881 124.573 40.0148 123.966C40.3508 123.359 40.8175 122.893 41.4148 122.566C42.0121 122.239 42.6981 122.076 43.4728 122.076C44.2288 122.076 44.9008 122.235 45.4888 122.552C46.0768 122.869 46.5341 123.322 46.8608 123.91C47.1968 124.498 47.3648 125.184 47.3648 125.968ZM44.9148 125.338C44.9148 124.927 44.7748 124.601 44.4948 124.358C44.2148 124.115 43.8648 123.994 43.4448 123.994C43.0435 123.994 42.7028 124.111 42.4228 124.344C42.1521 124.577 41.9841 124.909 41.9188 125.338H44.9148ZM48.1518 126.08C48.1518 125.277 48.3011 124.573 48.5998 123.966C48.9078 123.359 49.3231 122.893 49.8458 122.566C50.3684 122.239 50.9518 122.076 51.5958 122.076C52.1464 122.076 52.6271 122.188 53.0378 122.412C53.4578 122.636 53.7798 122.93 54.0038 123.294V122.188H56.3978V130H54.0038V128.894C53.7704 129.258 53.4438 129.552 53.0238 129.776C52.6131 130 52.1324 130.112 51.5818 130.112C50.9471 130.112 50.3684 129.949 49.8458 129.622C49.3231 129.286 48.9078 128.815 48.5998 128.208C48.3011 127.592 48.1518 126.883 48.1518 126.08ZM54.0038 126.094C54.0038 125.497 53.8358 125.025 53.4998 124.68C53.1731 124.335 52.7718 124.162 52.2958 124.162C51.8198 124.162 51.4138 124.335 51.0778 124.68C50.7511 125.016 50.5878 125.483 50.5878 126.08C50.5878 126.677 50.7511 127.153 51.0778 127.508C51.4138 127.853 51.8198 128.026 52.2958 128.026C52.7718 128.026 53.1731 127.853 53.4998 127.508C53.8358 127.163 54.0038 126.691 54.0038 126.094ZM57.6537 126.094C57.6537 125.282 57.8171 124.573 58.1437 123.966C58.4797 123.359 58.9417 122.893 59.5297 122.566C60.1271 122.239 60.8084 122.076 61.5737 122.076C62.5537 122.076 63.3704 122.333 64.0237 122.846C64.6864 123.359 65.1204 124.083 65.3257 125.016H62.7777C62.5631 124.419 62.1477 124.12 61.5317 124.12C61.0931 124.12 60.7431 124.293 60.4817 124.638C60.2204 124.974 60.0897 125.459 60.0897 126.094C60.0897 126.729 60.2204 127.219 60.4817 127.564C60.7431 127.9 61.0931 128.068 61.5317 128.068C62.1477 128.068 62.5631 127.769 62.7777 127.172H65.3257C65.1204 128.087 64.6864 128.805 64.0237 129.328C63.3611 129.851 62.5444 130.112 61.5737 130.112C60.8084 130.112 60.1271 129.949 59.5297 129.622C58.9417 129.295 58.4797 128.829 58.1437 128.222C57.8171 127.615 57.6537 126.906 57.6537 126.094ZM70.9603 127.97V130H69.7423C68.8743 130 68.1976 129.79 67.7123 129.37C67.2269 128.941 66.9843 128.245 66.9843 127.284V124.176H66.0323V122.188H66.9843V120.284H69.3783V122.188H70.9463V124.176H69.3783V127.312C69.3783 127.545 69.4343 127.713 69.5463 127.816C69.6583 127.919 69.8449 127.97 70.1063 127.97H70.9603Z" fill="black"/>
<path d="M32.784 156.26C32.384 156.26 32.02 156.308 31.692 156.404C31.364 156.492 31.068 156.596 30.804 156.716L30.36 155.816C30.688 155.656 31.064 155.532 31.488 155.444C31.912 155.356 32.348 155.312 32.796 155.312C33.716 155.312 34.472 155.496 35.064 155.864C35.664 156.232 36.112 156.74 36.408 157.388C36.704 158.028 36.852 158.756 36.852 159.572C36.852 160.508 36.7 161.316 36.396 161.996C36.092 162.676 35.632 163.2 35.016 163.568C34.408 163.936 33.64 164.12 32.712 164.12C32.216 164.12 31.796 164.092 31.452 164.036C31.108 163.98 30.768 163.892 30.432 163.772V162.836C30.768 162.924 31.108 163.004 31.452 163.076C31.796 163.14 32.16 163.172 32.544 163.172C33.576 163.172 34.352 162.9 34.872 162.356C35.4 161.804 35.68 161.016 35.712 159.992H31.548V159.044H35.7C35.62 158.164 35.32 157.48 34.8 156.992C34.288 156.504 33.616 156.26 32.784 156.26ZM43.0538 158.456H40.9538V164H39.9098V158.456H37.8338V157.568H43.0538V158.456ZM46.7568 157.46C47.5408 157.46 48.1208 157.632 48.4968 157.976C48.8728 158.32 49.0608 158.868 49.0608 159.62V164H48.2928L48.0888 163.088H48.0408C47.7608 163.44 47.4648 163.7 47.1528 163.868C46.8488 164.036 46.4248 164.12 45.8808 164.12C45.2968 164.12 44.8128 163.968 44.4288 163.664C44.0448 163.352 43.8528 162.868 43.8528 162.212C43.8528 161.572 44.1048 161.08 44.6088 160.736C45.1128 160.384 45.8888 160.192 46.9368 160.16L48.0288 160.124V159.74C48.0288 159.204 47.9128 158.832 47.6808 158.624C47.4488 158.416 47.1208 158.312 46.6968 158.312C46.3608 158.312 46.0408 158.364 45.7368 158.468C45.4328 158.564 45.1488 158.676 44.8848 158.804L44.5608 158.012C44.8408 157.86 45.1728 157.732 45.5568 157.628C45.9408 157.516 46.3408 157.46 46.7568 157.46ZM48.0168 160.856L47.0688 160.892C46.2688 160.924 45.7128 161.052 45.4008 161.276C45.0968 161.5 44.9448 161.816 44.9448 162.224C44.9448 162.584 45.0528 162.848 45.2688 163.016C45.4928 163.184 45.7768 163.268 46.1208 163.268C46.6648 163.268 47.1168 163.12 47.4768 162.824C47.8368 162.52 48.0168 162.056 48.0168 161.432V160.856ZM53.8285 160.136C53.8285 158.728 54.0405 157.632 54.4645 156.848C54.8885 156.056 55.5725 155.56 56.5165 155.36C57.0365 155.248 57.5445 155.148 58.0405 155.06C58.5365 154.972 59.0005 154.892 59.4325 154.82L59.6125 155.744C59.3325 155.784 59.0165 155.836 58.6645 155.9C58.3125 155.956 57.9645 156.016 57.6205 156.08C57.2765 156.136 56.9805 156.192 56.7325 156.248C56.2125 156.36 55.8005 156.632 55.4965 157.064C55.1925 157.488 55.0205 158.152 54.9805 159.056H55.0525C55.1645 158.904 55.3165 158.748 55.5085 158.588C55.7085 158.428 55.9445 158.292 56.2165 158.18C56.4965 158.068 56.8125 158.012 57.1645 158.012C57.9965 158.012 58.6245 158.28 59.0485 158.816C59.4725 159.352 59.6845 160.048 59.6845 160.904C59.6845 161.616 59.5605 162.212 59.3125 162.692C59.0645 163.172 58.7205 163.532 58.2805 163.772C57.8405 164.004 57.3285 164.12 56.7445 164.12C55.8565 164.12 55.1485 163.78 54.6205 163.1C54.0925 162.42 53.8285 161.432 53.8285 160.136ZM56.8285 163.244C57.3485 163.244 57.7685 163.076 58.0885 162.74C58.4085 162.404 58.5685 161.828 58.5685 161.012C58.5685 160.356 58.4445 159.84 58.1965 159.464C57.9565 159.08 57.5565 158.888 56.9965 158.888C56.6445 158.888 56.3245 158.968 56.0365 159.128C55.7485 159.28 55.5085 159.456 55.3165 159.656C55.1245 159.856 54.9885 160.024 54.9085 160.16C54.9085 160.552 54.9365 160.932 54.9925 161.3C55.0485 161.668 55.1445 162 55.2805 162.296C55.4245 162.584 55.6205 162.816 55.8685 162.992C56.1245 163.16 56.4445 163.244 56.8285 163.244ZM62.3441 157.568V161.492C62.3441 161.588 62.3401 161.732 62.3321 161.924C62.3241 162.116 62.3121 162.308 62.2961 162.5C62.2881 162.692 62.2801 162.844 62.2721 162.956L65.7161 157.568H67.0121V164H66.0281V160.208C66.0281 160.08 66.0281 159.912 66.0281 159.704C66.0361 159.496 66.0441 159.292 66.0521 159.092C66.0601 158.884 66.0681 158.728 66.0761 158.624L62.6561 164H61.3481V157.568H62.3441ZM68.7231 160.136C68.7231 158.728 68.9351 157.632 69.3591 156.848C69.7831 156.056 70.4671 155.56 71.4111 155.36C71.9311 155.248 72.4391 155.148 72.9351 155.06C73.4311 154.972 73.8951 154.892 74.3271 154.82L74.5071 155.744C74.2271 155.784 73.9111 155.836 73.5591 155.9C73.2071 155.956 72.8591 156.016 72.5151 156.08C72.1711 156.136 71.8751 156.192 71.6271 156.248C71.1071 156.36 70.6951 156.632 70.3911 157.064C70.0871 157.488 69.9151 158.152 69.8751 159.056H69.9471C70.0591 158.904 70.2111 158.748 70.4031 158.588C70.6031 158.428 70.8391 158.292 71.1111 158.18C71.3911 158.068 71.7071 158.012 72.0591 158.012C72.8911 158.012 73.5191 158.28 73.9431 158.816C74.3671 159.352 74.5791 160.048 74.5791 160.904C74.5791 161.616 74.4551 162.212 74.2071 162.692C73.9591 163.172 73.6151 163.532 73.1751 163.772C72.7351 164.004 72.2231 164.12 71.6391 164.12C70.7511 164.12 70.0431 163.78 69.5151 163.1C68.9871 162.42 68.7231 161.432 68.7231 160.136ZM71.7231 163.244C72.2431 163.244 72.6631 163.076 72.9831 162.74C73.3031 162.404 73.4631 161.828 73.4631 161.012C73.4631 160.356 73.3391 159.84 73.0911 159.464C72.8511 159.08 72.4511 158.888 71.8911 158.888C71.5391 158.888 71.2191 158.968 70.9311 159.128C70.6431 159.28 70.4031 159.456 70.2111 159.656C70.0191 159.856 69.8831 160.024 69.8031 160.16C69.8031 160.552 69.8311 160.932 69.8871 161.3C69.9431 161.668 70.0391 162 70.1751 162.296C70.3191 162.584 70.5151 162.816 70.7631 162.992C71.0191 163.16 71.3391 163.244 71.7231 163.244ZM81.1387 164H80.0707V158.444H78.1747C78.0707 159.796 77.9267 160.888 77.7427 161.72C77.5587 162.544 77.3147 163.144 77.0107 163.52C76.7067 163.896 76.3227 164.084 75.8587 164.084C75.7547 164.084 75.6507 164.076 75.5467 164.06C75.4507 164.052 75.3707 164.032 75.3067 164V163.208C75.3547 163.224 75.4067 163.236 75.4627 163.244C75.5187 163.252 75.5747 163.256 75.6307 163.256C76.0627 163.256 76.4067 162.796 76.6627 161.876C76.9267 160.956 77.1267 159.52 77.2627 157.568H81.1387V164ZM84.1762 157.568V161.492C84.1762 161.588 84.1722 161.732 84.1642 161.924C84.1562 162.116 84.1442 162.308 84.1282 162.5C84.1202 162.692 84.1122 162.844 84.1042 162.956L87.5482 157.568H88.8442V164H87.8602V160.208C87.8602 160.08 87.8602 159.912 87.8602 159.704C87.8682 159.496 87.8762 159.292 87.8842 159.092C87.8922 158.884 87.9002 158.728 87.9082 158.624L84.4882 164H83.1802V157.568H84.1762ZM96.4831 160.772C96.4831 161.836 96.2111 162.66 95.6671 163.244C95.1311 163.828 94.4031 164.12 93.4831 164.12C92.9151 164.12 92.4071 163.992 91.9591 163.736C91.5191 163.472 91.1711 163.092 90.9151 162.596C90.6591 162.092 90.5311 161.484 90.5311 160.772C90.5311 159.708 90.7991 158.888 91.3351 158.312C91.8711 157.736 92.5991 157.448 93.5191 157.448C94.1031 157.448 94.6151 157.58 95.0551 157.844C95.5031 158.1 95.8511 158.476 96.0991 158.972C96.3551 159.46 96.4831 160.06 96.4831 160.772ZM91.6231 160.772C91.6231 161.532 91.7711 162.136 92.0671 162.584C92.3711 163.024 92.8511 163.244 93.5071 163.244C94.1551 163.244 94.6311 163.024 94.9351 162.584C95.2391 162.136 95.3911 161.532 95.3911 160.772C95.3911 160.012 95.2391 159.416 94.9351 158.984C94.6311 158.552 94.1511 158.336 93.4951 158.336C92.8391 158.336 92.3631 158.552 92.0671 158.984C91.7711 159.416 91.6231 160.012 91.6231 160.772ZM102.48 158.456H100.38V164H99.3355V158.456H97.2595V157.568H102.48V158.456ZM106.113 157.448C106.665 157.448 107.137 157.568 107.529 157.808C107.929 158.048 108.233 158.388 108.441 158.828C108.657 159.26 108.765 159.768 108.765 160.352V160.988H104.361C104.377 161.716 104.561 162.272 104.913 162.656C105.273 163.032 105.773 163.22 106.413 163.22C106.821 163.22 107.181 163.184 107.493 163.112C107.813 163.032 108.141 162.92 108.477 162.776V163.7C108.149 163.844 107.825 163.948 107.505 164.012C107.185 164.084 106.805 164.12 106.365 164.12C105.757 164.12 105.217 163.996 104.745 163.748C104.281 163.5 103.917 163.132 103.653 162.644C103.397 162.148 103.269 161.544 103.269 160.832C103.269 160.128 103.385 159.524 103.617 159.02C103.857 158.516 104.189 158.128 104.613 157.856C105.045 157.584 105.545 157.448 106.113 157.448ZM106.101 158.312C105.597 158.312 105.197 158.476 104.901 158.804C104.613 159.124 104.441 159.572 104.385 160.148H107.661C107.653 159.604 107.525 159.164 107.277 158.828C107.029 158.484 106.637 158.312 106.101 158.312ZM114.207 157.568H115.359L112.611 160.664L115.587 164H114.363L111.459 160.736V164H110.403V157.568H111.459V160.688L114.207 157.568ZM119.19 157.46C119.974 157.46 120.554 157.632 120.93 157.976C121.306 158.32 121.494 158.868 121.494 159.62V164H120.726L120.522 163.088H120.474C120.194 163.44 119.898 163.7 119.586 163.868C119.282 164.036 118.858 164.12 118.314 164.12C117.73 164.12 117.246 163.968 116.862 163.664C116.478 163.352 116.286 162.868 116.286 162.212C116.286 161.572 116.538 161.08 117.042 160.736C117.546 160.384 118.322 160.192 119.37 160.16L120.462 160.124V159.74C120.462 159.204 120.346 158.832 120.114 158.624C119.882 158.416 119.554 158.312 119.13 158.312C118.794 158.312 118.474 158.364 118.17 158.468C117.866 158.564 117.582 158.676 117.318 158.804L116.994 158.012C117.274 157.86 117.606 157.732 117.99 157.628C118.374 157.516 118.774 157.46 119.19 157.46ZM120.45 160.856L119.502 160.892C118.702 160.924 118.146 161.052 117.834 161.276C117.53 161.5 117.378 161.816 117.378 162.224C117.378 162.584 117.486 162.848 117.702 163.016C117.926 163.184 118.21 163.268 118.554 163.268C119.098 163.268 119.55 163.12 119.91 162.824C120.27 162.52 120.45 162.056 120.45 161.432V160.856ZM132.034 157.568V164H130.978V158.468H127.654V164H126.598V157.568H132.034ZM139.678 160.772C139.678 161.836 139.406 162.66 138.862 163.244C138.326 163.828 137.598 164.12 136.678 164.12C136.11 164.12 135.602 163.992 135.154 163.736C134.714 163.472 134.366 163.092 134.11 162.596C133.854 162.092 133.726 161.484 133.726 160.772C133.726 159.708 133.994 158.888 134.53 158.312C135.066 157.736 135.794 157.448 136.714 157.448C137.298 157.448 137.81 157.58 138.25 157.844C138.698 158.1 139.046 158.476 139.294 158.972C139.55 159.46 139.678 160.06 139.678 160.772ZM134.818 160.772C134.818 161.532 134.966 162.136 135.262 162.584C135.566 163.024 136.046 163.244 136.702 163.244C137.35 163.244 137.826 163.024 138.13 162.584C138.434 162.136 138.586 161.532 138.586 160.772C138.586 160.012 138.434 159.416 138.13 158.984C137.826 158.552 137.346 158.336 136.69 158.336C136.034 158.336 135.558 158.552 135.262 158.984C134.966 159.416 134.818 160.012 134.818 160.772ZM143.044 157.448C143.78 157.448 144.364 157.596 144.796 157.892C145.236 158.18 145.456 158.596 145.456 159.14C145.456 159.532 145.348 159.844 145.132 160.076C144.916 160.3 144.62 160.464 144.244 160.568V160.616C144.5 160.688 144.736 160.788 144.952 160.916C145.168 161.044 145.34 161.212 145.468 161.42C145.604 161.628 145.672 161.896 145.672 162.224C145.672 162.76 145.448 163.212 145 163.58C144.56 163.94 143.868 164.12 142.924 164.12C142.46 164.12 142.04 164.08 141.664 164C141.288 163.928 140.976 163.828 140.728 163.7V162.752C141 162.88 141.32 162.996 141.688 163.1C142.064 163.204 142.472 163.256 142.912 163.256C143.392 163.256 143.796 163.176 144.124 163.016C144.46 162.848 144.628 162.564 144.628 162.164C144.628 161.444 144.016 161.084 142.792 161.084H141.928V160.22H142.624C143.176 160.22 143.616 160.148 143.944 160.004C144.28 159.852 144.448 159.596 144.448 159.236C144.448 158.932 144.32 158.704 144.064 158.552C143.816 158.4 143.456 158.324 142.984 158.324C142.632 158.324 142.32 158.36 142.048 158.432C141.784 158.496 141.492 158.596 141.172 158.732L140.8 157.892C141.472 157.596 142.22 157.448 143.044 157.448ZM152.407 159.188C152.407 159.588 152.287 159.9 152.047 160.124C151.807 160.348 151.499 160.5 151.123 160.58V160.628C151.523 160.684 151.871 160.828 152.167 161.06C152.463 161.284 152.611 161.636 152.611 162.116C152.611 162.66 152.407 163.112 151.999 163.472C151.599 163.824 150.935 164 150.007 164H147.235V157.568H149.995C150.451 157.568 150.859 157.62 151.219 157.724C151.587 157.82 151.875 157.988 152.083 158.228C152.299 158.46 152.407 158.78 152.407 159.188ZM151.339 159.32C151.339 159.016 151.227 158.796 151.003 158.66C150.787 158.516 150.431 158.444 149.935 158.444H148.291V160.208H149.743C150.807 160.208 151.339 159.912 151.339 159.32ZM151.519 162.116C151.519 161.748 151.379 161.484 151.099 161.324C150.819 161.164 150.407 161.084 149.863 161.084H148.291V163.148H149.887C150.415 163.148 150.819 163.072 151.099 162.92C151.379 162.76 151.519 162.492 151.519 162.116ZM159.741 160.772C159.741 161.836 159.469 162.66 158.925 163.244C158.389 163.828 157.661 164.12 156.741 164.12C156.173 164.12 155.665 163.992 155.217 163.736C154.777 163.472 154.429 163.092 154.173 162.596C153.917 162.092 153.789 161.484 153.789 160.772C153.789 159.708 154.057 158.888 154.593 158.312C155.129 157.736 155.857 157.448 156.777 157.448C157.361 157.448 157.873 157.58 158.313 157.844C158.761 158.1 159.109 158.476 159.357 158.972C159.613 159.46 159.741 160.06 159.741 160.772ZM154.881 160.772C154.881 161.532 155.029 162.136 155.325 162.584C155.629 163.024 156.109 163.244 156.765 163.244C157.413 163.244 157.889 163.024 158.193 162.584C158.497 162.136 158.649 161.532 158.649 160.772C158.649 160.012 158.497 159.416 158.193 158.984C157.889 158.552 157.409 158.336 156.753 158.336C156.097 158.336 155.621 158.552 155.325 158.984C155.029 159.416 154.881 160.012 154.881 160.772ZM166.311 164H165.243V158.444H163.347C163.243 159.796 163.099 160.888 162.915 161.72C162.731 162.544 162.487 163.144 162.183 163.52C161.879 163.896 161.495 164.084 161.031 164.084C160.927 164.084 160.823 164.076 160.719 164.06C160.623 164.052 160.543 164.032 160.479 164V163.208C160.527 163.224 160.579 163.236 160.635 163.244C160.691 163.252 160.747 163.256 160.803 163.256C161.235 163.256 161.579 162.796 161.835 161.876C162.099 160.956 162.299 159.52 162.435 157.568H166.311V164ZM168.748 164H167.524L169.36 161.3C169.112 161.236 168.872 161.136 168.64 161C168.408 160.856 168.22 160.66 168.076 160.412C167.932 160.156 167.86 159.84 167.86 159.464C167.86 158.848 168.068 158.38 168.484 158.06C168.9 157.732 169.452 157.568 170.14 157.568H173.02V164H171.964V161.444H170.404L168.748 164ZM168.88 159.476C168.88 159.844 169.016 160.12 169.288 160.304C169.568 160.48 169.956 160.568 170.452 160.568H171.964V158.444H170.248C169.76 158.444 169.408 158.54 169.192 158.732C168.984 158.924 168.88 159.172 168.88 159.476ZM177.539 157.448C178.091 157.448 178.563 157.568 178.955 157.808C179.355 158.048 179.659 158.388 179.867 158.828C180.083 159.26 180.191 159.768 180.191 160.352V160.988H175.787C175.803 161.716 175.987 162.272 176.339 162.656C176.699 163.032 177.199 163.22 177.839 163.22C178.247 163.22 178.607 163.184 178.919 163.112C179.239 163.032 179.567 162.92 179.903 162.776V163.7C179.575 163.844 179.251 163.948 178.931 164.012C178.611 164.084 178.231 164.12 177.791 164.12C177.183 164.12 176.643 163.996 176.171 163.748C175.707 163.5 175.343 163.132 175.079 162.644C174.823 162.148 174.695 161.544 174.695 160.832C174.695 160.128 174.811 159.524 175.043 159.02C175.283 158.516 175.615 158.128 176.039 157.856C176.471 157.584 176.971 157.448 177.539 157.448ZM177.527 158.312C177.023 158.312 176.623 158.476 176.327 158.804C176.039 159.124 175.867 159.572 175.811 160.148H179.087C179.079 159.604 178.951 159.164 178.703 158.828C178.455 158.484 178.063 158.312 177.527 158.312ZM186.269 158.456H184.169V164H183.125V158.456H181.049V157.568H186.269V158.456ZM33.6 182.12C33.032 182.12 32.524 182.004 32.076 181.772C31.636 181.54 31.288 181.18 31.032 180.692C30.784 180.204 30.66 179.58 30.66 178.82C30.66 178.028 30.792 177.384 31.056 176.888C31.32 176.392 31.676 176.028 32.124 175.796C32.58 175.564 33.096 175.448 33.672 175.448C34 175.448 34.316 175.484 34.62 175.556C34.924 175.62 35.172 175.7 35.364 175.796L35.04 176.672C34.848 176.6 34.624 176.532 34.368 176.468C34.112 176.404 33.872 176.372 33.648 176.372C32.384 176.372 31.752 177.184 31.752 178.808C31.752 179.584 31.904 180.18 32.208 180.596C32.52 181.004 32.98 181.208 33.588 181.208C33.94 181.208 34.248 181.172 34.512 181.1C34.784 181.028 35.032 180.94 35.256 180.836V181.772C35.04 181.884 34.8 181.968 34.536 182.024C34.28 182.088 33.968 182.12 33.6 182.12ZM42.3776 178.772C42.3776 179.836 42.1056 180.66 41.5616 181.244C41.0256 181.828 40.2976 182.12 39.3776 182.12C38.8096 182.12 38.3016 181.992 37.8536 181.736C37.4136 181.472 37.0656 181.092 36.8096 180.596C36.5536 180.092 36.4256 179.484 36.4256 178.772C36.4256 177.708 36.6936 176.888 37.2296 176.312C37.7656 175.736 38.4936 175.448 39.4136 175.448C39.9976 175.448 40.5096 175.58 40.9496 175.844C41.3976 176.1 41.7456 176.476 41.9936 176.972C42.2496 177.46 42.3776 178.06 42.3776 178.772ZM37.5176 178.772C37.5176 179.532 37.6656 180.136 37.9616 180.584C38.2656 181.024 38.7456 181.244 39.4016 181.244C40.0496 181.244 40.5256 181.024 40.8296 180.584C41.1336 180.136 41.2856 179.532 41.2856 178.772C41.2856 178.012 41.1336 177.416 40.8296 176.984C40.5256 176.552 40.0456 176.336 39.3896 176.336C38.7336 176.336 38.2576 176.552 37.9616 176.984C37.6656 177.416 37.5176 178.012 37.5176 178.772ZM45.7433 175.448C46.4793 175.448 47.0633 175.596 47.4953 175.892C47.9353 176.18 48.1553 176.596 48.1553 177.14C48.1553 177.532 48.0473 177.844 47.8313 178.076C47.6153 178.3 47.3193 178.464 46.9433 178.568V178.616C47.1993 178.688 47.4353 178.788 47.6513 178.916C47.8673 179.044 48.0393 179.212 48.1673 179.42C48.3033 179.628 48.3713 179.896 48.3713 180.224C48.3713 180.76 48.1473 181.212 47.6993 181.58C47.2593 181.94 46.5673 182.12 45.6233 182.12C45.1593 182.12 44.7393 182.08 44.3633 182C43.9873 181.928 43.6753 181.828 43.4272 181.7V180.752C43.6993 180.88 44.0193 180.996 44.3873 181.1C44.7633 181.204 45.1713 181.256 45.6113 181.256C46.0913 181.256 46.4953 181.176 46.8233 181.016C47.1593 180.848 47.3273 180.564 47.3273 180.164C47.3273 179.444 46.7153 179.084 45.4913 179.084H44.6273V178.22H45.3233C45.8753 178.22 46.3153 178.148 46.6433 178.004C46.9793 177.852 47.1473 177.596 47.1473 177.236C47.1473 176.932 47.0193 176.704 46.7633 176.552C46.5153 176.4 46.1553 176.324 45.6833 176.324C45.3313 176.324 45.0193 176.36 44.7473 176.432C44.4833 176.496 44.1913 176.596 43.8713 176.732L43.4993 175.892C44.1713 175.596 44.9193 175.448 45.7433 175.448ZM54.7101 175.568V181.112H55.6461V184.232H54.6261V182H50.1501V184.232H49.1421V181.112H49.6581C50.2101 180.352 50.6221 179.488 50.8941 178.52C51.1741 177.544 51.3181 176.56 51.3261 175.568H54.7101ZM53.6901 176.396H52.2621C52.2301 176.94 52.1461 177.504 52.0101 178.088C51.8741 178.664 51.6981 179.216 51.4821 179.744C51.2741 180.272 51.0301 180.728 50.7501 181.112H53.6901V176.396ZM59.3427 175.46C60.1267 175.46 60.7067 175.632 61.0827 175.976C61.4587 176.32 61.6467 176.868 61.6467 177.62V182H60.8787L60.6747 181.088H60.6267C60.3467 181.44 60.0507 181.7 59.7387 181.868C59.4347 182.036 59.0107 182.12 58.4667 182.12C57.8827 182.12 57.3987 181.968 57.0147 181.664C56.6307 181.352 56.4387 180.868 56.4387 180.212C56.4387 179.572 56.6907 179.08 57.1947 178.736C57.6987 178.384 58.4747 178.192 59.5227 178.16L60.6147 178.124V177.74C60.6147 177.204 60.4987 176.832 60.2667 176.624C60.0347 176.416 59.7067 176.312 59.2827 176.312C58.9467 176.312 58.6267 176.364 58.3227 176.468C58.0187 176.564 57.7347 176.676 57.4707 176.804L57.1467 176.012C57.4267 175.86 57.7587 175.732 58.1427 175.628C58.5267 175.516 58.9267 175.46 59.3427 175.46ZM60.6027 178.856L59.6547 178.892C58.8547 178.924 58.2987 179.052 57.9867 179.276C57.6827 179.5 57.5307 179.816 57.5307 180.224C57.5307 180.584 57.6387 180.848 57.8547 181.016C58.0787 181.184 58.3627 181.268 58.7067 181.268C59.2507 181.268 59.7027 181.12 60.0627 180.824C60.4227 180.52 60.6027 180.056 60.6027 179.432V178.856ZM68.8053 177.188C68.8053 177.588 68.6853 177.9 68.4453 178.124C68.2053 178.348 67.8973 178.5 67.5213 178.58V178.628C67.9213 178.684 68.2693 178.828 68.5653 179.06C68.8613 179.284 69.0093 179.636 69.0093 180.116C69.0093 180.66 68.8053 181.112 68.3973 181.472C67.9973 181.824 67.3333 182 66.4053 182H63.6333V175.568H66.3933C66.8493 175.568 67.2573 175.62 67.6173 175.724C67.9853 175.82 68.2733 175.988 68.4813 176.228C68.6973 176.46 68.8053 176.78 68.8053 177.188ZM67.7373 177.32C67.7373 177.016 67.6253 176.796 67.4013 176.66C67.1853 176.516 66.8293 176.444 66.3333 176.444H64.6893V178.208H66.1413C67.2053 178.208 67.7373 177.912 67.7373 177.32ZM67.9173 180.116C67.9173 179.748 67.7773 179.484 67.4973 179.324C67.2173 179.164 66.8053 179.084 66.2613 179.084H64.6893V181.148H66.2853C66.8133 181.148 67.2173 181.072 67.4973 180.92C67.7773 180.76 67.9173 180.492 67.9173 180.116ZM72.9833 175.46C73.7673 175.46 74.3473 175.632 74.7233 175.976C75.0993 176.32 75.2873 176.868 75.2873 177.62V182H74.5193L74.3153 181.088H74.2673C73.9873 181.44 73.6913 181.7 73.3793 181.868C73.0753 182.036 72.6513 182.12 72.1073 182.12C71.5233 182.12 71.0393 181.968 70.6553 181.664C70.2713 181.352 70.0793 180.868 70.0793 180.212C70.0793 179.572 70.3313 179.08 70.8353 178.736C71.3393 178.384 72.1153 178.192 73.1633 178.16L74.2553 178.124V177.74C74.2553 177.204 74.1393 176.832 73.9073 176.624C73.6753 176.416 73.3473 176.312 72.9233 176.312C72.5873 176.312 72.2673 176.364 71.9633 176.468C71.6593 176.564 71.3753 176.676 71.1113 176.804L70.7873 176.012C71.0673 175.86 71.3993 175.732 71.7833 175.628C72.1673 175.516 72.5673 175.46 72.9833 175.46ZM74.2433 178.856L73.2953 178.892C72.4953 178.924 71.9393 179.052 71.6273 179.276C71.3233 179.5 71.1713 179.816 71.1713 180.224C71.1713 180.584 71.2793 180.848 71.4953 181.016C71.7193 181.184 72.0033 181.268 72.3473 181.268C72.8913 181.268 73.3433 181.12 73.7033 180.824C74.0633 180.52 74.2433 180.056 74.2433 179.432V178.856ZM81.7139 176.456H79.6139V182H78.5699V176.456H76.4939V175.568H81.7139V176.456ZM84.0369 178.208H85.9449C87.6169 178.208 88.4529 178.816 88.4529 180.032C88.4529 180.632 88.2489 181.112 87.8409 181.472C87.4329 181.824 86.7849 182 85.8969 182H82.9809V175.568H84.0369V178.208ZM87.3969 180.092C87.3969 179.7 87.2569 179.436 86.9769 179.3C86.7049 179.156 86.3209 179.084 85.8249 179.084H84.0369V181.148H85.8489C86.2969 181.148 86.6649 181.068 86.9529 180.908C87.2489 180.748 87.3969 180.476 87.3969 180.092ZM101.983 175.388L99.9311 182H98.4911L97.1591 177.116L95.8271 182H94.3871L92.3231 175.388H93.7151L95.0951 180.704L96.4991 175.388H97.9271L99.2711 180.68L100.639 175.388H101.983ZM109.065 178.532C109.065 178.78 109.049 179.004 109.017 179.204H103.965C104.005 179.732 104.201 180.156 104.553 180.476C104.905 180.796 105.337 180.956 105.849 180.956C106.585 180.956 107.105 180.648 107.409 180.032H108.885C108.685 180.64 108.321 181.14 107.793 181.532C107.273 181.916 106.625 182.108 105.849 182.108C105.217 182.108 104.649 181.968 104.145 181.688C103.649 181.4 103.257 181 102.969 180.488C102.689 179.968 102.549 179.368 102.549 178.688C102.549 178.008 102.685 177.412 102.957 176.9C103.237 176.38 103.625 175.98 104.121 175.7C104.625 175.42 105.201 175.28 105.849 175.28C106.473 175.28 107.029 175.416 107.517 175.688C108.005 175.96 108.385 176.344 108.657 176.84C108.929 177.328 109.065 177.892 109.065 178.532ZM107.637 178.1C107.629 177.596 107.449 177.192 107.097 176.888C106.745 176.584 106.309 176.432 105.789 176.432C105.317 176.432 104.913 176.584 104.577 176.888C104.241 177.184 104.041 177.588 103.977 178.1H107.637ZM111.78 176.372C112.012 176.052 112.328 175.792 112.728 175.592C113.136 175.384 113.588 175.28 114.084 175.28C114.668 175.28 115.196 175.42 115.668 175.7C116.14 175.98 116.512 176.38 116.784 176.9C117.056 177.412 117.192 178 117.192 178.664C117.192 179.328 117.056 179.924 116.784 180.452C116.512 180.972 116.136 181.38 115.656 181.676C115.184 181.964 114.66 182.108 114.084 182.108C113.572 182.108 113.116 182.008 112.716 181.808C112.324 181.608 112.012 181.352 111.78 181.04V182H110.412V173.12H111.78V176.372ZM115.8 178.664C115.8 178.208 115.704 177.816 115.512 177.488C115.328 177.152 115.08 176.9 114.768 176.732C114.464 176.556 114.136 176.468 113.784 176.468C113.44 176.468 113.112 176.556 112.8 176.732C112.496 176.908 112.248 177.164 112.056 177.5C111.872 177.836 111.78 178.232 111.78 178.688C111.78 179.144 111.872 179.544 112.056 179.888C112.248 180.224 112.496 180.48 112.8 180.656C113.112 180.832 113.44 180.92 113.784 180.92C114.136 180.92 114.464 180.832 114.768 180.656C115.08 180.472 115.328 180.208 115.512 179.864C115.704 179.52 115.8 179.12 115.8 178.664ZM123.621 177.08V178.232H118.689V177.08H123.621ZM131.12 175.568V182H130.064V176.468H126.74V182H125.684V175.568H131.12ZM136.232 175.448C137.024 175.448 137.66 175.724 138.14 176.276C138.628 176.828 138.872 177.66 138.872 178.772C138.872 179.868 138.628 180.7 138.14 181.268C137.66 181.836 137.02 182.12 136.22 182.12C135.724 182.12 135.312 182.028 134.984 181.844C134.664 181.652 134.412 181.432 134.228 181.184H134.156C134.172 181.32 134.188 181.492 134.204 181.7C134.22 181.908 134.228 182.088 134.228 182.24V184.88H133.172V175.568H134.036L134.18 176.444H134.228C134.42 176.164 134.672 175.928 134.984 175.736C135.296 175.544 135.712 175.448 136.232 175.448ZM136.04 176.336C135.384 176.336 134.92 176.52 134.648 176.888C134.384 177.256 134.244 177.816 134.228 178.568V178.772C134.228 179.564 134.356 180.176 134.612 180.608C134.876 181.032 135.36 181.244 136.064 181.244C136.456 181.244 136.776 181.136 137.024 180.92C137.28 180.704 137.468 180.412 137.588 180.044C137.716 179.668 137.78 179.24 137.78 178.76C137.78 178.024 137.636 177.436 137.348 176.996C137.068 176.556 136.632 176.336 136.04 176.336ZM141.551 175.568V179.492C141.551 179.588 141.547 179.732 141.539 179.924C141.531 180.116 141.519 180.308 141.503 180.5C141.495 180.692 141.487 180.844 141.479 180.956L144.923 175.568H146.219V182H145.235V178.208C145.235 178.08 145.235 177.912 145.235 177.704C145.243 177.496 145.251 177.292 145.259 177.092C145.267 176.884 145.275 176.728 145.283 176.624L141.863 182H140.555V175.568H141.551ZM153.162 182H152.094V176.444H150.198C150.094 177.796 149.95 178.888 149.766 179.72C149.582 180.544 149.338 181.144 149.034 181.52C148.73 181.896 148.346 182.084 147.882 182.084C147.778 182.084 147.674 182.076 147.57 182.06C147.474 182.052 147.394 182.032 147.33 182V181.208C147.378 181.224 147.43 181.236 147.486 181.244C147.542 181.252 147.598 181.256 147.654 181.256C148.086 181.256 148.43 180.796 148.686 179.876C148.95 178.956 149.15 177.52 149.286 175.568H153.162V182ZM160.796 178.772C160.796 179.836 160.524 180.66 159.98 181.244C159.444 181.828 158.716 182.12 157.796 182.12C157.228 182.12 156.72 181.992 156.272 181.736C155.832 181.472 155.484 181.092 155.228 180.596C154.972 180.092 154.844 179.484 154.844 178.772C154.844 177.708 155.112 176.888 155.648 176.312C156.184 175.736 156.912 175.448 157.832 175.448C158.416 175.448 158.928 175.58 159.368 175.844C159.816 176.1 160.164 176.476 160.412 176.972C160.668 177.46 160.796 178.06 160.796 178.772ZM155.936 178.772C155.936 179.532 156.084 180.136 156.38 180.584C156.684 181.024 157.164 181.244 157.82 181.244C158.468 181.244 158.944 181.024 159.248 180.584C159.552 180.136 159.704 179.532 159.704 178.772C159.704 178.012 159.552 177.416 159.248 176.984C158.944 176.552 158.464 176.336 157.808 176.336C157.152 176.336 156.676 176.552 156.38 176.984C156.084 177.416 155.936 178.012 155.936 178.772ZM169.951 175.568L167.299 178.688L170.179 182H168.979L166.195 178.736V182H165.211V178.736L162.427 182H161.227L164.107 178.688L161.455 175.568H162.607L165.211 178.688V175.568H166.195V178.688L168.811 175.568H169.951ZM173.484 175.448C174.036 175.448 174.508 175.568 174.9 175.808C175.3 176.048 175.604 176.388 175.812 176.828C176.028 177.26 176.136 177.768 176.136 178.352V178.988H171.732C171.748 179.716 171.932 180.272 172.284 180.656C172.644 181.032 173.144 181.22 173.784 181.22C174.192 181.22 174.552 181.184 174.864 181.112C175.184 181.032 175.512 180.92 175.848 180.776V181.7C175.52 181.844 175.196 181.948 174.876 182.012C174.556 182.084 174.176 182.12 173.736 182.12C173.128 182.12 172.588 181.996 172.116 181.748C171.652 181.5 171.288 181.132 171.024 180.644C170.768 180.148 170.64 179.544 170.64 178.832C170.64 178.128 170.756 177.524 170.988 177.02C171.228 176.516 171.56 176.128 171.984 175.856C172.416 175.584 172.916 175.448 173.484 175.448ZM173.472 176.312C172.968 176.312 172.568 176.476 172.272 176.804C171.984 177.124 171.812 177.572 171.756 178.148H175.032C175.024 177.604 174.896 177.164 174.648 176.828C174.4 176.484 174.008 176.312 173.472 176.312ZM178.83 175.568V178.244H182.322V175.568H183.378V182H182.322V179.132H178.83V182H177.774V175.568H178.83ZM186.411 175.568V179.492C186.411 179.588 186.407 179.732 186.399 179.924C186.391 180.116 186.379 180.308 186.363 180.5C186.355 180.692 186.347 180.844 186.339 180.956L189.783 175.568H191.079V182H190.095V178.208C190.095 178.08 190.095 177.912 190.095 177.704C190.103 177.496 190.111 177.292 190.119 177.092C190.127 176.884 190.135 176.728 190.143 176.624L186.723 182H185.415V175.568H186.411ZM193.521 182H192.297L194.133 179.3C193.885 179.236 193.645 179.136 193.413 179C193.181 178.856 192.993 178.66 192.849 178.412C192.705 178.156 192.633 177.84 192.633 177.464C192.633 176.848 192.841 176.38 193.257 176.06C193.673 175.732 194.225 175.568 194.913 175.568H197.793V182H196.737V179.444H195.177L193.521 182ZM193.653 177.476C193.653 177.844 193.789 178.12 194.061 178.304C194.341 178.48 194.729 178.568 195.225 178.568H196.737V176.444H195.021C194.533 176.444 194.181 176.54 193.965 176.732C193.757 176.924 193.653 177.172 193.653 177.476ZM200.261 182.084C200.013 182.084 199.805 182 199.637 181.832C199.469 181.664 199.385 181.456 199.385 181.208C199.385 180.96 199.469 180.752 199.637 180.584C199.805 180.416 200.013 180.332 200.261 180.332C200.501 180.332 200.705 180.416 200.873 180.584C201.041 180.752 201.125 180.96 201.125 181.208C201.125 181.456 201.041 181.664 200.873 181.832C200.705 182 200.501 182.084 200.261 182.084ZM209.764 182L206.944 174.488H206.896C206.92 174.736 206.94 175.072 206.956 175.496C206.972 175.912 206.98 176.348 206.98 176.804V182H205.984V173.432H207.58L210.22 180.452H210.268L212.956 173.432H214.54V182H213.472V176.732C213.472 176.316 213.48 175.904 213.496 175.496C213.52 175.088 213.54 174.756 213.556 174.5H213.508L210.652 182H209.764ZM216.727 182V175.568H217.783V178.208H219.451C220.283 178.208 220.899 178.36 221.299 178.664C221.699 178.968 221.899 179.424 221.899 180.032C221.899 180.632 221.703 181.112 221.311 181.472C220.919 181.824 220.283 182 219.403 182H216.727ZM222.967 182V175.568H224.023V182H222.967ZM217.783 181.148H219.307C219.763 181.148 220.135 181.072 220.423 180.92C220.711 180.76 220.855 180.484 220.855 180.092C220.855 179.7 220.723 179.436 220.459 179.3C220.195 179.156 219.815 179.084 219.319 179.084H217.783V181.148ZM37.92 193.568V200H36.972V195.896C36.972 195.728 36.976 195.552 36.984 195.368C37 195.184 37.016 195.004 37.032 194.828H36.996L34.896 200H34.008L31.968 194.828H31.932C31.956 195.188 31.968 195.556 31.968 195.932V200H31.02V193.568H32.424L34.452 198.74L36.516 193.568H37.92ZM45.5651 196.772C45.5651 197.836 45.2931 198.66 44.7491 199.244C44.2131 199.828 43.4851 200.12 42.5651 200.12C41.9971 200.12 41.4891 199.992 41.0411 199.736C40.6011 199.472 40.2531 199.092 39.9971 198.596C39.7411 198.092 39.6131 197.484 39.6131 196.772C39.6131 195.708 39.8811 194.888 40.4171 194.312C40.9531 193.736 41.6811 193.448 42.6011 193.448C43.1851 193.448 43.6971 193.58 44.1371 193.844C44.5851 194.1 44.9331 194.476 45.1811 194.972C45.4371 195.46 45.5651 196.06 45.5651 196.772ZM40.7051 196.772C40.7051 197.532 40.8531 198.136 41.1491 198.584C41.4531 199.024 41.9331 199.244 42.5891 199.244C43.2371 199.244 43.7131 199.024 44.0171 198.584C44.3211 198.136 44.4731 197.532 44.4731 196.772C44.4731 196.012 44.3211 195.416 44.0171 194.984C43.7131 194.552 43.2331 194.336 42.5771 194.336C41.9211 194.336 41.4451 194.552 41.1491 194.984C40.8531 195.416 40.7051 196.012 40.7051 196.772ZM54.7204 193.568L52.0684 196.688L54.9484 200H53.7484L50.9644 196.736V200H49.9804V196.736L47.1964 200H45.9964L48.8764 196.688L46.2244 193.568H47.3764L49.9804 196.688V193.568H50.9644V196.688L53.5804 193.568H54.7204ZM58.254 193.448C58.806 193.448 59.278 193.568 59.67 193.808C60.07 194.048 60.374 194.388 60.582 194.828C60.798 195.26 60.906 195.768 60.906 196.352V196.988H56.502C56.518 197.716 56.702 198.272 57.054 198.656C57.414 199.032 57.914 199.22 58.554 199.22C58.962 199.22 59.322 199.184 59.634 199.112C59.954 199.032 60.282 198.92 60.618 198.776V199.7C60.29 199.844 59.966 199.948 59.646 200.012C59.326 200.084 58.946 200.12 58.506 200.12C57.898 200.12 57.358 199.996 56.886 199.748C56.422 199.5 56.058 199.132 55.794 198.644C55.538 198.148 55.41 197.544 55.41 196.832C55.41 196.128 55.526 195.524 55.758 195.02C55.998 194.516 56.33 194.128 56.754 193.856C57.186 193.584 57.686 193.448 58.254 193.448ZM58.242 194.312C57.738 194.312 57.338 194.476 57.042 194.804C56.754 195.124 56.582 195.572 56.526 196.148H59.802C59.794 195.604 59.666 195.164 59.418 194.828C59.17 194.484 58.778 194.312 58.242 194.312ZM69.4434 193.568V200H68.4954V195.896C68.4954 195.728 68.4994 195.552 68.5074 195.368C68.5234 195.184 68.5394 195.004 68.5554 194.828H68.5194L66.4194 200H65.5314L63.4914 194.828H63.4554C63.4794 195.188 63.4914 195.556 63.4914 195.932V200H62.5434V193.568H63.9474L65.9754 198.74L68.0394 193.568H69.4434ZM77.1938 200.12C76.6258 200.12 76.1178 200.004 75.6698 199.772C75.2298 199.54 74.8818 199.18 74.6258 198.692C74.3778 198.204 74.2538 197.58 74.2538 196.82C74.2538 196.028 74.3858 195.384 74.6498 194.888C74.9138 194.392 75.2698 194.028 75.7178 193.796C76.1738 193.564 76.6898 193.448 77.2658 193.448C77.5938 193.448 77.9098 193.484 78.2138 193.556C78.5178 193.62 78.7658 193.7 78.9578 193.796L78.6338 194.672C78.4418 194.6 78.2178 194.532 77.9618 194.468C77.7058 194.404 77.4658 194.372 77.2418 194.372C75.9778 194.372 75.3458 195.184 75.3458 196.808C75.3458 197.584 75.4978 198.18 75.8018 198.596C76.1138 199.004 76.5738 199.208 77.1818 199.208C77.5338 199.208 77.8418 199.172 78.1058 199.1C78.3778 199.028 78.6258 198.94 78.8498 198.836V199.772C78.6338 199.884 78.3938 199.968 78.1298 200.024C77.8738 200.088 77.5618 200.12 77.1938 200.12ZM85.9714 196.772C85.9714 197.836 85.6994 198.66 85.1554 199.244C84.6194 199.828 83.8914 200.12 82.9714 200.12C82.4034 200.12 81.8954 199.992 81.4474 199.736C81.0074 199.472 80.6594 199.092 80.4034 198.596C80.1474 198.092 80.0194 197.484 80.0194 196.772C80.0194 195.708 80.2874 194.888 80.8234 194.312C81.3594 193.736 82.0874 193.448 83.0074 193.448C83.5914 193.448 84.1034 193.58 84.5434 193.844C84.9914 194.1 85.3394 194.476 85.5874 194.972C85.8434 195.46 85.9714 196.06 85.9714 196.772ZM81.1114 196.772C81.1114 197.532 81.2594 198.136 81.5554 198.584C81.8594 199.024 82.3394 199.244 82.9954 199.244C83.6434 199.244 84.1194 199.024 84.4234 198.584C84.7274 198.136 84.8794 197.532 84.8794 196.772C84.8794 196.012 84.7274 195.416 84.4234 194.984C84.1194 194.552 83.6394 194.336 82.9834 194.336C82.3274 194.336 81.8514 194.552 81.5554 194.984C81.2594 195.416 81.1114 196.012 81.1114 196.772ZM89.337 193.448C90.073 193.448 90.657 193.596 91.089 193.892C91.529 194.18 91.749 194.596 91.749 195.14C91.749 195.532 91.641 195.844 91.425 196.076C91.209 196.3 90.913 196.464 90.537 196.568V196.616C90.793 196.688 91.029 196.788 91.245 196.916C91.461 197.044 91.633 197.212 91.761 197.42C91.897 197.628 91.965 197.896 91.965 198.224C91.965 198.76 91.741 199.212 91.293 199.58C90.853 199.94 90.161 200.12 89.217 200.12C88.753 200.12 88.333 200.08 87.957 200C87.581 199.928 87.269 199.828 87.021 199.7V198.752C87.293 198.88 87.613 198.996 87.981 199.1C88.357 199.204 88.765 199.256 89.205 199.256C89.685 199.256 90.089 199.176 90.417 199.016C90.753 198.848 90.921 198.564 90.921 198.164C90.921 197.444 90.309 197.084 89.085 197.084H88.221V196.22H88.917C89.469 196.22 89.909 196.148 90.237 196.004C90.573 195.852 90.741 195.596 90.741 195.236C90.741 194.932 90.613 194.704 90.357 194.552C90.109 194.4 89.749 194.324 89.277 194.324C88.925 194.324 88.613 194.36 88.341 194.432C88.077 194.496 87.785 194.596 87.465 194.732L87.093 193.892C87.765 193.596 88.513 193.448 89.337 193.448ZM98.3038 193.568V199.112H99.2398V202.232H98.2198V200H93.7438V202.232H92.7358V199.112H93.2518C93.8038 198.352 94.2158 197.488 94.4878 196.52C94.7678 195.544 94.9118 194.56 94.9198 193.568H98.3038ZM97.2838 194.396H95.8558C95.8238 194.94 95.7398 195.504 95.6038 196.088C95.4678 196.664 95.2918 197.216 95.0758 197.744C94.8678 198.272 94.6238 198.728 94.3438 199.112H97.2838V194.396ZM102.936 193.46C103.72 193.46 104.3 193.632 104.676 193.976C105.052 194.32 105.24 194.868 105.24 195.62V200H104.472L104.268 199.088H104.22C103.94 199.44 103.644 199.7 103.332 199.868C103.028 200.036 102.604 200.12 102.06 200.12C101.476 200.12 100.992 199.968 100.608 199.664C100.224 199.352 100.032 198.868 100.032 198.212C100.032 197.572 100.284 197.08 100.788 196.736C101.292 196.384 102.068 196.192 103.116 196.16L104.208 196.124V195.74C104.208 195.204 104.092 194.832 103.86 194.624C103.628 194.416 103.3 194.312 102.876 194.312C102.54 194.312 102.22 194.364 101.916 194.468C101.612 194.564 101.328 194.676 101.064 194.804L100.74 194.012C101.02 193.86 101.352 193.732 101.736 193.628C102.12 193.516 102.52 193.46 102.936 193.46ZM104.196 196.856L103.248 196.892C102.448 196.924 101.892 197.052 101.58 197.276C101.276 197.5 101.124 197.816 101.124 198.224C101.124 198.584 101.232 198.848 101.448 199.016C101.672 199.184 101.956 199.268 102.3 199.268C102.844 199.268 103.296 199.12 103.656 198.824C104.016 198.52 104.196 198.056 104.196 197.432V196.856ZM111.667 194.456H109.567V200H108.523V194.456H106.447V193.568H111.667V194.456ZM113.99 196.208H115.898C117.57 196.208 118.406 196.816 118.406 198.032C118.406 198.632 118.202 199.112 117.794 199.472C117.386 199.824 116.738 200 115.85 200H112.934V193.568H113.99V196.208ZM117.35 198.092C117.35 197.7 117.21 197.436 116.93 197.3C116.658 197.156 116.274 197.084 115.778 197.084H113.99V199.148H115.802C116.25 199.148 116.618 199.068 116.906 198.908C117.202 198.748 117.35 198.476 117.35 198.092ZM130.076 193.568V200H129.128V195.896C129.128 195.728 129.132 195.552 129.14 195.368C129.156 195.184 129.172 195.004 129.188 194.828H129.152L127.052 200H126.164L124.124 194.828H124.088C124.112 195.188 124.124 195.556 124.124 195.932V200H123.176V193.568H124.58L126.608 198.74L128.672 193.568H130.076ZM134.565 193.46C135.349 193.46 135.929 193.632 136.305 193.976C136.681 194.32 136.869 194.868 136.869 195.62V200H136.101L135.897 199.088H135.849C135.569 199.44 135.273 199.7 134.961 199.868C134.657 200.036 134.233 200.12 133.689 200.12C133.105 200.12 132.621 199.968 132.237 199.664C131.853 199.352 131.661 198.868 131.661 198.212C131.661 197.572 131.913 197.08 132.417 196.736C132.921 196.384 133.697 196.192 134.745 196.16L135.837 196.124V195.74C135.837 195.204 135.721 194.832 135.489 194.624C135.257 194.416 134.929 194.312 134.505 194.312C134.169 194.312 133.849 194.364 133.545 194.468C133.241 194.564 132.957 194.676 132.693 194.804L132.369 194.012C132.649 193.86 132.981 193.732 133.365 193.628C133.749 193.516 134.149 193.46 134.565 193.46ZM135.825 196.856L134.877 196.892C134.077 196.924 133.521 197.052 133.209 197.276C132.905 197.5 132.753 197.816 132.753 198.224C132.753 198.584 132.861 198.848 133.077 199.016C133.301 199.184 133.585 199.268 133.929 199.268C134.473 199.268 134.925 199.12 135.285 198.824C135.645 198.52 135.825 198.056 135.825 197.432V196.856ZM142.66 193.568H143.812L141.064 196.664L144.04 200H142.816L139.912 196.736V200H138.856V193.568H139.912V196.688L142.66 193.568ZM147.553 200.12C146.985 200.12 146.477 200.004 146.029 199.772C145.589 199.54 145.241 199.18 144.985 198.692C144.737 198.204 144.613 197.58 144.613 196.82C144.613 196.028 144.745 195.384 145.009 194.888C145.273 194.392 145.629 194.028 146.077 193.796C146.533 193.564 147.049 193.448 147.625 193.448C147.953 193.448 148.269 193.484 148.573 193.556C148.877 193.62 149.125 193.7 149.317 193.796L148.993 194.672C148.801 194.6 148.577 194.532 148.321 194.468C148.065 194.404 147.825 194.372 147.601 194.372C146.337 194.372 145.705 195.184 145.705 196.808C145.705 197.584 145.857 198.18 146.161 198.596C146.473 199.004 146.933 199.208 147.541 199.208C147.893 199.208 148.201 199.172 148.465 199.1C148.737 199.028 148.985 198.94 149.209 198.836V199.772C148.993 199.884 148.753 199.968 148.489 200.024C148.233 200.088 147.921 200.12 147.553 200.12ZM151.735 193.568V197.492C151.735 197.588 151.731 197.732 151.723 197.924C151.715 198.116 151.703 198.308 151.687 198.5C151.679 198.692 151.671 198.844 151.663 198.956L155.107 193.568H156.403V200H155.419V196.208C155.419 196.08 155.419 195.912 155.419 195.704C155.427 195.496 155.435 195.292 155.443 195.092C155.451 194.884 155.459 194.728 155.467 194.624L152.047 200H150.739V193.568H151.735ZM165.35 193.568V200H164.402V195.896C164.402 195.728 164.406 195.552 164.414 195.368C164.43 195.184 164.446 195.004 164.462 194.828H164.426L162.326 200H161.438L159.398 194.828H159.362C159.386 195.188 159.398 195.556 159.398 195.932V200H158.45V193.568H159.854L161.882 198.74L163.946 193.568H165.35ZM169.839 193.46C170.623 193.46 171.203 193.632 171.579 193.976C171.955 194.32 172.143 194.868 172.143 195.62V200H171.375L171.171 199.088H171.123C170.843 199.44 170.547 199.7 170.235 199.868C169.931 200.036 169.507 200.12 168.963 200.12C168.379 200.12 167.895 199.968 167.511 199.664C167.127 199.352 166.935 198.868 166.935 198.212C166.935 197.572 167.187 197.08 167.691 196.736C168.195 196.384 168.971 196.192 170.019 196.16L171.111 196.124V195.74C171.111 195.204 170.995 194.832 170.763 194.624C170.531 194.416 170.203 194.312 169.779 194.312C169.443 194.312 169.123 194.364 168.819 194.468C168.515 194.564 168.231 194.676 167.967 194.804L167.643 194.012C167.923 193.86 168.255 193.732 168.639 193.628C169.023 193.516 169.423 193.46 169.839 193.46ZM171.099 196.856L170.151 196.892C169.351 196.924 168.795 197.052 168.483 197.276C168.179 197.5 168.027 197.816 168.027 198.224C168.027 198.584 168.135 198.848 168.351 199.016C168.575 199.184 168.859 199.268 169.203 199.268C169.747 199.268 170.199 199.12 170.559 198.824C170.919 198.52 171.099 198.056 171.099 197.432V196.856ZM179.025 200H177.957V194.444H176.061C175.957 195.796 175.813 196.888 175.629 197.72C175.445 198.544 175.201 199.144 174.897 199.52C174.593 199.896 174.209 200.084 173.745 200.084C173.641 200.084 173.537 200.076 173.433 200.06C173.337 200.052 173.257 200.032 173.193 200V199.208C173.241 199.224 173.293 199.236 173.349 199.244C173.405 199.252 173.461 199.256 173.517 199.256C173.949 199.256 174.293 198.796 174.549 197.876C174.813 196.956 175.013 195.52 175.149 193.568H179.025V200ZM182.123 196.208H184.031C185.703 196.208 186.539 196.816 186.539 198.032C186.539 198.632 186.335 199.112 185.927 199.472C185.519 199.824 184.871 200 183.983 200H181.067V193.568H182.123V196.208ZM185.483 198.092C185.483 197.7 185.343 197.436 185.063 197.3C184.791 197.156 184.407 197.084 183.911 197.084H182.123V199.148H183.935C184.383 199.148 184.751 199.068 185.039 198.908C185.335 198.748 185.483 198.476 185.483 198.092ZM189.248 193.568V196.244H192.74V193.568H193.796V200H192.74V197.132H189.248V200H188.192V193.568H189.248ZM201.424 196.772C201.424 197.836 201.153 198.66 200.609 199.244C200.073 199.828 199.345 200.12 198.425 200.12C197.857 200.12 197.349 199.992 196.901 199.736C196.461 199.472 196.113 199.092 195.857 198.596C195.601 198.092 195.473 197.484 195.473 196.772C195.473 195.708 195.741 194.888 196.277 194.312C196.813 193.736 197.541 193.448 198.461 193.448C199.045 193.448 199.557 193.58 199.997 193.844C200.445 194.1 200.793 194.476 201.041 194.972C201.297 195.46 201.424 196.06 201.424 196.772ZM196.565 196.772C196.565 197.532 196.713 198.136 197.009 198.584C197.313 199.024 197.793 199.244 198.449 199.244C199.097 199.244 199.573 199.024 199.877 198.584C200.181 198.136 200.333 197.532 200.333 196.772C200.333 196.012 200.181 195.416 199.877 194.984C199.573 194.552 199.093 194.336 198.437 194.336C197.781 194.336 197.305 194.552 197.009 194.984C196.713 195.416 196.565 196.012 196.565 196.772ZM32.016 211.568V215.492C32.016 215.588 32.012 215.732 32.004 215.924C31.996 216.116 31.984 216.308 31.968 216.5C31.96 216.692 31.952 216.844 31.944 216.956L35.388 211.568H36.684V218H35.7V214.208C35.7 214.08 35.7 213.912 35.7 213.704C35.708 213.496 35.716 213.292 35.724 213.092C35.732 212.884 35.74 212.728 35.748 212.624L32.328 218H31.02V211.568H32.016ZM39.7869 211.568V214.244H43.2789V211.568H44.3349V218H43.2789V215.132H39.7869V218H38.7309V211.568H39.7869ZM50.8116 212.456H48.7116V218H47.6676V212.456H45.5916V211.568H50.8116V212.456ZM54.4454 211.448C54.9974 211.448 55.4694 211.568 55.8614 211.808C56.2614 212.048 56.5654 212.388 56.7734 212.828C56.9894 213.26 57.0974 213.768 57.0974 214.352V214.988H52.6934C52.7094 215.716 52.8934 216.272 53.2454 216.656C53.6054 217.032 54.1054 217.22 54.7454 217.22C55.1534 217.22 55.5134 217.184 55.8254 217.112C56.1454 217.032 56.4734 216.92 56.8094 216.776V217.7C56.4814 217.844 56.1574 217.948 55.8374 218.012C55.5174 218.084 55.1374 218.12 54.6974 218.12C54.0894 218.12 53.5494 217.996 53.0774 217.748C52.6134 217.5 52.2494 217.132 51.9854 216.644C51.7294 216.148 51.6014 215.544 51.6014 214.832C51.6014 214.128 51.7174 213.524 51.9494 213.02C52.1894 212.516 52.5214 212.128 52.9454 211.856C53.3774 211.584 53.8774 211.448 54.4454 211.448ZM54.4334 212.312C53.9294 212.312 53.5294 212.476 53.2334 212.804C52.9454 213.124 52.7734 213.572 52.7174 214.148H55.9934C55.9854 213.604 55.8574 213.164 55.6094 212.828C55.3614 212.484 54.9694 212.312 54.4334 212.312ZM61.7948 211.448C62.5868 211.448 63.2228 211.724 63.7028 212.276C64.1908 212.828 64.4348 213.66 64.4348 214.772C64.4348 215.868 64.1908 216.7 63.7028 217.268C63.2228 217.836 62.5828 218.12 61.7828 218.12C61.2868 218.12 60.8748 218.028 60.5468 217.844C60.2268 217.652 59.9748 217.432 59.7908 217.184H59.7188C59.7348 217.32 59.7508 217.492 59.7668 217.7C59.7828 217.908 59.7908 218.088 59.7908 218.24V220.88H58.7348V211.568H59.5988L59.7428 212.444H59.7908C59.9828 212.164 60.2348 211.928 60.5468 211.736C60.8588 211.544 61.2748 211.448 61.7948 211.448ZM61.6028 212.336C60.9468 212.336 60.4828 212.52 60.2108 212.888C59.9468 213.256 59.8068 213.816 59.7908 214.568V214.772C59.7908 215.564 59.9188 216.176 60.1748 216.608C60.4388 217.032 60.9228 217.244 61.6268 217.244C62.0188 217.244 62.3388 217.136 62.5868 216.92C62.8428 216.704 63.0308 216.412 63.1508 216.044C63.2788 215.668 63.3428 215.24 63.3428 214.76C63.3428 214.024 63.1988 213.436 62.9108 212.996C62.6308 212.556 62.1948 212.336 61.6028 212.336ZM68.5537 211.46C69.3377 211.46 69.9177 211.632 70.2937 211.976C70.6697 212.32 70.8577 212.868 70.8577 213.62V218H70.0897L69.8857 217.088H69.8377C69.5577 217.44 69.2617 217.7 68.9497 217.868C68.6457 218.036 68.2217 218.12 67.6777 218.12C67.0937 218.12 66.6097 217.968 66.2257 217.664C65.8417 217.352 65.6497 216.868 65.6497 216.212C65.6497 215.572 65.9017 215.08 66.4057 214.736C66.9097 214.384 67.6857 214.192 68.7337 214.16L69.8257 214.124V213.74C69.8257 213.204 69.7097 212.832 69.4777 212.624C69.2457 212.416 68.9177 212.312 68.4937 212.312C68.1577 212.312 67.8377 212.364 67.5337 212.468C67.2297 212.564 66.9457 212.676 66.6817 212.804L66.3577 212.012C66.6377 211.86 66.9697 211.732 67.3537 211.628C67.7377 211.516 68.1377 211.46 68.5537 211.46ZM69.8137 214.856L68.8657 214.892C68.0657 214.924 67.5097 215.052 67.1977 215.276C66.8937 215.5 66.7417 215.816 66.7417 216.224C66.7417 216.584 66.8497 216.848 67.0657 217.016C67.2897 217.184 67.5737 217.268 67.9177 217.268C68.4617 217.268 68.9137 217.12 69.2737 216.824C69.6337 216.52 69.8137 216.056 69.8137 215.432V214.856ZM76.6482 211.568H77.8002L75.0522 214.664L78.0282 218H76.8042L73.9002 214.736V218H72.8442V211.568H73.9002V214.688L76.6482 211.568ZM83.6358 212.456H81.5358V218H80.4918V212.456H78.4158V211.568H83.6358V212.456ZM85.8988 211.568V215.492C85.8988 215.588 85.8948 215.732 85.8868 215.924C85.8788 216.116 85.8668 216.308 85.8508 216.5C85.8428 216.692 85.8348 216.844 85.8268 216.956L89.2708 211.568H90.5668V218H89.5828V214.208C89.5828 214.08 89.5828 213.912 89.5828 213.704C89.5908 213.496 89.5988 213.292 89.6068 213.092C89.6148 212.884 89.6228 212.728 89.6308 212.624L86.2108 218H84.9028V211.568H85.8988ZM97.7858 213.188C97.7858 213.588 97.6658 213.9 97.4258 214.124C97.1858 214.348 96.8778 214.5 96.5018 214.58V214.628C96.9018 214.684 97.2498 214.828 97.5458 215.06C97.8418 215.284 97.9898 215.636 97.9898 216.116C97.9898 216.66 97.7858 217.112 97.3778 217.472C96.9778 217.824 96.3138 218 95.3858 218H92.6138V211.568H95.3738C95.8298 211.568 96.2378 211.62 96.5978 211.724C96.9658 211.82 97.2538 211.988 97.4618 212.228C97.6778 212.46 97.7858 212.78 97.7858 213.188ZM96.7178 213.32C96.7178 213.016 96.6058 212.796 96.3818 212.66C96.1658 212.516 95.8098 212.444 95.3138 212.444H93.6698V214.208H95.1217C96.1858 214.208 96.7178 213.912 96.7178 213.32ZM96.8978 216.116C96.8978 215.748 96.7578 215.484 96.4778 215.324C96.1978 215.164 95.7858 215.084 95.2418 215.084H93.6698V217.148H95.2658C95.7938 217.148 96.1978 217.072 96.4778 216.92C96.7578 216.76 96.8978 216.492 96.8978 216.116ZM100.584 211.568V214.244H104.076V211.568H105.132V218H104.076V215.132H100.584V218H99.5278V211.568H100.584ZM107.168 218V211.568H108.224V214.208H109.892C110.724 214.208 111.34 214.36 111.74 214.664C112.14 214.968 112.34 215.424 112.34 216.032C112.34 216.632 112.144 217.112 111.752 217.472C111.36 217.824 110.724 218 109.844 218H107.168ZM113.408 218V211.568H114.464V218H113.408ZM108.224 217.148H109.748C110.204 217.148 110.576 217.072 110.864 216.92C111.152 216.76 111.296 216.484 111.296 216.092C111.296 215.7 111.164 215.436 110.9 215.3C110.636 215.156 110.256 215.084 109.76 215.084H108.224V217.148ZM117.504 211.568V215.492C117.504 215.588 117.5 215.732 117.492 215.924C117.484 216.116 117.472 216.308 117.456 216.5C117.448 216.692 117.44 216.844 117.432 216.956L120.876 211.568H122.172V218H121.188V214.208C121.188 214.08 121.188 213.912 121.188 213.704C121.196 213.496 121.204 213.292 121.212 213.092C121.22 212.884 121.228 212.728 121.236 212.624L117.816 218H116.508V211.568H117.504ZM121.716 208.904C121.66 209.504 121.456 209.96 121.104 210.272C120.76 210.576 120.208 210.728 119.448 210.728C118.664 210.728 118.108 210.576 117.78 210.272C117.46 209.968 117.28 209.512 117.24 208.904H118.224C118.264 209.336 118.376 209.628 118.56 209.78C118.752 209.924 119.056 209.996 119.472 209.996C119.84 209.996 120.128 209.92 120.336 209.768C120.552 209.608 120.68 209.32 120.72 208.904H121.716ZM132.772 211.568V218H131.716V212.468H128.392V218H127.336V211.568H132.772ZM137.885 211.448C138.677 211.448 139.313 211.724 139.793 212.276C140.281 212.828 140.525 213.66 140.525 214.772C140.525 215.868 140.281 216.7 139.793 217.268C139.313 217.836 138.673 218.12 137.873 218.12C137.377 218.12 136.965 218.028 136.637 217.844C136.317 217.652 136.065 217.432 135.881 217.184H135.809C135.825 217.32 135.841 217.492 135.857 217.7C135.873 217.908 135.881 218.088 135.881 218.24V220.88H134.825V211.568H135.689L135.833 212.444H135.881C136.073 212.164 136.325 211.928 136.637 211.736C136.949 211.544 137.365 211.448 137.885 211.448ZM137.693 212.336C137.037 212.336 136.573 212.52 136.301 212.888C136.037 213.256 135.897 213.816 135.881 214.568V214.772C135.881 215.564 136.009 216.176 136.265 216.608C136.529 217.032 137.013 217.244 137.717 217.244C138.109 217.244 138.429 217.136 138.677 216.92C138.933 216.704 139.121 216.412 139.241 216.044C139.369 215.668 139.433 215.24 139.433 214.76C139.433 214.024 139.289 213.436 139.001 212.996C138.721 212.556 138.285 212.336 137.693 212.336ZM147.799 214.772C147.799 215.836 147.528 216.66 146.984 217.244C146.448 217.828 145.72 218.12 144.8 218.12C144.232 218.12 143.724 217.992 143.276 217.736C142.836 217.472 142.488 217.092 142.232 216.596C141.976 216.092 141.848 215.484 141.848 214.772C141.848 213.708 142.116 212.888 142.652 212.312C143.188 211.736 143.916 211.448 144.836 211.448C145.42 211.448 145.932 211.58 146.372 211.844C146.82 212.1 147.168 212.476 147.416 212.972C147.672 213.46 147.799 214.06 147.799 214.772ZM142.94 214.772C142.94 215.532 143.088 216.136 143.384 216.584C143.688 217.024 144.168 217.244 144.824 217.244C145.472 217.244 145.948 217.024 146.252 216.584C146.556 216.136 146.708 215.532 146.708 214.772C146.708 214.012 146.556 213.416 146.252 212.984C145.948 212.552 145.468 212.336 144.812 212.336C144.156 212.336 143.68 212.552 143.384 212.984C143.088 213.416 142.94 214.012 142.94 214.772ZM154.249 211.568V217.112H155.185V220.232H154.165V218H149.689V220.232H148.681V217.112H149.197C149.749 216.352 150.161 215.488 150.433 214.52C150.713 213.544 150.857 212.56 150.865 211.568H154.249ZM153.229 212.396H151.801C151.769 212.94 151.685 213.504 151.549 214.088C151.413 214.664 151.237 215.216 151.021 215.744C150.813 216.272 150.569 216.728 150.289 217.112H153.229V212.396ZM155.438 211.568H156.566L157.958 215.228C158.078 215.548 158.186 215.856 158.282 216.152C158.378 216.44 158.45 216.716 158.498 216.98H158.546C158.594 216.78 158.67 216.52 158.774 216.2C158.878 215.872 158.986 215.544 159.098 215.216L160.406 211.568H161.546L158.774 218.888C158.55 219.496 158.258 219.98 157.898 220.34C157.546 220.7 157.058 220.88 156.434 220.88C156.242 220.88 156.074 220.868 155.93 220.844C155.786 220.828 155.662 220.808 155.558 220.784V219.944C155.646 219.96 155.75 219.976 155.87 219.992C155.998 220.008 156.13 220.016 156.266 220.016C156.634 220.016 156.93 219.912 157.154 219.704C157.386 219.496 157.566 219.22 157.694 218.876L158.03 218.024L155.438 211.568ZM166.367 211.568H167.519L164.771 214.664L167.747 218H166.523L163.619 214.736V218H162.563V211.568H163.619V214.688L166.367 211.568ZM173.355 212.456H171.255V218H170.211V212.456H168.135V211.568H173.355V212.456ZM178.735 211.568V215.492C178.735 215.588 178.731 215.732 178.723 215.924C178.715 216.116 178.703 216.308 178.687 216.5C178.679 216.692 178.671 216.844 178.663 216.956L182.107 211.568H183.403V218H182.419V214.208C182.419 214.08 182.419 213.912 182.419 213.704C182.427 213.496 182.435 213.292 182.443 213.092C182.451 212.884 182.459 212.728 182.467 212.624L179.047 218H177.739V211.568H178.735ZM192.35 211.568V218H191.402V213.896C191.402 213.728 191.406 213.552 191.414 213.368C191.43 213.184 191.446 213.004 191.462 212.828H191.426L189.326 218H188.438L186.398 212.828H186.362C186.386 213.188 186.398 213.556 186.398 213.932V218H185.45V211.568H186.854L188.882 216.74L190.946 211.568H192.35ZM196.887 211.448C197.439 211.448 197.911 211.568 198.303 211.808C198.703 212.048 199.007 212.388 199.215 212.828C199.431 213.26 199.539 213.768 199.539 214.352V214.988H195.135C195.151 215.716 195.335 216.272 195.687 216.656C196.047 217.032 196.547 217.22 197.187 217.22C197.595 217.22 197.955 217.184 198.267 217.112C198.587 217.032 198.915 216.92 199.251 216.776V217.7C198.923 217.844 198.599 217.948 198.279 218.012C197.959 218.084 197.579 218.12 197.139 218.12C196.531 218.12 195.991 217.996 195.519 217.748C195.055 217.5 194.691 217.132 194.427 216.644C194.171 216.148 194.043 215.544 194.043 214.832C194.043 214.128 194.159 213.524 194.391 213.02C194.631 212.516 194.963 212.128 195.387 211.856C195.819 211.584 196.319 211.448 196.887 211.448ZM196.875 212.312C196.371 212.312 195.971 212.476 195.675 212.804C195.387 213.124 195.215 213.572 195.159 214.148H198.435C198.427 213.604 198.299 213.164 198.051 212.828C197.803 212.484 197.411 212.312 196.875 212.312ZM202.232 211.568V214.244H205.724V211.568H206.78V218H205.724V215.132H202.232V218H201.176V211.568H202.232ZM209.873 211.568V214.244H213.365V211.568H214.421V218H213.365V215.132H209.873V218H208.817V211.568H209.873ZM222.049 214.772C222.049 215.836 221.778 216.66 221.234 217.244C220.698 217.828 219.97 218.12 219.05 218.12C218.482 218.12 217.974 217.992 217.526 217.736C217.086 217.472 216.738 217.092 216.482 216.596C216.226 216.092 216.098 215.484 216.098 214.772C216.098 213.708 216.366 212.888 216.902 212.312C217.438 211.736 218.166 211.448 219.086 211.448C219.67 211.448 220.182 211.58 220.622 211.844C221.07 212.1 221.418 212.476 221.666 212.972C221.922 213.46 222.049 214.06 222.049 214.772ZM217.19 214.772C217.19 215.532 217.338 216.136 217.634 216.584C217.938 217.024 218.418 217.244 219.074 217.244C219.722 217.244 220.198 217.024 220.502 216.584C220.806 216.136 220.958 215.532 220.958 214.772C220.958 214.012 220.806 213.416 220.502 212.984C220.198 212.552 219.718 212.336 219.062 212.336C218.406 212.336 217.93 212.552 217.634 212.984C217.338 213.416 217.19 214.012 217.19 214.772ZM36.456 229.568V236H35.4V230.468H32.076V236H31.02V229.568H36.456ZM44.1003 232.772C44.1003 233.836 43.8283 234.66 43.2843 235.244C42.7483 235.828 42.0203 236.12 41.1003 236.12C40.5323 236.12 40.0243 235.992 39.5763 235.736C39.1363 235.472 38.7883 235.092 38.5323 234.596C38.2763 234.092 38.1483 233.484 38.1483 232.772C38.1483 231.708 38.4163 230.888 38.9523 230.312C39.4883 229.736 40.2163 229.448 41.1363 229.448C41.7203 229.448 42.2323 229.58 42.6723 229.844C43.1203 230.1 43.4683 230.476 43.7163 230.972C43.9723 231.46 44.1003 232.06 44.1003 232.772ZM39.2403 232.772C39.2403 233.532 39.3883 234.136 39.6843 234.584C39.9883 235.024 40.4683 235.244 41.1243 235.244C41.7723 235.244 42.2483 235.024 42.5523 234.584C42.8563 234.136 43.0083 233.532 43.0083 232.772C43.0083 232.012 42.8563 231.416 42.5523 230.984C42.2483 230.552 41.7683 230.336 41.1123 230.336C40.4563 230.336 39.9803 230.552 39.6843 230.984C39.3883 231.416 39.2403 232.012 39.2403 232.772ZM50.5499 229.568V235.112H51.4859V238.232H50.4659V236H45.9899V238.232H44.9819V235.112H45.4979C46.0499 234.352 46.4619 233.488 46.7339 232.52C47.0139 231.544 47.1579 230.56 47.1659 229.568H50.5499ZM49.5299 230.396H48.1019C48.0699 230.94 47.9859 231.504 47.8499 232.088C47.7139 232.664 47.5379 233.216 47.3219 233.744C47.1139 234.272 46.8699 234.728 46.5899 235.112H49.5299V230.396ZM61.0358 231.188C61.0358 231.588 60.9158 231.9 60.6758 232.124C60.4358 232.348 60.1278 232.5 59.7518 232.58V232.628C60.1518 232.684 60.4998 232.828 60.7958 233.06C61.0918 233.284 61.2398 233.636 61.2398 234.116C61.2398 234.66 61.0358 235.112 60.6278 235.472C60.2278 235.824 59.5638 236 58.6358 236H55.8638V229.568H58.6238C59.0798 229.568 59.4878 229.62 59.8478 229.724C60.2158 229.82 60.5038 229.988 60.7118 230.228C60.9278 230.46 61.0358 230.78 61.0358 231.188ZM59.9678 231.32C59.9678 231.016 59.8558 230.796 59.6318 230.66C59.4158 230.516 59.0598 230.444 58.5638 230.444H56.9198V232.208H58.3717C59.4358 232.208 59.9678 231.912 59.9678 231.32ZM60.1478 234.116C60.1478 233.748 60.0078 233.484 59.7278 233.324C59.4478 233.164 59.0358 233.084 58.4918 233.084H56.9198V235.148H58.5158C59.0438 235.148 59.4478 235.072 59.7278 234.92C60.0078 234.76 60.1478 234.492 60.1478 234.116ZM65.2138 229.46C65.9978 229.46 66.5778 229.632 66.9538 229.976C67.3298 230.32 67.5178 230.868 67.5178 231.62V236H66.7498L66.5458 235.088H66.4978C66.2178 235.44 65.9218 235.7 65.6098 235.868C65.3058 236.036 64.8818 236.12 64.3378 236.12C63.7538 236.12 63.2698 235.968 62.8858 235.664C62.5018 235.352 62.3098 234.868 62.3098 234.212C62.3098 233.572 62.5618 233.08 63.0658 232.736C63.5698 232.384 64.3458 232.192 65.3938 232.16L66.4858 232.124V231.74C66.4858 231.204 66.3698 230.832 66.1378 230.624C65.9058 230.416 65.5778 230.312 65.1538 230.312C64.8178 230.312 64.4978 230.364 64.1938 230.468C63.8898 230.564 63.6058 230.676 63.3418 230.804L63.0178 230.012C63.2978 229.86 63.6298 229.732 64.0138 229.628C64.3978 229.516 64.7978 229.46 65.2138 229.46ZM66.4738 232.856L65.5258 232.892C64.7258 232.924 64.1698 233.052 63.8578 233.276C63.5538 233.5 63.4018 233.816 63.4018 234.224C63.4018 234.584 63.5098 234.848 63.7258 235.016C63.9498 235.184 64.2338 235.268 64.5778 235.268C65.1218 235.268 65.5738 235.12 65.9338 234.824C66.2938 234.52 66.4738 234.056 66.4738 233.432V232.856ZM78.2284 229.568V236H69.5044V229.568H70.5604V235.112H73.3324V229.568H74.3884V235.112H77.1724V229.568H78.2284ZM81.2816 229.568V233.492C81.2816 233.588 81.2776 233.732 81.2696 233.924C81.2616 234.116 81.2496 234.308 81.2336 234.5C81.2256 234.692 81.2176 234.844 81.2096 234.956L84.6536 229.568H85.9496V236H84.9656V232.208C84.9656 232.08 84.9656 231.912 84.9656 231.704C84.9736 231.496 84.9816 231.292 84.9896 231.092C84.9976 230.884 85.0056 230.728 85.0136 230.624L81.5936 236H80.2856V229.568H81.2816ZM97.4618 238.232H96.4297V236H91.1138V229.568H92.1698V235.112H95.4938V229.568H96.5498V235.124H97.4618V238.232ZM101.18 229.448C101.732 229.448 102.204 229.568 102.596 229.808C102.996 230.048 103.3 230.388 103.508 230.828C103.724 231.26 103.832 231.768 103.832 232.352V232.988H99.4278C99.4438 233.716 99.6278 234.272 99.9798 234.656C100.34 235.032 100.84 235.22 101.48 235.22C101.888 235.22 102.248 235.184 102.56 235.112C102.88 235.032 103.208 234.92 103.544 234.776V235.7C103.216 235.844 102.892 235.948 102.572 236.012C102.252 236.084 101.872 236.12 101.432 236.12C100.824 236.12 100.284 235.996 99.8118 235.748C99.3478 235.5 98.9838 235.132 98.7198 234.644C98.4638 234.148 98.3358 233.544 98.3358 232.832C98.3358 232.128 98.4518 231.524 98.6838 231.02C98.9238 230.516 99.2558 230.128 99.6798 229.856C100.112 229.584 100.612 229.448 101.18 229.448ZM101.168 230.312C100.664 230.312 100.264 230.476 99.9678 230.804C99.6798 231.124 99.5078 231.572 99.4518 232.148H102.728C102.72 231.604 102.592 231.164 102.344 230.828C102.096 230.484 101.704 230.312 101.168 230.312ZM110.365 236H109.297V230.444H107.401C107.297 231.796 107.153 232.888 106.969 233.72C106.785 234.544 106.541 235.144 106.237 235.52C105.933 235.896 105.549 236.084 105.085 236.084C104.981 236.084 104.877 236.076 104.773 236.06C104.677 236.052 104.597 236.032 104.533 236V235.208C104.581 235.224 104.633 235.236 104.689 235.244C104.745 235.252 104.801 235.256 104.857 235.256C105.289 235.256 105.633 234.796 105.889 233.876C106.153 232.956 106.353 231.52 106.489 229.568H110.365V236ZM113.403 229.568V233.492C113.403 233.588 113.399 233.732 113.391 233.924C113.383 234.116 113.371 234.308 113.355 234.5C113.347 234.692 113.339 234.844 113.331 234.956L116.775 229.568H118.071V236H117.087V232.208C117.087 232.08 117.087 231.912 117.087 231.704C117.095 231.496 117.103 231.292 117.111 231.092C117.119 230.884 117.127 230.728 117.135 230.624L113.715 236H112.407V229.568H113.403Z" fill="black"/>
</svg>
