<svg width="270" height="270" viewBox="0 0 270 270" fill="none" xmlns="http://www.w3.org/2000/svg">
<rect x="0.5" y="0.5" width="269" height="269" stroke="black"/>
<path d="M81.3662 94.8125C81.014 94.8125 80.6853 94.7168 80.3801 94.5493L77.2578 92.6593C76.7883 92.3961 77.023 92.3004 77.1639 92.2525C77.7978 92.0372 77.9151 91.9894 78.5725 91.6066C78.6429 91.5587 78.7368 91.5826 78.8072 91.6305L81.2018 93.0899C81.2957 93.1378 81.4131 93.1378 81.4835 93.0899L90.8506 87.5633C90.9445 87.5154 90.9914 87.4197 90.9914 87.3001V76.2707C90.9914 76.1511 90.9445 76.0554 90.8506 76.0075L81.4835 70.5048C81.3896 70.457 81.2722 70.457 81.2018 70.5048L71.8348 76.0075C71.7409 76.0554 71.6939 76.175 71.6939 76.2707V87.3001C71.6939 87.3958 71.7409 87.5154 71.8348 87.5633L74.3937 89.0705C75.7788 89.7883 76.6474 88.9509 76.6474 88.1135V77.2277C76.6474 77.0842 76.7648 76.9406 76.9291 76.9406H78.1264C78.2673 76.9406 78.4081 77.0602 78.4081 77.2277V88.1135C78.4081 90.0036 77.3987 91.1042 75.6379 91.1042C75.098 91.1042 74.6754 91.1041 73.4781 90.506L71.0131 89.0705C70.4027 88.7117 70.0271 88.0418 70.0271 87.324V76.2946C70.0271 75.5769 70.4027 74.907 71.0131 74.5481L80.3801 69.0215C80.9671 68.6865 81.7652 68.6865 82.3522 69.0215L91.7192 74.5481C92.3296 74.907 92.7052 75.5769 92.7052 76.2946V87.324C92.7052 88.0418 92.3296 88.7117 91.7192 89.0705L82.3522 94.5972C82.047 94.7407 81.6948 94.8125 81.3662 94.8125ZM84.2537 87.2283C80.1454 87.2283 79.3002 85.3143 79.3002 83.6874C79.3002 83.5439 79.4176 83.4003 79.582 83.4003H80.8027C80.9436 83.4003 81.061 83.496 81.061 83.6396C81.2488 84.9076 81.7887 85.5296 84.2772 85.5296C86.2492 85.5296 87.0944 85.0751 87.0944 83.9985C87.0944 83.3764 86.8596 82.9218 83.7842 82.6108C81.2253 82.3476 79.6289 81.7734 79.6289 79.692C79.6289 77.7541 81.2253 76.6057 83.9016 76.6057C86.9066 76.6057 88.3856 77.6584 88.5734 79.9552C88.5734 80.0269 88.5499 80.0987 88.5029 80.1705C88.456 80.2183 88.3856 80.2662 88.3151 80.2662H87.0944C86.977 80.2662 86.8596 80.1705 86.8361 80.0508C86.5544 78.735 85.8266 78.3043 83.9016 78.3043C81.7418 78.3043 81.4835 79.0699 81.4835 79.6441C81.4835 80.3379 81.7887 80.5533 84.6998 80.9361C87.5874 81.3189 88.949 81.8691 88.949 83.9267C88.9255 86.0321 87.2352 87.2283 84.2537 87.2283Z" fill="#539E43"/>
<path d="M52.3025 51.676C52.3025 51.2454 52.0677 50.8386 51.6921 50.6233L41.7381 44.7856C41.5738 44.6899 41.386 44.6421 41.1982 44.6182H41.1043C40.9165 44.6182 40.7287 44.6899 40.5643 44.7856L30.6104 50.6233C30.2348 50.8386 30 51.2454 30 51.676L30.0235 67.3707C30.0235 67.5861 30.1409 67.8014 30.3287 67.8971C30.5165 68.0167 30.7512 68.0167 30.9156 67.8971L36.8316 64.4519C37.2072 64.2366 37.442 63.8299 37.442 63.3992V56.0543C37.442 55.6236 37.6767 55.2169 38.0524 55.0016L40.5643 53.5182C40.7521 53.3986 40.9634 53.3507 41.1747 53.3507C41.386 53.3507 41.5973 53.3986 41.7616 53.5182L44.2736 55.0016C44.6492 55.2169 44.884 55.6236 44.884 56.0543V63.3992C44.884 63.8299 45.1187 64.2366 45.4944 64.4519L51.4104 67.8971C51.5982 68.0167 51.833 68.0167 52.0208 67.8971C52.2086 67.8014 52.326 67.5861 52.326 67.3707L52.3025 51.676Z" fill="#333333"/>
<path d="M100.147 30.0718C99.9594 29.9761 99.7246 29.9761 99.5603 30.0718C99.3725 30.1914 99.2551 30.3828 99.2551 30.5981V46.1493C99.2551 46.2929 99.1847 46.4364 99.0438 46.5321C98.9029 46.6039 98.7621 46.6039 98.6212 46.5321L96.1327 45.0727C95.7571 44.8574 95.3111 44.8574 94.9355 45.0727L84.9815 50.9343C84.6059 51.1496 84.3711 51.5563 84.3711 51.987V63.6862C84.3711 64.1169 84.6059 64.5236 84.9815 64.7389L94.9355 70.6005C95.3111 70.8159 95.7571 70.8159 96.1327 70.6005L106.087 64.7389C106.462 64.5236 106.697 64.1169 106.697 63.6862V34.5218C106.697 34.0672 106.462 33.6605 106.087 33.4452L100.147 30.0718ZM99.2316 59.8343C99.2316 59.954 99.1847 60.0497 99.0908 60.0975L95.6867 62.1072C95.5928 62.1551 95.4754 62.1551 95.3815 62.1072L91.9774 60.0975C91.8835 60.0497 91.8366 59.93 91.8366 59.8343V55.815C91.8366 55.6953 91.8835 55.5996 91.9774 55.5518L95.3815 53.5421C95.4754 53.4942 95.5928 53.4942 95.6867 53.5421L99.0908 55.5518C99.1847 55.5996 99.2316 55.7193 99.2316 55.815V59.8343Z" fill="#333333"/>
<path d="M133.272 55.7192C133.648 55.5039 133.859 55.0972 133.859 54.6665V51.8194C133.859 51.3888 133.624 50.9821 133.272 50.7667L123.389 44.9291C123.013 44.7137 122.567 44.7137 122.191 44.9291L112.237 50.7907C111.862 51.006 111.627 51.4127 111.627 51.8434V63.5426C111.627 63.9733 111.862 64.38 112.237 64.5953L122.121 70.3373C122.497 70.5526 122.943 70.5526 123.295 70.3373L129.281 66.94C129.469 66.8443 129.586 66.629 129.586 66.4136C129.586 66.1983 129.469 65.983 129.281 65.8873L119.28 60.0257C119.093 59.9061 118.975 59.7147 118.975 59.4993V55.8388C118.975 55.6235 119.093 55.4082 119.28 55.3125L122.403 53.4942C122.591 53.3746 122.825 53.3746 123.013 53.4942L126.135 55.3125C126.323 55.4321 126.441 55.6235 126.441 55.8388V58.7098C126.441 58.9251 126.558 59.1405 126.746 59.2362C126.934 59.3558 127.168 59.3558 127.356 59.2362L133.272 55.7192Z" fill="#333333"/>
<path d="M122.637 55.1689C122.708 55.1211 122.802 55.1211 122.872 55.1689L124.774 56.2934C124.844 56.3413 124.891 56.413 124.891 56.5087V58.7577C124.891 58.8534 124.844 58.9252 124.774 58.973L122.872 60.0975C122.802 60.1453 122.708 60.1453 122.637 60.0975L120.736 58.973C120.665 58.9252 120.619 58.8534 120.619 58.7577V56.5087C120.619 56.413 120.665 56.3413 120.736 56.2934L122.637 55.1689Z" fill="#539E43"/>
<mask id="mask0_15_1956" style="mask-type:alpha" maskUnits="userSpaceOnUse" x="57" y="44" width="23" height="27">
<path d="M68.9472 44.9769C68.5715 44.7616 68.1255 44.7616 67.7499 44.9769L57.8664 50.7907C57.4907 51.006 57.2794 51.4127 57.2794 51.8434V63.4948C57.2794 63.9254 57.5142 64.3322 57.8664 64.5475L67.7499 70.3612C68.1255 70.5766 68.5715 70.5766 68.9472 70.3612L78.8307 64.5475C79.2063 64.3322 79.4176 63.9254 79.4176 63.4948V51.8434C79.4176 51.4127 79.1828 51.006 78.8307 50.7907L68.9472 44.9769Z" fill="white"/>
</mask>
<g mask="url(#mask0_15_1956)">
<path d="M68.9472 44.9769C68.5715 44.7616 68.1255 44.7616 67.7499 44.9769L57.8664 50.7907C57.4907 51.006 57.2794 51.4127 57.2794 51.8434V63.4948C57.2794 63.9254 57.5142 64.3322 57.8664 64.5475L67.7499 70.3612C68.1255 70.5766 68.5715 70.5766 68.9472 70.3612L78.8307 64.5475C79.2063 64.3322 79.4176 63.9254 79.4176 63.4948V51.8434C79.4176 51.4127 79.1828 51.006 78.8307 50.7907L68.9472 44.9769Z" fill="url(#paint0_linear_15_1956)"/>
<path d="M78.8542 50.7901L68.9237 44.9763C68.8298 44.9285 68.7124 44.8806 68.6185 44.8567L57.4908 64.2837C57.5847 64.4033 57.702 64.499 57.8194 64.5708L67.7499 70.3845C68.0316 70.552 68.3603 70.5999 68.6655 70.5042L79.1124 51.0293C79.042 50.9336 78.9481 50.8618 78.8542 50.7901Z" fill="url(#paint1_linear_15_1956)"/>
<path fill-rule="evenodd" clip-rule="evenodd" d="M78.8777 64.5476C79.1594 64.3802 79.3707 64.0931 79.4646 63.782L68.5716 44.8335C68.2898 44.7857 67.9846 44.8096 67.7264 44.9771L57.8664 50.7669L68.5011 70.5289C68.642 70.5049 68.8063 70.4571 68.9472 70.3853L78.8777 64.5476Z" fill="url(#paint2_linear_15_1956)"/>
<path fill-rule="evenodd" clip-rule="evenodd" d="M78.8776 64.5473L68.9706 70.3611C68.8298 70.4329 68.6889 70.4807 68.5246 70.5046L68.7124 70.8635L79.6993 64.3799V64.2363L79.4176 63.7578C79.3706 64.0928 79.1594 64.3799 78.8776 64.5473Z" fill="url(#paint3_linear_15_1956)"/>
<path fill-rule="evenodd" clip-rule="evenodd" d="M78.8776 64.5473L68.9706 70.3611C68.8298 70.4329 68.6889 70.4807 68.5246 70.5046L68.7124 70.8635L79.6993 64.3799V64.2363L79.4176 63.7578C79.3706 64.0928 79.1594 64.3799 78.8776 64.5473Z" fill="url(#paint4_linear_15_1956)"/>
</g>
<path d="M39.66 130H37.266L33.262 123.938V130H30.868V120.172H33.262L37.266 126.262V120.172H39.66V130ZM44.9513 130.112C44.186 130.112 43.4953 129.949 42.8793 129.622C42.2727 129.295 41.792 128.829 41.4373 128.222C41.092 127.615 40.9193 126.906 40.9193 126.094C40.9193 125.291 41.0967 124.587 41.4513 123.98C41.806 123.364 42.2913 122.893 42.9073 122.566C43.5233 122.239 44.214 122.076 44.9793 122.076C45.7447 122.076 46.4353 122.239 47.0513 122.566C47.6673 122.893 48.1527 123.364 48.5073 123.98C48.862 124.587 49.0393 125.291 49.0393 126.094C49.0393 126.897 48.8573 127.606 48.4933 128.222C48.1387 128.829 47.6487 129.295 47.0233 129.622C46.4073 129.949 45.7167 130.112 44.9513 130.112ZM44.9513 128.04C45.4087 128.04 45.796 127.872 46.1133 127.536C46.44 127.2 46.6033 126.719 46.6033 126.094C46.6033 125.469 46.4447 124.988 46.1273 124.652C45.8193 124.316 45.4367 124.148 44.9793 124.148C44.5127 124.148 44.1253 124.316 43.8173 124.652C43.5093 124.979 43.3553 125.459 43.3553 126.094C43.3553 126.719 43.5047 127.2 43.8033 127.536C44.1113 127.872 44.494 128.04 44.9513 128.04ZM49.8334 126.08C49.8334 125.277 49.9827 124.573 50.2814 123.966C50.5894 123.359 51.0047 122.893 51.5274 122.566C52.0501 122.239 52.6334 122.076 53.2774 122.076C53.7907 122.076 54.2574 122.183 54.6774 122.398C55.1067 122.613 55.4427 122.902 55.6854 123.266V119.64H58.0794V130H55.6854V128.88C55.4614 129.253 55.1394 129.552 54.7194 129.776C54.3087 130 53.8281 130.112 53.2774 130.112C52.6334 130.112 52.0501 129.949 51.5274 129.622C51.0047 129.286 50.5894 128.815 50.2814 128.208C49.9827 127.592 49.8334 126.883 49.8334 126.08ZM55.6854 126.094C55.6854 125.497 55.5174 125.025 55.1814 124.68C54.8547 124.335 54.4534 124.162 53.9774 124.162C53.5014 124.162 53.0954 124.335 52.7594 124.68C52.4327 125.016 52.2694 125.483 52.2694 126.08C52.2694 126.677 52.4327 127.153 52.7594 127.508C53.0954 127.853 53.5014 128.026 53.9774 128.026C54.4534 128.026 54.8547 127.853 55.1814 127.508C55.5174 127.163 55.6854 126.691 55.6854 126.094ZM67.1754 125.968C67.1754 126.192 67.1614 126.425 67.1334 126.668H61.7154C61.7527 127.153 61.9067 127.527 62.1774 127.788C62.4574 128.04 62.798 128.166 63.1994 128.166C63.7967 128.166 64.212 127.914 64.4454 127.41H66.9934C66.8627 127.923 66.6247 128.385 66.2794 128.796C65.9434 129.207 65.5187 129.529 65.0054 129.762C64.492 129.995 63.918 130.112 63.2834 130.112C62.518 130.112 61.8367 129.949 61.2394 129.622C60.642 129.295 60.1754 128.829 59.8394 128.222C59.5034 127.615 59.3354 126.906 59.3354 126.094C59.3354 125.282 59.4987 124.573 59.8254 123.966C60.1614 123.359 60.628 122.893 61.2254 122.566C61.8227 122.239 62.5087 122.076 63.2834 122.076C64.0394 122.076 64.7114 122.235 65.2994 122.552C65.8874 122.869 66.3447 123.322 66.6714 123.91C67.0074 124.498 67.1754 125.184 67.1754 125.968ZM64.7254 125.338C64.7254 124.927 64.5854 124.601 64.3054 124.358C64.0254 124.115 63.6754 123.994 63.2554 123.994C62.854 123.994 62.5134 124.111 62.2334 124.344C61.9627 124.577 61.7947 124.909 61.7294 125.338H64.7254ZM69.5583 130.112C69.1383 130.112 68.793 129.991 68.5223 129.748C68.261 129.496 68.1303 129.188 68.1303 128.824C68.1303 128.451 68.261 128.138 68.5223 127.886C68.793 127.634 69.1383 127.508 69.5583 127.508C69.969 127.508 70.305 127.634 70.5663 127.886C70.837 128.138 70.9723 128.451 70.9723 128.824C70.9723 129.188 70.837 129.496 70.5663 129.748C70.305 129.991 69.969 130.112 69.5583 130.112ZM73.5795 121.376C73.1595 121.376 72.8142 121.255 72.5435 121.012C72.2822 120.76 72.1515 120.452 72.1515 120.088C72.1515 119.715 72.2822 119.407 72.5435 119.164C72.8142 118.912 73.1595 118.786 73.5795 118.786C73.9902 118.786 74.3262 118.912 74.5875 119.164C74.8582 119.407 74.9935 119.715 74.9935 120.088C74.9935 120.452 74.8582 120.76 74.5875 121.012C74.3262 121.255 73.9902 121.376 73.5795 121.376ZM74.7835 131.008C74.7835 131.969 74.5408 132.66 74.0555 133.08C73.5702 133.509 72.8935 133.724 72.0255 133.724H71.0875V131.694H71.6615C71.9228 131.694 72.1095 131.643 72.2215 131.54C72.3335 131.437 72.3895 131.269 72.3895 131.036V122.188H74.7835V131.008ZM79.6827 130.112C79.0014 130.112 78.3947 129.995 77.8627 129.762C77.3307 129.529 76.9107 129.211 76.6027 128.81C76.2947 128.399 76.1221 127.942 76.0847 127.438H78.4507C78.4787 127.709 78.6047 127.928 78.8287 128.096C79.0527 128.264 79.3281 128.348 79.6547 128.348C79.9534 128.348 80.1821 128.292 80.3407 128.18C80.5087 128.059 80.5927 127.905 80.5927 127.718C80.5927 127.494 80.4761 127.331 80.2427 127.228C80.0094 127.116 79.6314 126.995 79.1087 126.864C78.5487 126.733 78.0821 126.598 77.7087 126.458C77.3354 126.309 77.0134 126.08 76.7427 125.772C76.4721 125.455 76.3367 125.03 76.3367 124.498C76.3367 124.05 76.4581 123.644 76.7007 123.28C76.9527 122.907 77.3167 122.613 77.7927 122.398C78.2781 122.183 78.8521 122.076 79.5147 122.076C80.4947 122.076 81.2647 122.319 81.8247 122.804C82.3941 123.289 82.7207 123.933 82.8047 124.736H80.5927C80.5554 124.465 80.4341 124.251 80.2287 124.092C80.0327 123.933 79.7714 123.854 79.4447 123.854C79.1647 123.854 78.9501 123.91 78.8007 124.022C78.6514 124.125 78.5767 124.269 78.5767 124.456C78.5767 124.68 78.6934 124.848 78.9267 124.96C79.1694 125.072 79.5427 125.184 80.0467 125.296C80.6254 125.445 81.0967 125.595 81.4607 125.744C81.8247 125.884 82.1421 126.117 82.4127 126.444C82.6927 126.761 82.8374 127.191 82.8467 127.732C82.8467 128.189 82.7161 128.6 82.4547 128.964C82.2027 129.319 81.8341 129.599 81.3487 129.804C80.8727 130.009 80.3174 130.112 79.6827 130.112Z" fill="black"/>
<path d="M32.784 156.26C32.384 156.26 32.02 156.308 31.692 156.404C31.364 156.492 31.068 156.596 30.804 156.716L30.36 155.816C30.688 155.656 31.064 155.532 31.488 155.444C31.912 155.356 32.348 155.312 32.796 155.312C33.716 155.312 34.472 155.496 35.064 155.864C35.664 156.232 36.112 156.74 36.408 157.388C36.704 158.028 36.852 158.756 36.852 159.572C36.852 160.508 36.7 161.316 36.396 161.996C36.092 162.676 35.632 163.2 35.016 163.568C34.408 163.936 33.64 164.12 32.712 164.12C32.216 164.12 31.796 164.092 31.452 164.036C31.108 163.98 30.768 163.892 30.432 163.772V162.836C30.768 162.924 31.108 163.004 31.452 163.076C31.796 163.14 32.16 163.172 32.544 163.172C33.576 163.172 34.352 162.9 34.872 162.356C35.4 161.804 35.68 161.016 35.712 159.992H31.548V159.044H35.7C35.62 158.164 35.32 157.48 34.8 156.992C34.288 156.504 33.616 156.26 32.784 156.26ZM43.0538 158.456H40.9538V164H39.9098V158.456H37.8338V157.568H43.0538V158.456ZM46.7568 157.46C47.5408 157.46 48.1208 157.632 48.4968 157.976C48.8728 158.32 49.0608 158.868 49.0608 159.62V164H48.2928L48.0888 163.088H48.0408C47.7608 163.44 47.4648 163.7 47.1528 163.868C46.8488 164.036 46.4248 164.12 45.8808 164.12C45.2968 164.12 44.8128 163.968 44.4288 163.664C44.0448 163.352 43.8528 162.868 43.8528 162.212C43.8528 161.572 44.1048 161.08 44.6088 160.736C45.1128 160.384 45.8888 160.192 46.9368 160.16L48.0288 160.124V159.74C48.0288 159.204 47.9128 158.832 47.6808 158.624C47.4488 158.416 47.1208 158.312 46.6968 158.312C46.3608 158.312 46.0408 158.364 45.7368 158.468C45.4328 158.564 45.1488 158.676 44.8848 158.804L44.5608 158.012C44.8408 157.86 45.1728 157.732 45.5568 157.628C45.9408 157.516 46.3408 157.46 46.7568 157.46ZM48.0168 160.856L47.0688 160.892C46.2688 160.924 45.7128 161.052 45.4008 161.276C45.0968 161.5 44.9448 161.816 44.9448 162.224C44.9448 162.584 45.0528 162.848 45.2688 163.016C45.4928 163.184 45.7768 163.268 46.1208 163.268C46.6648 163.268 47.1168 163.12 47.4768 162.824C47.8368 162.52 48.0168 162.056 48.0168 161.432V160.856ZM59.6005 157.568V164H58.5445V158.468H55.2205V164H54.1645V157.568H59.6005ZM66.5488 164H65.4808V158.444H63.5848C63.4808 159.796 63.3368 160.888 63.1528 161.72C62.9688 162.544 62.7248 163.144 62.4208 163.52C62.1168 163.896 61.7328 164.084 61.2688 164.084C61.1648 164.084 61.0608 164.076 60.9568 164.06C60.8608 164.052 60.7808 164.032 60.7168 164V163.208C60.7648 163.224 60.8168 163.236 60.8728 163.244C60.9288 163.252 60.9848 163.256 61.0408 163.256C61.4728 163.256 61.8168 162.796 62.0728 161.876C62.3368 160.956 62.5368 159.52 62.6728 157.568H66.5488V164ZM71.0263 157.46C71.8103 157.46 72.3903 157.632 72.7663 157.976C73.1423 158.32 73.3303 158.868 73.3303 159.62V164H72.5623L72.3583 163.088H72.3103C72.0303 163.44 71.7343 163.7 71.4223 163.868C71.1183 164.036 70.6943 164.12 70.1503 164.12C69.5663 164.12 69.0823 163.968 68.6983 163.664C68.3143 163.352 68.1223 162.868 68.1223 162.212C68.1223 161.572 68.3743 161.08 68.8783 160.736C69.3823 160.384 70.1583 160.192 71.2063 160.16L72.2983 160.124V159.74C72.2983 159.204 72.1823 158.832 71.9503 158.624C71.7183 158.416 71.3903 158.312 70.9663 158.312C70.6303 158.312 70.3103 158.364 70.0063 158.468C69.7023 158.564 69.4183 158.676 69.1543 158.804L68.8303 158.012C69.1103 157.86 69.4423 157.732 69.8263 157.628C70.2103 157.516 70.6103 157.46 71.0263 157.46ZM72.2863 160.856L71.3383 160.892C70.5383 160.924 69.9823 161.052 69.6703 161.276C69.3663 161.5 69.2143 161.816 69.2143 162.224C69.2143 162.584 69.3223 162.848 69.5383 163.016C69.7623 163.184 70.0463 163.268 70.3903 163.268C70.9343 163.268 71.3863 163.12 71.7463 162.824C72.1063 162.52 72.2863 162.056 72.2863 161.432V160.856ZM79.7569 158.456H77.6569V164H76.6129V158.456H74.5369V157.568H79.7569V158.456ZM84.7467 154.88V157.472C85.3867 157.528 85.9427 157.696 86.4147 157.976C86.8947 158.256 87.2667 158.632 87.5307 159.104C87.7947 159.576 87.9267 160.136 87.9267 160.784C87.9267 161.752 87.6427 162.524 87.0747 163.1C86.5147 163.676 85.7387 164.008 84.7467 164.096V166.88H83.7147V164.096C83.0827 164.04 82.5267 163.876 82.0467 163.604C81.5667 163.324 81.1947 162.948 80.9307 162.476C80.6667 161.996 80.5347 161.432 80.5347 160.784C80.5347 159.808 80.8147 159.032 81.3747 158.456C81.9427 157.88 82.7347 157.552 83.7507 157.472V154.88H84.7467ZM83.7507 158.348C83.0147 158.42 82.4787 158.664 82.1427 159.08C81.8067 159.488 81.6387 160.056 81.6387 160.784C81.6387 161.512 81.8067 162.084 82.1427 162.5C82.4867 162.916 83.0227 163.16 83.7507 163.232V158.348ZM84.7467 158.36V163.232C85.4667 163.152 85.9947 162.904 86.3307 162.488C86.6667 162.072 86.8347 161.504 86.8347 160.784C86.8347 160.064 86.6627 159.5 86.3187 159.092C85.9827 158.684 85.4587 158.44 84.7467 158.36ZM95.194 160.772C95.194 161.836 94.922 162.66 94.378 163.244C93.842 163.828 93.114 164.12 92.194 164.12C91.626 164.12 91.118 163.992 90.67 163.736C90.23 163.472 89.882 163.092 89.626 162.596C89.37 162.092 89.242 161.484 89.242 160.772C89.242 159.708 89.51 158.888 90.046 158.312C90.582 157.736 91.31 157.448 92.23 157.448C92.814 157.448 93.326 157.58 93.766 157.844C94.214 158.1 94.562 158.476 94.81 158.972C95.066 159.46 95.194 160.06 95.194 160.772ZM90.334 160.772C90.334 161.532 90.482 162.136 90.778 162.584C91.082 163.024 91.562 163.244 92.218 163.244C92.866 163.244 93.342 163.024 93.646 162.584C93.95 162.136 94.102 161.532 94.102 160.772C94.102 160.012 93.95 159.416 93.646 158.984C93.342 158.552 92.862 158.336 92.206 158.336C91.55 158.336 91.074 158.552 90.778 158.984C90.482 159.416 90.334 160.012 90.334 160.772ZM99.9277 157.448C100.72 157.448 101.356 157.724 101.836 158.276C102.324 158.828 102.568 159.66 102.568 160.772C102.568 161.868 102.324 162.7 101.836 163.268C101.356 163.836 100.716 164.12 99.9157 164.12C99.4197 164.12 99.0077 164.028 98.6797 163.844C98.3597 163.652 98.1077 163.432 97.9237 163.184H97.8517C97.8677 163.32 97.8837 163.492 97.8997 163.7C97.9157 163.908 97.9237 164.088 97.9237 164.24V166.88H96.8677V157.568H97.7317L97.8757 158.444H97.9237C98.1157 158.164 98.3677 157.928 98.6797 157.736C98.9917 157.544 99.4077 157.448 99.9277 157.448ZM99.7357 158.336C99.0797 158.336 98.6157 158.52 98.3437 158.888C98.0797 159.256 97.9397 159.816 97.9237 160.568V160.772C97.9237 161.564 98.0517 162.176 98.3077 162.608C98.5717 163.032 99.0557 163.244 99.7597 163.244C100.152 163.244 100.472 163.136 100.72 162.92C100.976 162.704 101.164 162.412 101.284 162.044C101.412 161.668 101.476 161.24 101.476 160.76C101.476 160.024 101.332 159.436 101.044 158.996C100.764 158.556 100.328 158.336 99.7357 158.336ZM111.15 157.568V164H110.202V159.896C110.202 159.728 110.206 159.552 110.214 159.368C110.23 159.184 110.246 159.004 110.262 158.828H110.226L108.126 164H107.238L105.198 158.828H105.162C105.186 159.188 105.198 159.556 105.198 159.932V164H104.25V157.568H105.654L107.682 162.74L109.746 157.568H111.15ZM115.64 157.46C116.424 157.46 117.004 157.632 117.38 157.976C117.756 158.32 117.944 158.868 117.944 159.62V164H117.176L116.972 163.088H116.924C116.644 163.44 116.348 163.7 116.036 163.868C115.732 164.036 115.308 164.12 114.764 164.12C114.18 164.12 113.696 163.968 113.312 163.664C112.928 163.352 112.736 162.868 112.736 162.212C112.736 161.572 112.988 161.08 113.492 160.736C113.996 160.384 114.772 160.192 115.82 160.16L116.912 160.124V159.74C116.912 159.204 116.796 158.832 116.564 158.624C116.332 158.416 116.004 158.312 115.58 158.312C115.244 158.312 114.924 158.364 114.62 158.468C114.316 158.564 114.032 158.676 113.768 158.804L113.444 158.012C113.724 157.86 114.056 157.732 114.44 157.628C114.824 157.516 115.224 157.46 115.64 157.46ZM116.9 160.856L115.952 160.892C115.152 160.924 114.596 161.052 114.284 161.276C113.98 161.5 113.828 161.816 113.828 162.224C113.828 162.584 113.936 162.848 114.152 163.016C114.376 163.184 114.66 163.268 115.004 163.268C115.548 163.268 116 163.12 116.36 162.824C116.72 162.52 116.9 162.056 116.9 161.432V160.856ZM128.483 157.568V164H127.427V158.468H124.103V164H123.047V157.568H128.483ZM136.128 160.772C136.128 161.836 135.856 162.66 135.312 163.244C134.776 163.828 134.048 164.12 133.128 164.12C132.56 164.12 132.052 163.992 131.604 163.736C131.164 163.472 130.816 163.092 130.56 162.596C130.304 162.092 130.176 161.484 130.176 160.772C130.176 159.708 130.444 158.888 130.98 158.312C131.516 157.736 132.244 157.448 133.164 157.448C133.748 157.448 134.26 157.58 134.7 157.844C135.148 158.1 135.496 158.476 135.744 158.972C136 159.46 136.128 160.06 136.128 160.772ZM131.268 160.772C131.268 161.532 131.416 162.136 131.712 162.584C132.016 163.024 132.496 163.244 133.152 163.244C133.8 163.244 134.276 163.024 134.58 162.584C134.884 162.136 135.036 161.532 135.036 160.772C135.036 160.012 134.884 159.416 134.58 158.984C134.276 158.552 133.796 158.336 133.14 158.336C132.484 158.336 132.008 158.552 131.712 158.984C131.416 159.416 131.268 160.012 131.268 160.772ZM139.493 157.448C140.229 157.448 140.813 157.596 141.245 157.892C141.685 158.18 141.905 158.596 141.905 159.14C141.905 159.532 141.797 159.844 141.581 160.076C141.365 160.3 141.069 160.464 140.693 160.568V160.616C140.949 160.688 141.185 160.788 141.401 160.916C141.617 161.044 141.789 161.212 141.917 161.42C142.053 161.628 142.121 161.896 142.121 162.224C142.121 162.76 141.897 163.212 141.449 163.58C141.009 163.94 140.317 164.12 139.373 164.12C138.909 164.12 138.489 164.08 138.113 164C137.737 163.928 137.425 163.828 137.177 163.7V162.752C137.449 162.88 137.769 162.996 138.137 163.1C138.513 163.204 138.921 163.256 139.361 163.256C139.841 163.256 140.245 163.176 140.573 163.016C140.909 162.848 141.077 162.564 141.077 162.164C141.077 161.444 140.465 161.084 139.241 161.084H138.377V160.22H139.073C139.625 160.22 140.065 160.148 140.393 160.004C140.729 159.852 140.897 159.596 140.897 159.236C140.897 158.932 140.769 158.704 140.513 158.552C140.265 158.4 139.905 158.324 139.433 158.324C139.081 158.324 138.769 158.36 138.497 158.432C138.233 158.496 137.941 158.596 137.621 158.732L137.249 157.892C137.921 157.596 138.669 157.448 139.493 157.448ZM148.856 159.188C148.856 159.588 148.736 159.9 148.496 160.124C148.256 160.348 147.948 160.5 147.572 160.58V160.628C147.972 160.684 148.32 160.828 148.616 161.06C148.912 161.284 149.06 161.636 149.06 162.116C149.06 162.66 148.856 163.112 148.448 163.472C148.048 163.824 147.384 164 146.456 164H143.684V157.568H146.444C146.9 157.568 147.308 157.62 147.668 157.724C148.036 157.82 148.324 157.988 148.532 158.228C148.748 158.46 148.856 158.78 148.856 159.188ZM147.788 159.32C147.788 159.016 147.676 158.796 147.452 158.66C147.236 158.516 146.88 158.444 146.384 158.444H144.74V160.208H146.192C147.256 160.208 147.788 159.912 147.788 159.32ZM147.968 162.116C147.968 161.748 147.828 161.484 147.548 161.324C147.268 161.164 146.856 161.084 146.312 161.084H144.74V163.148H146.336C146.864 163.148 147.268 163.072 147.548 162.92C147.828 162.76 147.968 162.492 147.968 162.116ZM156.19 160.772C156.19 161.836 155.918 162.66 155.374 163.244C154.838 163.828 154.11 164.12 153.19 164.12C152.622 164.12 152.114 163.992 151.666 163.736C151.226 163.472 150.878 163.092 150.622 162.596C150.366 162.092 150.238 161.484 150.238 160.772C150.238 159.708 150.506 158.888 151.042 158.312C151.578 157.736 152.306 157.448 153.226 157.448C153.81 157.448 154.322 157.58 154.762 157.844C155.21 158.1 155.558 158.476 155.806 158.972C156.062 159.46 156.19 160.06 156.19 160.772ZM151.33 160.772C151.33 161.532 151.478 162.136 151.774 162.584C152.078 163.024 152.558 163.244 153.214 163.244C153.862 163.244 154.338 163.024 154.642 162.584C154.946 162.136 155.098 161.532 155.098 160.772C155.098 160.012 154.946 159.416 154.642 158.984C154.338 158.552 153.858 158.336 153.202 158.336C152.546 158.336 152.07 158.552 151.774 158.984C151.478 159.416 151.33 160.012 151.33 160.772ZM162.76 164H161.692V158.444H159.796C159.692 159.796 159.548 160.888 159.364 161.72C159.18 162.544 158.936 163.144 158.632 163.52C158.328 163.896 157.944 164.084 157.48 164.084C157.376 164.084 157.272 164.076 157.168 164.06C157.072 164.052 156.992 164.032 156.928 164V163.208C156.976 163.224 157.028 163.236 157.084 163.244C157.14 163.252 157.196 163.256 157.252 163.256C157.684 163.256 158.028 162.796 158.284 161.876C158.548 160.956 158.748 159.52 158.884 157.568H162.76V164ZM165.197 164H163.973L165.809 161.3C165.561 161.236 165.321 161.136 165.089 161C164.857 160.856 164.669 160.66 164.525 160.412C164.381 160.156 164.309 159.84 164.309 159.464C164.309 158.848 164.517 158.38 164.933 158.06C165.349 157.732 165.901 157.568 166.589 157.568H169.469V164H168.413V161.444H166.853L165.197 164ZM165.329 159.476C165.329 159.844 165.465 160.12 165.737 160.304C166.017 160.48 166.405 160.568 166.901 160.568H168.413V158.444H166.697C166.209 158.444 165.857 158.54 165.641 158.732C165.433 158.924 165.329 159.172 165.329 159.476ZM173.988 157.448C174.54 157.448 175.012 157.568 175.404 157.808C175.804 158.048 176.108 158.388 176.316 158.828C176.532 159.26 176.64 159.768 176.64 160.352V160.988H172.236C172.252 161.716 172.436 162.272 172.788 162.656C173.148 163.032 173.648 163.22 174.288 163.22C174.696 163.22 175.056 163.184 175.368 163.112C175.688 163.032 176.016 162.92 176.352 162.776V163.7C176.024 163.844 175.7 163.948 175.38 164.012C175.06 164.084 174.68 164.12 174.24 164.12C173.632 164.12 173.092 163.996 172.62 163.748C172.156 163.5 171.792 163.132 171.528 162.644C171.272 162.148 171.144 161.544 171.144 160.832C171.144 160.128 171.26 159.524 171.492 159.02C171.732 158.516 172.064 158.128 172.488 157.856C172.92 157.584 173.42 157.448 173.988 157.448ZM173.976 158.312C173.472 158.312 173.072 158.476 172.776 158.804C172.488 159.124 172.316 159.572 172.26 160.148H175.536C175.528 159.604 175.4 159.164 175.152 158.828C174.904 158.484 174.512 158.312 173.976 158.312ZM182.718 158.456H180.618V164H179.574V158.456H177.498V157.568H182.718V158.456ZM33.6 182.12C33.032 182.12 32.524 182.004 32.076 181.772C31.636 181.54 31.288 181.18 31.032 180.692C30.784 180.204 30.66 179.58 30.66 178.82C30.66 178.028 30.792 177.384 31.056 176.888C31.32 176.392 31.676 176.028 32.124 175.796C32.58 175.564 33.096 175.448 33.672 175.448C34 175.448 34.316 175.484 34.62 175.556C34.924 175.62 35.172 175.7 35.364 175.796L35.04 176.672C34.848 176.6 34.624 176.532 34.368 176.468C34.112 176.404 33.872 176.372 33.648 176.372C32.384 176.372 31.752 177.184 31.752 178.808C31.752 179.584 31.904 180.18 32.208 180.596C32.52 181.004 32.98 181.208 33.588 181.208C33.94 181.208 34.248 181.172 34.512 181.1C34.784 181.028 35.032 180.94 35.256 180.836V181.772C35.04 181.884 34.8 181.968 34.536 182.024C34.28 182.088 33.968 182.12 33.6 182.12ZM42.3776 178.772C42.3776 179.836 42.1056 180.66 41.5616 181.244C41.0256 181.828 40.2976 182.12 39.3776 182.12C38.8096 182.12 38.3016 181.992 37.8536 181.736C37.4136 181.472 37.0656 181.092 36.8096 180.596C36.5536 180.092 36.4256 179.484 36.4256 178.772C36.4256 177.708 36.6936 176.888 37.2296 176.312C37.7656 175.736 38.4936 175.448 39.4136 175.448C39.9976 175.448 40.5096 175.58 40.9496 175.844C41.3976 176.1 41.7456 176.476 41.9936 176.972C42.2496 177.46 42.3776 178.06 42.3776 178.772ZM37.5176 178.772C37.5176 179.532 37.6656 180.136 37.9616 180.584C38.2656 181.024 38.7456 181.244 39.4016 181.244C40.0496 181.244 40.5256 181.024 40.8296 180.584C41.1336 180.136 41.2856 179.532 41.2856 178.772C41.2856 178.012 41.1336 177.416 40.8296 176.984C40.5256 176.552 40.0456 176.336 39.3896 176.336C38.7336 176.336 38.2576 176.552 37.9616 176.984C37.6656 177.416 37.5176 178.012 37.5176 178.772ZM45.7433 175.448C46.4793 175.448 47.0633 175.596 47.4953 175.892C47.9353 176.18 48.1553 176.596 48.1553 177.14C48.1553 177.532 48.0473 177.844 47.8313 178.076C47.6153 178.3 47.3193 178.464 46.9433 178.568V178.616C47.1993 178.688 47.4353 178.788 47.6513 178.916C47.8673 179.044 48.0393 179.212 48.1673 179.42C48.3033 179.628 48.3713 179.896 48.3713 180.224C48.3713 180.76 48.1473 181.212 47.6993 181.58C47.2593 181.94 46.5673 182.12 45.6233 182.12C45.1593 182.12 44.7393 182.08 44.3633 182C43.9873 181.928 43.6753 181.828 43.4272 181.7V180.752C43.6993 180.88 44.0193 180.996 44.3873 181.1C44.7633 181.204 45.1713 181.256 45.6113 181.256C46.0913 181.256 46.4953 181.176 46.8233 181.016C47.1593 180.848 47.3273 180.564 47.3273 180.164C47.3273 179.444 46.7153 179.084 45.4913 179.084H44.6273V178.22H45.3233C45.8753 178.22 46.3153 178.148 46.6433 178.004C46.9793 177.852 47.1473 177.596 47.1473 177.236C47.1473 176.932 47.0193 176.704 46.7633 176.552C46.5153 176.4 46.1553 176.324 45.6833 176.324C45.3313 176.324 45.0193 176.36 44.7473 176.432C44.4833 176.496 44.1913 176.596 43.8713 176.732L43.4993 175.892C44.1713 175.596 44.9193 175.448 45.7433 175.448ZM54.7101 175.568V181.112H55.6461V184.232H54.6261V182H50.1501V184.232H49.1421V181.112H49.6581C50.2101 180.352 50.6221 179.488 50.8941 178.52C51.1741 177.544 51.3181 176.56 51.3261 175.568H54.7101ZM53.6901 176.396H52.2621C52.2301 176.94 52.1461 177.504 52.0101 178.088C51.8741 178.664 51.6981 179.216 51.4821 179.744C51.2741 180.272 51.0301 180.728 50.7501 181.112H53.6901V176.396ZM59.3427 175.46C60.1267 175.46 60.7067 175.632 61.0827 175.976C61.4587 176.32 61.6467 176.868 61.6467 177.62V182H60.8787L60.6747 181.088H60.6267C60.3467 181.44 60.0507 181.7 59.7387 181.868C59.4347 182.036 59.0107 182.12 58.4667 182.12C57.8827 182.12 57.3987 181.968 57.0147 181.664C56.6307 181.352 56.4387 180.868 56.4387 180.212C56.4387 179.572 56.6907 179.08 57.1947 178.736C57.6987 178.384 58.4747 178.192 59.5227 178.16L60.6147 178.124V177.74C60.6147 177.204 60.4987 176.832 60.2667 176.624C60.0347 176.416 59.7067 176.312 59.2827 176.312C58.9467 176.312 58.6267 176.364 58.3227 176.468C58.0187 176.564 57.7347 176.676 57.4707 176.804L57.1467 176.012C57.4267 175.86 57.7587 175.732 58.1427 175.628C58.5267 175.516 58.9267 175.46 59.3427 175.46ZM60.6027 178.856L59.6547 178.892C58.8547 178.924 58.2987 179.052 57.9867 179.276C57.6827 179.5 57.5307 179.816 57.5307 180.224C57.5307 180.584 57.6387 180.848 57.8547 181.016C58.0787 181.184 58.3627 181.268 58.7067 181.268C59.2507 181.268 59.7027 181.12 60.0627 180.824C60.4227 180.52 60.6027 180.056 60.6027 179.432V178.856ZM68.8053 177.188C68.8053 177.588 68.6853 177.9 68.4453 178.124C68.2053 178.348 67.8973 178.5 67.5213 178.58V178.628C67.9213 178.684 68.2693 178.828 68.5653 179.06C68.8613 179.284 69.0093 179.636 69.0093 180.116C69.0093 180.66 68.8053 181.112 68.3973 181.472C67.9973 181.824 67.3333 182 66.4053 182H63.6333V175.568H66.3933C66.8493 175.568 67.2573 175.62 67.6173 175.724C67.9853 175.82 68.2733 175.988 68.4813 176.228C68.6973 176.46 68.8053 176.78 68.8053 177.188ZM67.7373 177.32C67.7373 177.016 67.6253 176.796 67.4013 176.66C67.1853 176.516 66.8293 176.444 66.3333 176.444H64.6893V178.208H66.1413C67.2053 178.208 67.7373 177.912 67.7373 177.32ZM67.9173 180.116C67.9173 179.748 67.7773 179.484 67.4973 179.324C67.2173 179.164 66.8053 179.084 66.2613 179.084H64.6893V181.148H66.2853C66.8133 181.148 67.2173 181.072 67.4973 180.92C67.7773 180.76 67.9173 180.492 67.9173 180.116ZM72.9833 175.46C73.7673 175.46 74.3473 175.632 74.7233 175.976C75.0993 176.32 75.2873 176.868 75.2873 177.62V182H74.5193L74.3153 181.088H74.2673C73.9873 181.44 73.6913 181.7 73.3793 181.868C73.0753 182.036 72.6513 182.12 72.1073 182.12C71.5233 182.12 71.0393 181.968 70.6553 181.664C70.2713 181.352 70.0793 180.868 70.0793 180.212C70.0793 179.572 70.3313 179.08 70.8353 178.736C71.3393 178.384 72.1153 178.192 73.1633 178.16L74.2553 178.124V177.74C74.2553 177.204 74.1393 176.832 73.9073 176.624C73.6753 176.416 73.3473 176.312 72.9233 176.312C72.5873 176.312 72.2673 176.364 71.9633 176.468C71.6593 176.564 71.3753 176.676 71.1113 176.804L70.7873 176.012C71.0673 175.86 71.3993 175.732 71.7833 175.628C72.1673 175.516 72.5673 175.46 72.9833 175.46ZM74.2433 178.856L73.2953 178.892C72.4953 178.924 71.9393 179.052 71.6273 179.276C71.3233 179.5 71.1713 179.816 71.1713 180.224C71.1713 180.584 71.2793 180.848 71.4953 181.016C71.7193 181.184 72.0033 181.268 72.3473 181.268C72.8913 181.268 73.3433 181.12 73.7033 180.824C74.0633 180.52 74.2433 180.056 74.2433 179.432V178.856ZM81.7139 176.456H79.6139V182H78.5699V176.456H76.4939V175.568H81.7139V176.456ZM84.0369 178.208H85.9449C87.6169 178.208 88.4529 178.816 88.4529 180.032C88.4529 180.632 88.2489 181.112 87.8409 181.472C87.4329 181.824 86.7849 182 85.8969 182H82.9809V175.568H84.0369V178.208ZM87.3969 180.092C87.3969 179.7 87.2569 179.436 86.9769 179.3C86.7049 179.156 86.3209 179.084 85.8249 179.084H84.0369V181.148H85.8489C86.2969 181.148 86.6649 181.068 86.9529 180.908C87.2489 180.748 87.3969 180.476 87.3969 180.092ZM92.8871 178.136C92.8871 176.728 93.0991 175.632 93.5231 174.848C93.9471 174.056 94.6311 173.56 95.5751 173.36C96.0951 173.248 96.6031 173.148 97.0991 173.06C97.5951 172.972 98.0591 172.892 98.4911 172.82L98.6711 173.744C98.3911 173.784 98.0751 173.836 97.7231 173.9C97.3711 173.956 97.0231 174.016 96.6791 174.08C96.3351 174.136 96.0391 174.192 95.7911 174.248C95.2711 174.36 94.8591 174.632 94.5551 175.064C94.2511 175.488 94.0791 176.152 94.0391 177.056H94.1111C94.2231 176.904 94.3751 176.748 94.5671 176.588C94.7671 176.428 95.0031 176.292 95.2751 176.18C95.5551 176.068 95.8711 176.012 96.2231 176.012C97.0551 176.012 97.6831 176.28 98.1071 176.816C98.5311 177.352 98.7431 178.048 98.7431 178.904C98.7431 179.616 98.6191 180.212 98.3711 180.692C98.1231 181.172 97.7791 181.532 97.3391 181.772C96.8991 182.004 96.3871 182.12 95.8031 182.12C94.9151 182.12 94.2071 181.78 93.6791 181.1C93.1511 180.42 92.8871 179.432 92.8871 178.136ZM95.8871 181.244C96.4071 181.244 96.8271 181.076 97.1471 180.74C97.4671 180.404 97.6271 179.828 97.6271 179.012C97.6271 178.356 97.5031 177.84 97.2551 177.464C97.0151 177.08 96.6151 176.888 96.0551 176.888C95.7031 176.888 95.3831 176.968 95.0951 177.128C94.8071 177.28 94.5671 177.456 94.3751 177.656C94.1831 177.856 94.0471 178.024 93.9671 178.16C93.9671 178.552 93.9951 178.932 94.0511 179.3C94.1071 179.668 94.2031 180 94.3391 180.296C94.4831 180.584 94.6791 180.816 94.9271 180.992C95.1831 181.16 95.5031 181.244 95.8871 181.244ZM101.439 182.12C101.071 182.12 100.751 182.088 100.479 182.024C100.215 181.968 99.9667 181.884 99.7347 181.772V180.86C99.9747 180.956 100.235 181.04 100.515 181.112C100.795 181.184 101.111 181.22 101.463 181.22C102.087 181.22 102.583 181.052 102.951 180.716C103.319 180.38 103.523 179.848 103.563 179.12H100.395V178.256H103.551C103.495 177.6 103.307 177.12 102.987 176.816C102.675 176.512 102.215 176.36 101.607 176.36C101.375 176.36 101.119 176.392 100.839 176.456C100.567 176.52 100.323 176.592 100.107 176.672L99.8067 175.82C100.039 175.716 100.315 175.628 100.635 175.556C100.955 175.484 101.275 175.448 101.595 175.448C102.195 175.448 102.723 175.56 103.179 175.784C103.643 176.008 104.003 176.364 104.259 176.852C104.523 177.34 104.655 177.984 104.655 178.784C104.655 179.544 104.515 180.172 104.235 180.668C103.963 181.164 103.583 181.532 103.095 181.772C102.615 182.004 102.063 182.12 101.439 182.12ZM110.14 175.568H111.292L108.544 178.664L111.52 182H110.296L107.392 178.736V182H106.336V175.568H107.392V178.688L110.14 175.568ZM114.938 175.448C115.49 175.448 115.962 175.568 116.354 175.808C116.754 176.048 117.058 176.388 117.266 176.828C117.482 177.26 117.59 177.768 117.59 178.352V178.988H113.186C113.202 179.716 113.386 180.272 113.738 180.656C114.098 181.032 114.598 181.22 115.238 181.22C115.646 181.22 116.006 181.184 116.318 181.112C116.638 181.032 116.966 180.92 117.302 180.776V181.7C116.974 181.844 116.65 181.948 116.33 182.012C116.01 182.084 115.63 182.12 115.19 182.12C114.582 182.12 114.042 181.996 113.57 181.748C113.106 181.5 112.742 181.132 112.478 180.644C112.222 180.148 112.094 179.544 112.094 178.832C112.094 178.128 112.21 177.524 112.442 177.02C112.682 176.516 113.014 176.128 113.438 175.856C113.87 175.584 114.37 175.448 114.938 175.448ZM114.926 176.312C114.422 176.312 114.022 176.476 113.726 176.804C113.438 177.124 113.266 177.572 113.21 178.148H116.486C116.478 177.604 116.35 177.164 116.102 176.828C115.854 176.484 115.462 176.312 114.926 176.312ZM120.283 175.568V178.244H123.775V175.568H124.831V182H123.775V179.132H120.283V182H119.227V175.568H120.283ZM131.644 175.568V181.112H132.58V184.232H131.56V182H127.084V184.232H126.076V181.112H126.592C127.144 180.352 127.556 179.488 127.828 178.52C128.108 177.544 128.252 176.56 128.26 175.568H131.644ZM130.624 176.396H129.196C129.164 176.94 129.08 177.504 128.944 178.088C128.808 178.664 128.632 179.216 128.416 179.744C128.208 180.272 127.964 180.728 127.684 181.112H130.624V176.396ZM141.734 175.568V181.112H142.67V184.232H141.65V182H137.174V184.232H136.166V181.112H136.682C137.234 180.352 137.646 179.488 137.918 178.52C138.198 177.544 138.342 176.56 138.35 175.568H141.734ZM140.714 176.396H139.286C139.254 176.94 139.17 177.504 139.034 178.088C138.898 178.664 138.722 179.216 138.506 179.744C138.298 180.272 138.054 180.728 137.774 181.112H140.714V176.396ZM148.826 182H147.758V176.444H145.862C145.758 177.796 145.614 178.888 145.43 179.72C145.246 180.544 145.002 181.144 144.698 181.52C144.394 181.896 144.01 182.084 143.546 182.084C143.442 182.084 143.338 182.076 143.234 182.06C143.138 182.052 143.058 182.032 142.994 182V181.208C143.042 181.224 143.094 181.236 143.15 181.244C143.206 181.252 143.262 181.256 143.318 181.256C143.75 181.256 144.094 180.796 144.35 179.876C144.614 178.956 144.814 177.52 144.95 175.568H148.826V182ZM151.264 182H150.04L151.876 179.3C151.628 179.236 151.388 179.136 151.156 179C150.924 178.856 150.736 178.66 150.592 178.412C150.448 178.156 150.376 177.84 150.376 177.464C150.376 176.848 150.584 176.38 151 176.06C151.416 175.732 151.968 175.568 152.656 175.568H155.536V182H154.48V179.444H152.92L151.264 182ZM151.396 177.476C151.396 177.844 151.532 178.12 151.804 178.304C152.084 178.48 152.472 178.568 152.968 178.568H154.48V176.444H152.764C152.276 176.444 151.924 176.54 151.708 176.732C151.5 176.924 151.396 177.172 151.396 177.476ZM165.86 177.188C165.86 177.588 165.74 177.9 165.5 178.124C165.26 178.348 164.952 178.5 164.576 178.58V178.628C164.976 178.684 165.324 178.828 165.62 179.06C165.916 179.284 166.064 179.636 166.064 180.116C166.064 180.66 165.86 181.112 165.452 181.472C165.052 181.824 164.388 182 163.46 182H160.688V175.568H163.448C163.904 175.568 164.312 175.62 164.672 175.724C165.04 175.82 165.328 175.988 165.536 176.228C165.752 176.46 165.86 176.78 165.86 177.188ZM164.792 177.32C164.792 177.016 164.68 176.796 164.456 176.66C164.24 176.516 163.884 176.444 163.388 176.444H161.744V178.208H163.196C164.26 178.208 164.792 177.912 164.792 177.32ZM164.972 180.116C164.972 179.748 164.832 179.484 164.552 179.324C164.272 179.164 163.86 179.084 163.316 179.084H161.744V181.148H163.34C163.868 181.148 164.272 181.072 164.552 180.92C164.832 180.76 164.972 180.492 164.972 180.116ZM170.038 175.46C170.822 175.46 171.402 175.632 171.778 175.976C172.154 176.32 172.342 176.868 172.342 177.62V182H171.574L171.37 181.088H171.322C171.042 181.44 170.746 181.7 170.434 181.868C170.13 182.036 169.706 182.12 169.162 182.12C168.578 182.12 168.094 181.968 167.71 181.664C167.326 181.352 167.134 180.868 167.134 180.212C167.134 179.572 167.386 179.08 167.89 178.736C168.394 178.384 169.17 178.192 170.218 178.16L171.31 178.124V177.74C171.31 177.204 171.194 176.832 170.962 176.624C170.73 176.416 170.402 176.312 169.978 176.312C169.642 176.312 169.322 176.364 169.018 176.468C168.714 176.564 168.43 176.676 168.166 176.804L167.842 176.012C168.122 175.86 168.454 175.732 168.838 175.628C169.222 175.516 169.622 175.46 170.038 175.46ZM171.298 178.856L170.35 178.892C169.55 178.924 168.994 179.052 168.682 179.276C168.378 179.5 168.226 179.816 168.226 180.224C168.226 180.584 168.334 180.848 168.55 181.016C168.774 181.184 169.058 181.268 169.402 181.268C169.946 181.268 170.398 181.12 170.758 180.824C171.118 180.52 171.298 180.056 171.298 179.432V178.856ZM183.053 175.568V182H174.329V175.568H175.385V181.112H178.157V175.568H179.213V181.112H181.997V175.568H183.053ZM187.594 175.448C188.146 175.448 188.618 175.568 189.01 175.808C189.41 176.048 189.714 176.388 189.922 176.828C190.138 177.26 190.246 177.768 190.246 178.352V178.988H185.842C185.858 179.716 186.042 180.272 186.394 180.656C186.754 181.032 187.254 181.22 187.894 181.22C188.302 181.22 188.662 181.184 188.974 181.112C189.294 181.032 189.622 180.92 189.958 180.776V181.7C189.63 181.844 189.306 181.948 188.986 182.012C188.666 182.084 188.286 182.12 187.846 182.12C187.238 182.12 186.698 181.996 186.226 181.748C185.762 181.5 185.398 181.132 185.134 180.644C184.878 180.148 184.75 179.544 184.75 178.832C184.75 178.128 184.866 177.524 185.098 177.02C185.338 176.516 185.67 176.128 186.094 175.856C186.526 175.584 187.026 175.448 187.594 175.448ZM187.582 176.312C187.078 176.312 186.678 176.476 186.382 176.804C186.094 177.124 185.922 177.572 185.866 178.148H189.142C189.134 177.604 189.006 177.164 188.758 176.828C188.51 176.484 188.118 176.312 187.582 176.312ZM195.807 175.568V176.456H192.939V182H191.883V175.568H195.807ZM202.549 178.772C202.549 179.836 202.278 180.66 201.734 181.244C201.198 181.828 200.47 182.12 199.55 182.12C198.982 182.12 198.474 181.992 198.026 181.736C197.586 181.472 197.238 181.092 196.982 180.596C196.726 180.092 196.598 179.484 196.598 178.772C196.598 177.708 196.866 176.888 197.402 176.312C197.938 175.736 198.666 175.448 199.586 175.448C200.17 175.448 200.682 175.58 201.122 175.844C201.57 176.1 201.918 176.476 202.166 176.972C202.422 177.46 202.549 178.06 202.549 178.772ZM197.69 178.772C197.69 179.532 197.838 180.136 198.134 180.584C198.438 181.024 198.918 181.244 199.574 181.244C200.222 181.244 200.698 181.024 201.002 180.584C201.306 180.136 201.458 179.532 201.458 178.772C201.458 178.012 201.306 177.416 201.002 176.984C200.698 176.552 200.218 176.336 199.562 176.336C198.906 176.336 198.43 176.552 198.134 176.984C197.838 177.416 197.69 178.012 197.69 178.772ZM36.456 193.568V200H35.4V194.468H32.076V200H31.02V193.568H36.456ZM41.5683 193.448C42.3603 193.448 42.9963 193.724 43.4763 194.276C43.9643 194.828 44.2083 195.66 44.2083 196.772C44.2083 197.868 43.9643 198.7 43.4763 199.268C42.9963 199.836 42.3563 200.12 41.5563 200.12C41.0603 200.12 40.6483 200.028 40.3203 199.844C40.0003 199.652 39.7483 199.432 39.5643 199.184H39.4923C39.5083 199.32 39.5243 199.492 39.5403 199.7C39.5563 199.908 39.5643 200.088 39.5643 200.24V202.88H38.5083V193.568H39.3723L39.5163 194.444H39.5643C39.7563 194.164 40.0083 193.928 40.3203 193.736C40.6323 193.544 41.0483 193.448 41.5683 193.448ZM41.3763 194.336C40.7203 194.336 40.2563 194.52 39.9843 194.888C39.7203 195.256 39.5803 195.816 39.5643 196.568V196.772C39.5643 197.564 39.6923 198.176 39.9483 198.608C40.2123 199.032 40.6963 199.244 41.4003 199.244C41.7923 199.244 42.1123 199.136 42.3603 198.92C42.6163 198.704 42.8043 198.412 42.9243 198.044C43.0523 197.668 43.1163 197.24 43.1163 196.76C43.1163 196.024 42.9723 195.436 42.6843 194.996C42.4043 194.556 41.9683 194.336 41.3763 194.336ZM51.4831 196.772C51.4831 197.836 51.2111 198.66 50.6671 199.244C50.1311 199.828 49.4031 200.12 48.4831 200.12C47.9151 200.12 47.4071 199.992 46.9591 199.736C46.5191 199.472 46.1711 199.092 45.9151 198.596C45.6591 198.092 45.5311 197.484 45.5311 196.772C45.5311 195.708 45.7991 194.888 46.3351 194.312C46.8711 193.736 47.5991 193.448 48.5191 193.448C49.1031 193.448 49.6151 193.58 50.0551 193.844C50.5031 194.1 50.8511 194.476 51.0991 194.972C51.3551 195.46 51.4831 196.06 51.4831 196.772ZM46.6231 196.772C46.6231 197.532 46.7711 198.136 47.0671 198.584C47.3711 199.024 47.8511 199.244 48.5071 199.244C49.1551 199.244 49.6311 199.024 49.9351 198.584C50.2391 198.136 50.3911 197.532 50.3911 196.772C50.3911 196.012 50.2391 195.416 49.9351 194.984C49.6311 194.552 49.1511 194.336 48.4951 194.336C47.8391 194.336 47.3631 194.552 47.0671 194.984C46.7711 195.416 46.6231 196.012 46.6231 196.772ZM57.9327 193.568V199.112H58.8687V202.232H57.8487V200H53.3727V202.232H52.3647V199.112H52.8807C53.4327 198.352 53.8447 197.488 54.1167 196.52C54.3967 195.544 54.5407 194.56 54.5487 193.568H57.9327ZM56.9127 194.396H55.4847C55.4527 194.94 55.3687 195.504 55.2327 196.088C55.0967 196.664 54.9207 197.216 54.7047 197.744C54.4967 198.272 54.2527 198.728 53.9727 199.112H56.9127V194.396ZM59.1214 193.568H60.2494L61.6414 197.228C61.7614 197.548 61.8694 197.856 61.9654 198.152C62.0614 198.44 62.1334 198.716 62.1814 198.98H62.2294C62.2774 198.78 62.3534 198.52 62.4574 198.2C62.5614 197.872 62.6694 197.544 62.7814 197.216L64.0894 193.568H65.2294L62.4574 200.888C62.2334 201.496 61.9414 201.98 61.5814 202.34C61.2294 202.7 60.7414 202.88 60.1174 202.88C59.9254 202.88 59.7574 202.868 59.6134 202.844C59.4694 202.828 59.3454 202.808 59.2414 202.784V201.944C59.3294 201.96 59.4334 201.976 59.5534 201.992C59.6814 202.008 59.8134 202.016 59.9494 202.016C60.3174 202.016 60.6134 201.912 60.8374 201.704C61.0694 201.496 61.2494 201.22 61.3774 200.876L61.7134 200.024L59.1214 193.568ZM70.0506 193.568H71.2026L68.4546 196.664L71.4306 200H70.2066L67.3026 196.736V200H66.2466V193.568H67.3026V196.688L70.0506 193.568ZM77.0381 194.456H74.9381V200H73.8941V194.456H71.8181V193.568H77.0381V194.456ZM80.7412 193.46C81.5252 193.46 82.1052 193.632 82.4812 193.976C82.8572 194.32 83.0452 194.868 83.0452 195.62V200H82.2772L82.0732 199.088H82.0252C81.7452 199.44 81.4492 199.7 81.1372 199.868C80.8332 200.036 80.4092 200.12 79.8652 200.12C79.2812 200.12 78.7972 199.968 78.4132 199.664C78.0292 199.352 77.8372 198.868 77.8372 198.212C77.8372 197.572 78.0892 197.08 78.5932 196.736C79.0972 196.384 79.8732 196.192 80.9212 196.16L82.0132 196.124V195.74C82.0132 195.204 81.8972 194.832 81.6652 194.624C81.4332 194.416 81.1052 194.312 80.6812 194.312C80.3452 194.312 80.0252 194.364 79.7212 194.468C79.4172 194.564 79.1332 194.676 78.8692 194.804L78.5452 194.012C78.8252 193.86 79.1572 193.732 79.5412 193.628C79.9252 193.516 80.3252 193.46 80.7412 193.46ZM82.0012 196.856L81.0532 196.892C80.2532 196.924 79.6972 197.052 79.3852 197.276C79.0812 197.5 78.9292 197.816 78.9292 198.224C78.9292 198.584 79.0372 198.848 79.2532 199.016C79.4772 199.184 79.7612 199.268 80.1052 199.268C80.6492 199.268 81.1012 199.12 81.4612 198.824C81.8212 198.52 82.0012 198.056 82.0012 197.432V196.856ZM93.1049 195.08V196.232H88.1729V195.08H93.1049ZM99.0536 194.516H97.5656L98.8256 191.66H99.7856L99.0536 194.516ZM101.214 194.516H99.7256L100.986 191.66H101.946L101.214 194.516ZM110.248 193.568V200H109.3V195.896C109.3 195.728 109.304 195.552 109.312 195.368C109.328 195.184 109.344 195.004 109.36 194.828H109.324L107.224 200H106.336L104.296 194.828H104.26C104.284 195.188 104.296 195.556 104.296 195.932V200H103.348V193.568H104.752L106.78 198.74L108.844 193.568H110.248ZM117.893 196.772C117.893 197.836 117.621 198.66 117.077 199.244C116.541 199.828 115.813 200.12 114.893 200.12C114.325 200.12 113.817 199.992 113.369 199.736C112.929 199.472 112.581 199.092 112.325 198.596C112.069 198.092 111.941 197.484 111.941 196.772C111.941 195.708 112.209 194.888 112.745 194.312C113.281 193.736 114.009 193.448 114.929 193.448C115.513 193.448 116.025 193.58 116.465 193.844C116.913 194.1 117.261 194.476 117.509 194.972C117.765 195.46 117.893 196.06 117.893 196.772ZM113.033 196.772C113.033 197.532 113.181 198.136 113.477 198.584C113.781 199.024 114.261 199.244 114.917 199.244C115.565 199.244 116.041 199.024 116.345 198.584C116.649 198.136 116.801 197.532 116.801 196.772C116.801 196.012 116.649 195.416 116.345 194.984C116.041 194.552 115.561 194.336 114.905 194.336C114.249 194.336 113.773 194.552 113.477 194.984C113.181 195.416 113.033 196.012 113.033 196.772ZM121.259 193.448C121.995 193.448 122.579 193.596 123.011 193.892C123.451 194.18 123.671 194.596 123.671 195.14C123.671 195.532 123.563 195.844 123.347 196.076C123.131 196.3 122.835 196.464 122.459 196.568V196.616C122.715 196.688 122.951 196.788 123.167 196.916C123.383 197.044 123.555 197.212 123.683 197.42C123.819 197.628 123.887 197.896 123.887 198.224C123.887 198.76 123.663 199.212 123.215 199.58C122.775 199.94 122.083 200.12 121.139 200.12C120.675 200.12 120.255 200.08 119.879 200C119.503 199.928 119.191 199.828 118.943 199.7V198.752C119.215 198.88 119.535 198.996 119.903 199.1C120.279 199.204 120.687 199.256 121.127 199.256C121.607 199.256 122.011 199.176 122.339 199.016C122.675 198.848 122.843 198.564 122.843 198.164C122.843 197.444 122.231 197.084 121.007 197.084H120.143V196.22H120.839C121.391 196.22 121.831 196.148 122.159 196.004C122.495 195.852 122.663 195.596 122.663 195.236C122.663 194.932 122.535 194.704 122.279 194.552C122.031 194.4 121.671 194.324 121.199 194.324C120.847 194.324 120.535 194.36 120.263 194.432C119.999 194.496 119.707 194.596 119.387 194.732L119.015 193.892C119.687 193.596 120.435 193.448 121.259 193.448ZM129.374 193.568V194.456H126.506V200H125.45V193.568H129.374ZM131.637 193.568V197.492C131.637 197.588 131.633 197.732 131.625 197.924C131.617 198.116 131.605 198.308 131.589 198.5C131.581 198.692 131.573 198.844 131.565 198.956L135.009 193.568H136.305V200H135.321V196.208C135.321 196.08 135.321 195.912 135.321 195.704C135.329 195.496 135.337 195.292 135.345 195.092C135.353 194.884 135.361 194.728 135.369 194.624L131.949 200H130.641V193.568H131.637ZM138.448 191.66H139.936L138.676 194.516H137.716L138.448 191.66ZM140.608 191.66H142.096L140.836 194.516H139.876L140.608 191.66ZM144.795 198.356L143.343 201.668H142.455L143.307 198.356H144.795ZM153.031 193.568H154.183L151.435 196.664L154.411 200H153.187L150.283 196.736V200H149.227V193.568H150.283V196.688L153.031 193.568ZM160.936 196.772C160.936 197.836 160.664 198.66 160.12 199.244C159.584 199.828 158.856 200.12 157.936 200.12C157.368 200.12 156.86 199.992 156.412 199.736C155.972 199.472 155.624 199.092 155.368 198.596C155.112 198.092 154.984 197.484 154.984 196.772C154.984 195.708 155.252 194.888 155.788 194.312C156.324 193.736 157.052 193.448 157.972 193.448C158.556 193.448 159.068 193.58 159.508 193.844C159.956 194.1 160.304 194.476 160.552 194.972C160.808 195.46 160.936 196.06 160.936 196.772ZM156.076 196.772C156.076 197.532 156.224 198.136 156.52 198.584C156.824 199.024 157.304 199.244 157.96 199.244C158.608 199.244 159.084 199.024 159.388 198.584C159.692 198.136 159.844 197.532 159.844 196.772C159.844 196.012 159.692 195.416 159.388 194.984C159.084 194.552 158.604 194.336 157.948 194.336C157.292 194.336 156.816 194.552 156.52 194.984C156.224 195.416 156.076 196.012 156.076 196.772ZM166.933 194.456H164.833V200H163.789V194.456H161.713V193.568H166.933V194.456ZM173.674 196.772C173.674 197.836 173.403 198.66 172.859 199.244C172.323 199.828 171.595 200.12 170.675 200.12C170.107 200.12 169.599 199.992 169.151 199.736C168.711 199.472 168.363 199.092 168.107 198.596C167.851 198.092 167.723 197.484 167.723 196.772C167.723 195.708 167.991 194.888 168.527 194.312C169.063 193.736 169.791 193.448 170.711 193.448C171.295 193.448 171.807 193.58 172.247 193.844C172.695 194.1 173.043 194.476 173.291 194.972C173.547 195.46 173.674 196.06 173.674 196.772ZM168.815 196.772C168.815 197.532 168.963 198.136 169.259 198.584C169.563 199.024 170.043 199.244 170.699 199.244C171.347 199.244 171.823 199.024 172.127 198.584C172.431 198.136 172.583 197.532 172.583 196.772C172.583 196.012 172.431 195.416 172.127 194.984C171.823 194.552 171.343 194.336 170.687 194.336C170.031 194.336 169.555 194.552 169.259 194.984C168.963 195.416 168.815 196.012 168.815 196.772ZM178.408 193.448C179.2 193.448 179.836 193.724 180.316 194.276C180.804 194.828 181.048 195.66 181.048 196.772C181.048 197.868 180.804 198.7 180.316 199.268C179.836 199.836 179.196 200.12 178.396 200.12C177.9 200.12 177.488 200.028 177.16 199.844C176.84 199.652 176.588 199.432 176.404 199.184H176.332C176.348 199.32 176.364 199.492 176.38 199.7C176.396 199.908 176.404 200.088 176.404 200.24V202.88H175.348V193.568H176.212L176.356 194.444H176.404C176.596 194.164 176.848 193.928 177.16 193.736C177.472 193.544 177.888 193.448 178.408 193.448ZM178.216 194.336C177.56 194.336 177.096 194.52 176.824 194.888C176.56 195.256 176.42 195.816 176.404 196.568V196.772C176.404 197.564 176.532 198.176 176.788 198.608C177.052 199.032 177.536 199.244 178.24 199.244C178.632 199.244 178.952 199.136 179.2 198.92C179.456 198.704 179.644 198.412 179.764 198.044C179.892 197.668 179.956 197.24 179.956 196.76C179.956 196.024 179.812 195.436 179.524 194.996C179.244 194.556 178.808 194.336 178.216 194.336ZM182.731 200V193.568H183.787V196.208H185.455C186.287 196.208 186.903 196.36 187.303 196.664C187.703 196.968 187.903 197.424 187.903 198.032C187.903 198.632 187.707 199.112 187.315 199.472C186.923 199.824 186.287 200 185.407 200H182.731ZM188.971 200V193.568H190.027V200H188.971ZM183.787 199.148H185.311C185.767 199.148 186.139 199.072 186.427 198.92C186.715 198.76 186.859 198.484 186.859 198.092C186.859 197.7 186.727 197.436 186.463 197.3C186.199 197.156 185.819 197.084 185.323 197.084H183.787V199.148ZM194.555 193.448C195.107 193.448 195.579 193.568 195.971 193.808C196.371 194.048 196.675 194.388 196.883 194.828C197.099 195.26 197.207 195.768 197.207 196.352V196.988H192.803C192.819 197.716 193.003 198.272 193.355 198.656C193.715 199.032 194.215 199.22 194.855 199.22C195.263 199.22 195.623 199.184 195.935 199.112C196.255 199.032 196.583 198.92 196.919 198.776V199.7C196.591 199.844 196.267 199.948 195.947 200.012C195.627 200.084 195.247 200.12 194.807 200.12C194.199 200.12 193.659 199.996 193.187 199.748C192.723 199.5 192.359 199.132 192.095 198.644C191.839 198.148 191.711 197.544 191.711 196.832C191.711 196.128 191.827 195.524 192.059 195.02C192.299 194.516 192.631 194.128 193.055 193.856C193.487 193.584 193.987 193.448 194.555 193.448ZM194.543 194.312C194.039 194.312 193.639 194.476 193.343 194.804C193.055 195.124 192.883 195.572 192.827 196.148H196.103C196.095 195.604 195.967 195.164 195.719 194.828C195.471 194.484 195.079 194.312 194.543 194.312ZM201.625 196.136C201.625 194.728 201.837 193.632 202.261 192.848C202.685 192.056 203.369 191.56 204.313 191.36C204.833 191.248 205.341 191.148 205.837 191.06C206.333 190.972 206.797 190.892 207.229 190.82L207.409 191.744C207.129 191.784 206.813 191.836 206.461 191.9C206.109 191.956 205.761 192.016 205.417 192.08C205.073 192.136 204.777 192.192 204.529 192.248C204.009 192.36 203.597 192.632 203.293 193.064C202.989 193.488 202.817 194.152 202.777 195.056H202.849C202.961 194.904 203.113 194.748 203.305 194.588C203.505 194.428 203.741 194.292 204.013 194.18C204.293 194.068 204.609 194.012 204.961 194.012C205.793 194.012 206.421 194.28 206.845 194.816C207.269 195.352 207.481 196.048 207.481 196.904C207.481 197.616 207.357 198.212 207.109 198.692C206.861 199.172 206.517 199.532 206.077 199.772C205.637 200.004 205.125 200.12 204.541 200.12C203.653 200.12 202.945 199.78 202.417 199.1C201.889 198.42 201.625 197.432 201.625 196.136ZM204.625 199.244C205.145 199.244 205.565 199.076 205.885 198.74C206.205 198.404 206.365 197.828 206.365 197.012C206.365 196.356 206.241 195.84 205.993 195.464C205.753 195.08 205.353 194.888 204.793 194.888C204.441 194.888 204.121 194.968 203.833 195.128C203.545 195.28 203.305 195.456 203.113 195.656C202.921 195.856 202.785 196.024 202.705 196.16C202.705 196.552 202.733 196.932 202.789 197.3C202.845 197.668 202.941 198 203.077 198.296C203.221 198.584 203.417 198.816 203.665 198.992C203.921 199.16 204.241 199.244 204.625 199.244ZM208.137 193.568H209.265L210.657 197.228C210.777 197.548 210.885 197.856 210.981 198.152C211.077 198.44 211.149 198.716 211.197 198.98H211.245C211.293 198.78 211.369 198.52 211.473 198.2C211.577 197.872 211.685 197.544 211.797 197.216L213.105 193.568H214.245L211.473 200.888C211.249 201.496 210.957 201.98 210.597 202.34C210.245 202.7 209.757 202.88 209.133 202.88C208.941 202.88 208.773 202.868 208.629 202.844C208.485 202.828 208.361 202.808 208.257 202.784V201.944C208.345 201.96 208.449 201.976 208.569 201.992C208.697 202.008 208.829 202.016 208.965 202.016C209.333 202.016 209.629 201.912 209.853 201.704C210.085 201.496 210.265 201.22 210.393 200.876L210.729 200.024L208.137 193.568ZM219.804 193.568V199.112H220.74V202.232H219.72V200H215.244V202.232H214.236V199.112H214.752C215.304 198.352 215.716 197.488 215.988 196.52C216.268 195.544 216.412 194.56 216.42 193.568H219.804ZM218.784 194.396H217.356C217.324 194.94 217.24 195.504 217.104 196.088C216.968 196.664 216.792 197.216 216.576 197.744C216.368 198.272 216.124 198.728 215.844 199.112H218.784V194.396ZM220.992 193.568H222.12L223.512 197.228C223.632 197.548 223.74 197.856 223.836 198.152C223.932 198.44 224.004 198.716 224.052 198.98H224.1C224.148 198.78 224.224 198.52 224.328 198.2C224.432 197.872 224.54 197.544 224.652 197.216L225.96 193.568H227.1L224.328 200.888C224.104 201.496 223.812 201.98 223.452 202.34C223.1 202.7 222.612 202.88 221.988 202.88C221.796 202.88 221.628 202.868 221.484 202.844C221.34 202.828 221.216 202.808 221.112 202.784V201.944C221.2 201.96 221.304 201.976 221.424 201.992C221.552 202.008 221.684 202.016 221.82 202.016C222.188 202.016 222.484 201.912 222.708 201.704C222.94 201.496 223.12 201.22 223.248 200.876L223.584 200.024L220.992 193.568ZM232.558 194.456H230.458V200H229.414V194.456H227.338V193.568H232.558V194.456ZM36.192 213.188C36.192 213.588 36.072 213.9 35.832 214.124C35.592 214.348 35.284 214.5 34.908 214.58V214.628C35.308 214.684 35.656 214.828 35.952 215.06C36.248 215.284 36.396 215.636 36.396 216.116C36.396 216.66 36.192 217.112 35.784 217.472C35.384 217.824 34.72 218 33.792 218H31.02V211.568H33.78C34.236 211.568 34.644 211.62 35.004 211.724C35.372 211.82 35.66 211.988 35.868 212.228C36.084 212.46 36.192 212.78 36.192 213.188ZM35.124 213.32C35.124 213.016 35.012 212.796 34.788 212.66C34.572 212.516 34.216 212.444 33.72 212.444H32.076V214.208H33.528C34.592 214.208 35.124 213.912 35.124 213.32ZM35.304 216.116C35.304 215.748 35.164 215.484 34.884 215.324C34.604 215.164 34.192 215.084 33.648 215.084H32.076V217.148H33.672C34.2 217.148 34.604 217.072 34.884 216.92C35.164 216.76 35.304 216.492 35.304 216.116ZM37.9341 218V211.568H38.9901V214.208H40.6581C41.4901 214.208 42.1061 214.36 42.5061 214.664C42.9061 214.968 43.1061 215.424 43.1061 216.032C43.1061 216.632 42.9101 217.112 42.5181 217.472C42.1261 217.824 41.4901 218 40.6101 218H37.9341ZM44.1741 218V211.568H45.2301V218H44.1741ZM38.9901 217.148H40.5141C40.9701 217.148 41.3421 217.072 41.6301 216.92C41.9181 216.76 42.0621 216.484 42.0621 216.092C42.0621 215.7 41.9301 215.436 41.6661 215.3C41.4021 215.156 41.0221 215.084 40.5261 215.084H38.9901V217.148ZM52.7099 211.568V218H51.6539V212.468H48.3299V218H47.2739V211.568H52.7099ZM60.3542 214.772C60.3542 215.836 60.0822 216.66 59.5382 217.244C59.0022 217.828 58.2742 218.12 57.3542 218.12C56.7862 218.12 56.2782 217.992 55.8302 217.736C55.3902 217.472 55.0422 217.092 54.7862 216.596C54.5302 216.092 54.4022 215.484 54.4022 214.772C54.4022 213.708 54.6702 212.888 55.2062 212.312C55.7422 211.736 56.4702 211.448 57.3902 211.448C57.9742 211.448 58.4862 211.58 58.9262 211.844C59.3742 212.1 59.7222 212.476 59.9702 212.972C60.2262 213.46 60.3542 214.06 60.3542 214.772ZM55.4942 214.772C55.4942 215.532 55.6422 216.136 55.9382 216.584C56.2422 217.024 56.7222 217.244 57.3782 217.244C58.0262 217.244 58.5022 217.024 58.8062 216.584C59.1102 216.136 59.2622 215.532 59.2622 214.772C59.2622 214.012 59.1102 213.416 58.8062 212.984C58.5022 212.552 58.0222 212.336 57.3662 212.336C56.7102 212.336 56.2342 212.552 55.9382 212.984C55.6422 213.416 55.4942 214.012 55.4942 214.772ZM66.9238 218H65.8558V212.444H63.9598C63.8558 213.796 63.7118 214.888 63.5278 215.72C63.3438 216.544 63.0998 217.144 62.7958 217.52C62.4918 217.896 62.1078 218.084 61.6438 218.084C61.5398 218.084 61.4358 218.076 61.3318 218.06C61.2358 218.052 61.1558 218.032 61.0918 218V217.208C61.1398 217.224 61.1918 217.236 61.2478 217.244C61.3038 217.252 61.3598 217.256 61.4158 217.256C61.8478 217.256 62.1918 216.796 62.4478 215.876C62.7118 214.956 62.9118 213.52 63.0478 211.568H66.9238V218ZM70.0213 211.568V214.244H73.5133V211.568H74.5693V218H73.5133V215.132H70.0213V218H68.9653V211.568H70.0213ZM77.0019 218H75.7779L77.6139 215.3C77.3659 215.236 77.1259 215.136 76.8939 215C76.6619 214.856 76.4739 214.66 76.3299 214.412C76.1859 214.156 76.1139 213.84 76.1139 213.464C76.1139 212.848 76.3219 212.38 76.7379 212.06C77.1539 211.732 77.7059 211.568 78.3939 211.568H81.2739V218H80.2179V215.444H78.6579L77.0019 218ZM77.1339 213.476C77.1339 213.844 77.2699 214.12 77.5419 214.304C77.8219 214.48 78.2099 214.568 78.7059 214.568H80.2179V212.444H78.5019C78.0139 212.444 77.6619 212.54 77.4459 212.732C77.2379 212.924 77.1339 213.172 77.1339 213.476ZM87.7491 212.456H85.6491V218H84.6051V212.456H82.5291V211.568H87.7491V212.456ZM90.0721 214.208H91.9801C93.6521 214.208 94.4881 214.816 94.4881 216.032C94.4881 216.632 94.2841 217.112 93.8761 217.472C93.4681 217.824 92.8201 218 91.9321 218H89.0161V211.568H90.0721V214.208ZM93.4321 216.092C93.4321 215.7 93.2921 215.436 93.0121 215.3C92.7401 215.156 92.3561 215.084 91.8601 215.084H90.0721V217.148H91.8841C92.3321 217.148 92.7001 217.068 92.9881 216.908C93.2841 216.748 93.4321 216.476 93.4321 216.092ZM104.034 211.568V217.112H104.97V220.232H103.95V218H99.4743V220.232H98.4663V217.112H98.9823C99.5343 216.352 99.9463 215.488 100.218 214.52C100.498 213.544 100.642 212.56 100.65 211.568H104.034ZM103.014 212.396H101.586C101.554 212.94 101.47 213.504 101.334 214.088C101.198 214.664 101.022 215.216 100.806 215.744C100.598 216.272 100.354 216.728 100.074 217.112H103.014V212.396ZM108.715 211.448C109.267 211.448 109.739 211.568 110.131 211.808C110.531 212.048 110.835 212.388 111.043 212.828C111.259 213.26 111.367 213.768 111.367 214.352V214.988H106.963C106.979 215.716 107.163 216.272 107.515 216.656C107.875 217.032 108.375 217.22 109.015 217.22C109.423 217.22 109.783 217.184 110.095 217.112C110.415 217.032 110.743 216.92 111.079 216.776V217.7C110.751 217.844 110.427 217.948 110.107 218.012C109.787 218.084 109.407 218.12 108.967 218.12C108.359 218.12 107.819 217.996 107.347 217.748C106.883 217.5 106.519 217.132 106.255 216.644C105.999 216.148 105.871 215.544 105.871 214.832C105.871 214.128 105.987 213.524 106.219 213.02C106.459 212.516 106.791 212.128 107.215 211.856C107.647 211.584 108.147 211.448 108.715 211.448ZM108.703 212.312C108.199 212.312 107.799 212.476 107.503 212.804C107.215 213.124 107.043 213.572 106.987 214.148H110.263C110.255 213.604 110.127 213.164 109.879 212.828C109.631 212.484 109.239 212.312 108.703 212.312ZM114 211.568V215.492C114 215.588 113.996 215.732 113.988 215.924C113.98 216.116 113.968 216.308 113.952 216.5C113.944 216.692 113.936 216.844 113.928 216.956L117.372 211.568H118.668V218H117.684V214.208C117.684 214.08 117.684 213.912 117.684 213.704C117.692 213.496 117.7 213.292 117.708 213.092C117.716 212.884 117.724 212.728 117.732 212.624L114.312 218H113.004V211.568H114ZM118.212 208.904C118.156 209.504 117.952 209.96 117.6 210.272C117.256 210.576 116.704 210.728 115.944 210.728C115.16 210.728 114.604 210.576 114.276 210.272C113.956 209.968 113.776 209.512 113.736 208.904H114.72C114.76 209.336 114.872 209.628 115.056 209.78C115.248 209.924 115.552 209.996 115.968 209.996C116.336 209.996 116.624 209.92 116.832 209.768C117.048 209.608 117.176 209.32 117.216 208.904H118.212ZM123.295 218.12C122.727 218.12 122.219 218.004 121.771 217.772C121.331 217.54 120.983 217.18 120.727 216.692C120.479 216.204 120.355 215.58 120.355 214.82C120.355 214.028 120.487 213.384 120.751 212.888C121.015 212.392 121.371 212.028 121.819 211.796C122.275 211.564 122.791 211.448 123.367 211.448C123.695 211.448 124.011 211.484 124.315 211.556C124.619 211.62 124.867 211.7 125.059 211.796L124.735 212.672C124.543 212.6 124.319 212.532 124.063 212.468C123.807 212.404 123.567 212.372 123.343 212.372C122.079 212.372 121.447 213.184 121.447 214.808C121.447 215.584 121.599 216.18 121.903 216.596C122.215 217.004 122.675 217.208 123.283 217.208C123.635 217.208 123.943 217.172 124.207 217.1C124.479 217.028 124.727 216.94 124.951 216.836V217.772C124.735 217.884 124.495 217.968 124.231 218.024C123.975 218.088 123.663 218.12 123.295 218.12ZM130.921 212.456H128.821V218H127.777V212.456H125.701V211.568H130.921V212.456ZM137.36 213.188C137.36 213.588 137.24 213.9 137 214.124C136.76 214.348 136.452 214.5 136.076 214.58V214.628C136.476 214.684 136.824 214.828 137.12 215.06C137.416 215.284 137.564 215.636 137.564 216.116C137.564 216.66 137.36 217.112 136.952 217.472C136.552 217.824 135.888 218 134.96 218H132.188V211.568H134.948C135.404 211.568 135.812 211.62 136.172 211.724C136.54 211.82 136.828 211.988 137.036 212.228C137.252 212.46 137.36 212.78 137.36 213.188ZM136.292 213.32C136.292 213.016 136.18 212.796 135.956 212.66C135.74 212.516 135.384 212.444 134.888 212.444H133.244V214.208H134.696C135.76 214.208 136.292 213.912 136.292 213.32ZM136.472 216.116C136.472 215.748 136.332 215.484 136.052 215.324C135.772 215.164 135.36 215.084 134.816 215.084H133.244V217.148H134.84C135.368 217.148 135.772 217.072 136.052 216.92C136.332 216.76 136.472 216.492 136.472 216.116ZM140.098 211.568V215.492C140.098 215.588 140.094 215.732 140.086 215.924C140.078 216.116 140.066 216.308 140.05 216.5C140.042 216.692 140.034 216.844 140.026 216.956L143.47 211.568H144.766V218H143.782V214.208C143.782 214.08 143.782 213.912 143.782 213.704C143.79 213.496 143.798 213.292 143.806 213.092C143.814 212.884 143.822 212.728 143.83 212.624L140.41 218H139.102V211.568H140.098ZM147.209 218H145.985L147.821 215.3C147.573 215.236 147.333 215.136 147.101 215C146.869 214.856 146.681 214.66 146.537 214.412C146.393 214.156 146.321 213.84 146.321 213.464C146.321 212.848 146.529 212.38 146.945 212.06C147.361 211.732 147.913 211.568 148.601 211.568H151.481V218H150.425V215.444H148.865L147.209 218ZM147.341 213.476C147.341 213.844 147.477 214.12 147.749 214.304C148.029 214.48 148.417 214.568 148.913 214.568H150.425V212.444H148.709C148.221 212.444 147.869 212.54 147.653 212.732C147.445 212.924 147.341 213.172 147.341 213.476ZM154.896 216.356L153.444 219.668H152.556L153.408 216.356H154.896ZM163.133 211.568H164.285L161.537 214.664L164.513 218H163.289L160.385 214.736V218H159.329V211.568H160.385V214.688L163.133 211.568ZM171.038 214.772C171.038 215.836 170.766 216.66 170.222 217.244C169.686 217.828 168.958 218.12 168.038 218.12C167.47 218.12 166.962 217.992 166.514 217.736C166.074 217.472 165.726 217.092 165.47 216.596C165.214 216.092 165.086 215.484 165.086 214.772C165.086 213.708 165.354 212.888 165.89 212.312C166.426 211.736 167.154 211.448 168.074 211.448C168.658 211.448 169.17 211.58 169.61 211.844C170.058 212.1 170.406 212.476 170.654 212.972C170.91 213.46 171.038 214.06 171.038 214.772ZM166.178 214.772C166.178 215.532 166.326 216.136 166.622 216.584C166.926 217.024 167.406 217.244 168.062 217.244C168.71 217.244 169.186 217.024 169.49 216.584C169.794 216.136 169.946 215.532 169.946 214.772C169.946 214.012 169.794 213.416 169.49 212.984C169.186 212.552 168.706 212.336 168.05 212.336C167.394 212.336 166.918 212.552 166.622 212.984C166.326 213.416 166.178 214.012 166.178 214.772ZM177.034 212.456H174.934V218H173.89V212.456H171.814V211.568H177.034V212.456ZM183.776 214.772C183.776 215.836 183.504 216.66 182.96 217.244C182.424 217.828 181.696 218.12 180.776 218.12C180.208 218.12 179.7 217.992 179.252 217.736C178.812 217.472 178.464 217.092 178.208 216.596C177.952 216.092 177.824 215.484 177.824 214.772C177.824 213.708 178.092 212.888 178.628 212.312C179.164 211.736 179.892 211.448 180.812 211.448C181.396 211.448 181.908 211.58 182.348 211.844C182.796 212.1 183.144 212.476 183.392 212.972C183.648 213.46 183.776 214.06 183.776 214.772ZM178.916 214.772C178.916 215.532 179.064 216.136 179.36 216.584C179.664 217.024 180.144 217.244 180.8 217.244C181.448 217.244 181.924 217.024 182.228 216.584C182.532 216.136 182.684 215.532 182.684 214.772C182.684 214.012 182.532 213.416 182.228 212.984C181.924 212.552 181.444 212.336 180.788 212.336C180.132 212.336 179.656 212.552 179.36 212.984C179.064 213.416 178.916 214.012 178.916 214.772ZM188.51 211.448C189.302 211.448 189.938 211.724 190.418 212.276C190.906 212.828 191.15 213.66 191.15 214.772C191.15 215.868 190.906 216.7 190.418 217.268C189.938 217.836 189.298 218.12 188.498 218.12C188.002 218.12 187.59 218.028 187.262 217.844C186.942 217.652 186.69 217.432 186.506 217.184H186.434C186.45 217.32 186.466 217.492 186.482 217.7C186.498 217.908 186.506 218.088 186.506 218.24V220.88H185.45V211.568H186.314L186.458 212.444H186.506C186.698 212.164 186.95 211.928 187.262 211.736C187.574 211.544 187.99 211.448 188.51 211.448ZM188.318 212.336C187.662 212.336 187.198 212.52 186.926 212.888C186.662 213.256 186.522 213.816 186.506 214.568V214.772C186.506 215.564 186.634 216.176 186.89 216.608C187.154 217.032 187.638 217.244 188.342 217.244C188.734 217.244 189.054 217.136 189.302 216.92C189.558 216.704 189.746 216.412 189.866 216.044C189.994 215.668 190.058 215.24 190.058 214.76C190.058 214.024 189.914 213.436 189.626 212.996C189.346 212.556 188.91 212.336 188.318 212.336ZM192.833 218V211.568H193.889V214.208H195.557C196.389 214.208 197.005 214.36 197.405 214.664C197.805 214.968 198.005 215.424 198.005 216.032C198.005 216.632 197.809 217.112 197.417 217.472C197.025 217.824 196.389 218 195.509 218H192.833ZM199.073 218V211.568H200.129V218H199.073ZM193.889 217.148H195.413C195.869 217.148 196.241 217.072 196.529 216.92C196.817 216.76 196.961 216.484 196.961 216.092C196.961 215.7 196.829 215.436 196.565 215.3C196.301 215.156 195.921 215.084 195.425 215.084H193.889V217.148ZM204.656 211.448C205.208 211.448 205.68 211.568 206.072 211.808C206.472 212.048 206.776 212.388 206.984 212.828C207.2 213.26 207.308 213.768 207.308 214.352V214.988H202.904C202.92 215.716 203.104 216.272 203.456 216.656C203.816 217.032 204.316 217.22 204.956 217.22C205.364 217.22 205.724 217.184 206.036 217.112C206.356 217.032 206.684 216.92 207.02 216.776V217.7C206.692 217.844 206.368 217.948 206.048 218.012C205.728 218.084 205.348 218.12 204.908 218.12C204.3 218.12 203.76 217.996 203.288 217.748C202.824 217.5 202.46 217.132 202.196 216.644C201.94 216.148 201.812 215.544 201.812 214.832C201.812 214.128 201.928 213.524 202.16 213.02C202.4 212.516 202.732 212.128 203.156 211.856C203.588 211.584 204.088 211.448 204.656 211.448ZM204.644 212.312C204.14 212.312 203.74 212.476 203.444 212.804C203.156 213.124 202.984 213.572 202.928 214.148H206.204C206.196 213.604 206.068 213.164 205.82 212.828C205.572 212.484 205.18 212.312 204.644 212.312ZM36.456 229.568V236H35.4V230.468H32.076V236H31.02V229.568H36.456ZM44.1003 232.772C44.1003 233.836 43.8283 234.66 43.2843 235.244C42.7483 235.828 42.0203 236.12 41.1003 236.12C40.5323 236.12 40.0243 235.992 39.5763 235.736C39.1363 235.472 38.7883 235.092 38.5323 234.596C38.2763 234.092 38.1483 233.484 38.1483 232.772C38.1483 231.708 38.4163 230.888 38.9523 230.312C39.4883 229.736 40.2163 229.448 41.1363 229.448C41.7203 229.448 42.2323 229.58 42.6723 229.844C43.1203 230.1 43.4683 230.476 43.7163 230.972C43.9723 231.46 44.1003 232.06 44.1003 232.772ZM39.2403 232.772C39.2403 233.532 39.3883 234.136 39.6843 234.584C39.9883 235.024 40.4683 235.244 41.1243 235.244C41.7723 235.244 42.2483 235.024 42.5523 234.584C42.8563 234.136 43.0083 233.532 43.0083 232.772C43.0083 232.012 42.8563 231.416 42.5523 230.984C42.2483 230.552 41.7683 230.336 41.1123 230.336C40.4563 230.336 39.9803 230.552 39.6843 230.984C39.3883 231.416 39.2403 232.012 39.2403 232.772ZM50.6699 236H49.6019V230.444H47.7059C47.6019 231.796 47.4579 232.888 47.2739 233.72C47.0899 234.544 46.8459 235.144 46.5419 235.52C46.2379 235.896 45.8539 236.084 45.3899 236.084C45.2859 236.084 45.1819 236.076 45.0779 236.06C44.9819 236.052 44.9019 236.032 44.8379 236V235.208C44.8859 235.224 44.9379 235.236 44.9939 235.244C45.0499 235.252 45.1059 235.256 45.1619 235.256C45.5939 235.256 45.9379 234.796 46.1939 233.876C46.4579 232.956 46.6579 231.52 46.7939 229.568H50.6699V236ZM53.7674 232.208H55.6754C57.3474 232.208 58.1834 232.816 58.1834 234.032C58.1834 234.632 57.9794 235.112 57.5714 235.472C57.1634 235.824 56.5154 236 55.6274 236H52.7114V229.568H53.7674V232.208ZM57.1274 234.092C57.1274 233.7 56.9874 233.436 56.7074 233.3C56.4354 233.156 56.0514 233.084 55.5554 233.084H53.7674V235.148H55.5794C56.0274 235.148 56.3954 235.068 56.6834 234.908C56.9794 234.748 57.1274 234.476 57.1274 234.092ZM61.5284 229.448C62.2644 229.448 62.8484 229.596 63.2804 229.892C63.7204 230.18 63.9404 230.596 63.9404 231.14C63.9404 231.532 63.8324 231.844 63.6164 232.076C63.4004 232.3 63.1044 232.464 62.7284 232.568V232.616C62.9844 232.688 63.2204 232.788 63.4364 232.916C63.6524 233.044 63.8244 233.212 63.9524 233.42C64.0884 233.628 64.1564 233.896 64.1564 234.224C64.1564 234.76 63.9324 235.212 63.4844 235.58C63.0444 235.94 62.3524 236.12 61.4084 236.12C60.9444 236.12 60.5244 236.08 60.1484 236C59.7724 235.928 59.4604 235.828 59.2124 235.7V234.752C59.4844 234.88 59.8044 234.996 60.1724 235.1C60.5484 235.204 60.9564 235.256 61.3964 235.256C61.8764 235.256 62.2804 235.176 62.6084 235.016C62.9444 234.848 63.1124 234.564 63.1124 234.164C63.1124 233.444 62.5004 233.084 61.2764 233.084H60.4124V232.22H61.1084C61.6604 232.22 62.1004 232.148 62.4284 232.004C62.7644 231.852 62.9324 231.596 62.9324 231.236C62.9324 230.932 62.8044 230.704 62.5484 230.552C62.3004 230.4 61.9404 230.324 61.4684 230.324C61.1164 230.324 60.8044 230.36 60.5324 230.432C60.2684 230.496 59.9764 230.596 59.6564 230.732L59.2844 229.892C59.9564 229.596 60.7044 229.448 61.5284 229.448ZM71.3112 232.772C71.3112 233.836 71.0392 234.66 70.4952 235.244C69.9592 235.828 69.2312 236.12 68.3112 236.12C67.7432 236.12 67.2352 235.992 66.7872 235.736C66.3472 235.472 65.9992 235.092 65.7432 234.596C65.4872 234.092 65.3592 233.484 65.3592 232.772C65.3592 231.708 65.6272 230.888 66.1632 230.312C66.6992 229.736 67.4272 229.448 68.3472 229.448C68.9312 229.448 69.4432 229.58 69.8832 229.844C70.3312 230.1 70.6792 230.476 70.9272 230.972C71.1832 231.46 71.3112 232.06 71.3112 232.772ZM66.4512 232.772C66.4512 233.532 66.5992 234.136 66.8952 234.584C67.1992 235.024 67.6792 235.244 68.3352 235.244C68.9832 235.244 69.4592 235.024 69.7632 234.584C70.0672 234.136 70.2192 233.532 70.2192 232.772C70.2192 232.012 70.0672 231.416 69.7632 230.984C69.4592 230.552 68.9792 230.336 68.3232 230.336C67.6672 230.336 67.1912 230.552 66.8952 230.984C66.5992 231.416 66.4512 232.012 66.4512 232.772ZM78.1568 231.188C78.1568 231.588 78.0368 231.9 77.7968 232.124C77.5568 232.348 77.2488 232.5 76.8728 232.58V232.628C77.2728 232.684 77.6208 232.828 77.9168 233.06C78.2128 233.284 78.3608 233.636 78.3608 234.116C78.3608 234.66 78.1568 235.112 77.7488 235.472C77.3488 235.824 76.6848 236 75.7568 236H72.9848V229.568H75.7448C76.2008 229.568 76.6088 229.62 76.9688 229.724C77.3368 229.82 77.6248 229.988 77.8328 230.228C78.0488 230.46 78.1568 230.78 78.1568 231.188ZM77.0888 231.32C77.0888 231.016 76.9768 230.796 76.7528 230.66C76.5368 230.516 76.1808 230.444 75.6848 230.444H74.0408V232.208H75.4928C76.5568 232.208 77.0888 231.912 77.0888 231.32ZM77.2688 234.116C77.2688 233.748 77.1288 233.484 76.8488 233.324C76.5688 233.164 76.1568 233.084 75.6128 233.084H74.0408V235.148H75.6368C76.1648 235.148 76.5688 235.072 76.8488 234.92C77.1288 234.76 77.2688 234.492 77.2688 234.116ZM82.3349 229.46C83.1189 229.46 83.6989 229.632 84.0749 229.976C84.4509 230.32 84.6389 230.868 84.6389 231.62V236H83.8709L83.6669 235.088H83.6189C83.3389 235.44 83.0429 235.7 82.7309 235.868C82.4269 236.036 82.0029 236.12 81.4589 236.12C80.8749 236.12 80.3909 235.968 80.0069 235.664C79.6229 235.352 79.4309 234.868 79.4309 234.212C79.4309 233.572 79.6829 233.08 80.1869 232.736C80.6909 232.384 81.4669 232.192 82.5149 232.16L83.6069 232.124V231.74C83.6069 231.204 83.4909 230.832 83.2589 230.624C83.0269 230.416 82.6989 230.312 82.2749 230.312C81.9389 230.312 81.6189 230.364 81.3149 230.468C81.0109 230.564 80.7269 230.676 80.4629 230.804L80.1389 230.012C80.4189 229.86 80.7509 229.732 81.1349 229.628C81.5189 229.516 81.9189 229.46 82.3349 229.46ZM83.5949 232.856L82.6469 232.892C81.8469 232.924 81.2909 233.052 80.9789 233.276C80.6749 233.5 80.5229 233.816 80.5229 234.224C80.5229 234.584 80.6309 234.848 80.8469 235.016C81.0709 235.184 81.3549 235.268 81.6989 235.268C82.2429 235.268 82.6949 235.12 83.0549 234.824C83.4149 234.52 83.5949 234.056 83.5949 233.432V232.856ZM91.0655 230.456H88.9655V236H87.9215V230.456H85.8455V229.568H91.0655V230.456ZM94.6993 229.448C95.2513 229.448 95.7233 229.568 96.1153 229.808C96.5153 230.048 96.8193 230.388 97.0273 230.828C97.2433 231.26 97.3513 231.768 97.3513 232.352V232.988H92.9473C92.9633 233.716 93.1473 234.272 93.4993 234.656C93.8593 235.032 94.3593 235.22 94.9993 235.22C95.4073 235.22 95.7673 235.184 96.0793 235.112C96.3993 235.032 96.7273 234.92 97.0633 234.776V235.7C96.7353 235.844 96.4113 235.948 96.0913 236.012C95.7713 236.084 95.3913 236.12 94.9513 236.12C94.3433 236.12 93.8033 235.996 93.3313 235.748C92.8673 235.5 92.5033 235.132 92.2393 234.644C91.9833 234.148 91.8553 233.544 91.8553 232.832C91.8553 232.128 91.9713 231.524 92.2033 231.02C92.4433 230.516 92.7753 230.128 93.1993 229.856C93.6313 229.584 94.1313 229.448 94.6993 229.448ZM94.6873 230.312C94.1833 230.312 93.7833 230.476 93.4873 230.804C93.1993 231.124 93.0273 231.572 92.9713 232.148H96.2473C96.2393 231.604 96.1113 231.164 95.8633 230.828C95.6153 230.484 95.2233 230.312 94.6873 230.312ZM103.885 236H102.817V230.444H100.921C100.817 231.796 100.673 232.888 100.489 233.72C100.305 234.544 100.061 235.144 99.7568 235.52C99.4528 235.896 99.0688 236.084 98.6048 236.084C98.5008 236.084 98.3968 236.076 98.2928 236.06C98.1968 236.052 98.1168 236.032 98.0528 236V235.208C98.1008 235.224 98.1528 235.236 98.2088 235.244C98.2648 235.252 98.3208 235.256 98.3768 235.256C98.8088 235.256 99.1528 234.796 99.4088 233.876C99.6728 232.956 99.8728 231.52 100.009 229.568H103.885V236ZM106.982 232.208H108.89C110.562 232.208 111.398 232.816 111.398 234.032C111.398 234.632 111.194 235.112 110.786 235.472C110.378 235.824 109.73 236 108.842 236H105.926V229.568H106.982V232.208ZM110.342 234.092C110.342 233.7 110.202 233.436 109.922 233.3C109.65 233.156 109.266 233.084 108.77 233.084H106.982V235.148H108.794C109.242 235.148 109.61 235.068 109.898 234.908C110.194 234.748 110.342 234.476 110.342 234.092ZM117.224 229.568V232.244H120.716V229.568H121.772V236H120.716V233.132H117.224V236H116.168V229.568H117.224ZM126.293 229.448C126.845 229.448 127.317 229.568 127.709 229.808C128.109 230.048 128.413 230.388 128.621 230.828C128.837 231.26 128.945 231.768 128.945 232.352V232.988H124.541C124.557 233.716 124.741 234.272 125.093 234.656C125.453 235.032 125.953 235.22 126.593 235.22C127.001 235.22 127.361 235.184 127.673 235.112C127.993 235.032 128.321 234.92 128.657 234.776V235.7C128.329 235.844 128.005 235.948 127.685 236.012C127.365 236.084 126.985 236.12 126.545 236.12C125.937 236.12 125.397 235.996 124.925 235.748C124.461 235.5 124.097 235.132 123.833 234.644C123.577 234.148 123.449 233.544 123.449 232.832C123.449 232.128 123.565 231.524 123.797 231.02C124.037 230.516 124.369 230.128 124.793 229.856C125.225 229.584 125.725 229.448 126.293 229.448ZM126.281 230.312C125.777 230.312 125.377 230.476 125.081 230.804C124.793 231.124 124.621 231.572 124.565 232.148H127.841C127.833 231.604 127.705 231.164 127.457 230.828C127.209 230.484 126.817 230.312 126.281 230.312ZM138.872 231.188C138.872 231.588 138.752 231.9 138.512 232.124C138.272 232.348 137.964 232.5 137.588 232.58V232.628C137.988 232.684 138.336 232.828 138.632 233.06C138.928 233.284 139.076 233.636 139.076 234.116C139.076 234.66 138.872 235.112 138.464 235.472C138.064 235.824 137.4 236 136.472 236H133.7V229.568H136.46C136.916 229.568 137.324 229.62 137.684 229.724C138.052 229.82 138.34 229.988 138.548 230.228C138.764 230.46 138.872 230.78 138.872 231.188ZM137.804 231.32C137.804 231.016 137.692 230.796 137.468 230.66C137.252 230.516 136.896 230.444 136.4 230.444H134.756V232.208H136.208C137.272 232.208 137.804 231.912 137.804 231.32ZM137.984 234.116C137.984 233.748 137.844 233.484 137.564 233.324C137.284 233.164 136.872 233.084 136.328 233.084H134.756V235.148H136.352C136.88 235.148 137.284 235.072 137.564 234.92C137.844 234.76 137.984 234.492 137.984 234.116ZM141.61 229.568V233.492C141.61 233.588 141.606 233.732 141.598 233.924C141.59 234.116 141.578 234.308 141.562 234.5C141.554 234.692 141.546 234.844 141.538 234.956L144.982 229.568H146.278V236H145.294V232.208C145.294 232.08 145.294 231.912 145.294 231.704C145.302 231.496 145.31 231.292 145.318 231.092C145.326 230.884 145.334 230.728 145.342 230.624L141.922 236H140.614V229.568H141.61ZM153.101 229.568V235.112H154.037V238.232H153.017V236H148.541V238.232H147.533V235.112H148.049C148.601 234.352 149.013 233.488 149.285 232.52C149.565 231.544 149.709 230.56 149.717 229.568H153.101ZM152.081 230.396H150.653C150.621 230.94 150.537 231.504 150.401 232.088C150.265 232.664 150.089 233.216 149.873 233.744C149.665 234.272 149.421 234.728 149.141 235.112H152.081V230.396ZM156.293 229.568V233.492C156.293 233.588 156.289 233.732 156.281 233.924C156.273 234.116 156.261 234.308 156.245 234.5C156.237 234.692 156.229 234.844 156.221 234.956L159.665 229.568H160.961V236H159.977V232.208C159.977 232.08 159.977 231.912 159.977 231.704C159.985 231.496 159.993 231.292 160.001 231.092C160.009 230.884 160.017 230.728 160.025 230.624L156.605 236H155.297V229.568H156.293ZM167.448 230.456H165.348V236H164.304V230.456H162.228V229.568H167.448V230.456Z" fill="black"/>
<defs>
<linearGradient id="paint0_linear_15_1956" x1="72.3751" y1="49.3108" x2="61.2472" y2="66.4675" gradientUnits="userSpaceOnUse">
<stop stop-color="#41873F"/>
<stop offset="0.3288" stop-color="#418B3D"/>
<stop offset="0.6352" stop-color="#419637"/>
<stop offset="0.9319" stop-color="#3FA92D"/>
<stop offset="1" stop-color="#3FAE2A"/>
</linearGradient>
<linearGradient id="paint1_linear_15_1956" x1="66.8479" y1="59.033" x2="94.2108" y2="44.4455" gradientUnits="userSpaceOnUse">
<stop offset="0.1376" stop-color="#41873F"/>
<stop offset="0.4032" stop-color="#54A044"/>
<stop offset="0.7136" stop-color="#66B848"/>
<stop offset="0.9081" stop-color="#6CC04A"/>
</linearGradient>
<linearGradient id="paint2_linear_15_1956" x1="56.9185" y1="57.6696" x2="79.7884" y2="57.6696" gradientUnits="userSpaceOnUse">
<stop offset="0.0919165" stop-color="#6CC04A"/>
<stop offset="0.2864" stop-color="#66B848"/>
<stop offset="0.5968" stop-color="#54A044"/>
<stop offset="0.8624" stop-color="#41873F"/>
</linearGradient>
<linearGradient id="paint3_linear_15_1956" x1="56.9185" y1="67.3302" x2="79.7884" y2="67.3302" gradientUnits="userSpaceOnUse">
<stop offset="0.0919165" stop-color="#6CC04A"/>
<stop offset="0.2864" stop-color="#66B848"/>
<stop offset="0.5968" stop-color="#54A044"/>
<stop offset="0.8624" stop-color="#41873F"/>
</linearGradient>
<linearGradient id="paint4_linear_15_1956" x1="83.1202" y1="48.7599" x2="77.111" y2="79.6577" gradientUnits="userSpaceOnUse">
<stop stop-color="#41873F"/>
<stop offset="0.3288" stop-color="#418B3D"/>
<stop offset="0.6352" stop-color="#419637"/>
<stop offset="0.9319" stop-color="#3FA92D"/>
<stop offset="1" stop-color="#3FAE2A"/>
</linearGradient>
</defs>
</svg>
