<svg width="270" height="270" viewBox="0 0 270 270" fill="none" xmlns="http://www.w3.org/2000/svg">
<path fill-rule="evenodd" clip-rule="evenodd" d="M178.973 56.5733C178.829 56.6018 178.685 56.9147 178.685 57.0853C178.656 58.2229 178.627 61.2381 178.627 63.2858C178.627 63.3428 178.713 63.4564 178.8 63.4564C179.232 63.4849 180.271 63.5134 181.165 63.5134C182.405 63.5134 183.126 63.3428 183.529 63.1722C184.567 62.6602 185.058 61.5508 185.058 60.3277C185.058 57.5688 183.097 56.5163 180.184 56.5163C179.982 56.4881 179.406 56.4881 178.973 56.5733ZM186.413 69.2873C186.413 66.4716 184.308 64.907 180.501 64.907C180.328 64.907 179.117 64.8786 178.829 64.9355C178.742 64.964 178.627 65.0209 178.627 65.1064C178.627 67.1257 178.598 70.3398 178.685 71.5911C178.742 72.1316 179.146 72.8996 179.636 73.1272C180.155 73.4117 181.338 73.4683 182.145 73.4683C184.423 73.4683 186.413 72.217 186.413 69.2873ZM173.09 55.009C173.378 55.009 174.243 55.0942 176.464 55.0942C178.569 55.0942 180.242 55.0375 182.289 55.0375C184.798 55.0375 188.259 55.9192 188.259 59.6166C188.259 61.4371 186.961 62.8877 185.259 63.5988C185.173 63.6273 185.173 63.684 185.259 63.7124C187.682 64.3099 189.816 65.789 189.816 68.5763C189.816 71.3069 188.086 73.0417 185.577 74.1227C184.048 74.7768 182.145 75.0044 180.213 75.0044C178.742 75.0044 174.791 74.8338 172.6 74.8907C172.369 74.8053 172.802 73.7813 173.003 73.6107C173.523 73.5822 173.926 73.5538 174.474 73.3832C175.253 73.1841 175.339 72.9566 175.455 71.7905C175.512 70.7949 175.512 67.2678 175.512 64.7649C175.512 61.3232 175.541 58.991 175.512 57.8533C175.484 56.9717 175.166 56.6872 174.532 56.5163C174.042 56.4312 173.234 56.3173 172.571 56.2321C172.427 56.0897 172.917 55.1227 173.09 55.009ZM156.45 72.7006C157.143 73.2408 158.498 73.4683 159.709 73.4683C161.266 73.4683 162.824 73.1841 164.323 71.8471C165.852 70.482 166.919 68.3772 166.919 65.0209C166.919 61.8068 165.679 59.19 163.141 57.6542C161.699 56.7723 159.853 56.4027 157.719 56.4027C157.085 56.4027 156.479 56.4312 156.104 56.6018C156.018 56.6587 155.816 56.9147 155.816 57.0568C155.758 57.6258 155.758 62.0058 155.758 64.5659C155.758 67.2111 155.758 70.9085 155.816 71.3351C155.816 71.762 156.018 72.4161 156.45 72.7006ZM149.904 55.009C150.452 55.009 152.557 55.0942 153.567 55.0942C155.383 55.0942 156.681 55.009 160.113 55.009C162.997 55.009 165.419 55.7771 167.149 57.2274C169.254 59.0194 170.35 61.4941 170.35 64.5089C170.35 68.8038 168.36 71.2784 166.371 72.7006C164.381 74.1512 161.785 75.0044 158.094 75.0044C156.133 75.0044 152.759 74.9474 149.962 74.9189H149.933C149.789 74.6632 150.164 73.6677 150.394 73.6392C151.144 73.5538 151.346 73.5253 151.721 73.3832C152.326 73.1556 152.442 72.8427 152.529 71.7905C152.615 69.8278 152.586 67.4671 152.586 64.7934C152.586 62.8877 152.615 59.1615 152.557 57.9669C152.471 56.9717 152.038 56.7157 151.173 56.5448C150.74 56.4596 150.164 56.3457 149.356 56.2606C149.241 56.0613 149.76 55.1796 149.904 55.009Z" fill="#8E714E"/>
<path fill-rule="evenodd" clip-rule="evenodd" d="M115.01 73.8097C114.289 73.7243 113.77 73.6107 113.136 73.3262C113.049 73.2692 112.905 72.985 112.905 72.8711C112.847 71.8756 112.847 69.0313 112.847 67.1256C112.847 65.5896 112.588 64.2529 111.924 63.3143C111.146 62.2333 110.021 61.6077 108.579 61.6077C107.31 61.6077 105.609 62.4611 104.196 63.6557C104.167 63.6839 103.936 63.8832 103.965 63.5703C103.965 63.2573 104.023 62.6317 104.052 62.2051C104.081 61.8067 103.85 61.6077 103.85 61.6077C102.927 62.0627 100.332 62.6602 99.38 62.7453C98.6879 62.8877 98.515 63.5418 99.2359 63.7693H99.2648C100.043 63.9969 100.562 64.2529 100.966 64.5089C101.254 64.7364 101.226 65.0494 101.226 65.3054C101.254 67.4386 101.254 70.7095 101.168 72.5015C101.139 73.2126 100.937 73.4683 100.418 73.5822L100.476 73.5537C100.072 73.6392 99.7548 73.7243 99.2645 73.7813C99.0915 73.9518 99.0915 74.8622 99.2645 75.0613C99.5818 75.0613 101.254 74.9759 102.639 74.9759C104.542 74.9759 105.523 75.0613 106.013 75.0613C106.215 74.8338 106.272 73.9803 106.157 73.7813C105.609 73.7528 105.205 73.6961 104.831 73.5822C104.311 73.4683 104.167 73.2126 104.138 72.6151C104.081 71.1076 104.081 67.9221 104.081 65.7604C104.081 65.163 104.254 64.8785 104.427 64.7079C105.09 64.1393 106.157 63.7409 107.109 63.7409C108.031 63.7409 108.637 64.0254 109.098 64.3953C109.733 64.907 109.935 65.6465 110.021 66.187C110.165 67.4101 110.108 69.8278 110.108 71.9325C110.108 73.0702 110.021 73.3547 109.589 73.4968C109.387 73.5822 108.868 73.6961 108.262 73.7528C108.06 73.9518 108.118 74.8338 108.262 75.0328C109.098 75.0328 110.079 74.9474 111.521 74.9474C113.309 74.9474 114.462 75.0328 114.924 75.0328C115.068 74.8622 115.126 74.0373 115.01 73.8097H115.01ZM122.998 62.9446C121.47 62.9446 120.518 64.1108 120.518 65.931C120.518 67.7798 121.354 69.913 123.719 69.913C124.123 69.913 124.873 69.7424 125.219 69.3443C125.767 68.8323 126.142 67.8082 126.142 66.7275C126.142 64.3668 124.959 62.9446 122.998 62.9446ZM122.796 75.5164C122.22 75.5164 121.816 75.6869 121.557 75.8293C120.345 76.5971 119.797 77.3366 119.797 78.2185C119.797 79.0432 120.114 79.6973 120.807 80.2663C121.643 80.9774 122.796 81.3188 124.267 81.3188C127.209 81.3188 128.506 79.7543 128.506 78.2185C128.506 77.1375 127.958 76.4265 126.834 76.0284C126.026 75.6869 124.556 75.5164 122.796 75.5164ZM122.998 82.9115C121.239 82.9115 119.97 82.5416 118.875 81.7169C117.808 80.9204 117.346 79.7258 117.346 78.9011C117.346 78.6736 117.404 78.0477 117.923 77.479C118.24 77.1375 118.932 76.4834 120.576 75.3742C120.634 75.3458 120.662 75.3173 120.662 75.2603C120.662 75.2034 120.605 75.1464 120.547 75.1182C119.192 74.6062 118.788 73.7813 118.673 73.3262V73.2692C118.644 73.0987 118.586 72.9281 118.846 72.7572C119.048 72.6151 119.336 72.4445 119.653 72.2455C120.143 71.961 120.662 71.6481 120.98 71.392C121.037 71.3351 121.037 71.2784 121.037 71.2215C121.037 71.1645 120.98 71.1076 120.922 71.0794C118.903 70.425 117.894 68.9459 117.894 66.7275C117.894 65.2769 118.557 63.9684 119.74 63.1437C120.547 62.5178 122.566 61.75 123.892 61.75H123.979C125.334 61.7782 126.084 62.0627 127.151 62.4326C127.728 62.6317 128.276 62.7168 129.026 62.7168C130.15 62.7168 130.64 62.3757 131.044 61.9776C131.073 62.0343 131.131 62.1766 131.16 62.5463C131.188 62.9162 131.073 63.4564 130.784 63.8548C130.554 64.1675 130.035 64.3953 129.516 64.3953H129.371C128.852 64.3383 128.622 64.2814 128.622 64.2814L128.506 64.3383C128.478 64.3953 128.506 64.4519 128.535 64.5374L128.564 64.5943C128.622 64.8503 128.737 65.6181 128.737 65.8174C128.737 68.1497 127.786 69.1734 126.776 69.9414C125.796 70.6525 124.671 71.1076 123.402 71.2215C123.373 71.2215 123.258 71.2215 122.998 71.2499C122.854 71.2499 122.652 71.2784 122.623 71.2784H122.595C122.364 71.3351 121.787 71.6196 121.787 72.1031C121.787 72.5297 122.047 73.0417 123.287 73.1271C123.546 73.1556 123.806 73.1556 124.094 73.1841C125.738 73.2977 127.786 73.4401 128.737 73.7528C130.064 74.2363 130.9 75.4025 130.9 76.7964C130.9 78.9011 129.371 80.8637 126.834 82.0866C125.594 82.627 124.354 82.9115 122.998 82.9115ZM139.436 63.0868C138.83 63.0868 138.282 63.2289 137.879 63.5133C136.754 64.1959 136.177 65.5614 136.177 67.5522C136.177 71.2784 138.081 73.8952 140.791 73.8952C141.599 73.8952 142.233 73.6676 142.781 73.2126C143.617 72.5297 144.05 71.1645 144.05 69.2588C144.05 65.5614 142.176 63.0868 139.436 63.0868ZM139.955 75.2603C135.053 75.2603 133.294 71.705 133.294 68.3772C133.294 66.0449 134.245 64.2529 136.148 62.9729C137.504 62.1482 139.119 61.6931 140.561 61.6931C144.309 61.6931 146.934 64.3383 146.934 68.1497C146.934 70.7379 145.896 72.7857 143.906 74.0373C142.954 74.6629 141.31 75.2603 139.955 75.2603H139.955ZM88.5658 63.0868C87.9601 63.0868 87.4124 63.2289 87.0084 63.5133C85.8839 64.1959 85.307 65.5614 85.307 67.5522C85.307 71.2784 87.2103 73.8952 89.9211 73.8952C90.7286 73.8952 91.363 73.6676 91.911 73.2126C92.7471 72.5297 93.1799 71.1645 93.1799 69.2588C93.1799 65.5614 91.3341 63.0868 88.5658 63.0868ZM89.0849 75.2603C84.1824 75.2603 82.4232 71.705 82.4232 68.3772C82.4232 66.0449 83.3749 64.2529 85.2781 62.9729C86.6337 62.1482 88.2485 61.6931 89.6904 61.6931C93.4395 61.6931 96.0637 64.3383 96.0637 68.1497C96.0637 70.7379 95.0254 72.7857 93.0356 74.0373C92.1128 74.6629 90.4691 75.2603 89.0849 75.2603ZM56.1231 74.9759C56.0653 74.8907 56.0076 74.6347 56.0364 74.3217C56.0364 74.0942 56.0942 73.9518 56.1231 73.8952C56.7285 73.8097 57.0458 73.7243 57.3917 73.6392C57.9686 73.4968 58.1993 73.1841 58.2281 72.473C58.3148 70.7664 58.3148 67.5237 58.2859 65.2769V65.22C58.2859 64.964 58.2859 64.651 57.9686 64.4235C57.5072 64.1393 56.9592 63.8832 56.2383 63.6839C55.9787 63.5988 55.8058 63.4564 55.8346 63.2858C55.8346 63.1152 56.0076 62.9162 56.3826 62.8592C57.3343 62.7738 59.8141 62.1766 60.7946 61.75C60.8524 61.8067 60.939 61.9776 60.939 62.2051L60.9101 62.5178C60.8812 62.8307 60.8524 63.2007 60.8524 63.5703C60.8524 63.6839 60.9678 63.7693 61.0831 63.7693C61.1408 63.7693 61.1985 63.7409 61.2563 63.7124C63.1018 62.2903 64.7744 61.7782 65.6394 61.7782C67.0527 61.7782 68.1484 62.4326 68.9848 63.7978C69.0423 63.8832 69.1001 63.9115 69.1867 63.9115C69.2444 63.9115 69.3307 63.8832 69.3596 63.8263C71.0611 62.5463 72.7625 61.7782 73.8871 61.7782C76.5691 61.7782 78.1553 63.7409 78.1553 67.0687C78.1553 68.0073 78.1553 69.2304 78.1264 70.3398C78.1264 71.3351 78.0976 72.2455 78.0976 72.8996C78.0976 73.0417 78.2994 73.4968 78.6167 73.5822C79.0203 73.7813 79.5683 73.8667 80.2893 73.9803H80.3181C80.3759 74.1794 80.2604 74.9189 80.1452 75.0613C79.972 75.0613 79.7124 75.0613 79.4242 75.0328C78.8762 75.0043 78.0976 74.9759 77.2325 74.9759C75.4445 74.9759 74.5217 75.0043 73.6275 75.0613C73.5701 74.8338 73.5412 74.1512 73.6275 73.9803C74.1467 73.8952 74.4062 73.8097 74.7235 73.7243C75.3004 73.5537 75.4445 73.2977 75.4733 72.5582C75.4733 72.018 75.5885 67.4101 75.4156 66.3007C75.2426 65.163 74.3774 63.8263 72.4741 63.8263C71.7531 63.8263 70.6285 64.1108 69.5326 64.9355C69.4751 64.9924 69.4174 65.1345 69.4174 65.22V65.2484C69.5326 65.8456 69.5326 66.5285 69.5326 67.5807V69.4294C69.5326 70.7095 69.5037 71.9041 69.5326 72.8142C69.5326 73.4401 69.9076 73.5822 70.2249 73.6961C70.3979 73.7243 70.5131 73.7528 70.6574 73.7813C70.917 73.8382 71.1765 73.8952 71.5802 73.9803C71.6379 74.0942 71.6379 74.4639 71.5513 74.7768C71.5224 74.9474 71.4647 75.0328 71.4361 75.0613C70.4556 75.0328 69.4462 75.0043 67.9755 75.0043C67.543 75.0043 66.7931 75.0328 66.1585 75.0328C65.6394 75.0328 65.1492 75.0613 64.861 75.0613C64.8321 75.0043 64.7744 74.8053 64.7744 74.4923C64.7744 74.2363 64.8321 74.0373 64.8899 73.9803C65.0339 73.9518 65.1492 73.9236 65.2935 73.9236C65.6394 73.8667 65.9278 73.8097 66.2163 73.7528C66.7065 73.6107 66.8795 73.3547 66.9083 72.729C66.995 71.3069 67.0813 67.2395 66.8795 66.2155C66.5336 64.5658 65.5819 63.7409 64.0534 63.7409C63.1595 63.7409 62.0347 64.1675 61.1119 64.8503C60.9678 64.964 60.8524 65.2484 60.8524 65.5044V67.1826C60.8524 69.2304 60.8524 71.7904 60.8812 72.8996C60.9101 73.2408 61.0253 73.6392 61.6888 73.7813C61.8329 73.8097 62.0636 73.8667 62.352 73.8952L62.8711 73.9803C62.9289 74.1512 62.9 74.8338 62.7845 75.0613C62.4961 75.0613 62.1502 75.0328 61.7463 75.0328C61.1408 75.0043 60.3621 74.9759 59.4971 74.9759C58.4877 74.9759 57.7668 75.0043 57.1899 75.0328C56.7863 74.9759 56.469 74.9759 56.1231 74.9759Z" fill="#442D22"/>
<path fill-rule="evenodd" clip-rule="evenodd" d="M40.9541 81.8024L39.7717 81.404C39.7717 81.404 39.9161 75.4594 37.7533 75.0329C36.3114 73.3832 37.984 5.06314 43.1746 74.8053C43.1746 74.8053 41.3869 75.687 41.0696 77.1945C40.7234 78.6736 40.9541 81.8024 40.9541 81.8024Z" fill="white"/>
<path fill-rule="evenodd" clip-rule="evenodd" d="M40.9541 81.8024L39.7717 81.404C39.7717 81.404 39.9161 75.4594 37.7533 75.0329C36.3114 73.3832 37.984 5.06314 43.1746 74.8053C43.1746 74.8053 41.3869 75.687 41.0696 77.1945C40.7234 78.6736 40.9541 81.8024 40.9541 81.8024Z" fill="#A6A385"/>
<path fill-rule="evenodd" clip-rule="evenodd" d="M41.5887 76.0567C41.5887 76.0567 51.9415 69.3441 49.5191 55.3785C47.1833 45.2245 41.6751 41.8966 41.0696 40.6166C40.4064 39.7065 39.7718 38.1138 39.7718 38.1138L40.2046 66.3575C40.2046 66.3859 39.3104 75.0042 41.5887 76.0567Z" fill="white"/>
<path fill-rule="evenodd" clip-rule="evenodd" d="M41.5887 76.0567C41.5887 76.0567 51.9415 69.3441 49.5191 55.3785C47.1833 45.2245 41.6751 41.8966 41.0696 40.6166C40.4064 39.7065 39.7718 38.1138 39.7718 38.1138L40.2046 66.3575C40.2046 66.3859 39.3104 75.0042 41.5887 76.0567Z" fill="#499D4A"/>
<path fill-rule="evenodd" clip-rule="evenodd" d="M39.1663 76.4264C39.1663 76.4264 29.4478 69.8844 30.0247 58.3652C30.5724 46.8458 37.436 41.1857 38.7624 40.1617C39.6277 39.2516 39.6565 38.9101 39.7143 38C40.3197 39.28 40.2045 57.1422 40.2909 59.2469C40.5504 67.3531 39.8295 74.8907 39.1663 76.4264Z" fill="white"/>
<path fill-rule="evenodd" clip-rule="evenodd" d="M39.1663 76.4264C39.1663 76.4264 29.4478 69.8844 30.0247 58.3652C30.5724 46.8458 37.436 41.1857 38.7624 40.1617C39.6277 39.2516 39.6565 38.9101 39.7143 38C40.3197 39.28 40.2045 57.1422 40.2909 59.2469C40.5504 67.3531 39.8295 74.8907 39.1663 76.4264Z" fill="#58AA50"/>
<rect x="0.5" y="0.5" width="269" height="269" stroke="black"/>
<path d="M41.998 120.172V130H39.604V124.106L37.406 130H35.474L33.262 124.092V130H30.868V120.172H33.696L36.454 126.976L39.184 120.172H41.998ZM47.2756 130.112C46.5102 130.112 45.8196 129.949 45.2036 129.622C44.5969 129.295 44.1162 128.829 43.7616 128.222C43.4162 127.615 43.2436 126.906 43.2436 126.094C43.2436 125.291 43.4209 124.587 43.7756 123.98C44.1302 123.364 44.6156 122.893 45.2316 122.566C45.8476 122.239 46.5382 122.076 47.3036 122.076C48.0689 122.076 48.7596 122.239 49.3756 122.566C49.9916 122.893 50.4769 123.364 50.8316 123.98C51.1862 124.587 51.3636 125.291 51.3636 126.094C51.3636 126.897 51.1816 127.606 50.8176 128.222C50.4629 128.829 49.9729 129.295 49.3476 129.622C48.7316 129.949 48.0409 130.112 47.2756 130.112ZM47.2756 128.04C47.7329 128.04 48.1202 127.872 48.4376 127.536C48.7642 127.2 48.9276 126.719 48.9276 126.094C48.9276 125.469 48.7689 124.988 48.4516 124.652C48.1436 124.316 47.7609 124.148 47.3036 124.148C46.8369 124.148 46.4496 124.316 46.1416 124.652C45.8336 124.979 45.6796 125.459 45.6796 126.094C45.6796 126.719 45.8289 127.2 46.1276 127.536C46.4356 127.872 46.8182 128.04 47.2756 128.04ZM57.3936 122.104C58.3083 122.104 59.0363 122.403 59.5776 123C60.1283 123.588 60.4036 124.4 60.4036 125.436V130H58.0236V125.758C58.0236 125.235 57.8883 124.829 57.6176 124.54C57.347 124.251 56.983 124.106 56.5256 124.106C56.0683 124.106 55.7043 124.251 55.4336 124.54C55.163 124.829 55.0276 125.235 55.0276 125.758V130H52.6336V122.188H55.0276V123.224C55.2703 122.879 55.597 122.608 56.0076 122.412C56.4183 122.207 56.8803 122.104 57.3936 122.104ZM65.0352 122.076C65.5859 122.076 66.0666 122.188 66.4772 122.412C66.8972 122.636 67.2192 122.93 67.4432 123.294V122.188H69.8372V129.986C69.8372 130.705 69.6926 131.353 69.4032 131.932C69.1232 132.52 68.6892 132.987 68.1012 133.332C67.5226 133.677 66.7992 133.85 65.9312 133.85C64.7739 133.85 63.8359 133.575 63.1172 133.024C62.3986 132.483 61.9879 131.745 61.8852 130.812H64.2512C64.3259 131.111 64.5032 131.344 64.7832 131.512C65.0632 131.689 65.4086 131.778 65.8192 131.778C66.3139 131.778 66.7059 131.633 66.9952 131.344C67.2939 131.064 67.4432 130.611 67.4432 129.986V128.88C67.2099 129.244 66.8879 129.543 66.4772 129.776C66.0666 130 65.5859 130.112 65.0352 130.112C64.3912 130.112 63.8079 129.949 63.2852 129.622C62.7626 129.286 62.3472 128.815 62.0392 128.208C61.7406 127.592 61.5912 126.883 61.5912 126.08C61.5912 125.277 61.7406 124.573 62.0392 123.966C62.3472 123.359 62.7626 122.893 63.2852 122.566C63.8079 122.239 64.3912 122.076 65.0352 122.076ZM67.4432 126.094C67.4432 125.497 67.2752 125.025 66.9392 124.68C66.6126 124.335 66.2112 124.162 65.7352 124.162C65.2592 124.162 64.8532 124.335 64.5172 124.68C64.1906 125.016 64.0272 125.483 64.0272 126.08C64.0272 126.677 64.1906 127.153 64.5172 127.508C64.8532 127.853 65.2592 128.026 65.7352 128.026C66.2112 128.026 66.6126 127.853 66.9392 127.508C67.2752 127.163 67.4432 126.691 67.4432 126.094ZM75.1252 130.112C74.3598 130.112 73.6692 129.949 73.0532 129.622C72.4465 129.295 71.9658 128.829 71.6112 128.222C71.2658 127.615 71.0932 126.906 71.0932 126.094C71.0932 125.291 71.2705 124.587 71.6252 123.98C71.9798 123.364 72.4652 122.893 73.0812 122.566C73.6972 122.239 74.3878 122.076 75.1532 122.076C75.9185 122.076 76.6092 122.239 77.2252 122.566C77.8412 122.893 78.3265 123.364 78.6812 123.98C79.0358 124.587 79.2132 125.291 79.2132 126.094C79.2132 126.897 79.0312 127.606 78.6672 128.222C78.3125 128.829 77.8225 129.295 77.1972 129.622C76.5812 129.949 75.8905 130.112 75.1252 130.112ZM75.1252 128.04C75.5825 128.04 75.9698 127.872 76.2872 127.536C76.6138 127.2 76.7772 126.719 76.7772 126.094C76.7772 125.469 76.6185 124.988 76.3012 124.652C75.9932 124.316 75.6105 124.148 75.1532 124.148C74.6865 124.148 74.2992 124.316 73.9912 124.652C73.6832 124.979 73.5292 125.459 73.5292 126.094C73.5292 126.719 73.6785 127.2 73.9772 127.536C74.2852 127.872 74.6678 128.04 75.1252 128.04ZM81.6032 130.112C81.1832 130.112 80.8379 129.991 80.5672 129.748C80.3059 129.496 80.1752 129.188 80.1752 128.824C80.1752 128.451 80.3059 128.138 80.5672 127.886C80.8379 127.634 81.1832 127.508 81.6032 127.508C82.0139 127.508 82.3499 127.634 82.6112 127.886C82.8819 128.138 83.0172 128.451 83.0172 128.824C83.0172 129.188 82.8819 129.496 82.6112 129.748C82.3499 129.991 82.0139 130.112 81.6032 130.112ZM83.9584 126.08C83.9584 125.277 84.1077 124.573 84.4064 123.966C84.7144 123.359 85.1297 122.893 85.6524 122.566C86.1751 122.239 86.7584 122.076 87.4024 122.076C87.9157 122.076 88.3824 122.183 88.8024 122.398C89.2317 122.613 89.5677 122.902 89.8104 123.266V119.64H92.2044V130H89.8104V128.88C89.5864 129.253 89.2644 129.552 88.8444 129.776C88.4337 130 87.9531 130.112 87.4024 130.112C86.7584 130.112 86.1751 129.949 85.6524 129.622C85.1297 129.286 84.7144 128.815 84.4064 128.208C84.1077 127.592 83.9584 126.883 83.9584 126.08ZM89.8104 126.094C89.8104 125.497 89.6424 125.025 89.3064 124.68C88.9797 124.335 88.5784 124.162 88.1024 124.162C87.6264 124.162 87.2204 124.335 86.8844 124.68C86.5577 125.016 86.3944 125.483 86.3944 126.08C86.3944 126.677 86.5577 127.153 86.8844 127.508C87.2204 127.853 87.6264 128.026 88.1024 128.026C88.5784 128.026 88.9797 127.853 89.3064 127.508C89.6424 127.163 89.8104 126.691 89.8104 126.094ZM96.3304 123.294C96.5544 122.93 96.8764 122.636 97.2964 122.412C97.7164 122.188 98.197 122.076 98.7384 122.076C99.3824 122.076 99.9657 122.239 100.488 122.566C101.011 122.893 101.422 123.359 101.72 123.966C102.028 124.573 102.182 125.277 102.182 126.08C102.182 126.883 102.028 127.592 101.72 128.208C101.422 128.815 101.011 129.286 100.488 129.622C99.9657 129.949 99.3824 130.112 98.7384 130.112C98.1877 130.112 97.707 130.005 97.2964 129.79C96.8857 129.566 96.5637 129.272 96.3304 128.908V130H93.9364V119.64H96.3304V123.294ZM99.7464 126.08C99.7464 125.483 99.5784 125.016 99.2424 124.68C98.9157 124.335 98.5097 124.162 98.0244 124.162C97.5484 124.162 97.1424 124.335 96.8064 124.68C96.4797 125.025 96.3164 125.497 96.3164 126.094C96.3164 126.691 96.4797 127.163 96.8064 127.508C97.1424 127.853 97.5484 128.026 98.0244 128.026C98.5004 128.026 98.9064 127.853 99.2424 127.508C99.5784 127.153 99.7464 126.677 99.7464 126.08Z" fill="black"/>
<path d="M32.784 156.26C32.384 156.26 32.02 156.308 31.692 156.404C31.364 156.492 31.068 156.596 30.804 156.716L30.36 155.816C30.688 155.656 31.064 155.532 31.488 155.444C31.912 155.356 32.348 155.312 32.796 155.312C33.716 155.312 34.472 155.496 35.064 155.864C35.664 156.232 36.112 156.74 36.408 157.388C36.704 158.028 36.852 158.756 36.852 159.572C36.852 160.508 36.7 161.316 36.396 161.996C36.092 162.676 35.632 163.2 35.016 163.568C34.408 163.936 33.64 164.12 32.712 164.12C32.216 164.12 31.796 164.092 31.452 164.036C31.108 163.98 30.768 163.892 30.432 163.772V162.836C30.768 162.924 31.108 163.004 31.452 163.076C31.796 163.14 32.16 163.172 32.544 163.172C33.576 163.172 34.352 162.9 34.872 162.356C35.4 161.804 35.68 161.016 35.712 159.992H31.548V159.044H35.7C35.62 158.164 35.32 157.48 34.8 156.992C34.288 156.504 33.616 156.26 32.784 156.26ZM43.0538 158.456H40.9538V164H39.9098V158.456H37.8338V157.568H43.0538V158.456ZM49.7956 160.772C49.7956 161.836 49.5236 162.66 48.9796 163.244C48.4436 163.828 47.7156 164.12 46.7956 164.12C46.2276 164.12 45.7196 163.992 45.2716 163.736C44.8316 163.472 44.4836 163.092 44.2276 162.596C43.9716 162.092 43.8436 161.484 43.8436 160.772C43.8436 159.708 44.1116 158.888 44.6476 158.312C45.1836 157.736 45.9116 157.448 46.8316 157.448C47.4156 157.448 47.9276 157.58 48.3676 157.844C48.8156 158.1 49.1636 158.476 49.4116 158.972C49.6676 159.46 49.7956 160.06 49.7956 160.772ZM44.9356 160.772C44.9356 161.532 45.0836 162.136 45.3796 162.584C45.6836 163.024 46.1636 163.244 46.8196 163.244C47.4676 163.244 47.9436 163.024 48.2476 162.584C48.5516 162.136 48.7036 161.532 48.7036 160.772C48.7036 160.012 48.5516 159.416 48.2476 158.984C47.9436 158.552 47.4636 158.336 46.8076 158.336C46.1516 158.336 45.6756 158.552 45.3796 158.984C45.0836 159.416 44.9356 160.012 44.9356 160.772ZM55.6424 157.568V160.244H59.1344V157.568H60.1904V164H59.1344V161.132H55.6424V164H54.5864V157.568H55.6424ZM64.711 157.448C65.263 157.448 65.735 157.568 66.127 157.808C66.527 158.048 66.831 158.388 67.039 158.828C67.255 159.26 67.363 159.768 67.363 160.352V160.988H62.959C62.975 161.716 63.159 162.272 63.511 162.656C63.871 163.032 64.371 163.22 65.011 163.22C65.419 163.22 65.779 163.184 66.091 163.112C66.411 163.032 66.739 162.92 67.075 162.776V163.7C66.747 163.844 66.423 163.948 66.103 164.012C65.783 164.084 65.403 164.12 64.963 164.12C64.355 164.12 63.815 163.996 63.343 163.748C62.879 163.5 62.515 163.132 62.251 162.644C61.995 162.148 61.867 161.544 61.867 160.832C61.867 160.128 61.983 159.524 62.215 159.02C62.455 158.516 62.787 158.128 63.211 157.856C63.643 157.584 64.143 157.448 64.711 157.448ZM64.699 158.312C64.195 158.312 63.795 158.476 63.499 158.804C63.211 159.124 63.039 159.572 62.983 160.148H66.259C66.251 159.604 66.123 159.164 65.875 158.828C65.627 158.484 65.235 158.312 64.699 158.312ZM72.0605 157.448C72.8525 157.448 73.4885 157.724 73.9685 158.276C74.4565 158.828 74.7005 159.66 74.7005 160.772C74.7005 161.868 74.4565 162.7 73.9685 163.268C73.4885 163.836 72.8485 164.12 72.0485 164.12C71.5525 164.12 71.1405 164.028 70.8125 163.844C70.4925 163.652 70.2405 163.432 70.0565 163.184H69.9845C70.0005 163.32 70.0165 163.492 70.0325 163.7C70.0485 163.908 70.0565 164.088 70.0565 164.24V166.88H69.0005V157.568H69.8645L70.0085 158.444H70.0565C70.2485 158.164 70.5005 157.928 70.8125 157.736C71.1245 157.544 71.5405 157.448 72.0605 157.448ZM71.8685 158.336C71.2125 158.336 70.7485 158.52 70.4765 158.888C70.2125 159.256 70.0725 159.816 70.0565 160.568V160.772C70.0565 161.564 70.1845 162.176 70.4405 162.608C70.7045 163.032 71.1885 163.244 71.8925 163.244C72.2845 163.244 72.6045 163.136 72.8525 162.92C73.1085 162.704 73.2965 162.412 73.4165 162.044C73.5445 161.668 73.6085 161.24 73.6085 160.76C73.6085 160.024 73.4645 159.436 73.1765 158.996C72.8965 158.556 72.4605 158.336 71.8685 158.336ZM78.8673 157.448C79.4193 157.448 79.8913 157.568 80.2833 157.808C80.6833 158.048 80.9873 158.388 81.1953 158.828C81.4113 159.26 81.5193 159.768 81.5193 160.352V160.988H77.1153C77.1313 161.716 77.3153 162.272 77.6673 162.656C78.0273 163.032 78.5273 163.22 79.1673 163.22C79.5753 163.22 79.9353 163.184 80.2473 163.112C80.5673 163.032 80.8953 162.92 81.2313 162.776V163.7C80.9033 163.844 80.5793 163.948 80.2593 164.012C79.9393 164.084 79.5593 164.12 79.1193 164.12C78.5113 164.12 77.9713 163.996 77.4993 163.748C77.0353 163.5 76.6713 163.132 76.4073 162.644C76.1513 162.148 76.0233 161.544 76.0233 160.832C76.0233 160.128 76.1393 159.524 76.3713 159.02C76.6113 158.516 76.9433 158.128 77.3673 157.856C77.7993 157.584 78.2993 157.448 78.8673 157.448ZM78.8553 158.312C78.3513 158.312 77.9513 158.476 77.6553 158.804C77.3673 159.124 77.1953 159.572 77.1393 160.148H80.4153C80.4073 159.604 80.2793 159.164 80.0313 158.828C79.7833 158.484 79.3913 158.312 78.8553 158.312ZM88.0527 164H86.9847V158.444H85.0887C84.9847 159.796 84.8407 160.888 84.6567 161.72C84.4727 162.544 84.2287 163.144 83.9247 163.52C83.6207 163.896 83.2367 164.084 82.7727 164.084C82.6687 164.084 82.5647 164.076 82.4607 164.06C82.3647 164.052 82.2847 164.032 82.2207 164V163.208C82.2687 163.224 82.3207 163.236 82.3767 163.244C82.4327 163.252 82.4887 163.256 82.5447 163.256C82.9767 163.256 83.3207 162.796 83.5767 161.876C83.8407 160.956 84.0407 159.52 84.1767 157.568H88.0527V164ZM90.4902 164H89.2662L91.1022 161.3C90.8542 161.236 90.6142 161.136 90.3822 161C90.1502 160.856 89.9622 160.66 89.8182 160.412C89.6742 160.156 89.6022 159.84 89.6022 159.464C89.6022 158.848 89.8102 158.38 90.2262 158.06C90.6422 157.732 91.1942 157.568 91.8822 157.568H94.7622V164H93.7062V161.444H92.1462L90.4902 164ZM90.6222 159.476C90.6222 159.844 90.7582 160.12 91.0302 160.304C91.3102 160.48 91.6982 160.568 92.1942 160.568H93.7062V158.444H91.9902C91.5022 158.444 91.1502 158.54 90.9342 158.732C90.7262 158.924 90.6222 159.172 90.6222 159.476ZM103.145 166.232H102.113V164H96.7973V157.568H97.8533V163.112H101.177V157.568H102.233V163.124H103.145V166.232ZM105.375 157.568V161.492C105.375 161.588 105.371 161.732 105.363 161.924C105.355 162.116 105.343 162.308 105.327 162.5C105.319 162.692 105.311 162.844 105.303 162.956L108.747 157.568H110.043V164H109.059V160.208C109.059 160.08 109.059 159.912 109.059 159.704C109.067 159.496 109.075 159.292 109.083 159.092C109.091 158.884 109.099 158.728 109.107 158.624L105.687 164H104.379V157.568H105.375ZM117.682 160.772C117.682 161.836 117.41 162.66 116.866 163.244C116.33 163.828 115.602 164.12 114.682 164.12C114.114 164.12 113.606 163.992 113.158 163.736C112.718 163.472 112.37 163.092 112.114 162.596C111.858 162.092 111.73 161.484 111.73 160.772C111.73 159.708 111.998 158.888 112.534 158.312C113.07 157.736 113.798 157.448 114.718 157.448C115.302 157.448 115.814 157.58 116.254 157.844C116.702 158.1 117.05 158.476 117.298 158.972C117.554 159.46 117.682 160.06 117.682 160.772ZM112.822 160.772C112.822 161.532 112.97 162.136 113.266 162.584C113.57 163.024 114.05 163.244 114.706 163.244C115.354 163.244 115.83 163.024 116.134 162.584C116.438 162.136 116.59 161.532 116.59 160.772C116.59 160.012 116.438 159.416 116.134 158.984C115.83 158.552 115.35 158.336 114.694 158.336C114.038 158.336 113.562 158.552 113.266 158.984C112.97 159.416 112.822 160.012 112.822 160.772ZM120.412 157.568V160.244H123.904V157.568H124.96V164H123.904V161.132H120.412V164H119.356V157.568H120.412ZM128.053 157.568V160.244H131.545V157.568H132.601V164H131.545V161.132H128.053V164H126.997V157.568H128.053ZM137.073 157.46C137.857 157.46 138.437 157.632 138.813 157.976C139.189 158.32 139.377 158.868 139.377 159.62V164H138.609L138.405 163.088H138.357C138.077 163.44 137.781 163.7 137.469 163.868C137.165 164.036 136.741 164.12 136.197 164.12C135.613 164.12 135.129 163.968 134.745 163.664C134.361 163.352 134.169 162.868 134.169 162.212C134.169 161.572 134.421 161.08 134.925 160.736C135.429 160.384 136.205 160.192 137.253 160.16L138.345 160.124V159.74C138.345 159.204 138.229 158.832 137.997 158.624C137.765 158.416 137.437 158.312 137.013 158.312C136.677 158.312 136.357 158.364 136.053 158.468C135.749 158.564 135.465 158.676 135.201 158.804L134.877 158.012C135.157 157.86 135.489 157.732 135.873 157.628C136.257 157.516 136.657 157.46 137.073 157.46ZM138.333 160.856L137.385 160.892C136.585 160.924 136.029 161.052 135.717 161.276C135.413 161.5 135.261 161.816 135.261 162.224C135.261 162.584 135.369 162.848 135.585 163.016C135.809 163.184 136.093 163.268 136.437 163.268C136.981 163.268 137.433 163.12 137.793 162.824C138.153 162.52 138.333 162.056 138.333 161.432V160.856ZM141.76 164H140.536L142.372 161.3C142.124 161.236 141.884 161.136 141.652 161C141.42 160.856 141.232 160.66 141.088 160.412C140.944 160.156 140.872 159.84 140.872 159.464C140.872 158.848 141.08 158.38 141.496 158.06C141.912 157.732 142.464 157.568 143.152 157.568H146.032V164H144.976V161.444H143.416L141.76 164ZM141.892 159.476C141.892 159.844 142.028 160.12 142.3 160.304C142.58 160.48 142.968 160.568 143.464 160.568H144.976V158.444H143.26C142.772 158.444 142.42 158.54 142.204 158.732C141.996 158.924 141.892 159.172 141.892 159.476ZM150.848 160.136C150.848 158.728 151.06 157.632 151.484 156.848C151.908 156.056 152.592 155.56 153.536 155.36C154.056 155.248 154.564 155.148 155.06 155.06C155.556 154.972 156.02 154.892 156.452 154.82L156.632 155.744C156.352 155.784 156.036 155.836 155.684 155.9C155.332 155.956 154.984 156.016 154.64 156.08C154.296 156.136 154 156.192 153.752 156.248C153.232 156.36 152.82 156.632 152.516 157.064C152.212 157.488 152.04 158.152 152 159.056H152.072C152.184 158.904 152.336 158.748 152.528 158.588C152.728 158.428 152.964 158.292 153.236 158.18C153.516 158.068 153.832 158.012 154.184 158.012C155.016 158.012 155.644 158.28 156.068 158.816C156.492 159.352 156.704 160.048 156.704 160.904C156.704 161.616 156.58 162.212 156.332 162.692C156.084 163.172 155.74 163.532 155.3 163.772C154.86 164.004 154.348 164.12 153.764 164.12C152.876 164.12 152.168 163.78 151.64 163.1C151.112 162.42 150.848 161.432 150.848 160.136ZM153.848 163.244C154.368 163.244 154.788 163.076 155.108 162.74C155.428 162.404 155.588 161.828 155.588 161.012C155.588 160.356 155.464 159.84 155.216 159.464C154.976 159.08 154.576 158.888 154.016 158.888C153.664 158.888 153.344 158.968 153.056 159.128C152.768 159.28 152.528 159.456 152.336 159.656C152.144 159.856 152.008 160.024 151.928 160.16C151.928 160.552 151.956 160.932 152.012 161.3C152.068 161.668 152.164 162 152.3 162.296C152.444 162.584 152.64 162.816 152.888 162.992C153.144 163.16 153.464 163.244 153.848 163.244ZM160.804 157.46C161.588 157.46 162.168 157.632 162.544 157.976C162.92 158.32 163.108 158.868 163.108 159.62V164H162.34L162.136 163.088H162.088C161.808 163.44 161.512 163.7 161.2 163.868C160.896 164.036 160.472 164.12 159.928 164.12C159.344 164.12 158.86 163.968 158.476 163.664C158.092 163.352 157.9 162.868 157.9 162.212C157.9 161.572 158.152 161.08 158.656 160.736C159.16 160.384 159.936 160.192 160.984 160.16L162.076 160.124V159.74C162.076 159.204 161.96 158.832 161.728 158.624C161.496 158.416 161.168 158.312 160.744 158.312C160.408 158.312 160.088 158.364 159.784 158.468C159.48 158.564 159.196 158.676 158.932 158.804L158.608 158.012C158.888 157.86 159.22 157.732 159.604 157.628C159.988 157.516 160.388 157.46 160.804 157.46ZM162.064 160.856L161.116 160.892C160.316 160.924 159.76 161.052 159.448 161.276C159.144 161.5 158.992 161.816 158.992 162.224C158.992 162.584 159.1 162.848 159.316 163.016C159.54 163.184 159.824 163.268 160.168 163.268C160.712 163.268 161.164 163.12 161.524 162.824C161.884 162.52 162.064 162.056 162.064 161.432V160.856ZM166.786 157.448C167.522 157.448 168.106 157.596 168.538 157.892C168.978 158.18 169.198 158.596 169.198 159.14C169.198 159.532 169.09 159.844 168.874 160.076C168.658 160.3 168.362 160.464 167.986 160.568V160.616C168.242 160.688 168.478 160.788 168.694 160.916C168.91 161.044 169.082 161.212 169.21 161.42C169.346 161.628 169.414 161.896 169.414 162.224C169.414 162.76 169.19 163.212 168.742 163.58C168.302 163.94 167.61 164.12 166.666 164.12C166.202 164.12 165.782 164.08 165.406 164C165.03 163.928 164.718 163.828 164.47 163.7V162.752C164.742 162.88 165.062 162.996 165.43 163.1C165.806 163.204 166.214 163.256 166.654 163.256C167.134 163.256 167.538 163.176 167.866 163.016C168.202 162.848 168.37 162.564 168.37 162.164C168.37 161.444 167.758 161.084 166.534 161.084H165.67V160.22H166.366C166.918 160.22 167.358 160.148 167.686 160.004C168.022 159.852 168.19 159.596 168.19 159.236C168.19 158.932 168.062 158.704 167.806 158.552C167.558 158.4 167.198 158.324 166.726 158.324C166.374 158.324 166.062 158.36 165.79 158.432C165.526 158.496 165.234 158.596 164.914 158.732L164.542 157.892C165.214 157.596 165.962 157.448 166.786 157.448ZM173.413 157.46C174.197 157.46 174.777 157.632 175.153 157.976C175.529 158.32 175.717 158.868 175.717 159.62V164H174.949L174.745 163.088H174.697C174.417 163.44 174.121 163.7 173.809 163.868C173.505 164.036 173.081 164.12 172.537 164.12C171.953 164.12 171.469 163.968 171.085 163.664C170.701 163.352 170.509 162.868 170.509 162.212C170.509 161.572 170.761 161.08 171.265 160.736C171.769 160.384 172.545 160.192 173.593 160.16L174.685 160.124V159.74C174.685 159.204 174.569 158.832 174.337 158.624C174.105 158.416 173.777 158.312 173.353 158.312C173.017 158.312 172.697 158.364 172.393 158.468C172.089 158.564 171.805 158.676 171.541 158.804L171.217 158.012C171.497 157.86 171.829 157.732 172.213 157.628C172.597 157.516 172.997 157.46 173.413 157.46ZM174.673 160.856L173.725 160.892C172.925 160.924 172.369 161.052 172.057 161.276C171.753 161.5 171.601 161.816 171.601 162.224C171.601 162.584 171.709 162.848 171.925 163.016C172.149 163.184 172.433 163.268 172.777 163.268C173.321 163.268 173.773 163.12 174.133 162.824C174.493 162.52 174.673 162.056 174.673 161.432V160.856ZM185.597 157.568V163.112H186.533V166.232H185.513V164H181.037V166.232H180.029V163.112H180.545C181.097 162.352 181.509 161.488 181.781 160.52C182.061 159.544 182.205 158.56 182.213 157.568H185.597ZM184.577 158.396H183.149C183.117 158.94 183.033 159.504 182.897 160.088C182.761 160.664 182.585 161.216 182.369 161.744C182.161 162.272 181.917 162.728 181.637 163.112H184.577V158.396ZM190.229 157.46C191.013 157.46 191.593 157.632 191.969 157.976C192.345 158.32 192.533 158.868 192.533 159.62V164H191.765L191.561 163.088H191.513C191.233 163.44 190.937 163.7 190.625 163.868C190.321 164.036 189.897 164.12 189.353 164.12C188.769 164.12 188.285 163.968 187.901 163.664C187.517 163.352 187.325 162.868 187.325 162.212C187.325 161.572 187.577 161.08 188.081 160.736C188.585 160.384 189.361 160.192 190.409 160.16L191.501 160.124V159.74C191.501 159.204 191.385 158.832 191.153 158.624C190.921 158.416 190.593 158.312 190.169 158.312C189.833 158.312 189.513 158.364 189.209 158.468C188.905 158.564 188.621 158.676 188.357 158.804L188.033 158.012C188.313 157.86 188.645 157.732 189.029 157.628C189.413 157.516 189.813 157.46 190.229 157.46ZM191.489 160.856L190.541 160.892C189.741 160.924 189.185 161.052 188.873 161.276C188.569 161.5 188.417 161.816 188.417 162.224C188.417 162.584 188.525 162.848 188.741 163.016C188.965 163.184 189.249 163.268 189.593 163.268C190.137 163.268 190.589 163.12 190.949 162.824C191.309 162.52 191.489 162.056 191.489 161.432V160.856ZM195.576 157.568V160.244H199.068V157.568H200.124V164H199.068V161.132H195.576V164H194.52V157.568H195.576ZM203.217 157.568V160.244H206.709V157.568H207.765V164H206.709V161.132H203.217V164H202.161V157.568H203.217ZM209.801 164V157.568H210.857V160.208H212.525C213.357 160.208 213.973 160.36 214.373 160.664C214.773 160.968 214.973 161.424 214.973 162.032C214.973 162.632 214.777 163.112 214.385 163.472C213.993 163.824 213.357 164 212.477 164H209.801ZM216.041 164V157.568H217.097V164H216.041ZM210.857 163.148H212.381C212.837 163.148 213.209 163.072 213.497 162.92C213.785 162.76 213.929 162.484 213.929 162.092C213.929 161.7 213.797 161.436 213.533 161.3C213.269 161.156 212.889 161.084 212.393 161.084H210.857V163.148ZM220.665 160.712L218.445 157.568H219.645L221.301 159.992L222.945 157.568H224.133L221.913 160.712L224.253 164H223.053L221.301 161.432L219.525 164H218.337L220.665 160.712ZM226.873 162.356L225.421 165.668H224.533L225.385 162.356H226.873ZM34.824 175.568H35.976L33.228 178.664L36.204 182H34.98L32.076 178.736V182H31.02V175.568H32.076V178.688L34.824 175.568ZM42.7292 178.772C42.7292 179.836 42.4572 180.66 41.9132 181.244C41.3772 181.828 40.6492 182.12 39.7292 182.12C39.1612 182.12 38.6532 181.992 38.2052 181.736C37.7652 181.472 37.4172 181.092 37.1612 180.596C36.9052 180.092 36.7772 179.484 36.7772 178.772C36.7772 177.708 37.0452 176.888 37.5812 176.312C38.1172 175.736 38.8452 175.448 39.7652 175.448C40.3492 175.448 40.8612 175.58 41.3012 175.844C41.7492 176.1 42.0972 176.476 42.3452 176.972C42.6012 177.46 42.7292 178.06 42.7292 178.772ZM37.8692 178.772C37.8692 179.532 38.0172 180.136 38.3132 180.584C38.6172 181.024 39.0972 181.244 39.7532 181.244C40.4012 181.244 40.8772 181.024 41.1812 180.584C41.4852 180.136 41.6372 179.532 41.6372 178.772C41.6372 178.012 41.4852 177.416 41.1812 176.984C40.8772 176.552 40.3972 176.336 39.7412 176.336C39.0852 176.336 38.6092 176.552 38.3132 176.984C38.0172 177.416 37.8692 178.012 37.8692 178.772ZM48.7256 176.456H46.6256V182H45.5816V176.456H43.5056V175.568H48.7256V176.456ZM55.4675 178.772C55.4675 179.836 55.1955 180.66 54.6515 181.244C54.1155 181.828 53.3875 182.12 52.4675 182.12C51.8995 182.12 51.3915 181.992 50.9435 181.736C50.5035 181.472 50.1555 181.092 49.8995 180.596C49.6435 180.092 49.5155 179.484 49.5155 178.772C49.5155 177.708 49.7835 176.888 50.3195 176.312C50.8555 175.736 51.5835 175.448 52.5035 175.448C53.0875 175.448 53.5995 175.58 54.0395 175.844C54.4875 176.1 54.8355 176.476 55.0835 176.972C55.3395 177.46 55.4675 178.06 55.4675 178.772ZM50.6075 178.772C50.6075 179.532 50.7555 180.136 51.0515 180.584C51.3555 181.024 51.8355 181.244 52.4915 181.244C53.1395 181.244 53.6155 181.024 53.9195 180.584C54.2235 180.136 54.3755 179.532 54.3755 178.772C54.3755 178.012 54.2235 177.416 53.9195 176.984C53.6155 176.552 53.1355 176.336 52.4795 176.336C51.8235 176.336 51.3475 176.552 51.0515 176.984C50.7555 177.416 50.6075 178.012 50.6075 178.772ZM60.2011 175.448C60.9931 175.448 61.6291 175.724 62.1091 176.276C62.5971 176.828 62.8411 177.66 62.8411 178.772C62.8411 179.868 62.5971 180.7 62.1091 181.268C61.6291 181.836 60.9891 182.12 60.1891 182.12C59.6931 182.12 59.2811 182.028 58.9531 181.844C58.6331 181.652 58.3811 181.432 58.1971 181.184H58.1251C58.1411 181.32 58.1571 181.492 58.1731 181.7C58.1891 181.908 58.1971 182.088 58.1971 182.24V184.88H57.1411V175.568H58.0051L58.1491 176.444H58.1971C58.3891 176.164 58.6411 175.928 58.9531 175.736C59.2651 175.544 59.6811 175.448 60.2011 175.448ZM60.0091 176.336C59.3531 176.336 58.8891 176.52 58.6171 176.888C58.3531 177.256 58.2131 177.816 58.1971 178.568V178.772C58.1971 179.564 58.3251 180.176 58.5811 180.608C58.8451 181.032 59.3291 181.244 60.0331 181.244C60.4251 181.244 60.7451 181.136 60.9931 180.92C61.2491 180.704 61.4371 180.412 61.5571 180.044C61.6851 179.668 61.7491 179.24 61.7491 178.76C61.7491 178.024 61.6051 177.436 61.3171 176.996C61.0371 176.556 60.6011 176.336 60.0091 176.336ZM66.9599 175.46C67.7439 175.46 68.3239 175.632 68.6999 175.976C69.0759 176.32 69.2639 176.868 69.2639 177.62V182H68.4959L68.2919 181.088H68.2439C67.9639 181.44 67.6679 181.7 67.3559 181.868C67.0519 182.036 66.6279 182.12 66.0839 182.12C65.4999 182.12 65.0159 181.968 64.6319 181.664C64.2479 181.352 64.0559 180.868 64.0559 180.212C64.0559 179.572 64.3079 179.08 64.8119 178.736C65.3159 178.384 66.0919 178.192 67.1399 178.16L68.2319 178.124V177.74C68.2319 177.204 68.1159 176.832 67.8839 176.624C67.6519 176.416 67.3239 176.312 66.8999 176.312C66.5639 176.312 66.2439 176.364 65.9399 176.468C65.6359 176.564 65.3519 176.676 65.0879 176.804L64.7639 176.012C65.0439 175.86 65.3759 175.732 65.7599 175.628C66.1439 175.516 66.5439 175.46 66.9599 175.46ZM68.2199 178.856L67.2719 178.892C66.4719 178.924 65.9159 179.052 65.6039 179.276C65.2999 179.5 65.1479 179.816 65.1479 180.224C65.1479 180.584 65.2559 180.848 65.4719 181.016C65.6959 181.184 65.9799 181.268 66.3239 181.268C66.8679 181.268 67.3199 181.12 67.6799 180.824C68.0399 180.52 68.2199 180.056 68.2199 179.432V178.856ZM71.6465 182H70.4225L72.2585 179.3C72.0105 179.236 71.7705 179.136 71.5385 179C71.3065 178.856 71.1185 178.66 70.9745 178.412C70.8305 178.156 70.7585 177.84 70.7585 177.464C70.7585 176.848 70.9665 176.38 71.3825 176.06C71.7985 175.732 72.3505 175.568 73.0385 175.568H75.9185V182H74.8625V179.444H73.3025L71.6465 182ZM71.7785 177.476C71.7785 177.844 71.9145 178.12 72.1865 178.304C72.4665 178.48 72.8545 178.568 73.3505 178.568H74.8625V176.444H73.1465C72.6585 176.444 72.3065 176.54 72.0905 176.732C71.8825 176.924 71.7785 177.172 71.7785 177.476ZM80.7348 178.136C80.7348 176.728 80.9468 175.632 81.3708 174.848C81.7948 174.056 82.4788 173.56 83.4228 173.36C83.9428 173.248 84.4508 173.148 84.9468 173.06C85.4428 172.972 85.9068 172.892 86.3388 172.82L86.5188 173.744C86.2388 173.784 85.9228 173.836 85.5708 173.9C85.2188 173.956 84.8708 174.016 84.5268 174.08C84.1828 174.136 83.8868 174.192 83.6388 174.248C83.1188 174.36 82.7068 174.632 82.4028 175.064C82.0988 175.488 81.9268 176.152 81.8868 177.056H81.9588C82.0708 176.904 82.2228 176.748 82.4148 176.588C82.6148 176.428 82.8508 176.292 83.1228 176.18C83.4028 176.068 83.7188 176.012 84.0708 176.012C84.9028 176.012 85.5308 176.28 85.9548 176.816C86.3788 177.352 86.5908 178.048 86.5908 178.904C86.5908 179.616 86.4668 180.212 86.2188 180.692C85.9708 181.172 85.6268 181.532 85.1868 181.772C84.7468 182.004 84.2348 182.12 83.6508 182.12C82.7628 182.12 82.0548 181.78 81.5268 181.1C80.9988 180.42 80.7348 179.432 80.7348 178.136ZM83.7348 181.244C84.2548 181.244 84.6748 181.076 84.9948 180.74C85.3148 180.404 85.4748 179.828 85.4748 179.012C85.4748 178.356 85.3508 177.84 85.1028 177.464C84.8628 177.08 84.4628 176.888 83.9028 176.888C83.5508 176.888 83.2308 176.968 82.9428 177.128C82.6548 177.28 82.4148 177.456 82.2228 177.656C82.0308 177.856 81.8948 178.024 81.8148 178.16C81.8148 178.552 81.8428 178.932 81.8988 179.3C81.9548 179.668 82.0508 180 82.1868 180.296C82.3308 180.584 82.5268 180.816 82.7748 180.992C83.0308 181.16 83.3508 181.244 83.7348 181.244ZM87.2464 175.568H88.3744L89.7664 179.228C89.8864 179.548 89.9944 179.856 90.0904 180.152C90.1864 180.44 90.2584 180.716 90.3064 180.98H90.3544C90.4024 180.78 90.4784 180.52 90.5824 180.2C90.6864 179.872 90.7944 179.544 90.9064 179.216L92.2144 175.568H93.3544L90.5824 182.888C90.3584 183.496 90.0664 183.98 89.7064 184.34C89.3544 184.7 88.8664 184.88 88.2424 184.88C88.0504 184.88 87.8824 184.868 87.7384 184.844C87.5944 184.828 87.4704 184.808 87.3664 184.784V183.944C87.4544 183.96 87.5584 183.976 87.6784 183.992C87.8064 184.008 87.9384 184.016 88.0744 184.016C88.4424 184.016 88.7384 183.912 88.9624 183.704C89.1944 183.496 89.3744 183.22 89.5024 182.876L89.8384 182.024L87.2464 175.568ZM98.9132 175.568V181.112H99.8492V184.232H98.8292V182H94.3532V184.232H93.3452V181.112H93.8612C94.4132 180.352 94.8252 179.488 95.0972 178.52C95.3772 177.544 95.5212 176.56 95.5292 175.568H98.9132ZM97.8932 176.396H96.4652C96.4332 176.94 96.3492 177.504 96.2132 178.088C96.0772 178.664 95.9012 179.216 95.6852 179.744C95.4772 180.272 95.2332 180.728 94.9532 181.112H97.8932V176.396ZM103.594 175.448C104.146 175.448 104.618 175.568 105.01 175.808C105.41 176.048 105.714 176.388 105.922 176.828C106.138 177.26 106.246 177.768 106.246 178.352V178.988H101.842C101.858 179.716 102.042 180.272 102.394 180.656C102.754 181.032 103.254 181.22 103.894 181.22C104.302 181.22 104.662 181.184 104.974 181.112C105.294 181.032 105.622 180.92 105.958 180.776V181.7C105.63 181.844 105.306 181.948 104.986 182.012C104.666 182.084 104.286 182.12 103.846 182.12C103.238 182.12 102.698 181.996 102.226 181.748C101.762 181.5 101.398 181.132 101.134 180.644C100.878 180.148 100.75 179.544 100.75 178.832C100.75 178.128 100.866 177.524 101.098 177.02C101.338 176.516 101.67 176.128 102.094 175.856C102.526 175.584 103.026 175.448 103.594 175.448ZM103.582 176.312C103.078 176.312 102.678 176.476 102.382 176.804C102.094 177.124 101.922 177.572 101.866 178.148H105.142C105.134 177.604 105.006 177.164 104.758 176.828C104.51 176.484 104.118 176.312 103.582 176.312ZM112.323 176.456H110.223V182H109.179V176.456H107.103V175.568H112.323V176.456ZM118.232 178.712L116.012 175.568H117.212L118.868 177.992L120.512 175.568H121.7L119.48 178.712L121.82 182H120.62L118.868 179.432L117.092 182H115.904L118.232 178.712ZM126.119 175.448C126.911 175.448 127.547 175.724 128.027 176.276C128.515 176.828 128.759 177.66 128.759 178.772C128.759 179.868 128.515 180.7 128.027 181.268C127.547 181.836 126.907 182.12 126.107 182.12C125.611 182.12 125.199 182.028 124.871 181.844C124.551 181.652 124.299 181.432 124.115 181.184H124.043C124.059 181.32 124.075 181.492 124.091 181.7C124.107 181.908 124.115 182.088 124.115 182.24V184.88H123.059V175.568H123.923L124.067 176.444H124.115C124.307 176.164 124.559 175.928 124.871 175.736C125.183 175.544 125.599 175.448 126.119 175.448ZM125.927 176.336C125.271 176.336 124.807 176.52 124.535 176.888C124.271 177.256 124.131 177.816 124.115 178.568V178.772C124.115 179.564 124.243 180.176 124.499 180.608C124.763 181.032 125.247 181.244 125.951 181.244C126.343 181.244 126.663 181.136 126.911 180.92C127.167 180.704 127.355 180.412 127.475 180.044C127.603 179.668 127.667 179.24 127.667 178.76C127.667 178.024 127.523 177.436 127.235 176.996C126.955 176.556 126.519 176.336 125.927 176.336ZM132.878 175.46C133.662 175.46 134.242 175.632 134.618 175.976C134.994 176.32 135.182 176.868 135.182 177.62V182H134.414L134.21 181.088H134.162C133.882 181.44 133.586 181.7 133.274 181.868C132.97 182.036 132.546 182.12 132.002 182.12C131.418 182.12 130.934 181.968 130.55 181.664C130.166 181.352 129.974 180.868 129.974 180.212C129.974 179.572 130.226 179.08 130.73 178.736C131.234 178.384 132.01 178.192 133.058 178.16L134.15 178.124V177.74C134.15 177.204 134.034 176.832 133.802 176.624C133.57 176.416 133.242 176.312 132.818 176.312C132.482 176.312 132.162 176.364 131.858 176.468C131.554 176.564 131.27 176.676 131.006 176.804L130.682 176.012C130.962 175.86 131.294 175.732 131.678 175.628C132.062 175.516 132.462 175.46 132.878 175.46ZM134.138 178.856L133.19 178.892C132.39 178.924 131.834 179.052 131.522 179.276C131.218 179.5 131.066 179.816 131.066 180.224C131.066 180.584 131.174 180.848 131.39 181.016C131.614 181.184 131.898 181.268 132.242 181.268C132.786 181.268 133.238 181.12 133.598 180.824C133.958 180.52 134.138 180.056 134.138 179.432V178.856ZM138.224 175.568V178.244H141.716V175.568H142.772V182H141.716V179.132H138.224V182H137.168V175.568H138.224ZM145.805 175.568V179.492C145.805 179.588 145.801 179.732 145.793 179.924C145.785 180.116 145.773 180.308 145.757 180.5C145.749 180.692 145.741 180.844 145.733 180.956L149.177 175.568H150.473V182H149.489V178.208C149.489 178.08 149.489 177.912 149.489 177.704C149.497 177.496 149.505 177.292 149.513 177.092C149.521 176.884 149.529 176.728 149.537 176.624L146.117 182H144.809V175.568H145.805ZM156.96 176.456H154.86V182H153.816V176.456H151.74V175.568H156.96V176.456ZM159.283 178.208H161.191C162.863 178.208 163.699 178.816 163.699 180.032C163.699 180.632 163.495 181.112 163.087 181.472C162.679 181.824 162.031 182 161.143 182H158.227V175.568H159.283V178.208ZM162.643 180.092C162.643 179.7 162.503 179.436 162.223 179.3C161.951 179.156 161.567 179.084 161.071 179.084H159.283V181.148H161.095C161.543 181.148 161.911 181.068 162.199 180.908C162.495 180.748 162.643 180.476 162.643 180.092ZM173.245 175.568V181.112H174.181V184.232H173.161V182H168.685V184.232H167.677V181.112H168.193C168.745 180.352 169.157 179.488 169.429 178.52C169.709 177.544 169.853 176.56 169.861 175.568H173.245ZM172.225 176.396H170.797C170.765 176.94 170.681 177.504 170.545 178.088C170.409 178.664 170.233 179.216 170.017 179.744C169.809 180.272 169.565 180.728 169.285 181.112H172.225V176.396ZM177.878 175.46C178.662 175.46 179.242 175.632 179.618 175.976C179.994 176.32 180.182 176.868 180.182 177.62V182H179.414L179.21 181.088H179.162C178.882 181.44 178.586 181.7 178.274 181.868C177.97 182.036 177.546 182.12 177.002 182.12C176.418 182.12 175.934 181.968 175.55 181.664C175.166 181.352 174.974 180.868 174.974 180.212C174.974 179.572 175.226 179.08 175.73 178.736C176.234 178.384 177.01 178.192 178.058 178.16L179.15 178.124V177.74C179.15 177.204 179.034 176.832 178.802 176.624C178.57 176.416 178.242 176.312 177.818 176.312C177.482 176.312 177.162 176.364 176.858 176.468C176.554 176.564 176.27 176.676 176.006 176.804L175.682 176.012C175.962 175.86 176.294 175.732 176.678 175.628C177.062 175.516 177.462 175.46 177.878 175.46ZM179.138 178.856L178.19 178.892C177.39 178.924 176.834 179.052 176.522 179.276C176.218 179.5 176.066 179.816 176.066 180.224C176.066 180.584 176.174 180.848 176.39 181.016C176.614 181.184 176.898 181.268 177.242 181.268C177.786 181.268 178.238 181.12 178.598 180.824C178.958 180.52 179.138 180.056 179.138 179.432V178.856ZM183.224 175.568V178.244H186.716V175.568H187.772V182H186.716V179.132H183.224V182H182.168V175.568H183.224ZM190.865 175.568V178.244H194.357V175.568H195.413V182H194.357V179.132H190.865V182H189.809V175.568H190.865ZM197.45 182V175.568H198.506V178.208H200.174C201.006 178.208 201.622 178.36 202.022 178.664C202.422 178.968 202.622 179.424 202.622 180.032C202.622 180.632 202.426 181.112 202.034 181.472C201.642 181.824 201.006 182 200.126 182H197.45ZM203.69 182V175.568H204.746V182H203.69ZM198.506 181.148H200.03C200.486 181.148 200.858 181.072 201.146 180.92C201.434 180.76 201.578 180.484 201.578 180.092C201.578 179.7 201.446 179.436 201.182 179.3C200.918 179.156 200.538 179.084 200.042 179.084H198.506V181.148ZM209.274 175.448C209.826 175.448 210.298 175.568 210.69 175.808C211.09 176.048 211.394 176.388 211.602 176.828C211.818 177.26 211.926 177.768 211.926 178.352V178.988H207.522C207.538 179.716 207.722 180.272 208.074 180.656C208.434 181.032 208.934 181.22 209.574 181.22C209.982 181.22 210.342 181.184 210.654 181.112C210.974 181.032 211.302 180.92 211.638 180.776V181.7C211.31 181.844 210.986 181.948 210.666 182.012C210.346 182.084 209.966 182.12 209.526 182.12C208.918 182.12 208.378 181.996 207.906 181.748C207.442 181.5 207.078 181.132 206.814 180.644C206.558 180.148 206.43 179.544 206.43 178.832C206.43 178.128 206.546 177.524 206.778 177.02C207.018 176.516 207.35 176.128 207.774 175.856C208.206 175.584 208.706 175.448 209.274 175.448ZM209.262 176.312C208.758 176.312 208.358 176.476 208.062 176.804C207.774 177.124 207.602 177.572 207.546 178.148H210.822C210.814 177.604 210.686 177.164 210.438 176.828C210.19 176.484 209.798 176.312 209.262 176.312ZM36.192 195.188C36.192 195.588 36.072 195.9 35.832 196.124C35.592 196.348 35.284 196.5 34.908 196.58V196.628C35.308 196.684 35.656 196.828 35.952 197.06C36.248 197.284 36.396 197.636 36.396 198.116C36.396 198.66 36.192 199.112 35.784 199.472C35.384 199.824 34.72 200 33.792 200H31.02V193.568H33.78C34.236 193.568 34.644 193.62 35.004 193.724C35.372 193.82 35.66 193.988 35.868 194.228C36.084 194.46 36.192 194.78 36.192 195.188ZM35.124 195.32C35.124 195.016 35.012 194.796 34.788 194.66C34.572 194.516 34.216 194.444 33.72 194.444H32.076V196.208H33.528C34.592 196.208 35.124 195.912 35.124 195.32ZM35.304 198.116C35.304 197.748 35.164 197.484 34.884 197.324C34.604 197.164 34.192 197.084 33.648 197.084H32.076V199.148H33.672C34.2 199.148 34.604 199.072 34.884 198.92C35.164 198.76 35.304 198.492 35.304 198.116ZM40.3701 193.46C41.1541 193.46 41.7341 193.632 42.1101 193.976C42.4861 194.32 42.6741 194.868 42.6741 195.62V200H41.9061L41.7021 199.088H41.6541C41.3741 199.44 41.0781 199.7 40.7661 199.868C40.4621 200.036 40.0381 200.12 39.4941 200.12C38.9101 200.12 38.4261 199.968 38.0421 199.664C37.6581 199.352 37.4661 198.868 37.4661 198.212C37.4661 197.572 37.7181 197.08 38.2221 196.736C38.7261 196.384 39.5021 196.192 40.5501 196.16L41.6421 196.124V195.74C41.6421 195.204 41.5261 194.832 41.2941 194.624C41.0621 194.416 40.7341 194.312 40.3101 194.312C39.9741 194.312 39.6541 194.364 39.3501 194.468C39.0461 194.564 38.7621 194.676 38.4981 194.804L38.1741 194.012C38.4541 193.86 38.7861 193.732 39.1701 193.628C39.5541 193.516 39.9541 193.46 40.3701 193.46ZM41.6301 196.856L40.6821 196.892C39.8821 196.924 39.3261 197.052 39.0141 197.276C38.7101 197.5 38.5581 197.816 38.5581 198.224C38.5581 198.584 38.6661 198.848 38.8821 199.016C39.1061 199.184 39.3901 199.268 39.7341 199.268C40.2781 199.268 40.7301 199.12 41.0901 198.824C41.4501 198.52 41.6301 198.056 41.6301 197.432V196.856ZM53.3846 193.568V200H44.6606V193.568H45.7166V199.112H48.4886V193.568H49.5446V199.112H52.3286V193.568H53.3846ZM57.9259 193.448C58.4779 193.448 58.9499 193.568 59.3419 193.808C59.7419 194.048 60.0459 194.388 60.2539 194.828C60.4699 195.26 60.5779 195.768 60.5779 196.352V196.988H56.1739C56.1899 197.716 56.3739 198.272 56.7259 198.656C57.0859 199.032 57.5859 199.22 58.2259 199.22C58.6339 199.22 58.9939 199.184 59.3059 199.112C59.6259 199.032 59.9539 198.92 60.2899 198.776V199.7C59.9619 199.844 59.6379 199.948 59.3179 200.012C58.9979 200.084 58.6179 200.12 58.1779 200.12C57.5699 200.12 57.0299 199.996 56.5579 199.748C56.0939 199.5 55.7299 199.132 55.4659 198.644C55.2099 198.148 55.0819 197.544 55.0819 196.832C55.0819 196.128 55.1979 195.524 55.4299 195.02C55.6699 194.516 56.0019 194.128 56.4259 193.856C56.8579 193.584 57.3579 193.448 57.9259 193.448ZM57.9139 194.312C57.4099 194.312 57.0099 194.476 56.7139 194.804C56.4259 195.124 56.2539 195.572 56.1979 196.148H59.4739C59.4659 195.604 59.3379 195.164 59.0899 194.828C58.8419 194.484 58.4499 194.312 57.9139 194.312ZM66.1393 193.568V194.456H63.2713V200H62.2153V193.568H66.1393ZM72.8815 196.772C72.8815 197.836 72.6095 198.66 72.0655 199.244C71.5295 199.828 70.8015 200.12 69.8815 200.12C69.3135 200.12 68.8055 199.992 68.3575 199.736C67.9175 199.472 67.5695 199.092 67.3135 198.596C67.0575 198.092 66.9295 197.484 66.9295 196.772C66.9295 195.708 67.1975 194.888 67.7335 194.312C68.2695 193.736 68.9975 193.448 69.9175 193.448C70.5015 193.448 71.0135 193.58 71.4535 193.844C71.9015 194.1 72.2495 194.476 72.4975 194.972C72.7535 195.46 72.8815 196.06 72.8815 196.772ZM68.0215 196.772C68.0215 197.532 68.1695 198.136 68.4655 198.584C68.7695 199.024 69.2495 199.244 69.9055 199.244C70.5535 199.244 71.0295 199.024 71.3335 198.584C71.6375 198.136 71.7895 197.532 71.7895 196.772C71.7895 196.012 71.6375 195.416 71.3335 194.984C71.0295 194.552 70.5495 194.336 69.8935 194.336C69.2375 194.336 68.7615 194.552 68.4655 194.984C68.1695 195.416 68.0215 196.012 68.0215 196.772ZM80.2523 200.12C79.6843 200.12 79.1763 200.004 78.7283 199.772C78.2883 199.54 77.9403 199.18 77.6843 198.692C77.4363 198.204 77.3123 197.58 77.3123 196.82C77.3123 196.028 77.4443 195.384 77.7083 194.888C77.9723 194.392 78.3283 194.028 78.7763 193.796C79.2323 193.564 79.7483 193.448 80.3243 193.448C80.6523 193.448 80.9683 193.484 81.2723 193.556C81.5763 193.62 81.8243 193.7 82.0163 193.796L81.6923 194.672C81.5003 194.6 81.2763 194.532 81.0203 194.468C80.7643 194.404 80.5243 194.372 80.3003 194.372C79.0363 194.372 78.4043 195.184 78.4043 196.808C78.4043 197.584 78.5563 198.18 78.8603 198.596C79.1723 199.004 79.6323 199.208 80.2403 199.208C80.5923 199.208 80.9003 199.172 81.1643 199.1C81.4363 199.028 81.6843 198.94 81.9083 198.836V199.772C81.6923 199.884 81.4523 199.968 81.1883 200.024C80.9323 200.088 80.6203 200.12 80.2523 200.12ZM85.874 193.46C86.658 193.46 87.238 193.632 87.614 193.976C87.99 194.32 88.178 194.868 88.178 195.62V200H87.41L87.206 199.088H87.158C86.878 199.44 86.582 199.7 86.27 199.868C85.966 200.036 85.542 200.12 84.998 200.12C84.414 200.12 83.93 199.968 83.546 199.664C83.162 199.352 82.97 198.868 82.97 198.212C82.97 197.572 83.222 197.08 83.726 196.736C84.23 196.384 85.006 196.192 86.054 196.16L87.146 196.124V195.74C87.146 195.204 87.03 194.832 86.798 194.624C86.566 194.416 86.238 194.312 85.814 194.312C85.478 194.312 85.158 194.364 84.854 194.468C84.55 194.564 84.266 194.676 84.002 194.804L83.678 194.012C83.958 193.86 84.29 193.732 84.674 193.628C85.058 193.516 85.458 193.46 85.874 193.46ZM87.134 196.856L86.186 196.892C85.386 196.924 84.83 197.052 84.518 197.276C84.214 197.5 84.062 197.816 84.062 198.224C84.062 198.584 84.17 198.848 84.386 199.016C84.61 199.184 84.894 199.268 85.238 199.268C85.782 199.268 86.234 199.12 86.594 198.824C86.954 198.52 87.134 198.056 87.134 197.432V196.856ZM91.1605 193.568V197.492C91.1605 197.588 91.1565 197.732 91.1485 197.924C91.1405 198.116 91.1285 198.308 91.1125 198.5C91.1045 198.692 91.0965 198.844 91.0885 198.956L94.5325 193.568H95.8285V200H94.8445V196.208C94.8445 196.08 94.8445 195.912 94.8445 195.704C94.8525 195.496 94.8605 195.292 94.8685 195.092C94.8765 194.884 94.8845 194.728 94.8925 194.624L91.4725 200H90.1645V193.568H91.1605ZM95.3725 190.904C95.3165 191.504 95.1125 191.96 94.7605 192.272C94.4165 192.576 93.8645 192.728 93.1045 192.728C92.3205 192.728 91.7645 192.576 91.4365 192.272C91.1165 191.968 90.9365 191.512 90.8965 190.904H91.8805C91.9205 191.336 92.0325 191.628 92.2165 191.78C92.4085 191.924 92.7125 191.996 93.1285 191.996C93.4965 191.996 93.7845 191.92 93.9925 191.768C94.2085 191.608 94.3365 191.32 94.3765 190.904H95.3725ZM102.315 194.456H100.215V200H99.1715V194.456H97.0955V193.568H102.315V194.456ZM106.019 193.46C106.803 193.46 107.383 193.632 107.759 193.976C108.135 194.32 108.323 194.868 108.323 195.62V200H107.555L107.351 199.088H107.303C107.023 199.44 106.727 199.7 106.415 199.868C106.111 200.036 105.687 200.12 105.143 200.12C104.559 200.12 104.075 199.968 103.691 199.664C103.307 199.352 103.115 198.868 103.115 198.212C103.115 197.572 103.367 197.08 103.871 196.736C104.375 196.384 105.151 196.192 106.199 196.16L107.291 196.124V195.74C107.291 195.204 107.175 194.832 106.943 194.624C106.711 194.416 106.383 194.312 105.959 194.312C105.623 194.312 105.303 194.364 104.999 194.468C104.695 194.564 104.411 194.676 104.146 194.804L103.823 194.012C104.103 193.86 104.435 193.732 104.819 193.628C105.203 193.516 105.603 193.46 106.019 193.46ZM107.279 196.856L106.331 196.892C105.531 196.924 104.975 197.052 104.663 197.276C104.359 197.5 104.207 197.816 104.207 198.224C104.207 198.584 104.315 198.848 104.531 199.016C104.755 199.184 105.039 199.268 105.383 199.268C105.927 199.268 106.379 199.12 106.739 198.824C107.099 198.52 107.279 198.056 107.279 197.432V196.856ZM114.422 193.568V197.492C114.422 197.588 114.418 197.732 114.41 197.924C114.402 198.116 114.39 198.308 114.374 198.5C114.366 198.692 114.358 198.844 114.35 198.956L117.794 193.568H119.09V200H118.106V196.208C118.106 196.08 118.106 195.912 118.106 195.704C118.114 195.496 118.122 195.292 118.13 195.092C118.138 194.884 118.146 194.728 118.154 194.624L114.734 200H113.426V193.568H114.422ZM126.033 200H124.965V194.444H123.069C122.965 195.796 122.821 196.888 122.637 197.72C122.453 198.544 122.209 199.144 121.905 199.52C121.601 199.896 121.217 200.084 120.753 200.084C120.649 200.084 120.545 200.076 120.441 200.06C120.345 200.052 120.265 200.032 120.201 200V199.208C120.249 199.224 120.301 199.236 120.357 199.244C120.413 199.252 120.469 199.256 120.525 199.256C120.957 199.256 121.301 198.796 121.557 197.876C121.821 196.956 122.021 195.52 122.157 193.568H126.033V200ZM129.071 193.568V197.492C129.071 197.588 129.067 197.732 129.059 197.924C129.051 198.116 129.039 198.308 129.023 198.5C129.015 198.692 129.007 198.844 128.999 198.956L132.443 193.568H133.739V200H132.755V196.208C132.755 196.08 132.755 195.912 132.755 195.704C132.763 195.496 132.771 195.292 132.779 195.092C132.787 194.884 132.795 194.728 132.803 194.624L129.383 200H128.075V193.568H129.071ZM144.339 193.568V200H143.283V194.468H139.959V200H138.903V193.568H144.339ZM149.451 193.448C150.243 193.448 150.879 193.724 151.359 194.276C151.847 194.828 152.091 195.66 152.091 196.772C152.091 197.868 151.847 198.7 151.359 199.268C150.879 199.836 150.239 200.12 149.439 200.12C148.943 200.12 148.531 200.028 148.203 199.844C147.883 199.652 147.631 199.432 147.447 199.184H147.375C147.391 199.32 147.407 199.492 147.423 199.7C147.439 199.908 147.447 200.088 147.447 200.24V202.88H146.391V193.568H147.255L147.399 194.444H147.447C147.639 194.164 147.891 193.928 148.203 193.736C148.515 193.544 148.931 193.448 149.451 193.448ZM149.259 194.336C148.603 194.336 148.139 194.52 147.867 194.888C147.603 195.256 147.463 195.816 147.447 196.568V196.772C147.447 197.564 147.575 198.176 147.831 198.608C148.095 199.032 148.579 199.244 149.283 199.244C149.675 199.244 149.995 199.136 150.243 198.92C150.499 198.704 150.687 198.412 150.807 198.044C150.935 197.668 150.999 197.24 150.999 196.76C150.999 196.024 150.855 195.436 150.567 194.996C150.287 194.556 149.851 194.336 149.259 194.336ZM154.77 193.568V197.492C154.77 197.588 154.766 197.732 154.758 197.924C154.75 198.116 154.738 198.308 154.722 198.5C154.714 198.692 154.706 198.844 154.698 198.956L158.142 193.568H159.438V200H158.454V196.208C158.454 196.08 158.454 195.912 158.454 195.704C158.462 195.496 158.47 195.292 158.478 195.092C158.486 194.884 158.494 194.728 158.502 194.624L155.082 200H153.774V193.568H154.77ZM166.381 200H165.313V194.444H163.417C163.313 195.796 163.169 196.888 162.985 197.72C162.801 198.544 162.557 199.144 162.253 199.52C161.949 199.896 161.565 200.084 161.101 200.084C160.997 200.084 160.893 200.076 160.789 200.06C160.693 200.052 160.613 200.032 160.549 200V199.208C160.597 199.224 160.649 199.236 160.705 199.244C160.761 199.252 160.817 199.256 160.873 199.256C161.305 199.256 161.649 198.796 161.905 197.876C162.169 196.956 162.369 195.52 162.505 193.568H166.381V200ZM174.014 196.772C174.014 197.836 173.742 198.66 173.198 199.244C172.662 199.828 171.934 200.12 171.014 200.12C170.446 200.12 169.938 199.992 169.49 199.736C169.05 199.472 168.702 199.092 168.446 198.596C168.19 198.092 168.062 197.484 168.062 196.772C168.062 195.708 168.33 194.888 168.866 194.312C169.402 193.736 170.13 193.448 171.05 193.448C171.634 193.448 172.146 193.58 172.586 193.844C173.034 194.1 173.382 194.476 173.63 194.972C173.886 195.46 174.014 196.06 174.014 196.772ZM169.154 196.772C169.154 197.532 169.302 198.136 169.598 198.584C169.902 199.024 170.382 199.244 171.038 199.244C171.686 199.244 172.162 199.024 172.466 198.584C172.77 198.136 172.922 197.532 172.922 196.772C172.922 196.012 172.77 195.416 172.466 194.984C172.162 194.552 171.682 194.336 171.026 194.336C170.37 194.336 169.894 194.552 169.598 194.984C169.302 195.416 169.154 196.012 169.154 196.772ZM183.17 193.568L180.518 196.688L183.398 200H182.198L179.414 196.736V200H178.43V196.736L175.646 200H174.446L177.326 196.688L174.674 193.568H175.826L178.43 196.688V193.568H179.414V196.688L182.03 193.568H183.17ZM186.703 193.448C187.255 193.448 187.727 193.568 188.119 193.808C188.519 194.048 188.823 194.388 189.031 194.828C189.247 195.26 189.355 195.768 189.355 196.352V196.988H184.951C184.967 197.716 185.151 198.272 185.503 198.656C185.863 199.032 186.363 199.22 187.003 199.22C187.411 199.22 187.771 199.184 188.083 199.112C188.403 199.032 188.731 198.92 189.067 198.776V199.7C188.739 199.844 188.415 199.948 188.095 200.012C187.775 200.084 187.395 200.12 186.955 200.12C186.347 200.12 185.807 199.996 185.335 199.748C184.871 199.5 184.507 199.132 184.243 198.644C183.987 198.148 183.859 197.544 183.859 196.832C183.859 196.128 183.975 195.524 184.207 195.02C184.447 194.516 184.779 194.128 185.203 193.856C185.635 193.584 186.135 193.448 186.703 193.448ZM186.691 194.312C186.187 194.312 185.787 194.476 185.491 194.804C185.203 195.124 185.031 195.572 184.975 196.148H188.251C188.243 195.604 188.115 195.164 187.867 194.828C187.619 194.484 187.227 194.312 186.691 194.312ZM192.049 193.568V196.244H195.541V193.568H196.597V200H195.541V197.132H192.049V200H190.993V193.568H192.049ZM199.629 193.568V197.492C199.629 197.588 199.625 197.732 199.617 197.924C199.609 198.116 199.597 198.308 199.581 198.5C199.573 198.692 199.565 198.844 199.557 198.956L203.001 193.568H204.297V200H203.313V196.208C203.313 196.08 203.313 195.912 203.313 195.704C203.321 195.496 203.329 195.292 203.337 195.092C203.345 194.884 203.353 194.728 203.361 194.624L199.941 200H198.633V193.568H199.629ZM206.74 200H205.516L207.352 197.3C207.104 197.236 206.864 197.136 206.632 197C206.4 196.856 206.212 196.66 206.068 196.412C205.924 196.156 205.852 195.84 205.852 195.464C205.852 194.848 206.06 194.38 206.476 194.06C206.892 193.732 207.444 193.568 208.132 193.568H211.012V200H209.956V197.444H208.396L206.74 200ZM206.872 195.476C206.872 195.844 207.008 196.12 207.28 196.304C207.56 196.48 207.948 196.568 208.444 196.568H209.956V194.444H208.24C207.752 194.444 207.4 194.54 207.184 194.732C206.976 194.924 206.872 195.172 206.872 195.476Z" fill="black"/>
</svg>
